<svg width="88" height="22" viewBox="0 0 88 22" fill="none" xmlns="http://www.w3.org/2000/svg">
<path fill-rule="evenodd" clip-rule="evenodd" d="M32.8438 5.89467C32.8497 5.68546 32.8933 5.47959 32.9721 5.28883C33.0508 5.09807 33.1632 4.92616 33.3027 4.78293C33.4422 4.63969 33.6062 4.52794 33.7852 4.45407C33.9642 4.38019 34.1548 4.34564 34.346 4.35239C34.5361 4.34565 34.7256 4.38038 34.9033 4.45456C35.081 4.52873 35.2434 4.64087 35.3811 4.78442C35.5188 4.92797 35.6289 5.10008 35.7052 5.29069C35.7814 5.48131 35.8222 5.68662 35.8252 5.89467C35.8192 6.10056 35.7762 6.30314 35.6986 6.49083C35.621 6.67853 35.5104 6.84765 35.373 6.98854C35.2357 7.12942 35.0742 7.23931 34.898 7.31191C34.7218 7.38451 34.5342 7.41841 34.346 7.41166C33.9637 7.42541 33.5917 7.27398 33.3106 6.99011C33.0295 6.70623 32.8618 6.31272 32.8438 5.89467ZM33.1904 19.4971V9.43432H35.4785V19.4971H33.1904ZM28.1169 14.4814L31.7364 19.5001H29.0323L26.8135 16.3397L24.5716 19.5001H21.8906L25.5101 14.4814L21.8906 9.4375H24.5716L26.8135 12.6232L29.0323 9.4375H31.7364L28.1169 14.4814ZM47.0166 19.4952V13.8571C47.0166 10.9242 45.6993 9.17969 43.3418 9.17969C42.3942 9.17969 40.9613 9.7612 40.4759 11.0254V9.43252H38.2109V19.4952H40.4759V14.1605C40.4759 12.2137 41.8164 11.5563 42.8334 11.5563C43.8503 11.5563 44.7285 12.4159 44.7285 14.0341V19.4952H47.0166ZM49.0234 14.4642C49.0234 11.2785 51.3809 9.18003 54.0388 9.18003C54.7572 9.171 55.468 9.34171 56.1169 9.67912C56.7658 10.0165 57.3357 10.5117 57.7829 11.1268L56.1651 12.5174C55.8981 12.198 55.5732 11.9431 55.211 11.769C54.8489 11.5948 54.4575 11.5053 54.0619 11.5061C53.7023 11.4921 53.3438 11.5589 53.0087 11.7023C52.6736 11.8457 52.3689 12.0627 52.1133 12.3398C51.8578 12.617 51.6569 12.9485 51.523 13.3138C51.389 13.6792 51.325 14.0707 51.3346 14.4642C51.325 14.8577 51.389 15.2492 51.523 15.6146C51.6569 15.98 51.8578 16.3115 52.1133 16.5886C52.3689 16.8658 52.6736 17.0828 53.0087 17.2262C53.3438 17.3695 53.7023 17.4363 54.0619 17.4224C54.4584 17.4296 54.8516 17.343 55.2146 17.1684C55.5776 16.9939 55.9019 16.7355 56.1651 16.411L57.7829 17.8269C57.3345 18.4388 56.7639 18.9302 56.1148 19.2633C55.4658 19.5964 54.7556 19.7624 54.0388 19.7484C51.3809 19.7484 49.0234 17.6499 49.0234 14.4642ZM61.5296 15.3488H68.6713C68.6944 14.9696 68.6944 14.6662 68.6944 14.3628C68.6944 11.2276 66.6836 9.17969 64.0257 9.17969C61.3679 9.17969 59.1953 11.3288 59.1953 14.4639C59.1953 17.599 61.2754 19.7481 64.0257 19.7481C65.6898 19.7481 67.3308 18.939 68.1628 17.4726L66.6374 16.2084C66.3444 16.6179 65.9686 16.9475 65.5395 17.1712C65.1104 17.3949 64.6397 17.5068 64.1644 17.4979C62.7777 17.4979 61.7839 16.7394 61.5296 15.3488ZM64.0257 11.4046C65.32 11.4046 66.2907 12.2137 66.4294 13.6043H61.5296C61.807 12.062 62.7315 11.4046 64.0257 11.4046ZM77.2224 9.53468L76.7832 11.9113C76.3704 11.6698 75.9108 11.5397 75.4427 11.5321C73.9404 11.5321 73.1084 13.1755 73.1084 15.9819V19.4963H70.8203V9.43355H73.0853V11.6079C73.5938 9.91393 74.5876 9.18072 75.7432 9.18072C76.2551 9.16711 76.7624 9.28852 77.2224 9.53468ZM80.5449 15.3488H87.6635C87.6674 15.2838 87.6714 15.221 87.6752 15.1601C87.6938 14.8656 87.7097 14.6142 87.7097 14.3628C87.7097 11.2276 85.6527 9.17969 83.0179 9.17969C80.3832 9.17969 78.1875 11.3288 78.1875 14.4639C78.1875 17.599 80.2676 19.7481 83.0179 19.7481C84.682 19.7481 86.323 18.939 87.1781 17.4726L85.6296 16.2084C85.3366 16.6179 84.9608 16.9475 84.5317 17.1712C84.1026 17.3949 83.6319 17.5068 83.1566 17.4979C81.7699 17.4979 80.7992 16.7394 80.5449 15.3488ZM83.041 11.4046C84.3122 11.4046 85.306 12.2137 85.4447 13.6043H80.5449C80.7992 12.062 81.7699 11.4046 83.041 11.4046Z" fill="white"/>
<path fill-rule="evenodd" clip-rule="evenodd" d="M14.6797 1.97568V14.6679L18.5856 15.3505V2.48134C18.5856 2.48134 18.4701 0.104716 16.5749 0.00358323C14.6797 -0.0975498 14.6797 1.97568 14.6797 1.97568ZM0 19.1705V21.3955L3.90595 22.0023V19.6004C3.90595 19.6004 3.74416 17.4766 1.87208 17.4007C0 17.3249 0 19.1705 0 19.1705ZM9.78125 17.5239V8.29554C9.78125 8.29554 9.78125 6.44986 11.6764 6.52571C13.5716 6.60156 13.7103 8.72536 13.7103 8.72536V18.1307L9.78125 17.5239ZM4.89844 14.2643V19.8772L8.80438 20.484V15.579C8.80438 15.579 8.6426 12.5703 6.77052 12.4945C4.89844 12.4186 4.89844 14.2643 4.89844 14.2643Z" fill="white"/>
</svg>
