<svg width="240" height="240" viewBox="0 0 240 240" fill="none" xmlns="http://www.w3.org/2000/svg">
<g clip-path="url(#clip0_7942_22799)">
<g opacity="0.3">
<path d="M71.4793 67.9161C58.9037 64.696 44.3611 64.8027 31.952 68.2332C30.5431 68.6906 29.5873 69.8433 29.5103 71.1728L29.4609 88.5359C29.538 89.9721 30.7373 90.3197 31.8904 90.024C44.2995 86.5934 58.842 86.4898 71.4176 89.7068C72.4381 89.9233 73.6991 89.8349 73.8964 88.176L73.9457 70.813C73.8748 69.4865 72.9098 68.3491 71.4824 67.9161H71.4793Z" fill="#518C3C"/>
<path d="M24.8457 70.667C22.8818 71.4842 21.0074 72.4021 19.2408 73.4175C10.7502 78.2965 6.24283 84.6087 5.71255 91.0123C5.6848 91.4606 5.66631 91.732 5.66014 92.7505C5.60773 99.5414 5.62006 106.335 5.60156 113.126V113.239C5.61698 113.108 5.63856 112.934 5.65089 112.803C6.18117 106.399 10.6885 100.09 19.1791 95.2082C20.9457 94.1928 22.8233 93.2749 24.7871 92.4577C26.3225 91.675 27.1086 84.8496 27.1456 71.9812C27.0038 70.6792 26.2331 70.237 24.8488 70.667H24.8457Z" fill="#518C3C"/>
<path d="M99.0991 90.3542C98.2512 84.1762 93.6976 78.1324 85.4444 73.418C83.3757 72.2349 81.1559 71.1859 78.8283 70.2711C77.518 69.8228 76.553 70.3778 76.479 71.622L76.4297 88.985C76.5068 90.4701 77.6567 91.6014 78.7666 92.0618C81.0943 92.9766 83.311 94.0256 85.3828 95.2088C93.636 99.9231 98.1927 105.967 99.0374 112.145C99.059 112.288 99.096 112.48 99.133 112.624C99.1617 112.39 99.1772 112.005 99.1792 111.468L99.2285 94.1049C99.2316 91.7508 99.17 90.9092 99.1021 90.3542H99.0991Z" fill="#518C3C"/>
</g>
<path opacity="0.3" d="M52.4383 127.922C46.8457 127.922 41.2532 129.139 36.9863 131.575C32.7194 134.011 30.5859 137.204 30.5859 140.397C30.5859 143.59 32.7194 146.785 36.9863 149.222C41.2532 151.658 46.8457 152.875 52.4383 152.875C58.0309 152.875 63.6235 151.655 67.8873 149.222C72.1542 146.785 74.2876 143.593 74.2876 140.397C74.2876 137.201 72.1542 134.011 67.8873 131.575C63.6204 129.139 58.0278 127.919 52.4383 127.922Z" fill="#518C3C"/>
<path d="M52.4353 157.539C44.5181 157.539 37.0664 155.777 31.4585 152.572C25.7919 149.336 22.6719 145.015 22.6719 140.405C22.6719 135.794 25.7919 131.473 31.4585 128.238C37.0664 125.036 44.515 123.273 52.4353 123.273C60.3555 123.273 67.8041 125.036 73.4121 128.238C79.0786 131.473 82.1986 135.794 82.1986 140.405C82.1986 145.015 79.0786 149.336 73.4121 152.572C67.801 155.774 60.3524 157.539 52.4353 157.539ZM52.4414 123.92C44.6291 123.92 37.2946 125.652 31.7853 128.799C26.3314 131.912 23.3255 136.035 23.3255 140.405C23.3255 144.774 26.3283 148.897 31.7853 152.011C37.2977 155.158 44.6322 156.89 52.4353 156.89C60.2384 156.89 67.5728 155.158 73.0853 152.011C78.5391 148.894 81.545 144.774 81.545 140.405C81.545 136.035 78.5422 131.915 73.0853 128.799C67.5728 125.652 60.2414 123.92 52.4414 123.92Z" fill="#518C3C"/>
<path d="M67.8873 98.2547C63.6204 95.8183 58.0278 94.5985 52.4383 94.6016C46.8457 94.6016 41.2532 95.8213 36.9863 98.2547C32.7194 100.691 30.5859 103.884 30.5859 107.077V133.243C30.5859 136.436 32.7194 139.628 36.9863 142.065C41.2532 144.501 46.8457 145.721 52.4383 145.721C58.0309 145.721 63.6235 144.504 67.8873 142.065C72.1542 139.628 74.2876 136.436 74.2876 133.243V107.077C74.2876 103.884 72.1542 100.691 67.8873 98.2547Z" fill="#C7DEEB"/>
<path d="M52.4383 94.6016C46.8457 94.6016 41.2532 95.8213 36.9863 98.2547C32.7194 100.691 30.5859 103.884 30.5859 107.077C30.5859 110.269 32.7194 113.462 36.9863 115.901C41.2532 118.338 46.8457 119.554 52.4383 119.554C58.0309 119.554 63.6235 118.335 67.8873 115.901C72.1542 113.465 74.2876 110.272 74.2876 107.077C74.2876 103.881 72.1542 100.691 67.8873 98.2547C63.6204 95.8183 58.0278 94.5985 52.4383 94.6016Z" fill="white"/>
<path opacity="0.3" d="M72.6063 113.99C67.5193 115.216 52.0396 118.945 33.0297 114.106C32.5087 113.971 30.7853 113.688 30.5571 115.627L30.5078 133.006C30.5756 134.335 31.5437 135.476 32.9681 135.912C45.5282 139.177 60.0708 139.141 72.5447 135.796C73.9598 135.347 74.9247 134.201 75.0018 132.871L75.0511 115.496C74.9833 114.249 74.0245 113.657 72.6063 113.99Z" fill="#518C3C"/>
<path d="M48.9297 121.236V122.566C56.6465 122.737 61.2771 122.523 69.9743 120.751V119.422C62.7077 120.886 58.1756 121.459 48.9297 121.236Z" fill="white"/>
<path d="M48.9219 123.83V125.163C56.6386 125.333 61.2693 125.12 69.9634 123.348V122.016C62.6968 123.479 58.1647 124.053 48.9219 123.83Z" fill="white"/>
<path d="M48.9219 126.424V127.756C56.0344 128.07 63.2486 127.467 69.9665 125.942V124.609C63.2548 126.131 56.0405 126.738 48.9219 126.424Z" fill="white"/>
<path d="M48.9062 129.01V130.342C56.0188 130.656 63.233 130.053 69.9509 128.528V127.195C63.2392 128.72 56.0249 129.324 48.9062 129.01Z" fill="white"/>
<path d="M48.9062 131.602V132.932C53.5986 133.035 55.7413 133.084 61.0656 132.572V131.242C57.0577 131.66 52.9635 131.782 48.9062 131.602Z" fill="white"/>
<path d="M34.6484 131.675C38.2926 132.525 42.0847 133.108 45.9292 133.416L45.9631 121.054C42.1186 120.743 38.3265 120.163 34.6823 119.312L34.6484 131.675Z" fill="white"/>
<path opacity="0.3" d="M99.6006 90.964C99.5698 91.0951 99.5359 91.2689 99.5143 91.4C98.9254 94.6293 97.1311 104.451 79.7676 111.605C79.0061 111.919 77.5386 112.971 77.44 114.703L77.3906 132.082C77.4554 133.326 78.408 133.875 79.7029 133.414C97.1096 125.736 99.5328 117.362 99.5575 109.452L99.6068 92.074C99.6068 91.2933 99.6068 91.2872 99.5976 90.9609L99.6006 90.964Z" fill="#518C3C"/>
<path d="M89.1172 111.336V112.669C92.3019 110.223 97.6417 106.134 99.2202 99.0748V97.7422C98.4156 100.56 96.908 105.805 89.1172 111.336Z" fill="white"/>
<path d="M89.1094 113.93V115.263C92.2941 112.817 97.6339 108.725 99.2155 101.669V100.336C98.4108 103.154 96.9032 108.398 89.1094 113.93Z" fill="white"/>
<path d="M84.1542 113.352C83.8891 114.041 83.5345 114.956 83.2663 115.645L81.25 116.883L82.7113 117.645C82.6065 118.304 82.4678 119.182 82.363 119.841L84.1419 118.005L85.8499 118.032C85.7543 117.477 85.6279 116.736 85.5323 116.181L86.8796 113.961L85.0113 114.739C84.7554 114.324 84.4132 113.766 84.1542 113.352Z" fill="white"/>
<path d="M89.0938 119.102V120.434C94.7665 116.434 98.1331 111.707 99.1968 106.84V105.508C98.3921 108.325 96.8876 113.57 89.0938 119.102Z" fill="white"/>
<path d="M89.0938 121.696V123.028C92.2785 120.583 97.6183 116.493 99.1999 109.434V108.102C98.1393 112.965 94.7696 117.692 89.0938 121.696Z" fill="white"/>
<path d="M84.9878 122.512C84.7319 122.095 84.3897 121.54 84.1308 121.125C83.8656 121.814 83.5111 122.732 83.2429 123.418L81.2266 124.653L82.6879 125.418C82.5831 126.077 82.4444 126.955 82.3395 127.614L84.1153 125.778L85.8233 125.806C85.7278 125.251 85.6014 124.51 85.5058 123.955L86.8531 121.729L84.9848 122.512H84.9878Z" fill="white"/>
<path opacity="0.3" d="M25.6921 111.717C8.88046 104.453 6.92583 97.0556 5.35657 91.1094C5.3278 91.3452 5.31136 91.7304 5.30725 92.2651L5.25792 109.64C5.25484 111.985 5.31958 112.83 5.39049 113.394C5.84061 115.577 6.89808 120.694 12.0868 125.287C15.9282 128.687 26.059 135.34 27.6868 133.13C27.8194 132.95 27.9458 132.712 27.9766 132.178L28.0259 114.803C27.9612 113.519 27.0455 112.309 25.6921 111.717Z" fill="#518C3C"/>
<path d="M6.69531 100.445V101.775C9.35903 107.038 12.701 111.024 21.8915 115.823V114.494H21.8946C14.7913 110.722 10.025 107.212 6.69531 100.445Z" fill="white"/>
<path d="M5.87332 97.4602C5.81782 97.2742 5.79008 97.2041 5.74383 97.1797C5.51261 97.2559 5.74383 100.18 5.99047 100.342C6.22478 100.491 6.1847 98.8416 5.92573 97.6706C5.9134 97.6096 5.89182 97.5243 5.8764 97.4633L5.87332 97.4602Z" fill="#5098F0"/>
<path d="M6.6875 103.906V105.239C9.3543 110.502 12.6963 114.488 21.8837 119.287V117.955C14.7835 114.183 10.0202 110.673 6.6875 103.906Z" fill="white"/>
<path d="M5.8655 100.929C5.80693 100.728 5.77918 100.67 5.73602 100.648C5.50479 100.728 5.73602 103.655 5.98266 103.814C6.21697 103.963 6.17689 102.313 5.91792 101.139C5.9025 101.075 5.884 100.993 5.86859 100.932L5.8655 100.929Z" fill="#5098F0"/>
<path d="M6.67969 107.547V108.879C9.34341 114.143 12.6885 118.128 21.8758 122.928V121.595C20.954 121.144 20.0538 120.665 19.1782 120.165C12.8611 116.558 8.69289 112.173 6.67969 107.547Z" fill="white"/>
<path d="M5.85161 104.562C5.79612 104.376 5.76837 104.306 5.71904 104.281C5.4909 104.361 5.71904 107.288 5.96568 107.446C6.19999 107.596 6.15991 105.946 5.90094 104.772C5.88552 104.708 5.86702 104.626 5.85161 104.565V104.562Z" fill="#5098F0"/>
<path d="M6.66406 111.164V112.494C9.32778 117.757 12.6728 121.742 21.8602 126.542L21.8664 125.212C20.9415 124.761 20.0382 124.282 19.1657 123.782C12.8455 120.175 8.68035 115.79 6.66714 111.164H6.66406Z" fill="white"/>
<path d="M5.84207 108.179C5.78349 107.978 5.75574 107.92 5.71258 107.898C5.48136 107.975 5.71258 110.899 5.95922 111.058C6.19353 111.207 6.15345 109.56 5.89448 108.386C5.88215 108.322 5.86057 108.24 5.84515 108.179H5.84207Z" fill="#5098F0"/>
<path d="M48.2926 17.6096L47.1118 16.6094C47.1118 16.6094 45.114 17.5486 44.408 19.3599C43.702 21.1712 44.6176 24.6475 44.6176 24.6475L48.2956 17.6126L48.2926 17.6096Z" fill="#C7DEEB"/>
<path d="M43.7722 48.206L43.4393 50.2369C43.4393 50.2369 42.536 51.789 42.1352 52.4995C41.7344 53.21 41.7344 54.3596 41.7344 56.0612C41.7344 57.7627 42.6408 60.0528 42.7733 60.129C42.9059 60.2083 44.2902 59.9979 44.2902 59.9979L44.3426 50.0783L44.7156 48.1328L43.7722 48.206Z" fill="#FFCDA8"/>
<path d="M42.7733 60.1297C42.9059 60.209 44.2902 59.9986 44.2902 59.9986L44.2964 58.916C43.5256 58.5135 42.2893 57.7481 42.2153 56.9736C42.1321 56.0771 42.1968 54.406 41.8299 53.5156C41.7375 54.1712 41.7344 55.0129 41.7344 56.0618C41.7344 57.7634 42.6408 60.0535 42.7733 60.1297Z" fill="#D9A782"/>
<path d="M43.7841 48.1328L43.707 48.209L42.9609 50.5784L44.5826 51.7341L45.6 48.7945L43.7841 48.1328Z" fill="#C7DEEB"/>
<path d="M48.5603 99.682C48.5603 99.682 46.5317 101.042 45.3817 101.557C44.2287 102.073 41.6451 104.299 41.0686 104.906C40.4921 105.512 39.7491 107.351 40.9761 107.958C42.2031 108.565 46.0353 108.418 47.4473 107.424C48.8594 106.43 50.5889 104.372 52.152 104.113C53.7151 103.857 57.2667 102.917 57.2667 102.917C57.2667 102.917 57.9357 98.9441 56.1507 97.3828C56.1507 97.3828 55.5556 99.3862 53.49 100.987C51.4275 102.588 50.4409 102.881 50.0309 102.237C49.6209 101.594 50.5889 100.765 48.5603 99.682Z" fill="#001135"/>
<path d="M47.4437 107.429C46.0317 108.423 42.1995 108.569 40.9725 107.962C40.5748 107.764 40.3836 107.438 40.3281 107.063C40.3281 107.066 40.322 108.392 41.3825 108.606C42.366 108.804 44.7122 109.03 47.0183 108.109C49.3243 107.188 49.8639 105.093 52.0004 104.724L52.1114 105.331L56.07 104.724L57.26 102.922C57.26 102.922 53.7084 103.861 52.1453 104.117C50.5822 104.373 48.8526 106.435 47.4406 107.429H47.4437Z" fill="#181818"/>
<path d="M47.3856 98.8867C47.3856 98.8867 45.5143 104.699 50.3762 103.558C55.2381 102.418 56.4219 97.67 56.4219 97.67L54.3502 56.214L48.4832 50.7404C48.4832 50.7404 45.8811 49.6731 44.3766 47.3281C44.3766 47.3281 43.6151 51.5667 43.3901 54.1343C43.1619 56.7019 42.8536 62.7426 43.575 66.3866C44.2965 70.0306 45.8935 75.2938 46.3713 78.3645C46.84 81.362 47.6015 88.5585 47.7649 90.9614C47.9283 93.3674 47.734 97.2126 47.3856 98.8837V98.8867Z" fill="#96CE70"/>
<path d="M60.9278 100.859C60.9278 100.859 61.8958 102.662 61.7664 104.723C61.7664 104.723 60.7798 106.028 60.3913 106.525C59.9998 107.022 59.1273 108.788 58.9207 109.632C58.7172 110.48 57.3206 112.502 55.6867 113.145C54.0496 113.789 50.2914 114.359 49.7734 112.484C49.7734 112.484 50.239 110.407 51.1485 108.897C52.058 107.388 54.3671 104.851 54.9067 103.601C54.9067 103.601 56.2262 103.213 57.5642 103.933C58.9022 104.65 58.3812 105.607 58.9022 105.571C59.4233 105.534 60.0368 103.787 60.4468 103.052C60.8569 102.317 60.9309 100.862 60.9309 100.862L60.9278 100.859Z" fill="#001135"/>
<path d="M58.9129 109.633C58.7094 110.481 57.3128 112.502 55.6788 113.146C54.0418 113.789 50.2836 114.359 49.7656 112.484C49.7656 112.484 49.7656 113.475 50.4716 113.762C51.1776 114.048 53.0768 114.466 55.1208 113.762C57.1679 113.054 57.9109 112.045 58.3395 111.344C58.768 110.645 59.4555 108.715 59.4555 108.715L59.9766 108.496L61.6691 106.141L61.7616 104.727C61.7616 104.727 60.7751 106.032 60.3866 106.529C59.9951 107.026 59.1226 108.791 58.916 109.636L58.9129 109.633Z" fill="#181818"/>
<path d="M60.154 11.8702L51.2904 16.3162C51.2904 16.3162 51.3829 19.5333 51.1609 20.4786C50.9389 21.4239 52.5637 24.1683 54.8297 23.7262C57.0926 23.284 61.0173 16.6608 61.0173 16.7553C61.0173 16.8498 59.3895 15.3038 60.1571 11.8672L60.154 11.8702Z" fill="#D9A782"/>
<path d="M61.5179 102.427C61.5179 102.427 62.2547 96.1637 62.5661 93.779C62.896 91.245 62.97 88.1133 62.7912 85.2896C62.6093 82.408 62.1098 79.4775 62.1838 77.1295C62.2578 74.7815 64.2772 63.4379 64.6472 60.4648C65.0171 57.4916 64.8568 53.6738 63.4479 49.3438C63.4479 49.3438 56.804 52.9389 48.4922 50.7373C48.4922 50.7373 49.0101 55.2534 49.6052 57.2355C50.2002 59.2176 51.7941 63.5111 51.9051 64.8345C52.0161 66.1549 52.312 75.5896 52.6481 77.6083C52.981 79.627 54.1341 89.6838 54.3561 93.0228C54.5781 96.3619 52.9687 105.961 53.1845 106.138C57.883 110.017 61.3607 103.711 61.5179 102.43V102.427Z" fill="#518C3C"/>
<path d="M51.5119 16.0293L51.2375 15.3828C51.2375 15.3828 47.7845 16.2214 47.1093 16.6087C46.4342 16.9959 45.1547 22.3567 45.0006 22.8355C44.8495 23.3142 43.2648 26.6441 43.4159 29.1141C43.567 31.5841 44.0017 35.6885 43.9585 36.2709C43.9153 36.8503 44.0017 41.5341 43.9369 42.9978C43.8722 44.4585 42.047 48.4348 44.7847 49.8955C47.5225 51.3561 50.8028 53.1614 54.6041 53.2894C58.4055 53.4175 64.6208 51.3561 64.032 49.7857C63.4462 48.2183 61.7074 44.1627 62.5121 42.1013C63.3167 40.04 63.8162 38.6129 63.8162 38.6129C63.8162 38.6129 67.6823 25.8269 67.7254 25.6348C67.7686 25.4427 67.5589 23.0946 67.5589 23.0946L61.2881 16.7642C61.2881 16.7642 54.8384 20.7405 52.9301 19.9416C51.0217 19.1457 51.515 16.0293 51.515 16.0293H51.5119Z" fill="#E6F6FF"/>
<path d="M59.882 31.5996C60.2458 33.7768 60.511 41.1045 59.9745 42.992C59.546 44.5045 61.1122 49.2402 60.6528 52.2712C62.7647 51.5638 64.337 50.6032 64.0287 49.7768C63.4429 48.2095 61.7041 44.1538 62.5088 42.0924C63.3134 40.0311 63.8129 38.604 63.8129 38.604C63.8129 38.604 67.679 25.818 67.7221 25.6259C67.7376 25.5619 67.7221 25.2722 67.7006 24.9062L61.4266 28.2605C61.4266 28.2605 59.5183 29.4224 59.882 31.5996Z" fill="#C7DEEB"/>
<path d="M65.0136 58.3906C65.0136 58.3906 65.3435 60.1166 64.8903 60.5831C64.4371 61.0497 62.5873 62.3091 62.0447 63.0531C61.5052 63.7941 59.4796 67.0905 60.0901 67.4533C60.7005 67.8162 61.61 66.9166 62.1495 65.953C62.6921 64.9864 63.7558 64.7973 64.0702 65.2456C64.3847 65.6938 64.5419 66.7642 64.3323 67.1972C64.1226 67.6271 63.3211 68.7158 63.3211 68.7158C63.3211 68.7158 61.5052 69.4751 61.4188 69.8562C61.3325 70.2374 61.3849 70.5972 61.6994 70.5972C62.0139 70.5972 63.654 70.1673 63.654 70.1673C63.654 70.1673 64.4309 70.0819 65.1339 69.8044C65.8368 69.5269 66.7463 68.3895 67.2704 67.5783C67.7914 66.7672 68.3155 65.7487 68.3864 64.3338C68.4543 62.9189 68.3525 61.6229 68.4543 60.8301C68.5591 60.0373 68.7687 58.3967 68.7687 58.3967H65.0167L65.0136 58.3906Z" fill="#FFCDA8"/>
<path d="M63.165 69.0602C63.0355 69.0419 62.8721 69.0205 62.6871 69.0022C62.1537 69.2584 61.4724 69.6243 61.42 69.853C61.3337 70.2342 61.3861 70.594 61.7005 70.594C62.015 70.594 63.6552 70.164 63.6552 70.164C63.6552 70.164 64.4321 70.0786 65.135 69.8011C65.8379 69.5237 66.7474 68.3862 67.2715 67.5751C67.4997 67.2214 67.7247 66.828 67.9128 66.3828C67.4966 66.5078 67.0342 66.6908 66.7104 66.9378C65.9952 67.4897 65.4187 68.6119 65.0888 69.0602C64.7558 69.5084 63.8155 69.1455 63.1681 69.0602H63.165Z" fill="#D9A782"/>
<path d="M64.8203 60.4002L68.6863 61.3455L69.1827 57.8631C69.1827 57.8631 69.5403 57.607 69.6791 56.6251C69.8178 55.6401 70.0984 46.9098 70.1569 45.3943C70.2155 43.8788 70.4159 40.0244 70.5947 38.1185C70.7735 36.2096 70.2155 33.1633 70.1569 32.3766C70.0984 31.5898 69.2875 25.7686 68.0944 23.7804C66.9013 21.7953 64.7278 21.9752 63.5531 22.21C62.3785 22.4448 59.4774 26.101 60.7291 29.8364C61.9808 33.5719 63.4946 39.9268 63.5531 41.9119C63.6148 43.9001 63.5716 45.0772 63.5531 46.2969C63.5346 47.5166 64.0896 55.0303 64.2098 55.7377C64.3301 56.4452 64.8172 57.5064 64.8172 57.5064V60.3971L64.8203 60.4002Z" fill="#E6F6FF"/>
<path d="M67.2284 57.9064H68.4616L66.8708 57.3148V54.1099L66.1741 56.9215C66.1741 56.9215 64.8052 54.7961 64.8144 52.3779C64.8237 49.9598 65.7363 47.4593 65.7363 46.3219C65.7363 45.1845 65.4588 44.7484 64.9593 43.6659C64.6356 42.9645 64.0375 42.6078 63.5504 42.1016C63.6028 43.9769 63.5658 45.1204 63.5473 46.3036C63.5288 47.5233 64.0838 55.037 64.204 55.7444C64.3242 56.4519 64.8114 57.513 64.8114 57.513V60.4038L67.025 60.9436L67.2254 57.9064H67.2284Z" fill="#C7DEEB"/>
<path d="M46.9397 48.6808C46.9397 48.6808 46.2399 30.5889 50.6023 23.2339L50.7349 20.5199L52.9208 19.9375L53.6761 22.3252L51.5057 23.9474C47.9756 32.9857 50.0197 49.87 50.0197 49.87L48.5521 51.5197L46.9397 48.6838V48.6808Z" fill="#B61678"/>
<path d="M61.727 16.9025L60.4105 14.7344C58.0983 18.479 52.9219 19.9427 52.9219 19.9427L53.372 23.5867C53.372 23.5867 58.2185 21.9827 61.73 16.9025H61.727Z" fill="#FDFDFD"/>
<path d="M49.5997 22.2805L52.9232 19.9386C52.9232 19.9386 52.248 18.048 52.248 15.6237L51.1443 15.3828C51.1443 15.3828 49.1958 18.8743 49.6028 22.2805H49.5997Z" fill="#FDFDFD"/>
<path d="M59.3103 1.61965C57.368 0.32672 54.2942 0.47004 52.1269 1.91849C49.9595 3.36693 49.3861 5.11727 49.1949 5.904C49.0038 6.69074 48.7664 7.37074 48.5752 7.96842C48.3841 8.56609 49.013 9.31624 49.013 9.31624C48.3317 10.1609 48.8619 12.1674 49.0038 12.6553C48.9267 12.8443 48.8774 13.0029 48.8897 13.1096C48.9174 13.4085 49.0778 13.5457 49.272 13.6097C49.42 14.2593 49.5495 15.0277 49.5495 15.357C49.5495 15.8388 49.4847 17.4519 51.3962 17.4824C53.3076 17.5129 56.0639 16.3969 57.7996 15.0246C59.5353 13.6524 61.3512 10.8806 61.8784 8.10869C62.4056 5.33682 61.2556 2.90953 59.3133 1.61965H59.3103Z" fill="#FFCDA8"/>
<path d="M50.0859 13.707C50.0582 13.6063 49.6204 13.7192 49.2812 13.6094C49.4292 14.2589 49.5587 15.0273 49.5587 15.3567C49.5587 15.7256 49.5217 16.7563 50.3603 17.232C50.5237 14.8901 50.0859 13.707 50.0859 13.707Z" fill="#D9A782"/>
<path d="M50.1114 10.382C50.3427 9.54646 48.6562 8.71094 48.6562 8.71094C48.795 9.04942 49.017 9.31471 49.017 9.31471C48.3356 10.1594 48.8659 12.1659 49.0077 12.6538C49.2759 12.0164 49.9295 11.0254 50.1114 10.382Z" fill="#D9A782"/>
<path d="M55.492 5.64369e-05C51.444 0.0153032 48.8296 3.29642 48.4042 4.47042C47.9787 5.64442 48.6817 6.51959 51.367 7.02883C54.0553 7.53808 56.4046 6.78184 56.4046 6.78184C56.9873 7.26059 57.2956 8.43154 57.1075 9.11155C56.9195 9.79156 57.4806 10.0508 57.5546 10.8344C57.6286 11.6181 57.5515 12.2158 56.901 13.4721C56.2535 14.7315 54.0831 15.7348 53.596 15.811C53.1089 15.8872 52.9239 15.4786 52.5724 15.0151C52.221 14.5516 50.9693 13.7984 50.0289 13.6764C49.8131 13.649 49.3445 13.713 49.2705 13.8868C49.1965 14.0576 49.3723 15.2164 49.3723 15.2164C49.3723 15.2164 49.1379 16.1922 49.3877 16.8874C49.6374 17.5827 50.4174 18.0187 52.0144 17.9273C53.6083 17.8388 56.2135 16.5916 57.6471 15.4268C58.2698 14.9206 58.5658 12.3042 58.6398 11.4931C58.7138 10.6789 59.7065 9.75191 60.1011 9.77631C60.4958 9.80375 61.1 10.5447 61.1 10.5447C61.1 10.5447 62.0033 8.6328 62.1359 5.84873C62.2716 3.06162 59.54 -0.0151904 55.492 5.64369e-05ZM51.925 15.7836C51.8387 16.3599 51.3115 16.4422 51.0648 16.3538C50.5993 16.183 50.8583 15.747 50.3681 15.564C49.9179 15.3932 49.9179 15.933 49.7761 15.8781C49.6312 15.8232 49.4894 14.8261 49.6127 14.6888C49.733 14.5516 50.0536 14.6034 50.2848 14.6675C50.997 14.8626 52.0082 15.2072 51.925 15.7866V15.7836Z" fill="#1B3300"/>
<path d="M58.5859 13.155C58.8202 13.3014 59.3598 13.5148 60.4142 12.3987C61.4686 11.2827 61.4501 10.2306 60.929 9.87997C60.4049 9.52929 59.9024 9.74275 59.6311 10.1483C59.3598 10.5539 58.5859 13.158 58.5859 13.158V13.155Z" fill="#FFCDA8"/>
<path d="M56.4141 6.7855C56.673 6.99895 56.8765 7.34658 57.006 7.72775C57.8322 6.71536 59.4262 5.50781 59.4262 5.50781C58.5444 6.0567 56.4141 6.7855 56.4141 6.7855Z" fill="#3B5419"/>
<g opacity="0.3">
<path d="M140.698 107.104C128.122 103.883 113.58 103.99 101.171 107.421C99.7649 107.878 98.8061 109.031 98.729 110.36L98.6797 127.723C98.7568 129.16 99.9561 129.504 101.109 129.211C113.518 125.781 128.061 125.677 140.636 128.894C141.657 129.111 142.918 129.022 143.115 127.364L143.164 110C143.097 108.674 142.129 107.537 140.701 107.104H140.698Z" fill="#518C3C"/>
<path d="M94.0675 109.854C92.1037 110.675 90.2292 111.59 88.4626 112.605C79.972 117.484 75.4647 123.793 74.9344 130.2C74.9066 130.648 74.8881 130.919 74.882 131.938C74.8296 138.729 74.8419 145.523 74.8203 152.314V152.427C74.8357 152.295 74.8573 152.122 74.8696 151.991C75.3999 145.587 79.9073 139.278 88.3979 134.396C90.1645 133.38 92.042 132.462 94.0059 131.645C95.5412 130.863 96.3274 124.037 96.3644 111.169C96.2226 109.867 95.4518 109.425 94.0675 109.854Z" fill="#518C3C"/>
<path d="M168.318 129.542C167.47 123.364 162.916 117.32 154.663 112.606C152.591 111.422 150.375 110.373 148.047 109.459C146.737 109.01 145.772 109.565 145.698 110.809L145.648 128.173C145.722 129.658 146.875 130.789 147.985 131.249C150.313 132.164 152.53 133.213 154.602 134.396C162.855 139.111 167.411 145.154 168.256 151.332C168.278 151.476 168.315 151.668 168.352 151.811C168.378 151.577 168.394 151.192 168.398 150.655L168.447 133.292C168.45 130.938 168.389 130.097 168.321 129.542H168.318Z" fill="#518C3C"/>
</g>
<path opacity="0.3" d="M121.657 167.109C116.064 167.109 110.472 168.329 106.205 170.763C101.938 173.199 99.8047 176.392 99.8047 179.584C99.8047 182.777 101.938 185.97 106.205 188.409C110.472 190.846 116.064 192.062 121.657 192.062C127.25 192.062 132.839 190.843 137.106 188.409C141.373 185.973 143.506 182.78 143.506 179.584C143.506 176.389 141.373 173.199 137.106 170.763C132.839 168.326 127.247 167.106 121.657 167.109Z" fill="#518C3C"/>
<path d="M121.654 196.727C113.737 196.727 106.285 194.964 100.677 191.762C95.0106 188.527 91.8906 184.206 91.8906 179.595C91.8906 174.985 95.0106 170.664 100.677 167.428C106.285 164.227 113.734 162.461 121.654 162.461C129.574 162.461 137.023 164.223 142.631 167.428C148.297 170.664 151.417 174.985 151.417 179.595C151.417 184.206 148.297 188.527 142.631 191.762C137.02 194.964 129.571 196.727 121.654 196.727ZM121.66 163.107C113.848 163.107 106.513 164.839 101.004 167.986C95.5502 171.1 92.5442 175.223 92.5442 179.592C92.5442 183.962 95.5471 188.082 101.004 191.198C106.516 194.345 113.851 196.077 121.654 196.077C129.457 196.077 136.792 194.345 142.304 191.198C147.758 188.082 150.764 183.962 150.764 179.592C150.764 175.223 147.761 171.103 142.304 167.986C136.792 164.839 129.46 163.107 121.66 163.107Z" fill="#518C3C"/>
<path d="M137.106 137.442C132.839 135.006 127.247 133.786 121.657 133.789C116.064 133.789 110.472 135.006 106.205 137.442C101.938 139.879 99.8047 143.071 99.8047 146.264V172.431C99.8047 175.623 101.938 178.816 106.205 181.252C110.472 183.689 116.064 184.909 121.657 184.909C127.25 184.909 132.839 183.692 137.106 181.252C141.373 178.816 143.506 175.623 143.506 172.431V146.264C143.506 143.071 141.373 139.879 137.106 137.442Z" fill="#C7DEEB"/>
<path d="M121.657 133.789C116.064 133.789 110.472 135.006 106.205 137.442C101.938 139.879 99.8047 143.071 99.8047 146.264C99.8047 149.457 101.938 152.649 106.205 155.089C110.472 157.525 116.064 158.742 121.657 158.742C127.25 158.742 132.839 157.522 137.106 155.089C141.373 152.652 143.506 149.46 143.506 146.264C143.506 143.068 141.373 139.879 137.106 137.442C132.839 135.006 127.247 133.786 121.657 133.789Z" fill="white"/>
<path opacity="0.3" d="M141.825 153.174C136.738 154.4 121.258 158.129 102.248 153.29C101.727 153.156 100.004 152.872 99.7759 154.815L99.7266 172.19C99.7975 173.52 100.762 174.66 102.187 175.099C114.747 178.365 129.29 178.328 141.763 174.983C143.178 174.535 144.143 173.388 144.221 172.059L144.27 154.684C144.202 153.436 143.243 152.845 141.825 153.177V153.174Z" fill="#518C3C"/>
<path d="M118.156 160.424V161.753C125.873 161.924 130.504 161.711 139.201 159.939V158.609C131.934 160.073 127.402 160.646 118.156 160.424Z" fill="white"/>
<path d="M118.148 163.017V164.35C125.865 164.521 130.496 164.307 139.193 162.536V161.203C131.926 162.667 127.394 163.24 118.148 163.017Z" fill="white"/>
<path d="M118.141 165.611V166.944C125.253 167.258 132.467 166.654 139.185 165.129V163.797C132.474 165.319 125.259 165.925 118.141 165.611Z" fill="white"/>
<path d="M118.133 168.197V169.53C125.245 169.844 132.46 169.24 139.177 167.715V166.383C132.466 167.904 125.251 168.511 118.133 168.197Z" fill="white"/>
<path d="M118.125 170.79V172.119C122.814 172.223 124.957 172.272 130.284 171.759V170.43C126.276 170.847 122.182 170.969 118.125 170.79Z" fill="white"/>
<path d="M103.867 170.862C107.511 171.713 111.303 172.295 115.148 172.603L115.182 160.241C111.337 159.93 107.545 159.351 103.901 158.5L103.867 170.862Z" fill="white"/>
<path opacity="0.3" d="M168.819 130.147C168.789 130.278 168.755 130.452 168.733 130.583C168.144 133.809 166.35 143.634 148.986 150.788C148.225 151.102 146.757 152.154 146.659 153.886L146.609 171.261C146.674 172.505 147.627 173.054 148.925 172.594C166.331 164.916 168.755 156.542 168.779 148.632L168.829 131.254C168.829 130.473 168.829 130.467 168.819 130.141V130.147Z" fill="#518C3C"/>
<path d="M158.336 150.524V151.856C161.521 149.411 166.86 145.322 168.442 138.262V136.93C167.637 139.747 166.13 144.992 158.336 150.524Z" fill="white"/>
<path d="M158.328 153.11V154.442C161.513 151.997 166.853 147.904 168.434 140.848V139.516C167.63 142.333 166.122 147.578 158.328 153.11Z" fill="white"/>
<path d="M153.373 152.542C153.108 153.231 152.753 154.149 152.485 154.835L150.469 156.073L151.93 156.836C151.825 157.494 151.687 158.372 151.582 159.031L153.361 157.195L155.069 157.223C154.973 156.668 154.847 155.927 154.751 155.372L156.098 153.149L154.23 153.927C153.974 153.512 153.632 152.957 153.373 152.539V152.542Z" fill="white"/>
<path d="M158.32 158.289V159.622C163.993 155.621 167.36 150.895 168.423 146.028V144.695C167.619 147.513 166.111 152.758 158.32 158.289Z" fill="white"/>
<path d="M158.312 160.883V162.216C161.497 159.77 166.837 155.681 168.419 148.622V147.289C167.358 152.153 163.988 156.879 158.312 160.883Z" fill="white"/>
<path d="M154.207 161.7C153.951 161.282 153.608 160.727 153.35 160.312C153.084 161.002 152.73 161.92 152.462 162.606L150.445 163.841L151.907 164.606C151.802 165.265 151.663 166.143 151.558 166.802L153.337 164.966L155.045 164.993C154.95 164.438 154.823 163.697 154.728 163.142L156.075 160.916L154.207 161.7Z" fill="white"/>
<path opacity="0.3" d="M94.9109 150.904C78.1023 143.641 76.1446 136.243 74.5753 130.297C74.5465 130.533 74.5301 130.918 74.526 131.453L74.4767 148.828C74.4736 151.176 74.5383 152.017 74.6092 152.582C75.0594 154.765 76.1168 159.882 81.3055 164.474C85.147 167.874 95.2777 174.528 96.9056 172.317C97.0381 172.137 97.1645 171.899 97.1954 171.366L97.2447 153.99C97.18 152.707 96.2643 151.496 94.9109 150.904Z" fill="#518C3C"/>
<path d="M75.9141 139.633V140.962C78.5778 146.226 81.9198 150.211 91.1102 155.011V153.681H91.1133C84.01 149.909 79.2437 146.399 75.9141 139.633Z" fill="white"/>
<path d="M75.0921 136.648C75.0366 136.462 75.0088 136.392 74.9626 136.367C74.7314 136.443 74.9626 139.368 75.2092 139.529C75.4435 139.679 75.4035 138.032 75.1445 136.858C75.1291 136.797 75.1106 136.712 75.0921 136.651V136.648Z" fill="#5098F0"/>
<path d="M75.9062 143.094V144.426C78.57 149.69 81.915 153.675 91.1024 158.475V157.142C84.0022 153.37 79.2359 149.86 75.9062 143.094Z" fill="white"/>
<path d="M75.0764 140.116C75.0179 139.915 74.9901 139.857 74.947 139.836C74.7157 139.912 74.947 142.843 75.1936 143.001C75.4279 143.151 75.3878 141.501 75.1289 140.327C75.1134 140.263 75.0949 140.181 75.0795 140.12L75.0764 140.116Z" fill="#5098F0"/>
<path d="M75.8984 146.734V148.067C78.5652 153.33 81.9072 157.316 91.0946 162.115V160.783C90.1728 160.328 89.2725 159.853 88.397 159.353C82.0768 155.745 77.9116 151.36 75.8984 146.734Z" fill="white"/>
<path d="M75.0673 143.749C75.0118 143.563 74.984 143.493 74.9378 143.469C74.7096 143.545 74.9378 146.475 75.1844 146.634C75.4187 146.783 75.3787 145.134 75.1197 143.957C75.1074 143.893 75.0858 143.81 75.0704 143.749H75.0673Z" fill="#5098F0"/>
<path d="M75.8828 150.352V151.681C78.5465 156.944 81.8916 160.93 91.079 165.729L91.0851 164.4C90.1602 163.949 89.2569 163.47 88.3813 162.97C82.0612 159.362 77.896 154.977 75.8828 150.352Z" fill="white"/>
<path d="M75.0608 147.366C75.0022 147.165 74.9745 147.107 74.9313 147.086C74.7001 147.162 74.9313 150.087 75.178 150.245C75.4123 150.394 75.3722 148.748 75.1132 147.574C75.0978 147.51 75.0793 147.427 75.0639 147.366H75.0608Z" fill="#5098F0"/>
<g opacity="0.3">
<path d="M211.87 147.893C199.294 144.673 184.752 144.779 172.343 148.21C170.937 148.667 169.978 149.82 169.901 151.149L169.852 168.512C169.929 169.949 171.128 170.293 172.281 170.001C184.69 166.57 199.233 166.466 211.808 169.683C212.829 169.903 214.09 169.811 214.287 168.153L214.336 150.793C214.265 149.466 213.297 148.329 211.87 147.896V147.893Z" fill="#518C3C"/>
<path d="M165.239 150.644C163.276 151.461 161.401 152.379 159.635 153.394C151.144 158.273 146.637 164.585 146.106 170.989C146.079 171.437 146.06 171.709 146.054 172.727C146.001 179.518 146.014 186.309 145.992 193.103V193.216C146.008 193.085 146.029 192.911 146.042 192.78C146.572 186.376 151.079 180.067 159.57 175.185C161.336 174.169 163.214 173.252 165.178 172.434C166.713 171.652 167.499 164.826 167.536 151.958C167.394 150.656 166.624 150.214 165.239 150.644Z" fill="#518C3C"/>
<path d="M239.493 170.331C238.645 164.153 234.091 158.109 225.835 153.395C223.763 152.211 221.547 151.162 219.219 150.248C217.909 149.799 216.944 150.354 216.87 151.599L216.82 168.962C216.894 170.447 218.047 171.578 219.157 172.038C221.485 172.953 223.702 174.002 225.773 175.185C234.027 179.9 238.583 185.943 239.428 192.121C239.45 192.265 239.487 192.457 239.524 192.6C239.55 192.366 239.566 191.981 239.57 191.445L239.619 174.081C239.622 171.727 239.561 170.886 239.493 170.331Z" fill="#518C3C"/>
</g>
<path opacity="0.3" d="M192.829 207.906C187.236 207.906 181.644 209.126 177.377 211.559C173.11 213.996 170.977 217.189 170.977 220.381C170.977 223.574 173.11 226.767 177.377 229.206C181.644 231.642 187.236 232.859 192.829 232.859C198.422 232.859 204.011 231.639 208.278 229.206C212.545 226.77 214.678 223.577 214.678 220.381C214.678 217.185 212.545 213.996 208.278 211.559C204.011 209.123 198.418 207.903 192.829 207.906Z" fill="#518C3C"/>
<path d="M192.826 237.516C184.909 237.516 177.457 235.753 171.849 232.548C166.183 229.313 163.062 224.992 163.062 220.381C163.062 215.771 166.183 211.45 171.849 208.214C177.457 205.013 184.906 203.25 192.826 203.25C200.746 203.25 208.192 205.013 213.803 208.214C219.469 211.45 222.589 215.771 222.589 220.381C222.589 224.992 219.469 229.313 213.803 232.548C208.192 235.75 200.743 237.516 192.826 237.516ZM192.832 203.896C185.02 203.896 177.685 205.629 172.176 208.775C166.722 211.889 163.716 216.012 163.716 220.381C163.716 224.751 166.719 228.874 172.176 231.987C177.688 235.134 185.023 236.866 192.826 236.866C200.629 236.866 207.963 235.134 213.476 231.987C218.93 228.871 221.936 224.748 221.936 220.381C221.936 216.015 218.933 211.892 213.476 208.775C207.963 205.629 200.632 203.896 192.832 203.896Z" fill="#518C3C"/>
<path d="M208.278 178.231C204.011 175.795 198.418 174.575 192.829 174.578C187.236 174.578 181.644 175.798 177.377 178.231C173.11 180.668 170.977 183.86 170.977 187.053V213.22C170.977 216.412 173.11 219.605 177.377 222.041C181.644 224.478 187.236 225.698 192.829 225.698C198.422 225.698 204.011 224.481 208.278 222.041C212.545 219.605 214.678 216.412 214.678 213.22V187.053C214.678 183.86 212.545 180.668 208.278 178.231Z" fill="#C7DEEB"/>
<path d="M192.829 174.578C187.236 174.578 181.644 175.798 177.377 178.231C173.11 180.668 170.977 183.86 170.977 187.053C170.977 190.246 173.11 193.438 177.377 195.878C181.644 198.314 187.236 199.534 192.829 199.534C198.422 199.534 204.011 198.314 208.278 195.878C212.545 193.441 214.678 190.249 214.678 187.053C214.678 183.857 212.545 180.668 208.278 178.231C204.011 175.795 198.418 174.575 192.829 174.578Z" fill="white"/>
<path opacity="0.3" d="M212.997 193.963C207.91 195.189 192.43 198.918 173.42 194.079C172.899 193.945 171.176 193.664 170.948 195.604L170.898 212.982C170.969 214.312 171.934 215.452 173.359 215.891C185.919 219.157 200.461 219.12 212.935 215.775C214.35 215.327 215.315 214.181 215.392 212.851L215.442 195.473C215.374 194.225 214.415 193.634 212.997 193.966V193.963Z" fill="#518C3C"/>
<path d="M189.328 201.213V202.542C197.045 202.713 201.676 202.5 210.373 200.728V199.398C203.106 200.862 198.574 201.435 189.328 201.213Z" fill="white"/>
<path d="M189.319 203.807L189.312 205.139C197.032 205.31 201.663 205.096 210.36 203.325V201.992C203.094 203.456 198.562 204.029 189.319 203.807Z" fill="white"/>
<path d="M189.312 206.4V207.733C196.425 208.047 203.639 207.443 210.357 205.919V204.586C203.645 206.108 196.431 206.714 189.312 206.4Z" fill="white"/>
<path d="M189.305 208.986V210.319C196.417 210.633 203.631 210.029 210.349 208.504V207.172C203.638 208.694 196.423 209.3 189.305 208.986Z" fill="white"/>
<path d="M189.297 211.579V212.908C193.986 213.012 196.132 213.061 201.456 212.548V211.219C197.448 211.637 193.357 211.759 189.297 211.579Z" fill="white"/>
<path d="M175.039 211.651C178.683 212.502 182.475 213.084 186.32 213.392L186.354 201.03C182.509 200.719 178.717 200.14 175.073 199.289L175.039 211.651Z" fill="white"/>
<path opacity="0.3" d="M239.991 170.933C239.96 171.064 239.927 171.238 239.905 171.369C239.316 174.598 237.522 184.42 220.158 191.574C219.397 191.888 217.929 192.94 217.831 194.672L217.781 212.05C217.846 213.294 218.799 213.843 220.097 213.383C237.503 205.705 239.927 197.331 239.951 189.421L240.001 172.043C240.001 171.262 240 171.256 239.991 170.93V170.933Z" fill="#518C3C"/>
<path d="M229.508 191.313V192.645C232.693 190.2 238.029 186.111 239.611 179.051V177.719C238.806 180.536 237.299 185.781 229.508 191.313Z" fill="white"/>
<path d="M229.5 193.907V195.239C232.685 192.794 238.025 188.701 239.606 181.645V180.312C238.801 183.13 237.294 188.375 229.5 193.907Z" fill="white"/>
<path d="M224.545 193.331C224.28 194.02 223.925 194.935 223.657 195.624L221.641 196.862L223.102 197.625C222.997 198.283 222.858 199.162 222.754 199.82L224.532 197.985L226.24 198.012C226.145 197.457 226.019 196.716 225.923 196.161L227.27 193.938L225.402 194.716C225.146 194.301 224.804 193.743 224.545 193.328V193.331Z" fill="white"/>
<path d="M229.492 199.086V200.419C235.165 196.418 238.532 191.692 239.595 186.825V185.492C238.791 188.31 237.283 193.555 229.492 199.086Z" fill="white"/>
<path d="M229.484 201.672V203.005C232.669 200.559 238.009 196.47 239.59 189.411V188.078C238.53 192.942 235.16 197.668 229.484 201.672Z" fill="white"/>
<path d="M225.378 202.489C225.123 202.071 224.78 201.516 224.521 201.102C224.256 201.791 223.902 202.709 223.633 203.395L221.617 204.63L223.079 205.395C222.974 206.054 222.835 206.932 222.73 207.591L224.509 205.755L226.217 205.782C226.121 205.227 225.995 204.486 225.899 203.931L227.247 201.705L225.378 202.489Z" fill="white"/>
<path opacity="0.3" d="M166.083 191.694C149.274 184.43 147.316 177.032 145.747 171.086C145.718 171.322 145.702 171.707 145.698 172.242L145.649 189.617C145.645 191.962 145.71 192.807 145.781 193.371C146.231 195.554 147.289 200.671 152.477 205.263C156.319 208.663 166.45 215.317 168.077 213.106C168.21 212.926 168.336 212.688 168.367 212.155L168.417 194.779C168.352 193.496 167.436 192.285 166.083 191.694Z" fill="#518C3C"/>
<path d="M147.086 180.422V181.751C149.753 187.015 153.092 191 162.282 195.8V194.47H162.285C155.182 190.698 150.416 187.188 147.086 180.422Z" fill="white"/>
<path d="M146.264 177.437C146.212 177.251 146.181 177.181 146.134 177.156C145.903 177.232 146.134 180.157 146.381 180.318C146.615 180.468 146.572 178.818 146.316 177.647C146.301 177.586 146.282 177.501 146.264 177.44V177.437Z" fill="#5098F0"/>
<path d="M147.078 183.883V185.215C149.742 190.479 153.087 194.464 162.274 199.264V197.931C155.174 194.159 150.408 190.649 147.078 183.883Z" fill="white"/>
<path d="M146.256 180.906C146.198 180.704 146.17 180.646 146.127 180.625C145.895 180.704 146.127 183.632 146.373 183.79C146.608 183.94 146.568 182.29 146.309 181.116C146.293 181.052 146.275 180.97 146.259 180.909L146.256 180.906Z" fill="#5098F0"/>
<path d="M147.07 187.516V188.848C149.734 194.111 153.079 198.097 162.266 202.897V201.564C161.345 201.11 160.444 200.634 159.569 200.134C153.249 196.526 149.084 192.142 147.07 187.516Z" fill="white"/>
<path d="M146.247 184.538C146.191 184.352 146.164 184.282 146.117 184.258C145.889 184.337 146.117 187.264 146.364 187.423C146.598 187.572 146.558 185.923 146.299 184.746C146.287 184.682 146.265 184.599 146.25 184.538H146.247Z" fill="#5098F0"/>
<path d="M147.055 191.141V192.47C149.718 197.733 153.063 201.719 162.251 206.519L162.257 205.189C161.332 204.738 160.429 204.259 159.553 203.759C153.233 200.151 149.068 195.767 147.055 191.141Z" fill="white"/>
<path d="M146.233 188.156C146.174 187.954 146.146 187.896 146.103 187.875C145.872 187.951 146.103 190.876 146.35 191.034C146.584 191.184 146.544 189.537 146.285 188.363C146.27 188.299 146.251 188.217 146.236 188.156H146.233Z" fill="#5098F0"/>
<path d="M199.987 88.5156L191.126 92.9646C191.126 92.9646 191.219 96.1817 190.997 97.127C190.775 98.0723 192.4 100.817 194.666 100.375C196.929 99.9324 200.853 93.3092 200.853 93.4038C200.853 93.4983 199.225 91.9523 199.993 88.5156H199.987Z" fill="#D9A782"/>
<path d="M191.34 92.6669L191.066 92.0234C191.066 92.0234 187.613 92.862 186.937 93.2493C186.265 93.6365 184.983 98.9973 184.829 99.4761C184.678 99.9548 183.09 103.285 183.244 105.755C183.395 108.225 183.83 112.329 183.787 112.909C183.743 113.488 183.83 118.172 183.765 119.635C183.7 121.096 181.875 125.072 184.613 126.533C187.351 127.994 190.631 129.799 194.432 129.927C198.234 130.055 204.446 127.994 203.86 126.423C203.274 124.856 201.536 120.8 202.337 118.739C203.142 116.678 203.641 115.25 203.641 115.25C203.641 115.25 207.507 102.464 207.55 102.272C207.594 102.08 207.384 99.7322 207.384 99.7322L201.11 93.4017C201.11 93.4017 194.657 97.3781 192.752 96.5792C190.844 95.7833 191.337 92.6669 191.337 92.6669H191.34Z" fill="#E6F6FF"/>
<path d="M186.776 125.329C186.776 125.329 186.076 107.237 190.438 99.8823L190.568 97.1684L192.754 96.5859L193.509 98.9736L191.339 100.596C187.808 109.634 189.856 126.518 189.856 126.518L188.388 128.165L186.776 125.329Z" fill="#B61678"/>
<path d="M201.566 93.5431L200.246 91.375C197.934 95.1196 192.758 96.5833 192.758 96.5833L193.208 100.227C193.208 100.227 198.054 98.6233 201.566 93.5431Z" fill="#FDFDFD"/>
<path d="M189.428 98.9241L192.751 96.5822C192.751 96.5822 192.076 94.6916 192.076 92.2643L190.972 92.0234C190.972 92.0234 189.024 95.5119 189.431 98.9211L189.428 98.9241Z" fill="#FDFDFD"/>
<path d="M183.605 124.85L183.272 126.881C183.272 126.881 182.369 128.433 181.968 129.143C181.57 129.854 181.57 131.003 181.57 132.705C181.57 134.406 182.474 136.693 182.606 136.773C182.739 136.852 184.123 136.642 184.123 136.642L184.175 126.722L184.549 124.773L183.605 124.847V124.85Z" fill="#FFCDA8"/>
<path d="M182.606 136.778C182.739 136.857 184.123 136.647 184.123 136.647L184.129 135.564C183.362 135.162 182.122 134.397 182.048 133.622C181.965 132.726 182.03 131.054 181.663 130.164C181.57 130.82 181.57 131.661 181.57 132.71C181.57 134.412 182.474 136.699 182.606 136.778Z" fill="#D9A782"/>
<path d="M182.456 127.547L182.234 128.471L183.566 128.861L183.668 127.547H182.456Z" fill="#E6F6FF"/>
<path d="M188.392 176.334C188.392 176.334 186.366 177.694 185.21 178.209C184.057 178.724 181.473 180.95 180.897 181.557C180.32 182.164 179.577 184.003 180.804 184.609C182.031 185.216 185.863 185.07 187.275 184.076C188.687 183.082 190.417 181.023 191.98 180.764C193.543 180.508 197.095 179.569 197.095 179.569C197.095 179.569 197.764 175.596 195.979 174.031C195.979 174.031 195.384 176.038 193.318 177.636C191.256 179.237 190.269 179.529 189.859 178.886C189.449 178.242 190.417 177.413 188.388 176.33L188.392 176.334Z" fill="#001135"/>
<path d="M187.272 184.077C185.86 185.071 182.028 185.218 180.801 184.611C180.4 184.413 180.212 184.086 180.156 183.711C180.156 183.714 180.15 185.041 181.211 185.254C182.191 185.453 184.54 185.678 186.846 184.757C189.152 183.836 189.692 181.741 191.829 181.372L191.94 181.979L195.901 181.372L197.091 179.57C197.091 179.57 193.54 180.51 191.977 180.766C190.413 181.022 188.684 183.083 187.272 184.077Z" fill="#181818"/>
<path d="M187.214 175.527C187.214 175.527 185.342 181.339 190.204 180.199C195.069 179.059 196.25 174.311 196.25 174.311L194.181 132.855L188.314 127.381C188.314 127.381 185.712 126.314 184.208 123.969C184.208 123.969 183.446 128.207 183.218 130.775C182.99 133.342 182.682 139.383 183.403 143.027C184.125 146.671 185.722 151.934 186.199 155.005C186.665 158.003 187.426 165.199 187.593 167.602C187.756 170.008 187.562 173.853 187.214 175.524V175.527Z" fill="#333333"/>
<path d="M200.754 177.508C200.754 177.508 201.719 179.31 201.59 181.371C201.59 181.371 200.606 182.676 200.215 183.174C199.823 183.671 198.951 185.436 198.744 186.281C198.541 187.126 197.144 189.15 195.507 189.794C193.87 190.437 190.115 191.007 189.594 189.132C189.594 189.132 190.056 187.052 190.969 185.546C191.881 184.037 194.187 181.499 194.727 180.249C194.727 180.249 196.046 179.862 197.388 180.582C198.726 181.298 198.205 182.256 198.726 182.219C199.247 182.182 199.86 180.435 200.27 179.7C200.68 178.965 200.754 177.511 200.754 177.511V177.508Z" fill="#001135"/>
<path d="M198.744 186.277C198.541 187.121 197.144 189.146 195.507 189.79C193.87 190.433 190.115 191.003 189.594 189.128C189.594 189.128 189.594 190.116 190.3 190.405C191.006 190.692 192.902 191.113 194.949 190.405C196.993 189.698 197.736 188.689 198.165 187.987C198.593 187.289 199.281 185.359 199.281 185.359L199.802 185.136L201.491 182.782L201.584 181.367C201.584 181.367 200.6 182.672 200.209 183.169C199.817 183.666 198.945 185.432 198.738 186.277H198.744Z" fill="#181818"/>
<path d="M201.346 179.075C201.346 179.075 202.138 172.385 202.45 170.001C202.78 167.467 203.017 164.765 202.841 161.938C202.659 159.056 201.941 156.126 202.015 153.778C202.089 151.427 204.105 140.086 204.478 137.113C204.848 134.14 204.688 130.322 203.276 125.992C203.276 125.992 196.635 129.59 188.32 127.386C188.32 127.386 188.838 131.902 189.433 133.884C190.025 135.866 191.622 140.16 191.733 141.483C191.844 142.803 192.14 152.238 192.476 154.257C192.812 156.275 193.962 166.332 194.184 169.671C194.406 173.01 192.797 182.61 193.013 182.787C197.711 186.665 201.189 180.359 201.346 179.079V179.075Z" fill="#333333"/>
<path d="M183.042 122.281L182.234 127.746L184.238 128.261L183.042 122.281Z" fill="#28425B"/>
<path d="M186.592 93.25C186.592 93.25 184.205 94.0855 183.758 96.7873C183.311 99.4859 183.962 102.697 183.962 102.697L186.592 93.25Z" fill="#518C3C"/>
<path d="M189.795 112.374L187.812 118.137C187.812 118.137 188.642 135.094 188.716 135.893C188.793 136.692 188.925 140.635 193.146 140.916C197.219 141.187 201.822 140.964 204.945 138.763C204.945 138.763 204.905 128.41 204.202 125.724C203.499 123.037 203.499 118.375 203.616 116.259C203.733 114.142 206.832 98.1972 206.832 98.1972L201.566 93.5469L196.531 98.926L189.795 112.374Z" fill="#518C3C"/>
<path d="M188.712 135.895C188.635 135.096 187.809 118.139 187.809 118.139C186.896 116.031 186.77 104.27 187.377 100.861C187.984 97.4517 190.898 92.1641 190.898 92.1641C189.48 92.2403 186.591 93.2527 186.591 93.2527C186.591 93.2527 185.401 95.9727 184.488 98.9275C183.576 101.882 182.891 105.874 183.107 108.631C183.32 111.387 183.144 120.935 182.953 124.195C182.762 127.451 182.703 134.633 182.703 134.633C182.703 134.633 183.665 137.993 186.841 138.664C188.089 138.929 188.561 136.856 188.712 135.901C188.712 135.901 188.712 135.895 188.712 135.892V135.895Z" fill="#96CE70"/>
<path d="M200.527 91.375C200.527 91.375 201.162 92.4362 197.53 96.5833C193.834 100.804 189.277 112.108 187.812 118.136C187.812 118.136 193.624 106.171 199.67 101.288L197.364 98.9252L199.765 99.7912L202.488 94.3603L200.53 91.375H200.527Z" fill="#96CE70"/>
<path d="M192.097 92.0229L190.284 91.8125C188.471 93.3921 186.769 96.8317 186.769 96.8317L188.119 97.463L186.042 98.7071C184.275 106.465 187.808 118.132 187.808 118.132C187.808 118.132 184.975 100.421 192.093 92.0229H192.097Z" fill="#518C3C"/>
<path d="M205.74 105.961L201.569 106.101C201.569 106.101 199.917 106.87 200.25 109.492C200.583 112.115 201.733 121.869 201.569 125.992C201.424 129.621 201.017 136.997 199.766 140.715C201.68 140.4 203.478 139.803 204.945 138.766C204.945 138.766 204.905 128.413 204.202 125.727C203.499 123.04 203.499 118.378 203.616 116.262C203.681 115.097 204.769 110.163 205.737 105.961H205.74Z" fill="#96CE70"/>
<path d="M194.727 128.164V132.009L195.334 128.92L200.899 128.661L194.727 128.164Z" fill="#333333"/>
<path d="M204.842 135.039C204.842 135.039 205.175 136.765 204.719 137.232C204.265 137.698 202.416 138.957 201.873 139.698C201.33 140.439 199.308 143.736 199.918 144.099C200.529 144.462 201.438 143.565 201.978 142.598C202.52 141.632 203.584 141.443 203.898 141.891C204.213 142.339 204.37 143.41 204.161 143.843C203.951 144.273 203.149 145.361 203.149 145.361C203.149 145.361 201.333 146.12 201.247 146.502C201.161 146.883 201.213 147.246 201.528 147.246C201.842 147.246 203.482 146.813 203.482 146.813C203.482 146.813 204.256 146.727 204.959 146.45C205.662 146.172 206.568 145.035 207.092 144.224C207.617 143.413 208.141 142.394 208.209 140.979C208.279 139.564 208.175 138.268 208.279 137.475C208.384 136.683 208.594 135.042 208.594 135.042H204.842V135.039Z" fill="#FFCDA8"/>
<path d="M202.99 145.709C202.861 145.69 202.697 145.669 202.515 145.651C201.982 145.907 201.301 146.273 201.248 146.501C201.162 146.883 201.214 147.245 201.529 147.245C201.843 147.245 203.483 146.812 203.483 146.812C203.483 146.812 204.257 146.727 204.96 146.45C205.663 146.172 206.569 145.035 207.093 144.224C207.322 143.873 207.547 143.476 207.735 143.031C207.319 143.156 206.856 143.336 206.532 143.586C205.817 144.138 205.241 145.26 204.911 145.709C204.578 146.157 203.637 145.794 202.99 145.709Z" fill="#D9A782"/>
<path d="M203.648 127.773C203.803 129.92 203.972 132.024 204.034 132.381C204.154 133.088 204.641 134.15 204.641 134.15V137.04L208.507 137.986L209.007 134.503C209.007 134.503 209.364 134.247 209.503 133.265C209.574 132.768 209.679 130.295 209.774 127.773H203.652H203.648Z" fill="#E6F6FF"/>
<path d="M204.044 136.557L209.313 137.588C209.313 137.588 210.185 131.56 210.231 128.48C210.274 125.4 210.829 115.38 210.57 112.342C210.315 109.305 209.67 103.35 209.158 101.56C208.647 99.77 207.309 98.5685 206.831 98.1995C204.941 96.748 201.55 99.7913 200.569 103.164C199.589 106.54 202.105 112.446 202.425 114.596C202.746 116.749 203.236 121.619 203.279 123.878C203.322 126.135 204.047 136.557 204.047 136.557H204.044Z" fill="#518C3C"/>
<path d="M199.197 78.4589C197.28 77.1843 194.243 77.3246 192.103 78.7547C189.964 80.1849 189.4 81.9138 189.212 82.6914C189.024 83.469 188.786 84.1368 188.598 84.7284C188.41 85.32 189.03 86.061 189.03 86.061C188.361 86.8965 188.882 88.8755 189.02 89.3573C188.943 89.5433 188.897 89.6989 188.906 89.8086C188.934 90.1014 189.091 90.2386 189.286 90.3026C189.43 90.9461 189.56 91.7023 189.56 92.0286C189.56 92.5043 189.495 94.096 191.382 94.1265C193.269 94.157 195.991 93.0532 197.705 91.6992C199.419 90.3453 201.214 87.6101 201.732 84.8717C202.25 82.1334 201.118 79.7396 199.201 78.462L199.197 78.4589Z" fill="#FFCDA8"/>
<path d="M189.017 89.355C189.282 88.7238 189.927 87.748 190.105 87.1106C190.337 86.2873 188.672 85.4609 188.672 85.4609C188.811 85.7964 189.026 86.0586 189.026 86.0586C188.357 86.8941 188.878 88.8732 189.017 89.355Z" fill="#D9A782"/>
<path d="M199.427 77.5875C196.464 75.5413 192.989 76.3677 191.183 77.5875C190.547 78.0144 189.835 78.67 189.068 80.0392C188.436 81.1674 188.423 83.4666 191.099 83.674C192.545 83.7868 194.463 83.5093 195.918 83.2288C197.487 84.2351 196.865 85.8878 197.074 86.4398C197.284 86.9917 197.515 87.7022 197.867 87.9004C198.082 88.0224 198.492 87.6717 198.597 87.5528C198.853 87.2631 200.635 85.22 200.749 87.7418C201.199 86.827 201.548 85.8482 201.733 84.8693C201.81 84.4607 201.85 84.0613 201.856 83.6709C202.355 82.6799 202.281 79.5543 199.427 77.5844V77.5875Z" fill="#1B3300"/>
<path d="M197.069 86.4407C197.279 86.9926 197.51 87.7031 197.862 87.9013C198.077 88.0233 198.487 87.6726 198.592 87.5537C198.848 87.264 200.63 85.221 200.744 87.7428C201.194 86.828 201.543 85.8491 201.728 84.8703C201.805 84.4617 201.845 84.0622 201.851 83.6719C200.177 84.5257 198.108 84.8306 196.992 84.9404C197.072 85.5747 196.958 86.1541 197.069 86.4407Z" fill="#3B5419"/>
<path d="M190.353 93.8768C190.513 91.5654 190.081 90.3945 190.081 90.3945C190.054 90.2938 189.622 90.4067 189.289 90.2969C189.434 90.9403 189.563 91.6965 189.563 92.0228C189.563 92.3887 189.526 93.4042 190.356 93.8768H190.353Z" fill="#D9A782"/>
<path d="M198.477 89.8472C198.708 89.9935 199.241 90.2039 200.283 89.1001C201.325 87.9962 201.307 86.9594 200.792 86.6118C200.274 86.2672 199.778 86.4746 199.509 86.8771C199.241 87.2765 198.477 89.8472 198.477 89.8472Z" fill="#FFCDA8"/>
<path d="M113.145 88.5421C113.145 88.5421 112.266 90.4175 111.964 92.9088C111.662 95.4001 113.435 96.6168 113.435 96.6168L113.145 88.5391V88.5421Z" fill="#D9A782"/>
<path d="M117.97 139.331C117.97 139.331 116.666 141.536 117.97 141.963C119.274 142.387 120.961 140.621 121.935 138.66C122.909 136.7 124.562 134.312 124.315 132.531C124.315 132.531 126.248 133.12 126.412 134.608C126.578 136.096 125.388 137.581 124.463 138.188C123.538 138.792 122.135 140.621 121.654 141.817C121.173 143.009 121.124 144.463 118.201 144.79C115.276 145.116 112.22 144.546 112.103 143.908C111.986 143.271 117.967 139.331 117.967 139.331H117.97Z" fill="#001135"/>
<path d="M114.484 105.222C114.876 107.165 115.804 112.462 115.983 113.38C116.161 114.297 117.142 115.657 117.358 117.176C117.57 118.695 118.286 123.601 118.662 126.727C119.035 129.852 119.284 132.411 119.09 134.265C118.893 136.119 118.233 138.942 117.983 139.342C117.983 139.342 116.679 141.546 117.983 141.973C119.288 142.397 120.974 140.632 121.948 138.671C122.922 136.71 124.575 134.323 124.328 132.542C123.373 132.197 123.394 130.148 123.588 128.614C123.786 127.077 124.751 123.388 124.751 121.835C124.751 120.283 123.588 101.71 123.181 97.2088C122.771 92.7079 114.114 85.5938 114.114 85.5938C114.114 85.5938 112.597 90.6069 112.829 94.6138C113.06 98.6206 114.096 103.283 114.49 105.226L114.484 105.222Z" fill="#928585"/>
<path d="M122.534 143.959C122.534 143.959 122.318 144.938 123.838 145.02C125.358 145.103 127.242 144.972 127.738 142.666C128.235 140.364 128.614 137.65 128.599 136.62C128.583 135.589 128.204 134.97 128.204 134.97L128.139 134.445C128.139 134.445 129.841 135.016 129.792 136.62C129.742 138.22 128.802 140.657 128.602 142.06C128.404 143.465 128.602 146.783 126.983 147.911C125.365 149.04 121.945 149.857 121.449 149.707C120.956 149.561 120.607 146.405 122.54 143.956L122.534 143.959Z" fill="#001135"/>
<path d="M129.043 115.81C128.812 114.663 130.008 109.119 130.649 106.805C131.291 104.493 134.309 94.0769 133.649 91.1281C132.989 88.1794 126.725 89.5912 124.53 91.7807C122.335 93.9701 121.995 97.5531 121.925 100.642C121.854 103.731 122.159 109.485 122.353 112.419C122.55 115.349 122.782 116.163 123.3 117.432C123.818 118.703 124.335 121.899 124.53 124.369C124.727 126.842 124.459 133.392 124.28 134.981C124.101 136.57 123.851 139.43 123.673 140.79C123.494 142.15 122.698 143.8 122.538 143.958C122.538 143.958 122.322 144.937 123.842 145.019C125.362 145.102 127.246 144.971 127.742 142.665C128.239 140.363 128.618 137.649 128.602 136.618C128.587 135.588 128.208 134.969 128.208 134.969L128.143 134.444C127.847 134.152 128.602 131.749 129.336 129.471C130.067 127.193 131.069 123.945 130.819 121.103C130.569 118.261 129.284 116.956 129.052 115.807L129.043 115.81Z" fill="#9F9292"/>
<path d="M115.253 111.635C115.253 111.635 119.477 113.666 121.918 114.093C124.36 114.52 128.386 114.401 129.348 113.672C129.348 113.672 131.241 104.499 132.135 101.849C133.026 99.1996 132.493 88.9903 131.479 87.2247C130.464 85.4591 113.44 87.0722 113.44 87.0722C113.44 87.0722 112.327 90.9327 112.564 94.7963C112.802 98.6598 115.253 111.638 115.253 111.638V111.635Z" fill="#96CE70"/>
<path d="M130.472 47.5234C130.472 47.5234 133.095 48.5816 133.178 52.6708C133.228 55.1285 131.951 58.5225 133.672 60.7577C135.395 62.9929 129.177 59.9923 128.024 56.9155C126.874 53.8387 130.173 48.4992 130.468 47.5265L130.472 47.5234Z" fill="#3B5419"/>
<path d="M118.334 56.0938C118.334 56.0938 115.149 56.7677 115.96 62.967C115.96 62.967 117.274 62.1925 117.687 60.0366C118.103 57.8807 118.334 56.0938 118.334 56.0938Z" fill="#C7DEEB"/>
<path d="M129.468 52.2218L121.853 55.3748C121.853 55.3748 122.427 56.4086 122.201 57.6314C121.973 58.8542 118.308 63.5044 121.286 64.3491C124.264 65.1938 130.791 58.1132 130.877 57.424C130.877 57.424 128.768 54.9235 129.465 52.2188L129.468 52.2218Z" fill="#D9A782"/>
<path d="M131.569 72.2389C132.435 70.4032 136.132 64.1276 135.361 62.8713C134.707 61.807 131.939 58.6266 131.119 57.6904L128.624 59.456L124.475 60.7977L121.441 63.8105L122.178 59.5383L121.601 55.4766C121.293 55.504 120.929 55.5406 120.544 55.5863L119.65 55.7114C118.842 55.8394 118.969 55.8486 118.336 56.0956C118.336 56.0956 116.641 60.9563 116.311 62.2492C115.984 63.5421 112.362 66.9757 112.571 69.3725C112.781 71.7693 114.276 73.0409 114.276 73.0409C114.276 73.0409 115.257 76.4379 115.105 80.0087C115.028 81.8474 113.166 87.6565 113.166 87.6565C113.166 87.6565 114.31 90.9101 120.017 91.8859C128.119 93.2734 131.593 90.4954 133.388 88.6902C133.388 88.6902 130.009 83.0672 129.679 80.6429C129.349 78.2157 130.696 74.0746 131.563 72.2389H131.569Z" fill="#E6F6FF"/>
<path d="M133.289 68.9187L130.878 68.3516C130.878 68.3516 129.022 68.9553 128.899 70.1964C128.776 71.4345 128.255 76.8196 122.508 75.8804C122.508 75.8804 124.74 77.271 126.115 79.1768C126.926 80.302 128.054 87.1112 128.501 91.67C130.94 90.9382 132.41 89.6727 133.385 88.6939C133.385 88.6939 130.006 83.0708 129.676 80.6466C129.346 78.2193 130.693 74.0783 131.56 72.2425C131.877 71.5747 132.568 70.3123 133.283 68.9187H133.289Z" fill="#C7DEEB"/>
<path d="M132.057 95.6202C132.057 95.6202 131.983 97.4255 131.829 97.8371C131.678 98.2518 130.309 99.7552 130.004 100.28C129.701 100.807 129.415 101.615 128.921 102.347C128.428 103.079 127.744 104.488 128.16 104.604C128.576 104.716 129.319 103.985 129.738 103.363C130.158 102.741 130.861 101.99 131.163 102.253C131.465 102.515 131.258 103.963 131.2 104.28C131.141 104.601 130.611 105.576 130.232 105.82C129.852 106.064 129.131 106.778 129.396 106.854C129.661 106.93 131.144 106.891 131.733 106.628C132.322 106.366 133.518 105.125 133.9 104.168C134.28 103.21 134.585 101.554 134.585 100.655C134.585 99.7552 134.585 97.4407 134.909 95.8428L132.057 95.6172V95.6202Z" fill="#FFCDA8"/>
<path d="M133.897 104.168C134.021 103.854 134.138 103.466 134.237 103.055C133.706 103.326 133.154 103.643 133.04 103.829C132.812 104.204 132.205 105.238 131.958 105.503C131.758 105.717 131.141 105.595 130.429 105.644C130.361 105.72 130.293 105.781 130.229 105.824C129.849 106.067 129.128 106.781 129.393 106.857C129.658 106.933 131.141 106.894 131.73 106.632C132.319 106.369 133.515 105.128 133.897 104.171V104.168Z" fill="#D9A782"/>
<path d="M131.57 97.6992C131.57 97.6992 134.172 98.1566 135.152 98.117C135.152 98.117 136.345 90.6857 136.191 87.121C136.037 83.5563 135.689 78.5828 135.865 75.878C136.037 73.1732 136.635 67.227 136.481 65.5315C136.327 63.8361 135.461 61.6436 132.396 62.4059C129.335 63.1683 129.64 66.0468 130.161 68.6937C130.682 71.3436 130.969 79.4214 130.932 80.8515C130.895 82.2817 131.255 88.0175 131.468 90.7223C131.681 93.4271 131.653 97.0192 131.567 97.6962L131.57 97.6992Z" fill="#E6F6FF"/>
<path d="M129.833 55.125C129.833 55.125 128.578 58.2323 124.469 60.7999L127.472 65.8801C127.472 65.8801 130.468 60.8852 131.455 57.4273L129.833 55.125Z" fill="#FDFDFD"/>
<path d="M122.173 56.2881V59.5417L117.688 61.533L121.461 55.4922L122.176 56.2881H122.173Z" fill="#FDFDFD"/>
<path d="M119.417 49.2047C119.417 49.2047 118.912 50.3757 119.035 51.0649C119.158 51.754 119.488 53.5806 119.645 54.3734C119.803 55.1663 119.784 56.5629 120.919 56.8891C122.05 57.2154 124.785 56.3037 125.953 55.648C127.122 54.9924 129.317 53.0286 130.343 51.0283C131.37 49.0279 131.842 46.5305 131.265 44.4782C130.692 42.4291 127.31 40.5659 124.766 41.496C122.223 42.426 121.039 43.5116 120.203 44.9783C119.365 46.442 119.124 48.235 119.245 48.4241C119.365 48.6132 119.42 49.1987 119.42 49.1987L119.417 49.2047Z" fill="#FFCDA8"/>
<path d="M121.289 56.9542C120.259 55.7649 120.219 53.4657 120.219 53.4657C120.219 53.4657 119.837 53.24 119.575 53.0876C119.312 52.9321 120.392 51.3311 120.549 50.4865C120.706 49.6418 119.895 49.0807 119.451 48.6416C119.386 48.5776 119.328 48.5288 119.272 48.4922C119.374 48.7209 119.417 49.2088 119.417 49.2088C119.417 49.2088 118.912 50.3797 119.035 51.0689C119.158 51.7581 119.488 53.5846 119.645 54.3775C119.803 55.1703 119.784 56.5669 120.919 56.8932C121.027 56.9237 121.156 56.942 121.292 56.9511L121.289 56.9542Z" fill="#D9A782"/>
<path d="M130.668 50.6567C130.668 50.6567 132.906 47.9061 131.698 44.4299C130.489 40.9536 126.278 40.42 123.676 41.4567C121.071 42.4966 119.779 44.3109 119.665 45.302C119.551 46.293 119.779 46.5888 119.779 46.5888C120.016 46.726 120.232 46.8846 120.365 47.0493C120.787 47.5829 121.043 47.9976 121.326 48.0556C121.61 48.1165 123.167 47.8177 124.317 48.6319C125.47 49.4461 125.39 49.7175 125.754 50.0773C126.262 50.5804 127.499 51.7056 128.627 50.989C129.755 50.2724 130.668 50.6536 130.668 50.6536V50.6567Z" fill="#1B3300"/>
<path d="M128.624 50.9958C129.752 50.2792 130.665 50.6603 130.665 50.6603C130.665 50.6603 130.881 50.3889 131.22 49.7821C131.241 49.7455 131.263 49.6998 131.266 49.6967C130.018 50.6024 129.17 50.2151 127.998 50.081C126.457 49.9041 126.41 48.233 123.879 47.8458C122.492 47.6354 121.789 47.8397 121.438 48.0684H121.444C121.909 48.0714 123.278 47.9037 124.32 48.6386C125.473 49.4528 125.393 49.7242 125.757 50.084C126.265 50.5871 127.502 51.7124 128.63 50.9958H128.624Z" fill="#3B5419"/>
<path d="M121.438 46.8717C121.438 46.8717 121.922 45.0299 122.452 44.8256C122.452 44.8256 120.806 45.7404 121.148 47.57C121.148 47.57 120.714 46.2679 119.641 46.0301C119.668 46.4478 119.779 46.5881 119.779 46.5881C120.017 46.7253 120.233 46.8839 120.365 47.0486C120.788 47.5822 121.043 47.9969 121.327 48.0548C121.352 48.0609 121.392 48.064 121.438 48.064C121.438 48.064 120.806 46.7131 124.626 44.2188C124.626 44.2188 122.243 45.1244 121.438 46.8717Z" fill="#3B5419"/>
<path d="M128.839 50.914C129.024 50.5359 129.798 49.6577 130.322 49.7766C130.843 49.8955 130.895 51.1031 130.513 51.6733C130.131 52.2435 128.7 53.3627 128.3 53.1553C127.899 52.9479 128.543 51.5178 128.839 50.914Z" fill="#FFCDA8"/>
<path d="M31.3453 138.068C31.3453 138.068 29.9271 138.711 30.0905 139.034C30.2509 139.357 30.8274 139.986 30.8027 140.05C30.7811 140.114 30.5407 140.727 30.5314 140.757C30.5222 140.788 30.4019 141.553 30.4019 141.553C30.4019 141.553 29.2951 141.498 29.255 141.635C29.2119 141.776 29.3321 142.105 29.3321 142.105L29.1718 142.791C29.1718 142.791 28.5398 142.953 27.8492 142.718C27.1555 142.483 24.8494 141.913 24.8494 141.913L22.1765 141.998L20.9062 138.58H24.0602C24.0602 138.58 25.2286 136.912 25.7034 136.299C26.1813 135.689 27.4916 135.259 27.9448 135.076C28.401 134.893 29.44 135.311 29.8223 135.579C30.2015 135.845 30.2971 136.36 29.81 136.369C29.3229 136.381 28.4812 136.134 28.4812 136.134C28.4812 136.134 27.3559 136.689 27.5964 136.991C27.8399 137.29 30.6671 137.427 30.6671 137.427L31.3484 138.061L31.3453 138.068Z" fill="#F2A983"/>
<path d="M30.4042 141.549C30.4042 141.549 30.5214 140.786 30.5337 140.753C30.543 140.722 30.7803 140.109 30.805 140.045C30.8297 139.981 30.2531 139.35 30.0928 139.03C29.9294 138.707 31.3476 138.063 31.3476 138.063L30.6663 137.429C30.6663 137.429 27.8422 137.292 27.5956 136.993C27.3551 136.694 28.4804 136.136 28.4804 136.136C28.4804 136.136 29.3221 136.383 29.8092 136.371C30.0435 136.365 30.1422 136.243 30.1391 136.09C29.951 136.127 29.7075 136.142 29.4177 136.09C28.6716 135.962 28.055 135.758 28.055 135.758C28.055 135.758 27.2965 136.38 27.1671 136.721C27.0376 137.063 26.9297 138.081 26.4857 138.832C26.0418 139.582 25.4221 139.859 25.4221 139.859C25.4221 139.859 27.3798 140.073 27.3736 140.811C27.3613 141.549 27.2195 142 26.5597 141.85C25.8969 141.701 24.3523 140.683 24.3523 140.683L21.7656 140.884L22.1787 141.988L24.8517 141.902C24.8517 141.902 27.1578 142.469 27.8515 142.707C28.5452 142.942 29.1741 142.78 29.1741 142.78L29.3344 142.094C29.3344 142.094 29.2142 141.762 29.2573 141.625C29.3005 141.488 30.4042 141.542 30.4042 141.542V141.549Z" fill="#D9A782"/>
<path d="M23.2989 138.403L23.5024 142.343L20.8294 142.511L20.3516 138.336L23.2989 138.403Z" fill="#102942"/>
<path d="M29.4671 145.607C29.4795 145.564 29.4456 144.924 29.2822 144.863C29.1188 144.802 26.7788 144.119 26.2392 143.988C25.6966 143.86 24.3 143.634 24.2353 144.107C24.1705 144.576 26.1961 144.93 26.1961 144.93L26.2392 145.604C26.2392 145.604 25.0831 145.25 24.744 145.177C24.4079 145.101 23.5077 145.058 23.4553 145.357C23.4029 145.659 24.3 145.915 24.8981 146.107C25.4931 146.302 26.4612 146.577 26.4612 146.577V146.79C26.4612 146.79 25.1355 146.568 24.6484 146.449C24.1582 146.33 23.3597 146.077 23.2857 146.266C23.2117 146.455 22.8202 146.757 24.226 147.242C25.635 147.726 26.7048 147.943 26.7294 148.053C26.751 148.162 26.825 148.388 26.751 148.431C26.677 148.473 26.5352 148.525 25.7644 148.297C24.9937 148.068 24.0318 147.705 23.89 147.726C23.7512 147.748 23.372 147.915 23.7512 148.251C24.1304 148.583 26.2423 149.535 26.7294 149.492C27.2165 149.449 29.4702 145.604 29.4702 145.604L29.4671 145.607Z" fill="#D9A782"/>
<path d="M25.0955 150.045L25.5364 150.652L13.6206 145.416L13.1797 144.812L25.0955 150.045Z" fill="#AEC5D2"/>
<path d="M32.0983 133.771L25.5346 150.649L25.0938 150.042L31.6544 133.164L32.0983 133.771Z" fill="#AEC5D2"/>
<path d="M31.6562 133.164L25.0955 150.042L13.1797 144.809L20.0764 128.797L31.6562 133.164Z" fill="#C7DEEB"/>
<path d="M16.9831 212.237C19.0888 213.649 20.7228 217.988 21.1359 219.101C21.5552 220.224 22.6281 220.4 23.0166 220.233C23.405 220.065 22.3691 219.592 22.3691 219.592C22.1287 219.571 21.9498 215.811 22.1286 214.646C22.3075 213.487 21.8913 211.576 21.7094 209.804C21.5305 208.032 21.5706 201.141 21.5706 201.141H15.3984C15.3984 201.141 15.9565 203.287 16.3326 205.727C16.7118 208.169 16.9769 212.237 16.9769 212.237H16.9831Z" fill="#B3815C"/>
<path opacity="0.5" d="M16.9824 212.235C17.9412 212.881 18.8076 214.135 19.4982 215.412C19.6616 213.241 19.7109 210.357 19.7109 210.357L16.6094 207.914C16.8344 210.046 16.9793 212.235 16.9793 212.235H16.9824Z" fill="#B0795B"/>
<path d="M9.15599 212.466C9.04808 213.234 8.76753 213.68 8.64113 213.847C10.9688 214.414 11.8875 217.577 12.1403 218.571C12.3993 219.574 12.8371 220.461 13.2564 220.4C13.6757 220.342 13.3396 219.873 13.1177 219.675C12.8957 219.476 12.9388 219.007 12.9388 219.007H12.9728C12.7878 218.482 13.0683 216.034 13.2749 215.463C13.4938 214.854 13.5154 212.548 13.5154 211.88C13.5154 211.213 14.3879 208.63 14.7486 207.273C15.1062 205.913 16.1205 200.891 16.1205 200.891L7.87654 200.32C7.87654 200.32 7.75938 202.604 8.35441 204.733C8.95251 206.858 9.28856 211.469 9.1529 212.472L9.15599 212.466Z" fill="#B3815C"/>
<path d="M8.54967 213.828C8.54967 213.828 7.37504 214.398 6.49638 215.225C5.62081 216.054 5.56223 216.603 5.93836 217.707C6.31449 218.811 6.81393 220.128 6.6752 221.272C6.53338 222.415 6.11409 224.562 6.11409 224.562L6.34223 224.791C6.34223 224.791 6.91259 224.699 6.85093 224.684C6.79235 224.663 7.72651 221.198 8.24445 220.647C8.7624 220.095 9.75821 219.826 10.6338 220.887C11.5094 221.946 13.1218 223.656 14.0189 223.58C14.9161 223.501 16.0475 221.897 16.4668 220.887C16.8861 219.881 16.8861 219.424 16.0722 219.229C15.2552 219.033 12.9245 219.012 12.9245 219.012C12.9245 219.012 12.8813 219.485 13.1033 219.68C13.3222 219.878 13.6613 220.351 13.242 220.406C12.8227 220.467 12.3849 219.579 12.126 218.576C11.867 217.573 10.9328 214.343 8.5435 213.831L8.54967 213.828Z" fill="#001135"/>
<path d="M10.6429 220.88C9.84129 219.911 8.94105 220.054 8.39844 220.505C8.9318 221.097 9.97694 222.179 10.9388 222.746C12.3108 223.555 13.3066 223.512 13.7228 223.542C13.7259 223.542 13.7259 223.542 13.729 223.542C12.8071 223.311 11.429 221.835 10.6398 220.883L10.6429 220.88Z" fill="#00001C"/>
<path d="M16.0825 219.217C15.2655 219.021 12.9347 219 12.9347 219C12.9347 219 12.907 219.348 13.0364 219.573L13.0919 219.643C13.0919 219.643 13.1074 219.665 13.1166 219.671C13.2183 219.762 13.3447 219.915 13.4095 220.058C13.465 220.183 13.4742 220.299 13.3756 220.363C13.3016 220.927 13.0796 222.153 12.5 222.796C13.0642 223.272 13.6222 223.608 14.0323 223.571C14.9294 223.492 16.0609 221.888 16.4802 220.878C16.8995 219.872 16.8995 219.415 16.0855 219.22L16.0825 219.217Z" fill="#001135"/>
<path d="M3.93277 158.398C3.93277 158.398 1.37696 164.775 1.86715 168.714C2.50842 173.895 6.90479 175.124 6.90479 175.124C6.90479 175.124 10.6846 180.985 11.9948 184.849C13.302 188.712 15.5095 202.843 15.7869 205.435C16.0613 208.024 16.4806 211.293 16.4806 211.293C16.4806 211.293 21.4473 212.491 22.995 212.403C22.995 212.403 21.7217 202.575 22.3137 197.528C22.9087 192.484 24.4255 188.258 24.6074 186.169C24.7924 184.077 23.2293 179.125 22.3137 177.533C21.3919 175.944 11.4615 159.454 11.4615 159.454L3.93277 158.401V158.398Z" fill="#333333"/>
<path d="M7.86367 159.697C7.86367 159.697 6.62738 163.185 6.94185 168.711C7.25015 174.06 9.9632 175.413 9.9632 175.413C9.9632 175.413 9.64565 181.293 9.80288 184.976C9.9632 188.66 9.9632 191.481 9.28802 193.283C8.61592 195.088 7.42588 198.811 7.58311 201.986C7.74343 205.16 8.84098 210.35 8.0579 212.86C8.0579 212.86 10.475 214.339 11.9826 214.659C13.4902 214.979 13.7676 214.857 13.7676 214.857C13.7676 214.857 13.9649 210.371 14.7542 207.941C15.5496 205.511 16.7366 197.32 17.7262 194.106C18.7159 190.892 22.7978 179.57 23.3527 174.59C23.9076 169.614 21.3703 158.758 21.3703 158.758L7.86058 159.697H7.86367Z" fill="#96CE70"/>
<path d="M6.44258 129.708C6.44258 129.708 4.52495 128.775 2.34527 129.18C0.162494 129.589 -0.188969 131.891 0.0761701 135.029C0.338226 138.167 2.90637 146.187 3.97001 149.074C5.03365 151.962 4.83017 152.923 4.57736 154.237C4.32147 155.548 1.80266 163.513 1.80266 163.513C1.80266 163.513 2.3021 164.516 8.39413 166.203C16.0554 168.325 22.4804 167.642 23.4423 165.818L20.9512 157.359C20.9512 157.359 20.5073 151.383 20.5998 150.886C20.6892 150.389 23.5194 147.211 23.6057 144.79C23.6951 142.369 19.5855 137.087 19.5855 137.087L16.8046 135.508C16.8046 135.508 7.62338 131.748 6.44258 129.711V129.708Z" fill="#518C3C"/>
<path d="M23.4429 165.814L20.9518 157.355C20.9518 157.355 20.5079 151.378 20.6004 150.881C20.6898 150.384 23.52 147.207 23.6063 144.786C23.6556 143.453 22.4317 141.255 21.3218 139.547L15.7354 141.849C15.7354 141.849 14.2956 145.487 13.568 148.07C12.8373 150.656 9.69575 155.245 10.3987 157.145C10.9629 158.672 13.3491 163.472 13.6235 167.259C18.8153 167.924 22.7091 167.198 23.4429 165.814Z" fill="#96CE70"/>
<path d="M15.4918 134.14C15.4918 134.14 14.9153 130.682 15.3068 129.34C15.6984 128.001 16.13 127.742 16.7096 127.544C17.1567 127.394 18.1247 127.556 18.9695 125.354C19.8142 123.153 19.324 122.302 19.4103 121.39C19.4967 120.478 19.7063 119.829 19.4627 118.978C19.2192 118.127 18.5995 114.938 15.9265 114.099C13.2536 113.258 10.1459 113.761 8.53656 114.913C6.92723 116.063 5.81426 118.475 6.06707 120.847C6.32604 123.217 7.7843 124.565 7.96928 126.178C8.15427 127.791 7.35268 129.877 6.50177 131.224C5.65395 132.575 7.87063 134.13 9.32581 134.63C12.5815 135.753 15.4887 134.137 15.4887 134.137L15.4918 134.14Z" fill="#FFCDA8"/>
<path d="M16.3839 125.459C16.0756 123.849 15.9708 122.227 15.9708 122.227L13.2361 124.73C13.2361 124.73 14.0747 130.682 12.6072 133.451C12.3082 134.015 12.339 134.528 12.5764 134.988C14.2936 134.808 15.4898 134.143 15.4898 134.143C15.4898 134.143 14.9133 130.685 15.3048 129.344C15.6964 128.005 16.128 127.746 16.7076 127.548C16.9234 127.475 17.2656 127.475 17.6572 127.243C17.1392 126.892 16.5442 126.316 16.3839 125.462V125.459Z" fill="#D9A782"/>
<path d="M16.7121 125.614C16.6319 125.776 15.5436 125.977 15.5313 124.08C15.5221 122.186 16.7491 121.619 16.8601 122.995C16.9711 124.37 16.7121 125.614 16.7121 125.614Z" fill="#F2A983"/>
<path d="M20.0008 117.381C19.5014 115.161 16.9116 110.861 9.13013 113.422C7.48688 113.965 4.45937 116.752 4.90332 121.357C5.07289 123.083 5.81589 124.409 6.51573 126.029C7.44989 128.191 7.53621 129.075 7.53621 129.075C7.53621 129.075 10.1444 130.85 12.5646 129.618C13.1658 129.313 13.3723 128.886 13.4741 128.334C13.619 128.523 13.7762 128.709 13.9489 128.883C13.9489 128.883 13.9273 128.014 14.0259 126.843C14.1955 127.66 14.5377 128.148 14.5377 128.148C14.3805 127.791 14.4206 126.843 14.5223 125.846C14.7874 126.678 15.2129 127.142 15.2129 127.142C15.0588 126.885 14.9786 126.276 14.9385 125.556C15.3331 125.934 15.7925 126.248 16.3012 126.373C16.3783 126.391 15.6599 124.839 15.6075 123.574C16.3197 125.397 17.2446 126.48 17.2446 126.48C16.702 125.47 16.3844 124.211 16.2087 123.205C16.6712 123.992 17.3186 124.751 17.3186 124.751C16.9949 124.135 16.887 123.446 16.8931 122.796C17.1675 123.281 17.5097 123.568 17.5097 123.568C17.3772 123.028 17.3772 122.513 17.4419 122.064C17.6238 122.921 18.2034 123.324 18.2034 123.324C17.9814 122.317 18.6967 120.796 19.1407 120.052C19.1037 120.756 18.9588 121.695 18.4655 122.339C18.4655 122.339 19.1869 121.769 19.5939 120.884C19.6309 120.988 19.6555 121.098 19.6771 121.214C19.6771 121.214 20.5003 119.604 20.0039 117.384L20.0008 117.381Z" fill="#442F22"/>
<path d="M15.219 127.135C15.0648 126.879 14.9847 126.269 14.9446 125.55C15.3392 125.928 15.7986 126.242 16.3073 126.367C16.3843 126.385 15.666 124.833 15.6136 123.567C16.3258 125.391 17.2507 126.474 17.2507 126.474C16.7081 125.464 16.3905 124.205 16.2148 123.199C16.6772 123.985 17.3247 124.745 17.3247 124.745C17.001 124.129 16.893 123.439 16.8992 122.79C17.1736 123.275 17.5158 123.561 17.5158 123.561C17.3832 123.022 17.3832 122.506 17.448 122.058C17.6299 122.915 18.2095 123.317 18.2095 123.317C17.9875 122.311 18.7028 120.79 19.1467 120.045C19.1097 120.75 18.9648 121.689 18.4715 122.332C18.4715 122.332 19.193 121.762 19.5999 120.878C19.6369 120.982 19.6616 121.091 19.6832 121.207C19.6832 121.207 20.4848 119.64 20.0254 117.469C20.0778 118.42 20.0192 119.5 19.6184 120.241C19.6184 120.241 19.788 119.167 19.5136 118.634C19.5136 118.634 19.0234 119.332 18.5332 120.408C18.043 121.482 17.8858 122.415 17.8858 122.415C17.8858 122.415 18.453 119.393 18.2249 119.664C17.9783 119.963 16.3258 121.924 16.5662 122.93C16.5662 122.93 16.3689 121.451 16.4522 120.915C16.4522 120.915 15.2775 123.031 15.4255 124.69C15.4255 124.69 14.886 123.683 15.0802 123.022C15.0802 123.022 13.4339 125.839 13.4493 127.038L13.2458 126.047C13.2458 126.047 13.2428 128.184 12.3672 129.706C12.435 129.675 12.4998 129.645 12.5645 129.611C13.1657 129.306 13.3722 128.879 13.474 128.328C13.6189 128.517 13.7761 128.703 13.9488 128.876C13.9488 128.876 13.9272 128.007 14.0258 126.836C14.1954 127.654 14.5376 128.142 14.5376 128.142C14.3804 127.785 14.4205 126.836 14.5222 125.839C14.7873 126.672 15.2128 127.135 15.2128 127.135H15.219Z" fill="#333333"/>
<path d="M13.4425 127.53L12.681 125.947C12.681 125.947 12.5022 127.069 11.9595 127.621L12.1507 126.374C12.1507 126.374 11.494 127.536 11.2967 127.661L11.232 126.658L10.7109 127.701C10.7109 127.701 10.2176 127.082 10.1991 126.813L10.0419 127.877C10.0419 127.877 8.81796 127.191 8.58057 126.31C8.58057 126.31 8.34318 127.082 8.43567 127.53C8.28152 127.066 7.78823 125.664 7.3042 124.822C6.71843 123.806 6.38546 123.221 6.28064 122.285C6.28064 122.285 6.16965 123.392 6.39471 124.096C6.39471 124.096 5.67946 121.785 6.04325 120.352C6.04325 120.352 5.48214 120.367 4.85938 120.66C4.86554 120.888 4.87787 121.12 4.89945 121.361C5.06902 123.087 5.81202 124.413 6.51187 126.033C7.44602 128.195 7.53234 129.079 7.53234 129.079C7.53234 129.079 10.1406 130.854 12.5607 129.622C13.1619 129.317 13.3685 128.89 13.4702 128.338C13.498 128.371 13.5257 128.405 13.5535 128.438L13.4394 127.536L13.4425 127.53Z" fill="#333333"/>
<path d="M8.52609 129.585C8.31028 127.926 6.89518 124.934 6.89518 124.934L6.9815 126.301C6.9815 126.301 6.73178 125.55 5.87162 123.068C5.01454 120.589 6.5653 117.988 6.5653 117.988C5.86854 118.464 5.65581 119.656 5.65581 119.656C5.80688 116.594 8.29178 115.402 8.29178 115.402C7.08941 115.738 6.45122 116.64 6.45122 116.64C6.71636 115.759 7.58269 114.609 8.15613 113.914C6.5283 115.003 4.53668 117.561 4.90355 121.351C5.07312 123.077 5.81612 124.404 6.51597 126.023C7.45012 128.185 7.53644 129.069 7.53644 129.069C7.53644 129.069 7.91874 129.332 8.52609 129.582V129.585Z" fill="#333333"/>
<path d="M8.11941 130.083C10.3207 130.775 15.6481 133.52 15.6481 133.52L16.8967 135.426C16.8967 135.426 10.8756 136.026 7.30241 134.09C2.96461 131.739 5.10731 130.345 5.10731 130.345L6.34976 129.406L8.11941 130.086V130.083Z" fill="#96CE70"/>
<path d="M16.9307 212.203C16.9307 212.203 15.3399 212.874 14.7418 213.682C14.1437 214.487 14.0235 215.634 14.2424 216.677C14.4613 217.722 14.6802 219.314 14.6 220.281C14.5198 221.244 14.1406 223.568 14.1406 223.568H14.7171C14.7171 223.568 15.3522 218.961 16.1908 218.704C17.0294 218.448 17.905 218.409 18.7991 219.848C19.6962 221.284 21.1514 223.471 22.8625 223.175C24.5735 222.879 26.3463 220.793 26.0688 220.339C25.7913 219.888 22.3661 219.592 22.3661 219.592C22.3661 219.592 23.402 220.064 23.0135 220.232C22.6251 220.397 21.5522 220.223 21.1329 219.101C20.7136 217.979 19.0642 213.584 16.9307 212.206V212.203Z" fill="#0D1E42"/>
<path d="M18.8042 219.85C18.0057 218.569 17.2257 218.462 16.4766 218.633C16.8157 219.35 17.719 221.143 18.5083 221.722C19.5041 222.451 21.3138 223.198 22.3096 223.189C20.8421 223 19.6058 221.128 18.8042 219.853V219.85Z" fill="#00001C"/>
<path d="M26.2533 149.867C26.2533 149.867 26.5986 148.653 26.4876 148.056C26.3705 147.461 25.6059 144.482 25.5381 143.793C25.4671 143.107 25.6521 142.305 26.1392 142.259C26.6233 142.213 26.8329 143.726 26.9747 144.25C27.1135 144.778 27.4341 145.235 27.8318 145.168C28.2234 145.098 29.1082 144.686 29.6385 144.939C30.1718 145.192 30.3352 145.717 30.2643 146.244C30.1934 146.772 30.3568 147.321 30.0793 147.848C29.8019 148.376 29.4781 149.885 29.3363 150.138C29.1976 150.391 28.0415 151.95 28.0415 151.95L26.2564 149.864L26.2533 149.867Z" fill="#FFCDA8"/>
<path d="M28.4688 137.866C28.4688 137.723 28.5612 137.598 29.0514 137.567C29.5386 137.537 31.3359 137.256 31.5733 137.567C31.8138 137.878 31.8786 138.275 31.6412 138.445C31.4038 138.616 29.7451 138.479 29.4091 138.445C29.073 138.412 28.4688 138.275 28.4688 137.866Z" fill="#FFCDA8"/>
<path d="M27.75 138.988C27.75 138.72 28.0336 138.552 28.7366 138.69C29.4426 138.827 31.7887 139.098 31.6623 139.845C31.5329 140.595 30.9471 140.477 30.6326 140.4C30.3212 140.327 28.3049 139.607 28.1323 139.549C27.9596 139.492 27.7531 139.235 27.7531 138.988H27.75Z" fill="#FFCDA8"/>
<path d="M27.5266 139.983C27.6406 139.8 28.0106 139.651 28.473 139.788C28.9355 139.928 30.887 140.52 31.0566 140.767C31.2323 141.011 31.1553 141.386 30.9826 141.505C30.81 141.62 30.0731 141.495 29.586 141.343C29.0989 141.194 27.2583 140.422 27.5266 139.983Z" fill="#FFCDA8"/>
<path d="M27.6266 141.465C27.7222 141.263 28.012 141.33 28.4744 141.541C28.9369 141.751 30.0961 142.181 30.0313 142.459C29.9666 142.736 29.7446 142.907 29.3315 142.822C28.9184 142.736 27.3368 142.071 27.6297 141.462L27.6266 141.465Z" fill="#FFCDA8"/>
<path d="M15.968 140.902C16.3811 139.506 18.311 136.402 19.8741 137.222C21.4341 138.039 22.171 139.677 21.8473 143.22C21.5266 146.763 20.9285 154.762 20.9285 154.762L26.259 149.492C26.259 149.492 29.0153 149.538 28.374 152.902C28.374 152.902 22.2172 161.4 21.4372 162.355C20.6541 163.309 17.2659 165.309 16.2763 163.129C15.2835 160.946 14.408 146.175 15.971 140.905L15.968 140.902Z" fill="#96CE70"/>
<path d="M28.0423 150.422C27.398 149.514 26.2573 149.492 26.2573 149.492L20.9267 154.761C20.9267 154.761 20.5722 159.21 21.0716 159.073C21.5156 158.954 26.7259 152.221 28.0392 150.422H28.0423Z" fill="#5098F0"/>
<path d="M54.1672 234.464C52.4315 234.086 46.9591 233.744 45.0415 231.75L37.3956 234.223C37.3956 234.223 36.8746 236.626 37.3956 237.901C37.3956 237.901 39.341 238.861 41.0058 238.861C42.6707 238.861 43.8885 238.672 45.7629 239.136C47.6405 239.602 50.6279 239.825 52.9525 239.136C55.2802 238.449 56.7754 236.73 56.8063 235.909C56.8402 235.083 55.906 234.842 54.1672 234.467V234.464Z" fill="#001135"/>
<path d="M56.8021 235.93C56.7466 236.759 55.2606 238.455 52.9483 239.138C50.6237 239.827 47.6363 239.604 45.7587 239.138C43.8842 238.674 42.6695 238.863 41.0016 238.863C39.3337 238.863 37.3914 237.903 37.3914 237.903C37.376 237.863 37.3606 237.826 37.3483 237.787C37.3544 237.872 37.3668 237.961 37.3853 238.043L37.3359 239.186C37.3359 239.186 37.6782 239.452 38.8528 239.778C40.0274 240.107 43.465 239.891 43.465 239.891C43.465 239.891 43.4742 239.568 43.4742 239.26C44.1956 239.272 44.9417 239.348 45.842 239.571C47.7195 240.034 50.7039 240.257 53.0285 239.571C55.3561 238.881 56.8483 237.165 56.8822 236.338C56.8884 236.183 56.8606 236.049 56.799 235.93H56.8021Z" fill="#001135"/>
<path d="M27.6071 227.449C27.6071 227.449 27.12 230.443 27.6071 231.12C28.0881 231.797 30.0674 232.52 31.3561 231.757C32.6478 231.001 32.7588 230.425 34.1246 229.196C35.4256 228.031 37.408 226.936 37.9414 225.162C38.3514 223.792 38.0154 222.182 37.3278 221.859C36.6434 221.542 33.9365 222.338 32.5646 223.533C31.1957 224.735 27.604 227.445 27.604 227.445L27.6071 227.449Z" fill="#001135"/>
<path d="M37.9409 225.165C37.4075 226.94 35.4221 228.034 34.1241 229.199C32.7553 230.425 32.6474 231.004 31.3556 231.761C30.0669 232.52 28.0876 231.8 27.6067 231.123C27.5327 231.02 27.4803 230.867 27.4463 230.681C27.4402 230.919 27.4618 231.132 27.5111 231.3L27.6406 232.087C27.6406 232.087 28.0444 232.556 28.772 232.837C29.4996 233.118 30.591 233.157 31.3402 232.657C32.0894 232.157 33.523 230.638 33.523 230.638C33.523 230.638 33.523 230.416 33.5168 230.154C33.6894 229.977 33.8867 229.785 34.1211 229.574C35.4221 228.409 37.4045 227.318 37.9378 225.54C38.0766 225.073 38.1259 224.585 38.1074 224.125C38.092 224.47 38.0396 224.826 37.9378 225.165H37.9409Z" fill="#001135"/>
<path d="M26.608 227.992C26.608 227.992 26.2041 230.184 29.2625 230.614C30.9889 230.861 33.5663 228.431 34.7101 225.998C35.595 224.116 35.2651 222.11 35.2651 222.11C35.2651 222.11 35.0277 211.757 35.8909 208.016C36.7542 204.274 39.3624 190.094 39.3624 190.094L35.2805 171.414L26.1825 180.843C26.1825 180.843 27.5051 190.033 27.3942 195.888C27.2832 201.743 25.5135 207.778 25.8773 213.931C26.2442 220.088 26.6111 227.992 26.6111 227.992H26.608Z" fill="#333333"/>
<path d="M49.4226 183.413C49.4226 183.413 51.1768 190.878 50.1008 198.178C49.031 205.478 47.2121 220.676 46.987 224.338C46.7619 228.001 49.5336 233.682 49.5336 233.682C49.5336 233.682 42.5875 237.121 37.1645 236.816C37.1645 236.816 35.845 221.951 36.4153 217.459C36.9826 212.967 38.7091 207.415 38.1233 204.231C37.5376 201.047 35.8912 189.246 35.8912 189.246C35.8912 189.246 33.7393 186.011 33.2152 183.017C32.6911 180.022 49.4257 183.413 49.4257 183.413H49.4226Z" fill="#96CE70"/>
<path d="M24.4739 143.02C24.3906 143.02 22.5223 141.492 22.5223 141.492C22.5223 141.492 20.1453 143.401 19.242 145.682C18.3356 147.963 16.0172 155.05 15.2772 156.76C14.5342 158.471 14.3431 163.359 16.6245 164.118C18.9029 164.878 27.1931 160.59 27.1931 160.59L24.4769 143.02H24.4739Z" fill="#518C3C"/>
<path d="M26.2095 154.245L23.2652 151.195C23.2652 151.195 22.9138 153.016 21.881 154.348C20.8482 155.678 19.2851 157.849 18.5421 159.941C18.0488 161.337 18.2769 162.951 18.8843 163.984C22.1831 163.185 27.1899 160.596 27.1899 160.596L26.2095 154.248V154.245Z" fill="#333333"/>
<path d="M23.6176 153.938L22.2734 156.871L24.7183 156.6L23.6176 153.938Z" fill="#96CE70"/>
<path d="M27.4922 141.108C27.4922 141.108 30.566 140.462 30.492 138.144C30.4149 135.824 27.9917 132.592 28.337 129.054C28.6854 125.517 31.645 123.123 35.0641 122.208C38.4862 121.294 42.0625 123.959 42.6391 126.087C43.2156 128.219 43.1847 129.073 42.9289 129.539C42.673 130 42.6421 130.658 42.7655 130.972C42.8857 131.283 43.0984 132.406 42.8086 133.345C42.5219 134.284 41.7666 137.449 40.9958 137.705C40.2281 137.961 39.0967 138.019 38.9148 139.004C38.7329 139.989 39.1553 142.319 39.7595 143.798C39.7595 143.798 37.5398 145.856 32.4836 145.036C27.4275 144.216 27.4922 141.108 27.4922 141.108Z" fill="#FFCDA8"/>
<path d="M39.7639 143.798C39.1596 142.319 38.7372 139.989 38.9191 139.004C39.101 138.019 40.2325 137.961 41.0001 137.705C41.0587 137.684 41.1173 137.647 41.1759 137.598C40.6394 137.208 40.0136 136.574 39.9242 135.705C39.7669 134.156 39.7669 131.984 39.7669 131.984C39.7669 131.984 35.9132 134.186 35.3027 134.186C34.6923 134.186 36.9121 140.263 34.4672 143.051C33.5393 144.109 34.6584 144.74 36.4003 145.112C38.7095 144.773 39.7608 143.795 39.7608 143.795L39.7639 143.798Z" fill="#D9A782"/>
<path d="M40.3261 133.515C40.3261 133.515 40.4463 132.527 39.7865 132.597C39.1268 132.664 39.0775 134.534 39.247 135.387C39.4135 136.238 40.0548 136.607 40.175 135.305C40.2922 134.003 40.3261 133.518 40.3261 133.518V133.515Z" fill="#FFCDA8"/>
<path d="M38.3935 121.306C34.8912 120.873 32.0887 121.623 29.9892 123.557C27.8866 125.49 26.4715 130.515 28.8454 132.863C29.2431 134.129 29.7672 135.318 30.1217 136.382C32.0086 137.255 34.5428 137.337 36.0473 136.971C37.7707 136.553 37.2651 134.266 38.5476 132.979C39.8301 131.696 41.0294 132.979 41.0294 132.979C41.0294 132.979 41.3192 131.226 41.384 130.323C41.4518 129.424 41.9081 129.171 41.9728 128.268C42.0437 127.368 41.7539 126.451 42.127 125.813C42.2349 125.627 42.2781 125.441 42.2904 125.271C42.2904 125.271 42.7128 125.085 42.7713 124.276C42.8299 123.465 41.8958 121.736 38.3935 121.303V121.306Z" fill="#442F22"/>
<path d="M41.0231 132.98C41.0231 132.98 41.3129 131.226 41.3776 130.324C41.393 130.104 41.4331 129.924 41.4824 129.766C40.4558 130.598 38.1744 132.324 36.1365 133.022C33.9322 133.782 31.1266 133.468 28.8359 132.864C29.2336 134.129 29.7578 135.319 30.1123 136.383C31.9991 137.255 34.5333 137.337 36.0378 136.971C37.7613 136.554 37.2556 134.266 38.5382 132.98C39.8207 131.696 41.02 132.98 41.02 132.98H41.0231Z" fill="#333333"/>
<path d="M28.9688 139.572L29.6316 138.438C29.6316 138.438 31.4228 138.931 33.7659 139.621C37.3237 140.664 40.7119 143.118 40.7119 143.118C40.7119 143.118 29.9707 140.346 28.9688 139.572Z" fill="#EEF5F9"/>
<path d="M48.1431 174.226C47.582 170.99 46.58 166.999 46.7619 162.998C46.9438 158.997 47.061 151.334 46.2008 149.806C45.8123 149.123 46.7157 149.239 45.7384 148.233C44.5298 146.983 41.4499 144.656 41.4499 144.656L28.9575 141.253L28.0943 140.93L22.5171 141.497C22.5171 141.497 21.7186 147.285 22.2027 150.148C22.6867 153.011 24.9465 158.915 26.0194 161.062C27.0923 163.211 27.4006 168.304 26.7871 170.652C26.0657 173.424 24.1295 181.361 24.1295 181.361C24.1295 181.361 25.4984 183.984 29.7468 185.917L31.279 175.988L30.5514 186.258C31.5596 186.661 32.7034 187.021 34.0106 187.301L35.0927 187.457C37.9938 188.155 46.0405 188.439 50.4399 184.731C50.4399 184.731 48.6919 177.415 48.14 174.226H48.1431Z" fill="#518C3C"/>
<path d="M40.7128 143.124C40.7128 143.124 34.7842 141.148 32.9652 140.578C30.878 139.922 28.9666 139.188 28.9666 139.188L27.496 140.987C27.496 140.987 27.2432 143.115 30.8657 144.295C34.4821 145.478 41.4528 144.652 41.4528 144.652L40.7128 143.121V143.124Z" fill="#96CE70"/>
<path d="M50.4426 184.73C50.4426 184.73 48.6946 177.414 48.1427 174.225C47.5816 170.989 46.5796 166.998 46.7615 162.997C46.8694 160.625 46.9557 156.968 46.8293 154.066L39.9265 152.297C39.9265 152.297 39.202 157.334 41.4063 160.433C44.0978 164.217 45.479 170.328 45.5992 172.688C45.704 174.749 48.5651 181.745 48.229 186.151C49.0337 185.761 49.7798 185.294 50.4426 184.733V184.73Z" fill="#333333"/>
<path d="M72.2363 146.412C72.2363 146.412 74.4777 144.116 75.5321 143.287C76.5834 142.457 77.9615 140.643 77.9892 140.243C78.0139 139.841 77.3325 139.353 77.3325 139.353C77.3325 139.353 77.9337 138.414 77.7888 137.95C77.6409 137.487 76.5895 137.026 76.5895 137.026C76.5895 137.026 76.8824 136.304 76.7344 135.922C76.5895 135.541 75.4889 134.892 75.4519 134.892C75.4149 134.892 75.2207 134.703 75.2207 134.703C75.2207 134.703 75.7541 132.937 75.862 132.41C75.9729 131.885 75.0573 131.025 74.3698 132.355C73.6823 133.684 72.9608 136.602 72.8221 136.889C72.6834 137.182 72.0544 138.103 71.6876 138.438C71.3207 138.774 70.6948 138.819 70.5222 138.511C70.3495 138.203 70.294 137.404 70.5222 136.88C70.7534 136.355 70.9908 135.648 70.8736 135.124C70.7534 134.596 69.9919 134.319 69.6281 134.907C69.2612 135.496 69.0608 136.581 68.8204 137.206C68.583 137.831 68.4473 138.819 68.6107 140.112C68.7741 141.408 69.5418 142.845 69.4801 143.287C69.4154 143.726 69.2705 144.991 69.2705 144.991L72.2333 146.409L72.2363 146.412Z" fill="#FFCDA8"/>
<path d="M77.3339 139.353C77.3339 139.353 77.9351 138.414 77.7902 137.951C77.6422 137.487 76.5909 137.027 76.5909 137.027C76.5909 137.027 76.8838 136.304 76.7358 135.923C76.5909 135.542 75.4903 134.892 75.4533 134.892C75.4163 134.892 75.2221 134.703 75.2221 134.703C75.2221 134.703 74.7658 136.536 74.6702 137.057C74.5777 137.576 74.5592 137.838 74.6702 137.948C74.7843 138.06 75.444 138.429 75.592 138.896C75.7431 139.363 75.6383 139.259 76.0514 139.667C76.4645 140.076 76.927 140.476 76.7574 141.034C76.6403 141.424 76.4029 142.04 76.4029 142.464C77.2199 141.595 77.9659 140.54 77.9844 140.244C78.0091 139.841 77.3278 139.353 77.3278 139.353H77.3339Z" fill="#D9A782"/>
<path d="M68.8937 144.036L69.4887 143.289C69.4887 143.289 72.6457 144.301 73.1051 147.509L71.9983 148.872L68.8906 144.036H68.8937Z" fill="#EEF5F9"/>
<path d="M41.1844 148.866C41.1844 148.866 43.0959 146.467 47.0021 148.866C50.9082 151.266 57.734 154.669 57.734 154.669L68.9161 143.609C68.9161 143.609 73.035 145.829 72.9178 149.455C72.9178 149.455 63.5917 159.939 61.8776 161.579C60.1634 163.217 57.6138 162.982 56.7845 162.982C55.9551 162.982 45.664 159.387 43.7402 158.198C41.3787 156.734 38.1045 152.968 41.1813 148.87L41.1844 148.866Z" fill="#96CE70"/>
<path d="M79.4758 5.91215L77.3516 7.13494C77.6229 6.97942 77.999 7.00077 78.4152 7.23557L80.5394 6.01277C80.1263 5.77797 79.7501 5.75663 79.4758 5.91215Z" fill="#96CE70"/>
<path d="M84.8343 18.8828L82.5929 21.5388L80.4688 22.7586L82.707 20.1026L84.8343 18.8828Z" fill="#96CE70"/>
<path d="M80.543 6.01086L97.2776 15.5645C98.1007 16.0341 98.7697 17.1807 98.7667 18.1168L98.7482 25.1182C98.7482 25.5817 98.5817 25.9079 98.3104 26.0635L96.1862 27.2863C96.4544 27.1307 96.6209 26.8045 96.624 26.341L96.6425 19.3396C96.6425 18.4035 95.9765 17.26 95.1534 16.7873L78.4219 7.23061L80.5461 6.00781L80.543 6.01086Z" fill="#96CE70"/>
<g opacity="0.2">
<path d="M78.4153 7.23299C77.5952 6.76339 76.92 7.14151 76.9169 8.07767L76.8984 15.079C76.8954 16.0121 77.5675 17.1617 78.3875 17.6313L80.4809 18.8267L80.4686 22.7573L82.7099 20.1013L95.119 27.188C95.9422 27.6576 96.6143 27.2764 96.6174 26.3433L96.6359 19.342C96.6359 18.4059 95.9699 17.2623 95.1468 16.7897L78.4153 7.23299Z" fill="#518C3C"/>
</g>
<path d="M144.937 44.4356L142.812 45.6584C143.084 45.5029 143.46 45.5242 143.876 45.759L146 44.5362C145.587 44.3014 145.211 44.2801 144.937 44.4356Z" fill="#96CE70"/>
<path d="M150.295 57.3984L148.054 60.0575L145.93 61.2772L148.171 58.6212L150.295 57.3984Z" fill="#96CE70"/>
<path d="M146.007 44.5343L162.742 54.088C163.565 54.5576 164.234 55.7041 164.231 56.6403L164.212 63.6416C164.212 64.1051 164.046 64.4314 163.774 64.5869L161.647 65.8097C161.915 65.6542 162.082 65.3279 162.085 64.8644L162.103 57.8631C162.103 56.9269 161.437 55.7834 160.614 55.3107L143.883 45.754L146.007 44.5312V44.5343Z" fill="#96CE70"/>
<g opacity="0.2">
<path d="M143.876 45.7564C143.056 45.2868 142.381 45.665 142.378 46.6011L142.359 53.6024C142.356 54.5355 143.028 55.6852 143.848 56.1548L145.942 57.3501L145.93 61.2807L148.171 58.6247L160.58 65.7115C161.403 66.1811 162.075 65.7999 162.078 64.8668L162.097 57.8654C162.097 56.9293 161.431 55.7858 160.608 55.3131L143.876 45.7564Z" fill="#518C3C"/>
</g>
<path d="M216.109 83.7793L213.984 85.0021C214.256 84.8466 214.632 84.868 215.048 85.1028L217.172 83.88C216.759 83.6452 216.383 83.6238 216.109 83.7793Z" fill="#96CE70"/>
<path d="M221.467 96.75L219.226 99.406L217.102 100.626L219.343 97.9697L221.467 96.75Z" fill="#96CE70"/>
<path d="M217.171 83.8781L233.906 93.4317C234.729 93.9013 235.398 95.0479 235.395 95.984L235.376 102.985C235.376 103.449 235.21 103.775 234.938 103.931L232.811 105.153C233.079 104.998 233.246 104.672 233.249 104.208L233.267 97.2068C233.267 96.2707 232.602 95.1271 231.778 94.6545L215.047 85.0978L217.171 83.875V83.8781Z" fill="#96CE70"/>
<g opacity="0.2">
<path d="M215.048 85.1002C214.228 84.6306 213.553 85.0087 213.55 85.9449L213.531 92.9462C213.528 93.8793 214.2 95.0289 215.02 95.4985L217.114 96.6939L217.101 100.624L219.343 97.9685L231.752 105.055C232.575 105.525 233.247 105.144 233.25 104.211L233.269 97.2092C233.269 96.273 232.603 95.1295 231.78 94.6569L215.048 85.1002Z" fill="#518C3C"/>
</g>
</g>
<defs>
<clipPath id="clip0_7942_22799">
<rect width="240" height="240" fill="white"/>
</clipPath>
</defs>
</svg>
