<svg width="184" height="240" viewBox="0 0 184 240" fill="none" xmlns="http://www.w3.org/2000/svg">
<g clip-path="url(#clip0_7920_20622)">
<g style="mix-blend-mode:multiply" opacity="0.2">
<path d="M131.965 176.037C157.293 190.67 157.293 214.395 131.965 229.028C106.636 243.661 65.5746 243.661 40.2463 229.028C14.9179 214.395 14.9179 190.67 40.2463 176.037C65.5746 161.404 106.636 161.404 131.965 176.037Z" fill="#367ED6"/>
</g>
<path d="M48.0637 88.9141C48.8027 90.0135 49.6394 90.9486 50.4644 91.6059C52.2317 93.0183 54.9334 94.1998 57.037 94.4033C56.8102 95.0175 56.3644 96.4886 56.6381 97.8815C56.9939 99.7047 53.9559 100.303 50.6716 98.4214C47.3834 96.5395 46.75 94.1059 46.75 94.1059C46.75 94.1059 48.3452 91.2968 48.0637 88.9141Z" fill="#D9A782"/>
<path d="M48.0637 88.9141C48.8027 90.0135 49.6394 90.9486 50.4644 91.6059C52.2317 93.0183 54.9334 94.1998 57.037 94.4033C57.0057 94.4894 56.9666 94.5989 56.9314 94.7163C55.9226 94.685 53.952 94.4972 52.0205 93.6247C50.0343 92.7248 48.3531 94.5911 47.575 95.6983C46.9299 94.7828 46.75 94.1098 46.75 94.1098C46.75 94.1098 48.3452 91.3007 48.0637 88.918V88.9141Z" fill="#D9A782"/>
<path d="M67.2679 130.511C67.2679 130.511 63.1703 133.962 56.8832 134.498C50.5921 135.034 48.4847 121.117 48.4847 121.117L48.125 103.894L50.0369 98.6282L56.3084 97.9004L61.2349 96.6406C61.2349 96.6406 67.2718 119.529 67.2718 130.507L67.2679 130.511Z" fill="#E6F6FF"/>
<path d="M60.2473 192.589C61.9403 193.571 63.0859 195.351 66.4758 197.069C68.4463 198.067 73.2086 198.861 73.0248 196.674C73.017 196.56 72.9896 196.435 72.9545 196.31C73.1109 196.643 73.2164 196.963 73.2399 197.253C73.4276 199.436 68.6653 198.646 66.6947 197.648C63.3048 195.934 62.1592 194.15 60.4662 193.168C60.2551 193.047 60.0049 192.914 59.7351 192.777V193.305L56.3569 191.721C56.3569 191.721 56.1458 191.157 56.1653 190.508C56.5993 190.887 59.0548 191.897 60.2473 192.593V192.589Z" fill="#518C3C"/>
<path d="M62.8189 188.324C63.6635 188.148 62.8463 186.321 66.3379 189.963C66.6076 190.143 66.8931 190.276 67.1589 190.433C71.9837 193.266 72.8557 194.674 73.0277 196.677C73.2115 198.864 68.4492 198.07 66.4786 197.072C63.0887 195.355 61.9431 193.575 60.2501 192.593C58.9638 191.845 56.2229 190.738 56.1017 190.433C56.0392 190.273 55.9649 189.991 55.9219 189.631C59.7653 186.137 61.1455 188.672 62.8228 188.324H62.8189Z" fill="#96CE70"/>
<path d="M53.95 197.928C54.1025 198.201 54.2433 198.432 54.3567 198.577C55.0213 199.446 59.8422 205.663 57.074 207.106C54.3058 208.55 49.6569 206.069 48.6756 203.972C47.6981 201.875 47.8623 200.455 46.6229 199.199C45.8878 198.46 45.0003 197.474 44.7266 196.237C45.8526 195.056 47.1585 195.866 49.4302 196.198C50.7244 196.39 51.6666 195.686 53.95 197.924V197.928Z" fill="#96CE70"/>
<path d="M44.7267 196.238C45.0004 197.479 45.8919 198.461 46.6308 199.204C47.8703 200.46 47.7061 201.88 48.6835 203.977C49.661 206.074 54.3138 208.555 57.082 207.111C57.5981 206.841 57.8484 206.407 57.9148 205.879C57.9969 206.696 57.7858 207.369 57.082 207.737C54.3138 209.181 49.6649 206.704 48.6835 204.607C47.7295 202.565 47.8586 201.164 46.7208 199.936L46.6934 200.331C46.6934 200.331 45.3719 199.239 44.5547 197.682L44.629 196.164C44.6642 196.191 44.6994 196.215 44.7345 196.242L44.7267 196.238Z" fill="#518C3C"/>
<path d="M55.961 141.409L56.1291 134.683C56.1291 134.683 64.5471 132.985 67.7767 129.914C67.7767 129.914 69.1999 147.802 68.0347 155.494C66.8696 163.186 66.1853 173.511 65.8295 176.891C65.4777 180.272 64.9107 187.017 66.5177 190.202C66.5177 190.202 60.1328 192.995 55.9375 189.74V171.942L55.957 141.409H55.961Z" fill="#1C64BC"/>
<path d="M55.961 141.409L56.1291 134.683C56.1291 134.683 64.5471 132.985 67.7767 129.914C67.7767 129.914 69.1999 147.802 68.0347 155.494C66.8696 163.186 66.1853 173.511 65.8295 176.891C65.4777 180.272 64.9107 187.017 66.5177 190.202C66.5177 190.202 60.1328 192.995 55.9375 189.74V171.942L55.957 141.409H55.961Z" fill="#518C3C"/>
<path d="M60.5285 133.534C60.5285 133.534 59.9264 142.724 59.2109 145.373C58.6205 147.541 57.4788 149.892 57.4045 150.436C56.7085 155.698 56.1885 161.618 55.9383 163.821C55.4417 168.152 54.3939 176.337 54.1788 179.506C53.9755 182.471 54.1514 198.548 54.1514 198.548C54.1514 198.548 49.9522 200.066 44.5292 196.533C44.5292 196.533 43.6338 180.503 44.1851 176.223C44.7325 171.939 44.6817 170.867 44.9514 167.882C45.2095 165.049 43.5869 156.309 43.6338 149.043C43.6846 141.774 46.3786 131.828 46.3786 131.828C46.3786 131.828 48.0168 135.314 60.5285 133.538V133.534Z" fill="#563317"/>
<path d="M55.0703 100.61L56.3098 97.9062L59.1679 99.5691L58.5579 101.639C58.5579 101.639 62.2293 111.224 63.1677 119.832C63.8246 125.838 64.1804 127.958 64.1804 127.958L62.546 130.818L60.1688 128.549C60.1688 128.549 60.2157 110.653 57.123 102.136L55.0742 100.61H55.0703Z" fill="#563317"/>
<path d="M47.685 91.2422C47.685 91.2422 51.7396 97.2009 56.3102 97.9052L55.2116 102.056C55.2116 102.056 49.3584 99.7049 46.1875 93.0889L47.685 91.2422Z" fill="white"/>
<path d="M59.4913 100.184L56.3047 97.8996C56.3047 97.8996 56.9498 94.5153 56.7973 92.5708L58.0368 92.2734C58.0368 92.2734 60.1989 96.2172 59.4913 100.184Z" fill="white"/>
<path d="M62.8948 104.516C61.7297 100.134 58.4219 91.9844 58.4219 91.9844L61.3934 92.7903C66.1713 96.3272 66.5545 103.229 66.5545 103.229C67.141 107.239 66.9924 110.921 67.1058 112.873C67.3404 116.852 67.7548 122.052 68.0989 125.624C68.443 129.2 69.6159 141.027 69.6159 141.027C69.6159 141.027 69.264 143.273 67.1019 144.224C62.2106 146.38 62.1206 139.975 62.0073 138.246C61.8939 136.512 62.0659 119.36 62.0659 119.36L62.8909 104.516H62.8948Z" fill="#96CE70"/>
<path d="M57.5586 92.9045L57.8206 92.6423L58.8919 91.5703L62.8761 97.8147L61.7969 99.3405L64.0686 100.19L63.3531 114.282L62.2153 114.126C62.6923 103.805 57.5547 92.9006 57.5547 92.9006L57.5586 92.9045Z" fill="#518C3C"/>
<path d="M48.7455 76.1743C50.9546 74.6876 54.45 74.8519 56.9133 76.5186C59.3765 78.1854 60.0295 80.1964 60.2445 81.1041C60.4595 82.0118 60.7332 82.7904 60.9522 83.479C61.1672 84.1675 60.4556 85.0322 60.4556 85.0322C61.2259 86.0025 60.6277 88.3148 60.4635 88.8743C60.5534 89.0895 60.6081 89.2734 60.5925 89.3986C60.5651 89.7389 60.3813 89.8994 60.1585 89.9737C59.9904 90.721 59.8418 91.6052 59.8418 91.9847C59.8418 92.5403 59.9161 94.3948 57.7461 94.43C55.5722 94.4652 52.4364 93.178 50.4619 91.6013C48.4874 90.0246 46.423 86.8359 45.8248 83.6472C45.2266 80.4585 46.5325 77.665 48.7416 76.1782L48.7455 76.1743Z" fill="#FFCDA8"/>
<path d="M60.46 88.8744C60.159 88.1428 59.4122 87.0003 59.205 86.257C58.9391 85.2945 60.8588 84.3359 60.8588 84.3359C60.6985 84.7272 60.4483 85.0324 60.4483 85.0324C61.2186 86.0027 60.6203 88.3149 60.4561 88.8744H60.46Z" fill="#D9A782"/>
<path d="M48.4813 75.1592C51.8907 72.7765 55.8944 73.739 57.9745 75.1592C58.7017 75.6561 59.5228 76.419 60.4104 78.0153C61.1376 79.3299 61.1532 82.01 58.0722 82.2486C56.4066 82.3777 54.2014 82.053 52.5241 81.7322C50.7177 82.9059 51.4332 84.8309 51.1908 85.4725C50.9484 86.1181 50.6825 86.9397 50.2759 87.1744C50.0296 87.3192 49.5565 86.9084 49.4353 86.7676C49.142 86.4311 47.0893 84.0523 46.9603 86.9867C46.4442 85.9225 46.0415 84.78 45.8264 83.6415C45.7365 83.1681 45.6896 82.7025 45.6857 82.2486C45.1109 81.0944 45.1969 77.4519 48.4852 75.1592H48.4813Z" fill="#518C3C"/>
<g style="mix-blend-mode:multiply" opacity="0.5">
<path d="M51.1926 85.4739C50.9502 86.1195 50.6844 86.9411 50.2777 87.1758C50.0314 87.3206 49.5583 86.9098 49.4371 86.7689C49.1439 86.4325 47.0912 84.0537 46.9621 86.988C46.446 85.9238 46.0433 84.7814 45.8283 83.6428C45.7383 83.1694 45.6914 82.7038 45.6875 82.25C47.6151 83.2438 49.9962 83.5998 51.2865 83.725C51.1926 84.4606 51.3217 85.1374 51.1966 85.47L51.1926 85.4739Z" fill="#412999"/>
</g>
<path d="M58.9327 94.1434C58.7451 91.4516 59.2455 90.09 59.2455 90.09C59.2768 89.9726 59.7773 90.1018 60.1604 89.9766C59.9923 90.7238 59.8437 91.6081 59.8437 91.9876C59.8437 92.414 59.8868 93.5995 58.9327 94.1473V94.1434Z" fill="#D9A782"/>
<path d="M49.5754 89.4442C49.3096 89.6164 48.6957 89.859 47.4954 88.5718C46.2989 87.2885 46.3185 86.0756 46.9128 85.6726C47.5071 85.2696 48.0779 85.5122 48.3868 85.9817C48.6957 86.4473 49.5754 89.4442 49.5754 89.4442Z" fill="#FFCDA8"/>
<path d="M45.6865 93.9688C45.6865 93.9688 53.5376 99.4619 56.8141 112.878C57.772 116.798 62.0338 115.62 62.2215 119.948C62.6789 130.437 62.5186 143.266 60.9625 144.667C58.769 146.643 54.2609 149.041 46.3082 146.905C43.3523 146.111 42.0112 144.33 42.0112 144.33C42.0112 144.33 45.3268 129.596 45.2564 126.204C45.186 122.812 38.4141 100.769 38.4141 100.769L45.6865 93.9727V93.9688Z" fill="#96CE70"/>
<path d="M55.569 133.047L54.7284 135.821L48.5859 135.034L55.0881 136.357L55.569 133.047Z" fill="#518C3C"/>
<path d="M46.662 92.1055C46.662 92.1055 60.0847 111.523 62.9897 118.448L50.3177 106.151L51.2796 103.26L48.9727 103.608L44.7266 94.5782L46.662 92.1016V92.1055Z" fill="#518C3C"/>
<path d="M42.0081 144.326C42.0081 144.326 45.3237 129.591 45.2534 126.199C45.2182 124.458 43.4118 117.787 41.6641 111.711L44.4948 111.508L57.5578 119.935L62.105 119.051C62.1598 119.321 62.2028 119.614 62.2184 119.943C62.2692 121.109 62.3123 122.302 62.3474 123.504C60.7483 124.337 58.1248 125.702 56.2206 126.637C53.3038 128.069 49.3744 129.779 47.2005 137.737C46.2113 141.352 45.7421 144.396 45.5192 146.646C43.1146 145.777 42.012 144.318 42.012 144.318L42.0081 144.326Z" fill="#96CE70"/>
<path d="M67.0561 110.978C67.0209 108.944 66.9896 106.174 66.5595 103.228C66.5595 103.228 66.2115 96.9911 62.0709 93.3368C61.8207 93.0356 61.59 92.8438 61.3984 92.7891C63.6114 93.2077 67.6973 95.6374 69.3434 98.6461C70.9894 101.659 71.701 103.791 73.4058 105.884C75.1105 107.977 77.9686 113.111 77.7418 115.043C77.5151 116.972 73.4644 116.557 72.8427 116.299C72.2171 116.041 69.3707 114.1 69.3707 114.1C69.3707 114.1 68.3346 112.704 67.0561 110.978Z" fill="#96CE70"/>
<path d="M64.3164 110.836C65.0358 109.932 66.6037 107.984 67.0885 107.518C67.7298 106.904 68.4531 106.986 69.6847 107.147C70.9202 107.307 73.0003 108.645 73.059 109.686C73.0785 110.007 73.4226 110.566 73.1841 111.27C70.6896 110.977 66.2166 110.875 64.3125 110.836H64.3164Z" fill="#FFCDA8"/>
<path d="M71.6438 109.701C72.1169 109.49 72.1755 108.86 72.1286 108.328C72.6564 108.762 73.0357 109.248 73.063 109.686C73.0826 110.007 73.4267 110.566 73.1882 111.27C71.8823 111.118 70.0368 111.016 68.2969 110.949C69.071 109.741 70.8891 110.038 71.6438 109.701Z" fill="#D9A782"/>
<path d="M58.6353 110.906L58.6822 110.926C57.9393 114.208 58.4632 115.421 58.6196 115.691C57.6226 115.836 56.5708 116.114 55.9101 116.309C55.4956 116.435 55.2337 116.521 55.2337 116.521C55.2337 116.521 53.5837 114.404 51.8125 112.049C54.0216 111.556 58.6392 110.91 58.6392 110.91L58.6353 110.906Z" fill="#FFCDA8"/>
<path d="M58.7323 110.734L62.1261 111.251C62.1261 111.251 62.9355 110.801 63.4477 110.824C63.9638 110.848 71.7953 110.93 74.2312 111.439C76.671 111.947 78.3483 114.189 77.6171 116.65C76.886 119.111 76.0454 119.608 73.2576 119.264C70.4699 118.923 66.5678 117.894 63.5611 116.732C63.0762 116.544 62.2825 116.2 61.6882 116.106C60.0812 115.856 58.6698 115.758 58.6698 115.758C58.6698 115.758 57.8057 114.698 58.7362 110.738L58.7323 110.734Z" fill="white"/>
<path d="M37.5234 101.704C37.9417 100.711 40.0023 98.9421 42.1097 100.045C43.6228 100.84 46.6452 104.142 47.6891 106.168C48.7331 108.195 55.2313 116.521 55.2313 116.521C55.2313 116.521 55.4933 116.431 55.9077 116.31C56.5685 116.114 57.6203 115.836 58.6173 115.691C58.6447 115.735 58.6603 115.754 58.6603 115.754C58.6603 115.754 60.0718 115.852 61.6787 116.102C62.2731 116.196 63.0668 116.544 63.5516 116.728C63.8605 116.846 64.1772 116.967 64.5017 117.08C63.7041 118.395 61.1548 122.386 58.7659 123.861C55.8882 125.637 54.2226 126.901 50.4221 123.54C46.6217 120.179 40.9993 112.311 39.2359 110.112C37.4725 107.913 36.542 104.052 37.5234 101.704Z" fill="#518C3C"/>
<path d="M58.6259 115.688C58.6494 115.731 58.665 115.75 58.665 115.75C58.665 115.75 60.0765 115.848 61.6835 116.098C62.2778 116.192 63.0715 116.54 63.5563 116.724C63.8652 116.842 64.1819 116.963 64.5064 117.076C64.2796 117.452 63.9121 118.039 63.4468 118.728C62.0784 117.863 59.9631 116.67 57.625 115.867C57.9534 115.797 58.2897 115.738 58.622 115.688H58.6259Z" fill="#96CE70"/>
<path d="M51.8477 112.039C52.5006 112.782 53.8808 114.207 55.0655 114.539C55.8984 114.774 57.2355 114.75 58.3381 114.676C58.4085 115.263 58.5493 115.568 58.6196 115.689C57.6226 115.834 56.5708 116.112 55.9101 116.308C55.4956 116.433 55.2337 116.519 55.2337 116.519C55.2337 116.519 53.5837 114.402 51.8125 112.047C51.8242 112.047 51.8399 112.047 51.8516 112.039H51.8477Z" fill="#D9A782"/>
<path d="M59.6321 110.164C59.6321 110.164 58.7093 112.32 59.5226 115.825C59.5226 115.825 66.4197 118.427 70.7753 119.574C75.1309 120.72 78.1142 119.155 77.7467 114.276C77.3752 109.397 71.4439 110.88 70.0246 110.731C68.6092 110.579 59.6321 110.164 59.6321 110.164Z" fill="#518C3C"/>
<path d="M83.8257 96.0469C83.8257 96.0469 82.4377 96.7081 82.2383 97.7332C82.0389 98.7543 81.5775 101.18 82.8639 102.397C84.1502 103.618 91.8606 111.259 93.6904 112.515C95.5202 113.77 100.932 116.102 100.932 116.102C100.932 116.102 100.853 115.128 100.787 113.598C100.724 112.069 99.8407 108.813 99.2034 107.581C98.5661 106.345 95.7861 99.8537 95.7861 99.8537L83.8218 96.0508L83.8257 96.0469Z" fill="#96CE70"/>
<path d="M81.3203 180.729C81.7073 184.031 82.8373 192.435 82.5753 194.795C82.3134 197.154 81.0309 202.166 81.0309 202.166C81.0309 202.166 79.682 203.707 80.3819 204.791C81.0778 205.875 82.548 205.562 83.631 204.404C84.714 203.25 87.3141 198.938 87.9163 197.443C88.5184 195.949 88.276 194.626 88.276 194.626C87.6582 194.458 87.5292 193.038 87.6504 191.833C87.7716 190.628 89.1674 183.139 89.6014 180.753C90.0354 178.366 88.1587 173.937 87.8928 172.779C87.6269 171.625 88.1821 170.42 88.5653 168.033C88.9524 165.647 89.4568 158.35 89.4568 158.35L77.2031 157C77.5159 160.588 79.2988 170.948 79.5882 172.752C79.8775 174.559 80.9371 177.423 81.3203 180.725V180.729Z" fill="#D9A782"/>
<path d="M81.024 202.172C81.024 202.172 79.6751 203.714 80.3749 204.797C81.0709 205.881 82.541 205.568 83.6241 204.41C84.7071 203.256 87.3072 198.944 87.9093 197.45C88.5114 195.955 88.269 194.633 88.269 194.633C88.269 194.633 90.3139 194.946 90.701 196.585C91.0842 198.224 89.4733 200.271 89.4733 200.271C89.4733 200.271 88.8946 202.223 89.0393 204.606L88.2456 204.68V201.237C88.2456 201.237 86.7754 201.789 85.7902 203.839C84.8049 205.885 83.9134 208.272 81.892 208.538C79.8706 208.804 74.6235 208.514 74.3811 207.38C74.1426 206.249 81.024 202.176 81.024 202.176V202.172Z" fill="#563317"/>
<path d="M81.0118 197.643C81.0118 197.643 87.7095 200.041 91.5607 196.637C91.5607 196.637 90.0671 185.78 90.0202 182.376C89.9733 178.973 89.4533 171.273 89.4142 169.223C89.3751 167.169 89.6566 151.217 89.6566 151.217L88.4054 141.366L78.5056 139.883C78.5056 139.883 76.8986 143.842 76.8829 150.94C76.8595 161.331 80.1282 175.893 80.7811 178.695C81.4341 181.492 81.2894 191.187 81.0079 197.647L81.0118 197.643Z" fill="#96CE70"/>
<path d="M89.1035 146.813C85.5181 146.417 82.9219 146.535 83.0431 147.736C83.4224 151.48 86.4917 154.884 86.6246 156.089C86.7536 157.294 87.0117 167.928 87.4418 174.56C87.7428 179.224 88.2941 191.9 88.56 198.164C89.6352 197.894 90.6753 197.421 91.5667 196.634C91.5667 196.634 90.0731 185.777 90.0262 182.373C89.9793 178.969 89.4593 171.27 89.4202 169.219C89.3811 167.165 89.6626 151.214 89.6626 151.214L89.1035 146.813Z" fill="#518C3C"/>
<path d="M98.0749 206.694C97.9068 209.777 96.6322 213.561 96.6322 213.561C96.6322 213.561 96.5618 214.715 98.2939 214.691C100.026 214.668 101.809 214.187 102.313 212.403C102.818 210.619 103.275 206.307 103.228 205.008C103.181 203.709 102.603 202.528 102.603 202.528C102.337 202.261 102.458 201.346 102.556 200.286C102.653 199.225 103.639 191.976 103.807 188.482C103.975 184.988 101.113 180.316 100.437 179.377C99.764 178.438 99.3769 175.477 99.6193 172.585C99.8618 169.694 100.437 158.352 100.437 158.352L88.9531 158.856C88.9531 158.856 90.8807 171.38 91.5532 175.019C92.2257 178.653 93.2384 180.582 94.1298 182.147C95.0213 183.712 96.0809 187.64 96.4875 190.555C96.898 193.47 98.247 203.611 98.0749 206.694Z" fill="#D9A782"/>
<path d="M96.6268 213.564C96.6268 213.564 96.5564 214.719 98.2885 214.695C100.021 214.672 101.803 214.19 102.308 212.406C102.812 210.622 103.27 206.311 103.223 205.012C103.176 203.713 102.597 202.531 102.597 202.531C102.597 202.531 104.595 203.372 104.595 205.086C104.595 206.8 103.778 209.061 103.438 210.818C103.102 212.575 103.414 216.311 102.355 217.61C101.295 218.913 96.6737 220.141 95.8057 219.852C94.9377 219.562 94.8204 216.119 96.6229 213.564H96.6268Z" fill="#563317"/>
<path d="M95.875 204.989C95.875 204.989 101.31 209.977 106.185 203.674C106.185 203.674 104.363 189.55 103.714 186.984C103.065 184.413 100.293 176.893 100.532 173.446C100.77 169.999 100.54 153.289 100.211 148.003C99.957 143.891 94.0843 134.767 96.3833 137.729L84.9234 139.032L82.2764 139.787C82.2764 139.787 81.7525 145.922 83.0506 149.107C84.3487 152.292 88.1178 155.285 88.1178 155.285C88.1178 155.285 90.366 172.124 90.7687 174.855C91.1714 177.586 96.3833 196.542 95.875 204.989Z" fill="#563317"/>
<path d="M84.8172 107.672C84.8172 107.672 81.4508 107.695 79.6327 110.446C77.8146 113.2 71.2421 123.165 70.3115 124.007C69.3771 124.848 66.2648 127.966 66.8552 130.47C67.4456 132.974 71.3125 142.736 71.3125 142.736H75.066C75.066 142.736 74.5889 135.932 73.8382 133.338C73.0875 130.744 72.9742 130.31 72.9742 130.31L77.5448 125.395C77.5448 125.395 82.7059 118.912 82.9796 117.183C83.2533 115.454 84.8212 107.672 84.8212 107.672H84.8172Z" fill="#518C3C"/>
<path d="M82.9737 117.187C83.0636 116.608 83.3022 115.34 83.5798 113.92C82.1018 113.493 80.0217 113.008 80.0648 113.638C80.1312 114.616 77.3982 119.964 75.7991 122.148C74.1999 124.331 73.0621 127.406 71.3339 127.449C69.6058 127.496 70.3096 127.95 71.1971 128.791C71.7953 129.358 72.3466 129.495 73.0387 130.556C72.9878 130.372 72.9722 130.317 72.9722 130.317L77.5429 125.403C77.5429 125.403 82.7039 118.92 82.9776 117.19L82.9737 117.187Z" fill="#96CE70"/>
<path d="M94.8532 104.363C94.8532 104.363 93.7506 107.869 95.2129 109.379C95.9441 110.134 92.3743 120.956 84.3395 118.597C79.7884 117.259 85.0433 108.71 85.0433 108.71L94.8493 104.359L94.8532 104.363Z" fill="#D9A782"/>
<path d="M85.4553 117.436C81.6705 116.575 85.2246 108.844 85.6625 107.889C85.6625 107.889 84.4778 107.701 82.7105 108.425C82.7105 108.425 81.2482 110.546 80.9511 111.876C80.6539 113.206 80.4975 115.796 79.7586 117.303C79.0196 118.809 76.4078 121.516 76.6306 124.318C76.8535 127.115 79.2659 128.817 79.2659 128.817C79.2659 128.817 80.5288 134.549 79.9971 136.595C79.4653 138.645 78.1203 143.571 78.1203 143.571C78.1203 143.571 78.6599 145.57 85.3302 148.086C92.0278 150.613 100.129 146.005 100.278 145.801C100.278 145.801 99.1399 142.984 98.4518 141.795C97.7637 140.605 95.6992 138.735 95.5546 137.268C95.4099 135.805 97.4821 126.696 98.4205 124.134C99.3589 121.571 100.903 114.509 100.903 114.509C100.903 114.509 97.8145 110.863 95.4177 109.082C95.4177 109.082 89.5372 118.367 85.4592 117.439L85.4553 117.436Z" fill="#518C3C"/>
<path d="M98.4523 141.792C97.7641 140.602 95.6997 138.732 95.5551 137.265C95.4104 135.802 97.4826 126.693 98.421 124.131C98.64 123.532 98.8902 122.695 99.1443 121.76L97.5413 121.149C97.5413 121.149 94.8395 121.063 94.7692 122.679C94.6988 124.295 94.8083 129.498 92.6422 130.927C90.4761 132.351 86.7969 130.962 86.7969 130.962C86.7969 130.962 91.391 137.363 92.7204 143.2C93.2169 145.379 93.6314 147.058 93.9794 148.314C97.5139 147.472 100.196 145.919 100.282 145.806C100.282 145.806 99.1443 142.989 98.4562 141.799L98.4523 141.792Z" fill="#96CE70"/>
<path d="M70.4207 128.893C70.7882 128.682 71.3904 128.682 71.7579 128.893L91.5224 140.309C91.89 140.521 91.89 140.869 91.5224 141.084L78.4243 148.651C78.0567 148.862 77.4546 148.862 77.0871 148.651L57.3225 137.23C56.955 137.019 56.955 136.671 57.3225 136.456L70.4246 128.889L70.4207 128.893Z" fill="white"/>
<path d="M91.802 140.694V141.457C91.802 141.601 91.7121 141.742 91.5244 141.852L78.4262 149.418C78.0587 149.634 77.4566 149.634 77.089 149.418L57.3245 137.998C57.1407 137.892 57.0469 137.751 57.0469 137.611V136.852C57.0469 136.852 57.0469 136.848 57.0469 136.844C57.0469 136.981 57.1407 137.118 57.3206 137.223L77.0851 148.644C77.4527 148.855 78.0548 148.855 78.4223 148.644L91.5205 141.077C91.7082 140.968 91.7981 140.827 91.7981 140.686L91.802 140.694Z" fill="white"/>
<g style="mix-blend-mode:multiply" opacity="0.1">
<path d="M91.802 140.694V141.457C91.802 141.601 91.7121 141.742 91.5244 141.852L78.4262 149.418C78.0587 149.634 77.4566 149.634 77.089 149.418L57.3245 137.998C57.1407 137.892 57.0469 137.751 57.0469 137.611V136.852C57.0469 136.852 57.0469 136.848 57.0469 136.844C57.0469 136.981 57.1407 137.118 57.3206 137.223L77.0851 148.644C77.4527 148.855 78.0548 148.855 78.4223 148.644L91.5205 141.077C91.7082 140.968 91.7981 140.827 91.7981 140.686L91.802 140.694Z" fill="#367ED6"/>
</g>
<path opacity="0.3" d="M60.2432 136.836C60.1689 136.879 60.1689 136.949 60.2432 136.988L78.5807 147.583C78.6549 147.626 78.7722 147.626 78.8465 147.583L86.1698 143.389C86.2441 143.346 86.2441 143.276 86.1698 143.237L67.8323 132.642C67.7581 132.599 67.6368 132.599 67.5626 132.642L60.2393 136.836H60.2432Z" fill="#367ED6"/>
<path d="M63.7294 136.639C63.8037 136.596 63.8037 136.525 63.7294 136.486L62.9161 136.017C62.8418 135.974 62.7245 135.974 62.6502 136.017L61.837 136.486C61.7627 136.529 61.7627 136.6 61.837 136.639L62.6502 137.108C62.7245 137.151 62.8457 137.151 62.9161 137.108L63.7294 136.639Z" fill="white"/>
<path d="M64.9637 137.361C65.038 137.318 65.038 137.248 64.9637 137.205L64.1505 136.735C64.0762 136.692 63.9589 136.692 63.8846 136.735L63.0713 137.205C62.9971 137.248 62.9971 137.318 63.0713 137.361L63.8846 137.831C63.9589 137.874 64.0801 137.874 64.1544 137.831L64.9676 137.361H64.9637Z" fill="white"/>
<path d="M66.2176 138.084C66.2919 138.041 66.2919 137.971 66.2176 137.931L65.4044 137.462C65.3301 137.419 65.2089 137.419 65.1385 137.462L64.3213 137.931C64.2471 137.975 64.2471 138.045 64.3213 138.084L65.1385 138.554C65.2128 138.597 65.3301 138.597 65.4044 138.554L66.2176 138.084Z" fill="white"/>
<path d="M67.4598 138.807C67.5341 138.764 67.5341 138.693 67.4598 138.65L66.6466 138.181C66.5723 138.138 66.4511 138.138 66.3807 138.181L65.5635 138.65C65.4892 138.693 65.4892 138.764 65.5635 138.807L66.3807 139.276C66.455 139.319 66.5723 139.319 66.6466 139.276L67.4598 138.807Z" fill="white"/>
<path d="M68.7137 139.525C68.788 139.482 68.788 139.412 68.7137 139.369L67.9005 138.899C67.8262 138.856 67.705 138.856 67.6346 138.899L66.8213 139.369C66.7471 139.412 66.7471 139.482 66.8213 139.525L67.6346 139.995C67.7089 140.038 67.8301 140.038 67.9005 139.995L68.7137 139.525Z" fill="white"/>
<path d="M69.9598 140.24C70.0341 140.197 70.0341 140.127 69.9598 140.088L69.1427 139.618C69.0684 139.575 68.9511 139.575 68.8768 139.618L68.0635 140.088C67.9892 140.131 67.9892 140.201 68.0635 140.24L68.8768 140.71C68.9511 140.753 69.0723 140.753 69.1427 140.71L69.9598 140.24Z" fill="white"/>
<path d="M71.2059 140.959C71.2802 140.916 71.2802 140.846 71.2059 140.806L70.3927 140.337C70.3184 140.294 70.2011 140.294 70.1268 140.337L69.3135 140.806C69.2392 140.849 69.2392 140.92 69.3135 140.959L70.1268 141.429C70.2011 141.472 70.3184 141.472 70.3927 141.429L71.2059 140.959Z" fill="white"/>
<path d="M72.4481 141.686C72.5224 141.643 72.5224 141.572 72.4481 141.533L71.6348 141.064C71.5606 141.02 71.4393 141.02 71.369 141.064L70.5557 141.533C70.4814 141.576 70.4814 141.643 70.5557 141.686L71.369 142.155C71.4433 142.198 71.5645 142.198 71.6348 142.155L72.4481 141.686Z" fill="white"/>
<path d="M73.6942 142.4C73.7685 142.357 73.7685 142.287 73.6942 142.244L72.8809 141.774C72.8067 141.731 72.6855 141.731 72.6112 141.774L71.7979 142.244C71.7236 142.287 71.7236 142.357 71.7979 142.4L72.6112 142.87C72.6855 142.913 72.8067 142.913 72.8809 142.87L73.6942 142.4Z" fill="white"/>
<path d="M74.9442 143.119C75.0185 143.076 75.0185 143.006 74.9442 142.963L74.1309 142.493C74.0567 142.45 73.9355 142.45 73.8612 142.493L73.0479 142.963C72.9736 143.006 72.9736 143.076 73.0479 143.119L73.8612 143.589C73.9355 143.632 74.0567 143.632 74.1309 143.589L74.9442 143.119Z" fill="white"/>
<path d="M76.1864 143.846C76.2607 143.803 76.2607 143.732 76.1864 143.689L75.3731 143.22C75.2988 143.177 75.1776 143.177 75.1034 143.22L74.2901 143.689C74.2158 143.732 74.2158 143.803 74.2901 143.846L75.1034 144.315C75.1776 144.358 75.2988 144.358 75.3731 144.315L76.1864 143.846Z" fill="white"/>
<path d="M77.4403 144.565C77.5146 144.521 77.5146 144.451 77.4403 144.408L76.627 143.939C76.5527 143.895 76.4355 143.895 76.3612 143.939L75.5479 144.408C75.4736 144.451 75.4736 144.521 75.5479 144.565L76.3612 145.034C76.4355 145.077 76.5567 145.077 76.627 145.034L77.4403 144.565Z" fill="white"/>
<path d="M78.6903 145.279C78.7646 145.236 78.7646 145.166 78.6903 145.127L77.877 144.657C77.8027 144.614 77.6815 144.614 77.6112 144.657L76.7979 145.127C76.7236 145.17 76.7236 145.24 76.7979 145.279L77.6112 145.749C77.6855 145.792 77.8027 145.792 77.877 145.749L78.6903 145.279Z" fill="white"/>
<path d="M62.5298 137.373C62.604 137.33 62.604 137.26 62.5298 137.221L61.6774 136.728C61.6031 136.685 61.4858 136.685 61.4115 136.728L61.0479 136.939C60.9736 136.982 60.9736 137.052 61.0479 137.091L61.9003 137.584C61.9746 137.627 62.0958 137.627 62.17 137.584L62.5337 137.377L62.5298 137.373Z" fill="white"/>
<path d="M63.8266 138.119C63.9009 138.076 63.9009 138.006 63.8266 137.963L62.9743 137.47C62.9 137.427 62.7788 137.427 62.7084 137.47L62.3448 137.677C62.2705 137.72 62.2705 137.791 62.3448 137.834L63.1971 138.327C63.2714 138.37 63.3926 138.37 63.463 138.327L63.8266 138.119Z" fill="white"/>
<path d="M65.1157 138.869C65.19 138.826 65.19 138.756 65.1157 138.713L64.2633 138.22C64.189 138.177 64.0678 138.177 63.9975 138.22L63.6338 138.427C63.5596 138.47 63.5596 138.541 63.6338 138.584L64.4862 139.077C64.5605 139.12 64.6778 139.12 64.7521 139.077L65.1157 138.869Z" fill="white"/>
<path d="M66.4126 139.615C66.4869 139.572 66.4869 139.506 66.4126 139.463L65.5602 138.97C65.4859 138.927 65.3647 138.927 65.2943 138.97L64.9307 139.177C64.8564 139.22 64.8564 139.291 64.9307 139.334L65.7831 139.827C65.8574 139.87 65.9786 139.87 66.0489 139.827L66.4126 139.615Z" fill="white"/>
<path d="M67.6977 140.361C67.772 140.318 67.772 140.248 67.6977 140.205L66.8454 139.712C66.7711 139.669 66.6499 139.669 66.5756 139.712L66.212 139.919C66.1377 139.962 66.1377 140.033 66.212 140.076L67.0643 140.569C67.1386 140.612 67.2598 140.612 67.3302 140.569L67.6938 140.361H67.6977Z" fill="white"/>
<path d="M68.9907 141.104C69.065 141.061 69.065 140.99 68.9907 140.947L68.1383 140.454C68.064 140.411 67.9428 140.411 67.8725 140.454L67.5088 140.662C67.4346 140.705 67.4346 140.775 67.5088 140.818L68.3612 141.311C68.4355 141.354 68.5567 141.354 68.6271 141.311L68.9907 141.104Z" fill="white"/>
<path d="M70.2798 141.85C70.354 141.807 70.354 141.736 70.2798 141.697L69.4274 141.204C69.3531 141.161 69.2319 141.161 69.1615 141.204L68.7979 141.412C68.7236 141.455 68.7236 141.521 68.7979 141.564L69.6503 142.057C69.7245 142.1 69.8458 142.1 69.9161 142.057L70.2798 141.85Z" fill="white"/>
<path d="M71.5727 142.6C71.647 142.557 71.647 142.486 71.5727 142.447L70.7204 141.954C70.6461 141.911 70.5249 141.911 70.4506 141.954L70.087 142.162C70.0127 142.205 70.0127 142.275 70.087 142.314L70.9393 142.807C71.0136 142.85 71.1309 142.85 71.2052 142.807L71.5688 142.6H71.5727Z" fill="white"/>
<path d="M72.8579 143.346C72.9322 143.303 72.9322 143.232 72.8579 143.189L72.0055 142.696C71.9312 142.653 71.81 142.653 71.7396 142.696L71.376 142.908C71.3017 142.951 71.3017 143.021 71.376 143.06L72.2284 143.553C72.3027 143.596 72.4239 143.596 72.4982 143.553L72.8618 143.346H72.8579Z" fill="white"/>
<path d="M74.1548 144.096C74.229 144.053 74.229 143.982 74.1548 143.939L73.3024 143.446C73.2281 143.403 73.1069 143.403 73.0365 143.446L72.6729 143.654C72.5986 143.697 72.5986 143.767 72.6729 143.81L73.5253 144.303C73.5996 144.346 73.7208 144.346 73.795 144.303L74.1548 144.092V144.096Z" fill="white"/>
<path d="M75.4516 144.838C75.5259 144.795 75.5259 144.725 75.4516 144.682L74.5993 144.189C74.525 144.145 74.4038 144.145 74.3334 144.189L73.9698 144.396C73.8955 144.439 73.8955 144.509 73.9698 144.552L74.8221 145.045C74.8964 145.088 75.0176 145.088 75.088 145.045L75.4516 144.838Z" fill="white"/>
<path d="M76.7407 145.58C76.815 145.537 76.815 145.467 76.7407 145.424L75.8883 144.931C75.814 144.888 75.6928 144.888 75.6225 144.931L75.2588 145.142C75.1846 145.185 75.1846 145.252 75.2588 145.295L76.1112 145.788C76.1855 145.831 76.3067 145.831 76.3771 145.788L76.7407 145.58Z" fill="white"/>
<path d="M78.0298 146.334C78.104 146.291 78.104 146.221 78.0298 146.182L77.1774 145.689C77.1031 145.645 76.9858 145.645 76.9115 145.689L76.5479 145.9C76.4736 145.943 76.4736 146.013 76.5479 146.052L77.4003 146.545C77.4746 146.588 77.5958 146.588 77.6661 146.545L78.0298 146.334Z" fill="white"/>
<path d="M79.3227 147.076C79.397 147.033 79.397 146.967 79.3227 146.924L78.4704 146.431C78.3961 146.388 78.2749 146.388 78.2006 146.431L77.837 146.638C77.7627 146.681 77.7627 146.752 77.837 146.795L78.6893 147.288C78.7636 147.331 78.8809 147.331 78.9591 147.288L79.3227 147.076Z" fill="white"/>
<path d="M80.5581 146.37C80.6324 146.327 80.6324 146.256 80.5581 146.213L79.1192 145.384C79.0449 145.341 78.9237 145.341 78.8533 145.384L78.0401 145.853C77.9658 145.896 77.9658 145.967 78.0401 146.01L79.4789 146.839C79.5532 146.882 79.6744 146.882 79.7448 146.839L80.5581 146.37Z" fill="white"/>
<path d="M68.7255 133.752C68.7997 133.709 68.7997 133.639 68.7255 133.596L67.9083 133.126C67.834 133.083 67.7128 133.083 67.6424 133.126L66.8292 133.596C66.7549 133.639 66.7549 133.709 66.8292 133.752L67.6424 134.222C67.7167 134.265 67.8379 134.265 67.9083 134.222L68.7255 133.752Z" fill="white"/>
<path d="M69.9755 134.471C70.0497 134.428 70.0497 134.357 69.9755 134.314L69.1622 133.845C69.0879 133.802 68.9667 133.802 68.8924 133.845L68.0792 134.314C68.0049 134.357 68.0049 134.428 68.0792 134.471L68.8924 134.94C68.9667 134.983 69.0879 134.983 69.1622 134.94L69.9755 134.471Z" fill="white"/>
<path d="M71.2137 135.197C71.288 135.154 71.288 135.084 71.2137 135.041L70.4005 134.571C70.3262 134.528 70.2089 134.528 70.1346 134.571L69.3213 135.041C69.2471 135.084 69.2471 135.154 69.3213 135.197L70.1346 135.667C70.2089 135.71 70.3262 135.71 70.4005 135.667L71.2137 135.197Z" fill="white"/>
<path d="M83.678 143.123C83.7523 143.08 83.7523 143.01 83.678 142.971L82.8647 142.501C82.7904 142.458 82.6692 142.458 82.5989 142.501L82.4073 142.611C82.333 142.654 82.333 142.724 82.4073 142.767L83.2205 143.237C83.2948 143.28 83.416 143.28 83.4864 143.237L83.678 143.123Z" fill="white"/>
<path d="M83.0647 142.037C83.139 141.994 83.139 141.924 83.0647 141.885L82.2515 141.415C82.1772 141.372 82.056 141.372 81.9817 141.415L81.7901 141.525C81.7158 141.568 81.7158 141.638 81.7901 141.681L82.6034 142.151C82.6776 142.194 82.7949 142.194 82.8692 142.151L83.0608 142.041L83.0647 142.037Z" fill="white"/>
<path d="M84.303 142.76C84.3773 142.717 84.3773 142.646 84.303 142.603L83.4897 142.134C83.4154 142.091 83.2942 142.091 83.2239 142.134L83.0323 142.243C82.958 142.286 82.958 142.357 83.0323 142.4L83.8494 142.869C83.9237 142.912 84.0449 142.912 84.1153 142.869L84.3069 142.76H84.303Z" fill="white"/>
<path d="M85.553 143.475C85.6273 143.432 85.6273 143.365 85.553 143.322L84.7397 142.853C84.6654 142.81 84.5442 142.81 84.4739 142.853L84.2823 142.962C84.208 143.005 84.208 143.076 84.2823 143.115L85.0955 143.584C85.1698 143.627 85.291 143.627 85.3614 143.584L85.553 143.471V143.475Z" fill="white"/>
<path d="M72.4637 135.916C72.538 135.873 72.538 135.803 72.4637 135.76L71.6505 135.29C71.5762 135.247 71.455 135.247 71.3846 135.29L70.5713 135.76C70.4971 135.803 70.4971 135.873 70.5713 135.912L71.3846 136.382C71.4589 136.425 71.5801 136.425 71.6505 136.382L72.4637 135.912V135.916Z" fill="white"/>
<path d="M79.3205 139.878C79.3948 139.835 79.3948 139.765 79.3205 139.726L72.8927 136.009C72.8184 135.966 72.6972 135.966 72.6268 136.009L71.8135 136.478C71.7392 136.521 71.7392 136.592 71.8135 136.631L78.2414 140.344C78.3157 140.387 78.4369 140.387 78.5112 140.344L79.3245 139.874L79.3205 139.878Z" fill="white"/>
<path d="M80.5692 140.596C80.6435 140.553 80.6435 140.482 80.5692 140.439L79.7559 139.97C79.6817 139.927 79.5604 139.927 79.4862 139.97L78.6729 140.439C78.5986 140.482 78.5986 140.553 78.6729 140.596L79.4862 141.065C79.5604 141.108 79.6817 141.108 79.752 141.065L80.5653 140.596H80.5692Z" fill="white"/>
<path d="M81.8075 141.315C81.8818 141.271 81.8818 141.201 81.8075 141.158L80.9942 140.689C80.9199 140.645 80.7987 140.645 80.7284 140.689L79.9151 141.158C79.8408 141.201 79.8408 141.271 79.9151 141.315L80.7284 141.784C80.8026 141.827 80.9199 141.827 80.9942 141.784L81.8075 141.315Z" fill="white"/>
<path d="M66.8465 137.002C66.9208 136.959 66.9208 136.889 66.8465 136.846L66.0333 136.376C65.959 136.333 65.8378 136.333 65.7674 136.376L64.9542 136.846C64.8799 136.889 64.8799 136.959 64.9542 137.002L65.7674 137.472C65.8417 137.515 65.9629 137.515 66.0333 137.472L66.8465 137.002Z" fill="white"/>
<path d="M65.5893 136.28C65.6636 136.237 65.6636 136.166 65.5893 136.127L64.1505 135.298C64.0762 135.255 63.9589 135.255 63.8846 135.298L63.0713 135.767C62.9971 135.81 62.9971 135.881 63.0713 135.924L64.5102 136.753C64.5845 136.796 64.7057 136.796 64.7761 136.753L65.5893 136.284V136.28Z" fill="white"/>
<path d="M68.0848 137.721C68.1591 137.678 68.1591 137.607 68.0848 137.564L67.2716 137.095C67.1973 137.052 67.0761 137.052 67.0018 137.095L66.1885 137.564C66.1142 137.607 66.1142 137.678 66.1885 137.721L67.0018 138.19C67.0761 138.233 67.1973 138.233 67.2716 138.19L68.0848 137.721Z" fill="white"/>
<path d="M69.3348 138.44C69.4091 138.396 69.4091 138.326 69.3348 138.283L68.5216 137.814C68.4473 137.77 68.3261 137.77 68.2518 137.814L67.4385 138.283C67.3642 138.326 67.3642 138.396 67.4385 138.44L68.2518 138.909C68.3261 138.952 68.4473 138.952 68.5216 138.909L69.3348 138.44Z" fill="white"/>
<path d="M70.5809 139.166C70.6552 139.123 70.6552 139.053 70.5809 139.01L69.7677 138.54C69.6934 138.497 69.5722 138.497 69.5018 138.54L68.6885 139.01C68.6142 139.053 68.6142 139.123 68.6885 139.166L69.5018 139.636C69.5761 139.679 69.6934 139.679 69.7677 139.636L70.5809 139.166Z" fill="white"/>
<path d="M71.8348 139.885C71.9091 139.842 71.9091 139.771 71.8348 139.728L71.0177 139.259C70.9434 139.216 70.8222 139.216 70.7518 139.259L69.9385 139.728C69.8642 139.771 69.8642 139.842 69.9385 139.885L70.7518 140.354C70.8261 140.397 70.9473 140.397 71.0177 140.354L71.8348 139.885Z" fill="white"/>
<path d="M73.0731 140.604C73.1474 140.561 73.1474 140.49 73.0731 140.447L72.2598 139.978C72.1856 139.935 72.0643 139.935 71.994 139.978L71.1807 140.447C71.1064 140.49 71.1064 140.561 71.1807 140.604L71.994 141.073C72.0683 141.116 72.1895 141.116 72.2598 141.073L73.0731 140.604Z" fill="white"/>
<path d="M74.3231 141.326C74.3974 141.283 74.3974 141.213 74.3231 141.174L73.5099 140.704C73.4356 140.661 73.3144 140.661 73.244 140.704L72.4307 141.174C72.3564 141.217 72.3564 141.287 72.4307 141.326L73.244 141.796C73.3183 141.839 73.4395 141.839 73.5099 141.796L74.327 141.326H74.3231Z" fill="white"/>
<path d="M75.5692 142.049C75.6435 142.006 75.6435 141.935 75.5692 141.892L74.7559 141.423C74.6817 141.38 74.5605 141.38 74.4862 141.423L73.6729 141.892C73.5986 141.935 73.5986 142.006 73.6729 142.049L74.4862 142.518C74.5605 142.561 74.6817 142.561 74.7559 142.518L75.5692 142.049Z" fill="white"/>
<path d="M76.8153 142.768C76.8896 142.725 76.8896 142.654 76.8153 142.611L76.002 142.142C75.9277 142.099 75.8065 142.099 75.7362 142.142L74.9229 142.611C74.8486 142.654 74.8486 142.725 74.9229 142.768L75.7362 143.237C75.8105 143.28 75.9317 143.28 76.002 143.237L76.8153 142.768Z" fill="white"/>
<path d="M78.0653 143.486C78.1396 143.443 78.1396 143.373 78.0653 143.33L77.252 142.86C77.1777 142.817 77.0565 142.817 76.9862 142.86L76.1729 143.33C76.0986 143.373 76.0986 143.443 76.1729 143.486L76.9862 143.956C77.0604 143.999 77.1777 143.999 77.252 143.956L78.0653 143.486Z" fill="white"/>
<path d="M79.3075 144.205C79.3818 144.162 79.3818 144.092 79.3075 144.049L78.4942 143.579C78.4199 143.536 78.2987 143.536 78.2284 143.579L77.4151 144.049C77.3408 144.092 77.3408 144.162 77.4151 144.205L78.2284 144.675C78.3026 144.718 78.4238 144.718 78.4942 144.675L79.3075 144.205Z" fill="white"/>
<path d="M80.5575 144.924C80.6318 144.881 80.6318 144.81 80.5575 144.767L79.7442 144.298C79.6699 144.255 79.5526 144.255 79.4784 144.298L78.6651 144.767C78.5908 144.81 78.5908 144.881 78.6651 144.924L79.4784 145.393C79.5526 145.436 79.6738 145.436 79.7442 145.393L80.5575 144.924Z" fill="white"/>
<path d="M81.8036 145.643C81.8779 145.6 81.8779 145.529 81.8036 145.486L80.9903 145.017C80.916 144.974 80.7948 144.974 80.7205 145.017L79.9073 145.486C79.833 145.529 79.833 145.6 79.9073 145.643L80.7205 146.112C80.7948 146.155 80.916 146.155 80.9903 146.112L81.8036 145.643Z" fill="white"/>
<path d="M68.3856 136.455C68.4599 136.412 68.4599 136.342 68.3856 136.299L67.5724 135.829C67.4981 135.786 67.3769 135.786 67.3065 135.829L66.4932 136.299C66.4189 136.342 66.4189 136.412 66.4932 136.455L67.3065 136.925C67.3808 136.968 67.502 136.968 67.5724 136.925L68.3856 136.455Z" fill="white"/>
<path d="M67.1404 135.733C67.2147 135.69 67.2147 135.62 67.1404 135.581L65.4044 134.579C65.3301 134.536 65.2089 134.536 65.1385 134.579L64.3213 135.049C64.2471 135.092 64.2471 135.162 64.3213 135.205L66.0573 136.207C66.1316 136.25 66.2528 136.25 66.3232 136.207L67.1365 135.737L67.1404 135.733Z" fill="white"/>
<path d="M69.6317 137.174C69.706 137.131 69.706 137.06 69.6317 137.017L68.8184 136.548C68.7442 136.505 68.6269 136.505 68.5526 136.548L67.7354 137.017C67.6611 137.06 67.6611 137.131 67.7354 137.174L68.5526 137.643C68.6269 137.686 68.7481 137.686 68.8184 137.643L69.6317 137.174Z" fill="white"/>
<path d="M70.8778 137.889C70.9521 137.846 70.9521 137.775 70.8778 137.736L70.0645 137.267C69.9902 137.224 69.873 137.224 69.7987 137.267L68.9854 137.736C68.9111 137.779 68.9111 137.846 68.9854 137.889L69.7987 138.358C69.873 138.401 69.9902 138.401 70.0645 138.358L70.8778 137.889Z" fill="white"/>
<path d="M72.1278 138.611C72.2021 138.568 72.2021 138.498 72.1278 138.455L71.3145 137.985C71.2402 137.942 71.119 137.942 71.0487 137.985L70.2354 138.455C70.1611 138.498 70.1611 138.568 70.2354 138.611L71.0487 139.081C71.123 139.124 71.2402 139.124 71.3145 139.081L72.1278 138.611Z" fill="white"/>
<path d="M73.3661 139.334C73.4404 139.291 73.4404 139.221 73.3661 139.181L72.5528 138.712C72.4785 138.669 72.3573 138.669 72.283 138.712L71.4698 139.181C71.3955 139.225 71.3955 139.295 71.4698 139.334L72.283 139.804C72.3573 139.847 72.4785 139.847 72.5528 139.804L73.3661 139.334Z" fill="white"/>
<path d="M74.6161 140.053C74.6904 140.01 74.6904 139.939 74.6161 139.9L73.8028 139.431C73.7285 139.388 73.6073 139.388 73.533 139.431L72.7198 139.9C72.6455 139.943 72.6455 140.014 72.7198 140.053L73.533 140.522C73.6073 140.565 73.7285 140.565 73.8028 140.522L74.6161 140.053Z" fill="white"/>
<path d="M75.87 140.775C75.9443 140.732 75.9443 140.662 75.87 140.619L75.0567 140.149C74.9824 140.106 74.8612 140.106 74.7909 140.149L73.9776 140.619C73.9033 140.662 73.9033 140.732 73.9776 140.775L74.7909 141.245C74.8651 141.288 74.9863 141.288 75.0567 141.245L75.87 140.775Z" fill="white"/>
<path d="M77.1122 141.498C77.1865 141.455 77.1865 141.385 77.1122 141.346L76.2989 140.876C76.2246 140.833 76.1034 140.833 76.033 140.876L75.2198 141.346C75.1455 141.389 75.1455 141.459 75.2198 141.502L76.033 141.972C76.1073 142.015 76.2285 142.015 76.2989 141.972L77.1122 141.502V141.498Z" fill="white"/>
<path d="M78.3622 142.217C78.4365 142.174 78.4365 142.103 78.3622 142.064L77.5489 141.595C77.4746 141.552 77.3534 141.552 77.283 141.595L76.4698 142.064C76.3955 142.107 76.3955 142.178 76.4698 142.217L77.283 142.686C77.3573 142.729 77.4785 142.729 77.5489 142.686L78.3622 142.217Z" fill="white"/>
<path d="M79.6005 142.932C79.6747 142.889 79.6747 142.818 79.6005 142.775L78.7872 142.306C78.7129 142.263 78.5917 142.263 78.5174 142.306L77.7042 142.775C77.6299 142.818 77.6299 142.889 77.7042 142.932L78.5174 143.401C78.5917 143.444 78.7129 143.444 78.7872 143.401L79.6005 142.932Z" fill="white"/>
<path d="M80.8505 143.654C80.9247 143.611 80.9247 143.541 80.8505 143.502L80.0372 143.032C79.9629 142.989 79.8417 142.989 79.7674 143.032L78.9542 143.502C78.8799 143.545 78.8799 143.615 78.9542 143.654L79.7674 144.124C79.8417 144.167 79.9629 144.167 80.0372 144.124L80.8505 143.654Z" fill="white"/>
<path d="M83.0427 144.929C83.117 144.886 83.117 144.815 83.0427 144.772L81.2755 143.751C81.2012 143.708 81.0839 143.708 81.0096 143.751L80.1963 144.221C80.1221 144.264 80.1221 144.334 80.1963 144.377L81.9636 145.398C82.0379 145.441 82.1591 145.441 82.2334 145.398L83.0467 144.929H83.0427Z" fill="white"/>
<path d="M70.2606 136.1C70.3349 136.057 70.3349 135.986 70.2606 135.947L69.4473 135.478C69.3731 135.435 69.2519 135.435 69.1815 135.478L68.3682 135.947C68.2939 135.99 68.2939 136.061 68.3682 136.1L69.1815 136.569C69.2558 136.612 69.377 136.612 69.4473 136.569L70.2606 136.1Z" fill="white"/>
<path d="M69.0121 135.375C69.0864 135.332 69.0864 135.261 69.0121 135.218L66.6466 133.853C66.5723 133.81 66.4511 133.81 66.3807 133.853L65.5635 134.322C65.4892 134.365 65.4892 134.436 65.5635 134.479L67.9329 135.848C68.0072 135.891 68.1284 135.891 68.1988 135.848L69.0121 135.378V135.375Z" fill="white"/>
<path d="M71.5145 136.818C71.5888 136.775 71.5888 136.705 71.5145 136.666L70.7013 136.196C70.627 136.153 70.5058 136.153 70.4315 136.196L69.6182 136.666C69.5439 136.709 69.5439 136.779 69.6182 136.818L70.4354 137.288C70.5097 137.331 70.6309 137.331 70.7013 137.288L71.5145 136.818Z" fill="white"/>
<path d="M72.7606 137.537C72.8349 137.494 72.8349 137.424 72.7606 137.385L71.9473 136.915C71.8731 136.872 71.7558 136.872 71.6815 136.915L70.8682 137.385C70.7939 137.428 70.7939 137.498 70.8682 137.537L71.6815 138.007C71.7558 138.05 71.877 138.05 71.9473 138.007L72.7606 137.537Z" fill="white"/>
<path d="M74.0067 138.256C74.081 138.213 74.081 138.142 74.0067 138.103L73.1934 137.634C73.1192 137.591 72.998 137.591 72.9237 137.634L72.1104 138.103C72.0361 138.146 72.0361 138.217 72.1104 138.256L72.9237 138.725C72.998 138.768 73.1192 138.768 73.1934 138.725L74.0067 138.256Z" fill="white"/>
<path d="M75.2567 138.979C75.331 138.936 75.331 138.865 75.2567 138.822L74.4395 138.353C74.3653 138.31 74.248 138.31 74.1737 138.353L73.3604 138.822C73.2861 138.865 73.2861 138.936 73.3604 138.979L74.1737 139.448C74.248 139.491 74.3692 139.491 74.4434 139.448L75.2567 138.979Z" fill="white"/>
<path d="M76.4989 139.697C76.5732 139.654 76.5732 139.584 76.4989 139.541L75.6817 139.071C75.6074 139.028 75.4901 139.028 75.4159 139.071L74.6026 139.541C74.5283 139.584 74.5283 139.654 74.6026 139.697L75.4159 140.167C75.4901 140.21 75.6113 140.21 75.6817 140.167L76.4989 139.697Z" fill="white"/>
<path d="M77.745 140.424C77.8193 140.381 77.8193 140.31 77.745 140.267L76.9317 139.798C76.8574 139.755 76.7362 139.755 76.6659 139.798L75.8526 140.267C75.7783 140.31 75.7783 140.381 75.8526 140.424L76.6659 140.893C76.7401 140.936 76.8613 140.936 76.9317 140.893L77.745 140.424Z" fill="white"/>
<path d="M78.9911 141.147C79.0654 141.104 79.0654 141.033 78.9911 140.994L78.1778 140.524C78.1035 140.481 77.9823 140.481 77.908 140.524L77.0948 140.994C77.0205 141.037 77.0205 141.107 77.0948 141.147L77.908 141.616C77.9823 141.659 78.1035 141.659 78.1778 141.616L78.9911 141.147Z" fill="white"/>
<path d="M80.2372 141.861C80.3115 141.818 80.3115 141.748 80.2372 141.705L79.4239 141.235C79.3496 141.192 79.2284 141.192 79.158 141.235L78.3448 141.705C78.2705 141.748 78.2705 141.818 78.3448 141.861L79.158 142.331C79.2323 142.374 79.3496 142.374 79.4239 142.331L80.2372 141.861Z" fill="white"/>
<path d="M81.4872 142.58C81.5615 142.537 81.5615 142.467 81.4872 142.424L80.6739 141.954C80.5996 141.911 80.4784 141.911 80.408 141.954L79.5948 142.424C79.5205 142.467 79.5205 142.537 79.5948 142.58L80.408 143.05C80.4823 143.093 80.6035 143.093 80.6739 143.05L81.4872 142.58Z" fill="white"/>
<path d="M84.2933 144.203C84.3676 144.16 84.3676 144.089 84.2933 144.046L81.9161 142.673C81.8418 142.63 81.7245 142.63 81.6502 142.673L80.837 143.142C80.7627 143.185 80.7627 143.256 80.837 143.295L83.2142 144.668C83.2885 144.711 83.4097 144.711 83.4801 144.668L84.2933 144.199V144.203Z" fill="white"/>
<path opacity="0.3" d="M73.7764 135.482C73.7099 135.521 73.7099 135.584 73.7764 135.623L79.2933 138.812C79.3598 138.851 79.4692 138.851 79.5357 138.812L83.5512 136.492C83.6176 136.453 83.6176 136.39 83.5512 136.351L78.0343 133.162C77.9678 133.123 77.8584 133.123 77.7919 133.162L73.7764 135.482Z" fill="#367ED6"/>
<path d="M56.7188 120.415C56.7188 119.989 57.0198 119.816 57.3873 120.028L77.1519 131.444C77.5194 131.656 77.8205 132.18 77.8205 132.602V148.28C77.8205 148.706 77.5194 148.878 77.1519 148.667L57.3873 137.251C57.0198 137.039 56.7188 136.515 56.7188 136.092V120.415Z" fill="white"/>
<g style="mix-blend-mode:multiply" opacity="0.1">
<path d="M56.7188 120.415C56.7188 119.989 57.0198 119.816 57.3873 120.028L77.1519 131.444C77.5194 131.656 77.8205 132.18 77.8205 132.602V148.28C77.8205 148.706 77.5194 148.878 77.1519 148.667L57.3873 137.251C57.0198 137.039 56.7188 136.515 56.7188 136.092V120.415Z" fill="#367ED6"/>
</g>
<path d="M77.8203 148.287V132.61C77.8203 132.183 77.5192 131.663 77.1517 131.452L57.3871 120.035C57.2112 119.933 57.0509 119.922 56.9297 119.98C56.9297 119.98 56.9297 119.98 56.9336 119.98L57.4575 119.679C57.5787 119.616 57.739 119.628 57.9189 119.73L77.6834 131.147C78.051 131.358 78.352 131.882 78.352 132.305V147.982C78.352 148.193 78.2778 148.342 78.1565 148.412L77.6248 148.718C77.7421 148.647 77.8164 148.498 77.8164 148.287H77.8203Z" fill="white"/>
<path d="M78.5376 132.191C78.608 132.379 79.1319 132.551 79.6167 132.39C80.1054 132.23 81.4426 131.322 81.4426 131.322H83.6791L82.3224 132.801C82.3224 132.801 80.8757 132.656 80.6919 132.801C80.5082 132.946 80.4847 133.357 80.6255 133.584C80.7623 133.815 81.5247 134.139 81.5247 134.139C81.5247 134.139 82.1425 135.966 82.338 136.553C82.5374 137.14 82.6586 137.461 82.9401 137.383C83.2216 137.304 83.3428 136.596 83.2373 136.186C83.1317 135.775 82.9245 134.237 82.9245 134.237L83.7534 134.022C83.7534 134.022 83.4719 135.348 83.5188 135.767C83.5657 136.186 84.074 137.297 84.2421 137.567C84.4102 137.833 85.1258 138.251 85.3095 138.251C85.4933 138.251 85.638 138.197 85.638 138.197C85.638 138.197 86.0211 138.341 86.1697 138.067C86.3183 137.794 85.6966 136.538 85.6966 136.538L86.5881 134.984C86.5881 134.984 87.8901 135.845 88.7815 135.951C89.673 136.056 90.713 136.119 90.713 136.119L91.5966 136.522L92.3747 133.552C92.3747 133.552 90.7521 133.028 89.2898 132.289C87.8275 131.549 85.4464 130.368 84.899 130.223C84.3516 130.078 82.0057 129.988 81.4974 130.07C80.9891 130.152 79.6323 131.131 79.5854 131.15C79.5385 131.174 78.4046 131.835 78.5337 132.187L78.5376 132.191Z" fill="#FFCDA8"/>
<path d="M83.2438 136.189C83.1382 135.779 82.931 134.241 82.931 134.241L83.7599 134.026L84.0805 132.539C84.0805 132.539 82.5517 134.229 82.3289 134.323C82.106 134.413 81.5312 134.139 81.5312 134.139C81.5312 134.139 82.149 135.966 82.3445 136.553C82.5439 137.14 82.6651 137.461 82.9466 137.383C83.2281 137.304 83.3494 136.596 83.2438 136.186V136.189Z" fill="#D9A782"/>
<path d="M81.6112 133.523C81.7168 133.339 82.3268 132.799 82.3268 132.799C82.3268 132.799 80.8801 132.654 80.6963 132.799C80.5126 132.943 80.4891 133.354 80.6299 133.581C80.7667 133.812 81.5291 134.137 81.5291 134.137C81.5291 134.137 81.5057 133.702 81.6152 133.519L81.6112 133.523Z" fill="#D9A782"/>
<path d="M85.2829 136.609C85.2008 136.496 84.4931 136.57 84.4384 136.39C84.3836 136.206 85.1226 134.148 85.1226 134.148C85.1226 134.148 84.1334 135.811 83.9105 135.803C83.7854 135.8 83.6329 135.737 83.5156 135.678C83.5156 135.713 83.5156 135.745 83.5195 135.772C83.5665 136.191 84.0747 137.302 84.2429 137.572C84.411 137.838 85.1265 138.257 85.3103 138.257C85.494 138.257 85.6387 138.202 85.6387 138.202C85.6387 138.202 85.9202 138.307 86.0962 138.163C85.8577 137.697 85.3455 136.699 85.2829 136.609Z" fill="#D9A782"/>
<path d="M91.5319 133.111L90.8203 136.355C90.8203 136.355 96.6343 140.123 98.3938 141.042C100.153 141.961 104.63 143.573 105.568 143.01C106.511 142.447 106.386 138.655 105.737 136.081C105.088 133.507 103.582 123.518 103.352 121.53C103.121 119.543 102.179 114.539 100.087 113.701C97.995 112.864 93.8309 115.92 95.1916 119.899C96.5522 123.878 99.6489 134.966 99.6489 134.966L91.5319 133.107V133.111Z" fill="#518C3C"/>
<path d="M98.6875 131.547C99.2583 133.546 99.6532 134.966 99.6532 134.966C99.6532 134.966 102.351 135.976 103.149 136.543C103.149 136.543 100.568 133.718 98.6875 131.551V131.547Z" fill="#96CE70"/>
<path d="M67.9997 142.838C67.3702 142.419 65.3448 141.985 65.1102 142.642C64.8796 143.299 67.1317 145.353 67.9762 145.647C68.8168 145.94 70.4512 146.042 70.1227 145.361C69.7943 144.68 68.9732 143.483 67.9997 142.838Z" fill="#FFCDA8"/>
<path d="M82.5968 101.81C82.5968 101.81 82.1198 103.007 82.2723 104.083C82.4287 105.159 83.3006 107.17 83.4452 108.066C83.5899 108.962 83.9574 110.135 84.8567 110.507C85.7521 110.879 89.3531 110.077 91.6717 108.199C93.9902 106.321 95.9647 102.123 96.4417 100.409C96.9188 98.6993 96.6099 96.4144 95.7849 94.7125C94.9599 93.0144 92.1018 91.1364 89.052 91.9972C86.0023 92.8579 84.9388 94.0904 83.8167 95.6593C82.6945 97.2282 82.37 99.9317 82.3348 100.519C82.2996 101.105 82.5968 101.81 82.5968 101.81Z" fill="#FFCDA8"/>
<path d="M82.2684 104.083C82.4248 105.159 83.2967 107.17 83.4413 108.066C83.586 108.962 83.9535 110.136 84.8528 110.508C84.9857 110.562 85.1773 110.59 85.4119 110.594C84.2233 109.506 83.8831 106.712 83.8831 106.712C83.8831 106.712 83.3084 106.532 83.0582 106.341C82.8079 106.149 83.9183 103.614 84.0239 102.741C84.106 102.06 82.89 101.239 82.3426 100.906C82.4052 101.376 82.589 101.81 82.589 101.81C82.589 101.81 82.112 103.007 82.2644 104.083H82.2684Z" fill="#D9A782"/>
<path d="M100.791 113.6C100.791 108.94 99.133 107.011 98.3705 105.493C96.6658 102.097 97.5299 99.4911 97.1076 96.8033C96.6854 94.1193 93.6083 90.1481 88.5137 91.4627C83.4191 92.7773 82.2422 97.7344 82.2422 97.7344C83.4621 97.6875 84.6116 99.3464 84.6116 99.3464C84.6116 99.3464 86.4336 99.0686 87.763 100.121C89.0884 101.174 91.4109 104.022 93.9093 102.711L95.3873 103.02C95.1097 106.526 98.0851 109.703 98.0851 109.703C98.0851 109.703 96.4821 107.042 96.4821 105.516C96.4821 105.516 97.4595 107.23 98.1672 108.255C98.8866 109.296 99.5591 110.571 99.5865 111.413C99.5865 111.413 99.7234 109.758 98.9883 108.099C100.087 109.566 100.799 113.596 100.799 113.596L100.791 113.6Z" fill="#563317"/>
<path d="M95.6492 101.712C95.6492 101.712 93.2251 102.134 91.665 100.906C91.665 100.906 92.2203 101.829 93.5105 102.24C93.5105 102.24 92.5057 102.6 91.3405 101.899C90.1754 101.199 88.4902 99.3171 87.2195 98.9415C85.9488 98.5659 84.7641 99.1371 84.7641 99.1371C84.7641 99.1371 85.6164 92.4702 91.9192 91.3591C90.9144 91.1361 89.7766 91.1361 88.5137 91.4647C83.4191 92.7793 82.2422 97.7364 82.2422 97.7364C83.4621 97.6895 84.6116 99.3484 84.6116 99.3484C84.6116 99.3484 86.4336 99.0706 87.763 100.123C89.0884 101.176 91.4109 104.024 93.9093 102.713L95.3873 103.022C95.3755 103.183 95.3716 103.339 95.3716 103.496L95.6805 102.4L95.6531 101.712H95.6492Z" fill="#563317"/>
<path d="M93.7663 102.959C94.1064 102.18 95.08 101.547 95.643 101.715C96.206 101.883 96.4094 102.947 95.905 103.843C95.4045 104.739 93.5239 106.198 93.0468 105.866C92.5698 105.533 93.5121 103.534 93.7663 102.959Z" fill="#FFCDA8"/>
<path d="M109.982 191.726C110.756 195.596 111.562 203.632 112.234 207.165C112.907 210.698 113.176 213.421 112.871 215.67C112.57 217.924 111.569 220.898 111.569 220.898C111.569 220.898 110.318 222.67 111.358 223.159C112.394 223.652 113.255 222.701 114.259 221.234C115.268 219.763 118.49 216.844 119.088 216.246C118.764 215.921 118.486 215.737 118.349 214.055C118.212 212.372 119.694 204.841 120.132 201.812C120.57 198.788 118.079 192.497 117.544 190.623C117.004 188.745 117.81 185.975 118.619 183.181C119.424 180.388 119.796 171.643 119.796 171.643C119.796 171.643 121.438 161.925 120.195 159.166C118.951 156.412 108.703 157.687 107.19 159.511C105.677 161.33 105.474 168.548 106.013 173.729C106.549 178.909 109.204 187.857 109.978 191.722L109.982 191.726Z" fill="#FFCDA8"/>
<path d="M129.182 206.829L129.428 209.399C129.428 209.399 128.173 209.525 128.482 210.534C128.787 211.544 129.796 210.871 129.948 210.045C130.104 209.216 130.898 208.637 131.449 208.331C131.997 208.026 134.323 206.833 134.323 206.833C134.323 206.833 133.647 205.479 133.397 204.419C133.142 203.359 133.913 197.075 134.21 193.276C134.515 189.481 131.133 184.481 129.968 181.402C128.802 178.319 130.456 171.366 130.91 164.938C131.363 158.514 128.955 154.867 128.955 154.867L118.703 159.261V165.654C118.703 165.654 119.814 171.652 120.916 176.816C122.027 181.981 124.412 186.363 125.123 188.092C125.839 189.817 127.903 197.713 128.486 200.534C129.068 203.351 129.186 206.833 129.186 206.833L129.182 206.829Z" fill="#FFCDA8"/>
<path d="M116.109 201.093C115.077 197.278 113.571 189.293 114.643 183.886C115.718 178.482 113.208 157.672 113.208 157.672C110.506 157.93 107.902 158.662 107.198 159.511C105.685 161.33 105.482 168.549 106.021 173.729C106.557 178.909 109.212 187.857 109.986 191.722C110.76 195.592 111.565 203.628 112.238 207.161C112.91 210.694 113.18 213.417 112.875 215.667C112.574 217.92 111.573 220.894 111.573 220.894C111.573 220.894 110.322 222.666 111.362 223.155C112.398 223.648 113.258 222.697 114.263 221.23C114.646 220.675 115.342 219.912 116.097 219.149C116.042 218.922 115.968 218.668 115.874 218.37C115.319 216.664 115.913 215.71 115.874 215.389C115.831 215.076 117.145 204.903 116.109 201.085V201.093Z" fill="#D9A782"/>
<path d="M131.137 199.287C130.836 193.919 130.069 189.357 129.346 187.608C128.623 185.859 126.574 183.171 126.32 178.868C126.136 175.812 125.514 163.413 125.166 156.484L118.695 159.258V165.651C118.695 165.651 119.806 171.649 120.908 176.814C122.019 181.978 124.404 186.36 125.115 188.089C125.831 189.815 127.895 197.71 128.478 200.531C129.06 203.348 129.178 206.83 129.178 206.83L129.424 209.401C129.424 209.401 128.169 209.526 128.478 210.535C128.783 211.545 129.792 210.872 129.944 210.046C130.1 209.217 130.894 208.638 131.446 208.333C131.68 208.2 132.255 207.902 132.826 207.605C132.235 205.923 131.332 202.843 131.137 199.291V199.287Z" fill="#D9A782"/>
<path d="M118.805 122.516L118.723 122.641L115.388 124.355L114.492 127.085L119.864 124.66L118.805 122.516Z" fill="white"/>
<path d="M103.008 147.12L110.671 143.454L108.978 140.438L103.008 147.12Z" fill="#C7DEEB"/>
<path d="M100.469 140.315C100.469 140.315 100.293 137.643 100.469 137.47C100.637 137.294 104.594 136.43 104.594 136.43L100.469 140.315Z" fill="#FFCDA8"/>
<path d="M100.527 137.438C100.496 137.449 100.473 137.461 100.469 137.473C100.293 137.645 100.469 140.317 100.469 140.317L101.845 139.018C101.384 138.431 100.926 137.895 100.527 137.438Z" fill="#D9A782"/>
<path d="M119.084 216.25C119.084 216.25 120.981 217.138 121.454 218.621C121.927 220.104 120.86 221.36 120.492 222.737C120.124 224.11 120.124 227.721 120.124 227.721L119.479 227.538C119.479 227.538 119.542 224.173 119.081 223.41C118.623 222.643 117.462 222.674 116.512 223.41C115.569 224.145 112.844 226.802 111.288 226.802C109.732 226.802 104.716 222.553 104.962 221.36C105.204 220.166 111.562 220.902 111.562 220.902C111.562 220.902 110.311 222.674 111.351 223.163C112.387 223.656 113.247 222.706 114.252 221.238C115.261 219.767 118.482 216.849 119.081 216.25H119.084Z" fill="#518C3C"/>
<path d="M134.318 206.832C134.318 206.832 131.991 208.025 131.444 208.331C130.893 208.64 130.099 209.219 129.942 210.044C129.794 210.87 128.781 211.543 128.476 210.533C128.167 209.524 129.422 209.399 129.422 209.399L129.176 206.828C129.176 206.828 127.616 206.218 127.342 206.402C127.069 206.586 127.194 211.938 128.289 213.037C129.817 214.567 132.109 212.767 132.718 212.795C132.718 212.795 133.97 213.041 134.462 214.54C134.947 216.042 135.225 217.263 135.225 217.263L135.835 217.079C135.835 217.079 135.041 214.113 135.44 212.826C135.835 211.543 136.476 210.471 136.261 209.43C136.046 208.393 134.306 206.832 134.306 206.832H134.318Z" fill="#518C3C"/>
<path d="M106.32 160.904C106.32 160.904 105.652 163.326 105.483 169.86C105.315 176.393 108.279 185.056 108.279 185.056C108.279 185.056 111.059 186.789 115.493 186.233C117.561 185.971 128.693 181.339 129.913 178.264C129.913 178.264 131.297 165.587 131.297 161.593C131.297 157.598 128.083 152.602 128.083 152.602C128.083 152.602 108.291 152.5 106.316 160.904H106.32Z" fill="#563317"/>
<path d="M106.32 160.908C106.32 160.908 105.652 163.33 105.483 169.864C105.315 176.397 108.279 185.06 108.279 185.06C108.279 185.06 110.332 186.339 113.722 186.343C113.299 180.756 113.714 173.588 114.167 171.726C114.726 169.433 119.747 168.686 124.83 166.953C127.883 165.908 130.042 164.018 131.277 162.672C131.293 162.273 131.301 161.909 131.301 161.6C131.301 157.606 128.087 152.609 128.087 152.609C128.087 152.609 108.295 152.508 106.32 160.912V160.908Z" fill="#518C3C"/>
<path d="M109.715 130.127C109.715 130.127 107.283 137.095 107.526 139.333C107.772 141.575 109.019 146.591 108.613 148.786C108.206 150.977 105.625 162.769 105.188 165.547C105.188 165.547 106.278 167.535 113.207 167.973C120.135 168.415 129.198 164.252 131.732 160.989C131.732 160.989 129.972 155.073 128.51 152.299C127.052 149.521 124.225 146.356 125.007 143.821C125.785 141.29 132.748 129.74 132.94 126.915C133.135 124.09 132.162 121.653 130.653 121.019C129.143 120.385 123.67 121.359 123.67 121.359C123.67 121.359 120.08 122.639 116.198 124.947C113.664 126.449 110.622 128.785 109.715 130.131V130.127Z" fill="#E6F6FF"/>
<path d="M116.874 138.899C116.78 135.871 112.487 132.823 109.414 131.023C108.773 132.976 107.338 137.589 107.526 139.337C107.772 141.579 109.019 146.595 108.613 148.79C108.206 150.981 105.625 162.773 105.188 165.551C105.188 165.551 106.278 167.539 113.207 167.977C114.047 168.032 114.927 168.032 115.826 167.985C112.784 157.507 117.015 143.457 116.874 138.903V138.899Z" fill="#C7DEEB"/>
<path d="M113.413 127.745C112.455 127.494 108.569 129.865 106.575 132.886C104.577 135.906 98.9073 141.141 98.1761 142.651C97.445 144.162 97.316 147.354 98.5671 148.156C100.385 149.326 104.24 146.435 106.285 144.678C108.33 142.925 113.804 138.754 115.505 134.713C117.21 130.667 115.458 128.281 113.409 127.745H113.413Z" fill="#E6F6FF"/>
<path d="M119.16 128.13C119.16 128.13 119.406 124.136 118.812 122.657C118.217 121.178 117.697 120.935 117.033 120.779C116.513 120.658 115.445 120.955 114.241 118.553C113.037 116.15 113.49 115.125 113.287 114.1C113.088 113.075 112.779 112.359 112.947 111.369C113.123 110.376 113.451 106.682 116.356 105.426C119.257 104.166 122.804 104.386 124.747 105.508C126.686 106.631 128.215 109.245 128.199 111.964C128.188 114.683 126.706 116.381 126.682 118.236C126.659 120.09 127.797 122.367 128.907 123.799C130.017 125.235 127.711 127.258 126.131 127.994C122.608 129.637 119.16 128.134 119.16 128.134V128.13Z" fill="#FFCDA8"/>
<path d="M117.153 118.369C117.314 116.503 117.243 114.648 117.243 114.648L120.602 117.18C120.602 117.18 120.348 124.034 122.315 127.016C122.713 127.622 122.737 128.209 122.53 128.757C120.579 128.749 119.159 128.131 119.159 128.131C119.159 128.131 119.406 124.136 118.811 122.657C118.217 121.178 117.697 120.936 117.032 120.779C116.782 120.721 116.391 120.76 115.93 120.537C116.473 120.079 117.071 119.359 117.153 118.369Z" fill="#D9A782"/>
<path d="M116.425 127.48C117.25 122.093 119.06 118.172 117.152 116.248L116.702 115.586C116.667 115.579 116.456 116.33 115.846 116.165C115.545 116.083 115.146 114.448 114.791 113.513C114.705 113.286 114.579 112.996 114.443 112.679C114.443 112.679 116.018 114.307 116.839 114.909L117 114.737C117 114.737 114.169 112.37 113.195 110.438C113.195 110.438 115.213 112.949 116.456 113.654C117.7 114.358 119.185 115.152 118.638 118.834C118.204 121.745 116.495 126.608 116.605 129.89C116.386 129.088 116.308 128.271 116.425 127.48Z" fill="#6D2D3D"/>
<path d="M114.279 105.687C115.409 104.31 117.376 102.784 121.845 103.261C123.999 103.492 125.735 105.147 126.6 106.329C127.565 107.655 128.441 109.556 128.218 113.371C127.991 117.182 128.195 120.406 130.666 122.863C132.038 124.232 132.711 128.106 131.452 130.453C131.878 129.146 132.113 127.37 131.327 125.496C131.315 125.461 131.303 125.437 131.303 125.437C131.315 125.453 131.319 125.476 131.327 125.496C131.483 125.899 132.343 128.415 130.897 131.239C130.638 131.517 130.345 131.756 129.997 131.936C126.764 133.607 122.596 134.855 121.669 134.765C120.938 134.698 119.957 134.193 119.03 133.399C119.585 134.096 120.097 134.522 120.097 134.522C118.162 133.677 117.153 131.462 116.739 130.273C116.973 131.713 117.513 132.918 117.513 132.918C117.513 132.918 116.242 130.852 116.16 129.197C116.078 127.542 116.911 124.843 116.911 124.843C117.759 120.817 118.729 117.855 117.145 116.259L116.696 115.597C116.661 115.589 116.449 116.341 115.84 116.176C115.538 116.094 115.14 114.459 114.784 113.524C114.698 113.297 114.573 113.007 114.436 112.69C110.635 109.533 114.272 105.695 114.272 105.695L114.279 105.687Z" fill="#518C3C"/>
<path d="M113.434 110.781C114.263 112.17 115.717 112.511 117.41 114.119C119.107 115.727 119.072 119.565 118.036 123.063C116.992 126.56 117.101 129.413 117.101 129.413C117.238 126.388 118.524 123.849 118.524 123.849C118.524 123.849 117.207 127.523 117.914 130.023C118.626 132.519 120.855 133.677 120.855 133.677C120.014 132.785 119.271 131.001 119.271 131.001C120.651 133.223 122.344 133.763 122.344 133.763C118.098 129.205 119.557 123.904 119.557 123.904C119.349 133.032 125.081 133.38 125.081 133.38L124.616 132.488C124.929 132.832 125.687 133.407 126.203 133.059C126.723 132.711 127.107 131.533 127.107 131.533L127.153 132.793C127.713 132.48 128.409 131.154 128.409 131.154L128.452 132.214C130.305 129.499 128.706 123.818 128.706 123.818C130.614 128.235 129.468 131.697 129.468 131.697C130.934 130.352 130.821 127.319 130.821 127.319C131.177 128.571 130.903 129.542 130.903 129.542C131.204 128.798 131.65 126.834 129.953 123.884C128.256 120.938 128.053 119.021 128.053 119.021C128.455 120.246 128.975 121.114 128.975 121.114C127.658 118.152 128.15 115.48 128.15 115.48C128.15 118.379 128.667 120.872 130.665 122.859C132.037 124.228 132.709 128.102 131.45 130.449C131.877 129.143 132.111 127.366 131.325 125.492C131.314 125.457 131.302 125.434 131.302 125.434C131.314 125.449 131.317 125.473 131.325 125.492C131.482 125.895 132.342 128.411 130.895 131.236C130.637 131.514 130.344 131.752 129.996 131.932C126.762 133.603 122.595 134.851 121.668 134.761C120.937 134.694 119.955 134.19 119.029 133.395C119.584 134.092 120.096 134.518 120.096 134.518C118.161 133.673 117.152 131.459 116.737 130.269C116.972 131.709 117.512 132.914 117.512 132.914C117.512 132.914 116.241 130.848 116.159 129.193C116.077 127.538 116.91 124.839 116.91 124.839C117.758 120.813 118.728 117.851 117.144 116.255L116.694 115.594C116.659 115.586 116.448 116.337 115.838 116.173C115.537 116.09 115.138 114.455 114.783 113.52C114.696 113.293 114.571 113.004 114.435 112.687L115.643 113.27C114.192 112.264 113.422 110.785 113.422 110.785L113.434 110.781Z" fill="#563317"/>
<path d="M116.806 118.586C116.915 118.758 118.166 118.864 117.955 116.712C117.748 114.56 116.305 114.055 116.336 115.632C116.376 117.205 116.806 118.586 116.806 118.586Z" fill="#FFCDA8"/>
<path d="M121.848 103.26C124.003 103.491 125.739 105.146 126.603 106.328C127.569 107.654 128.444 109.556 128.222 113.37C128.178 114.117 128.151 114.841 128.155 115.546C127.936 116.265 127.764 116.868 127.701 117.244C127.447 118.746 128.069 122.267 128.069 122.267C127.651 121.305 127.381 118.953 127.381 118.953C127.072 120.303 127.96 124.81 127.96 124.81C127.045 123.226 126.208 119.407 126.396 114.117C126.583 108.828 123.107 105.479 121.77 104.634C119.436 103.151 116.926 103.745 116.922 103.745C118.103 103.28 119.678 103.037 121.848 103.268V103.26Z" fill="#563317"/>
<path d="M123.035 108.461C123.035 108.461 123.27 108.668 123.59 109.106C123.907 109.541 124.314 110.218 124.591 111.106C124.736 111.548 124.845 112.045 124.908 112.577C124.974 113.109 124.963 113.672 124.959 114.263C124.939 115.441 124.892 116.705 124.9 117.98C124.9 120.523 125.119 123.051 125.663 124.862C125.921 125.766 126.253 126.482 126.538 126.944C126.824 127.413 127.035 127.64 127.031 127.64C127.031 127.64 126.824 127.397 126.554 126.916C126.28 126.435 125.975 125.707 125.741 124.799C125.506 123.892 125.334 122.804 125.236 121.638C125.135 120.472 125.1 119.224 125.092 117.98C125.084 116.736 125.115 115.488 125.119 114.31C125.119 113.723 125.119 113.148 125.041 112.608C124.974 112.068 124.853 111.564 124.701 111.114C124.392 110.214 123.966 109.533 123.622 109.099C123.278 108.66 123.031 108.461 123.031 108.461H123.035Z" fill="#563317"/>
<path d="M124.389 129.85C124.389 129.85 123.904 128.786 123.396 127.103C123.145 126.262 122.891 125.26 122.739 124.169C122.668 123.625 122.621 123.054 122.637 122.475C122.653 121.904 122.719 121.305 122.758 120.71C122.954 118.331 123.098 115.964 122.977 114.204C122.923 113.323 122.793 112.596 122.637 112.107C122.481 111.618 122.301 111.379 122.305 111.375C122.305 111.375 122.473 111.625 122.61 112.126C122.75 112.623 122.852 113.359 122.883 114.243C122.954 116.011 122.758 118.363 122.571 120.691C122.532 121.278 122.477 121.857 122.457 122.443C122.449 123.026 122.496 123.602 122.578 124.149C122.743 125.249 123.02 126.25 123.298 127.095C123.857 128.786 124.397 129.85 124.393 129.85H124.389Z" fill="#563317"/>
<path d="M117.34 105.663C117.34 105.663 118.028 105.655 118.959 106.043C119.424 106.234 119.94 106.524 120.433 106.915C120.925 107.303 121.394 107.796 121.805 108.335C122.626 109.419 123.173 110.667 123.51 111.614C123.846 112.565 123.995 113.218 124.002 113.218C123.998 113.218 123.889 112.541 123.596 111.563C123.299 110.589 122.779 109.306 121.954 108.218C121.547 107.678 121.062 107.185 120.546 106.802C120.03 106.414 119.49 106.137 119.009 105.961C118.036 105.605 117.328 105.659 117.336 105.659L117.34 105.663Z" fill="#563317"/>
<path d="M115.734 107.617C115.734 107.617 116.063 107.715 116.579 108.001C117.087 108.286 117.799 108.767 118.467 109.526C119.14 110.282 119.742 111.33 120.082 112.555C120.254 113.165 120.364 113.818 120.418 114.484C120.473 115.153 120.508 115.841 120.52 116.526C120.551 117.903 120.465 119.269 120.454 120.552C120.438 121.839 120.559 123.032 120.766 124.03C120.97 125.032 121.224 125.838 121.412 126.397C121.599 126.957 121.72 127.27 121.72 127.27C121.72 127.27 121.607 126.945 121.431 126.37C121.263 125.799 121.032 124.973 120.852 123.967C120.673 122.962 120.579 121.773 120.614 120.501C120.645 119.233 120.739 117.872 120.708 116.518C120.7 115.837 120.661 115.16 120.598 114.491C120.544 113.822 120.43 113.165 120.25 112.547C119.895 111.307 119.265 110.242 118.569 109.487C117.869 108.724 117.138 108.251 116.606 107.973C116.071 107.695 115.73 107.609 115.734 107.609V107.617Z" fill="#563317"/>
<path d="M54.3004 14.4064L31.795 1.49131C28.7766 -0.253659 26.0396 -0.414071 24.0651 0.732289C22.8257 1.45219 21.5902 2.17209 20.3507 2.89198C20.3585 2.88807 20.3664 2.88416 20.3703 2.88025C18.4075 4.01096 17.1915 6.42496 17.1798 9.86404L17.1329 27.1729C17.1133 34.0706 21.9616 42.4747 27.9633 45.9411L52.4862 60.0183C58.4879 63.4847 68.4894 74.8662 68.4738 81.7678L72.1882 79.6081L72.286 45.5616C72.3211 34.1058 64.2707 20.1578 54.3082 14.4025L54.3004 14.4064Z" fill="#96CE70"/>
<path d="M50.586 16.5627L28.0806 3.64761C22.0789 0.181147 17.1993 2.96293 17.1798 9.86456L17.1329 27.1734C17.1133 34.0711 21.9616 42.4752 27.9633 45.9416L52.4862 60.0188C58.4879 63.4852 68.4894 74.8667 68.4738 81.7683L68.5676 47.7218C68.5989 36.2661 60.5523 22.318 50.5899 16.5627H50.586Z" fill="#518C3C"/>
<path d="M156.063 72.5334L127.493 56.0266C122.539 53.1627 118.047 52.8966 114.805 54.7824C113.581 55.4945 112.358 56.2066 111.134 56.9187C111.146 56.9148 111.153 56.9069 111.165 56.903C107.947 58.7575 105.949 62.7209 105.934 68.3627L105.836 103.004L109.507 100.868C109.507 99.5844 109.867 98.5554 110.477 97.7416C113.855 96.9865 118.402 97.8942 121.706 99.8035L152.27 117.461C155.335 119.233 158.107 119.35 160.07 118.106C160.019 118.141 159.965 118.177 159.91 118.208C161.134 117.496 162.357 116.784 163.581 116.072C165.509 114.949 166.705 112.566 166.713 109.178L166.76 91.0825C166.78 84.2631 161.986 75.9568 156.055 72.5295L156.063 72.5334Z" fill="#518C3C"/>
<path d="M152.391 74.6729L123.818 58.1661C113.972 52.4774 105.965 57.0433 105.934 68.366L105.836 103.007C105.855 96.1877 115.779 96.3794 121.71 99.8068L152.274 117.464C158.205 120.891 163.03 118.141 163.046 111.317L163.096 93.2221C163.116 86.4026 158.322 78.0964 152.391 74.669V74.6729Z" fill="#96CE70"/>
<g style="mix-blend-mode:multiply" opacity="0.2">
<path d="M92.0708 15.1898C85.248 11.2499 79.0704 10.8822 74.6092 13.4761C72.9201 14.4582 71.2271 15.4441 69.5381 16.4262C69.5537 16.4183 69.5693 16.4066 69.5889 16.3988C65.155 18.9497 62.4025 24.4076 62.3829 32.1779C62.3477 45.3551 70.1675 60.962 80.7829 70.2033C85.1503 74.6597 86.726 85.6851 86.812 86.2641L91.8831 83.3141C91.934 83.0402 92.4892 79.9337 93.7677 77.4297C97.8966 78.4196 101.576 77.9383 104.496 76.1621C104.434 76.2012 104.371 76.2442 104.305 76.2834L109.376 73.3333C113.783 70.7707 116.512 65.3245 116.535 57.5817C116.578 41.9982 105.626 23.0187 92.0747 15.1859L92.0708 15.1898Z" fill="#438BE3"/>
</g>
<path d="M86.9958 18.1337C73.4401 10.3048 62.422 16.5883 62.3751 32.1717C62.3399 45.349 70.1597 60.9559 80.7751 70.1972C85.1425 74.6536 86.7182 85.679 86.8042 86.258C86.8902 85.7768 88.5285 76.6059 92.9036 77.2006C103.531 80.2328 111.421 73.7028 111.456 60.5256C111.499 44.9421 100.547 25.9626 86.9958 18.1298V18.1337Z" fill="white"/>
<path d="M128.68 80.9407C127.961 80.526 127.308 80.4869 126.838 80.7607L124.969 81.8484H124.973C124.504 82.1145 124.215 82.6896 124.211 83.5112C124.207 85.1506 125.36 87.1537 126.791 87.9793C127.55 88.4175 128.234 88.4331 128.711 88.1045C128.684 88.1241 128.66 88.1436 128.633 88.1593C129.255 87.7954 129.88 87.4355 130.502 87.0716C130.967 86.8016 131.253 86.2265 131.257 85.4127C131.26 83.7694 130.107 81.7663 128.68 80.9407Z" fill="white"/>
<g style="mix-blend-mode:multiply" opacity="0.2">
<path d="M126.815 82.0273C125.384 81.2018 124.223 81.863 124.219 83.5062C124.215 85.1456 125.368 87.1488 126.799 87.9743C128.226 88.7998 129.388 88.1347 129.395 86.4954C129.399 84.8521 128.246 82.8489 126.819 82.0234L126.815 82.0273Z" fill="#438BE3"/>
</g>
<path d="M136.664 85.3548C135.945 84.9401 135.292 84.9009 134.823 85.1748L132.954 86.2625H132.958C132.489 86.5285 132.199 87.1037 132.195 87.9253C132.191 89.5646 133.345 91.5678 134.776 92.3933C135.534 92.8315 136.219 92.8472 136.696 92.5185C136.668 92.5381 136.645 92.5577 136.617 92.5733C137.239 92.2095 137.865 91.8495 138.486 91.4856C138.952 91.2157 139.237 90.6406 139.241 89.8268C139.245 88.1835 138.091 86.1803 136.664 85.3548Z" fill="white"/>
<g style="mix-blend-mode:multiply" opacity="0.2">
<path d="M134.799 86.4413C133.368 85.6157 132.207 86.277 132.203 87.9241C132.199 89.5634 133.353 91.5666 134.784 92.3922C136.211 93.2177 137.372 92.5526 137.38 90.9133C137.384 89.27 136.23 87.2668 134.803 86.4413H134.799Z" fill="#438BE3"/>
</g>
<path d="M144.649 89.7767C143.929 89.3619 143.276 89.3228 142.807 89.5967L140.938 90.6844H140.942C140.473 90.9504 140.184 91.5255 140.18 92.3472C140.176 93.9865 141.329 95.9897 142.76 96.8152C143.519 97.2534 144.203 97.2691 144.68 96.9404C144.653 96.96 144.629 96.9795 144.602 96.9952C145.223 96.6313 145.849 96.2714 146.471 95.9075C146.936 95.6376 147.221 95.0624 147.225 94.2486C147.229 92.6054 146.076 90.6022 144.649 89.7767Z" fill="white"/>
<g style="mix-blend-mode:multiply" opacity="0.2">
<path d="M142.784 90.8632C141.353 90.0376 140.191 90.6988 140.188 92.346C140.184 93.9853 141.337 95.9885 142.768 96.8141C144.195 97.6396 145.356 96.9745 145.364 95.3351C145.368 93.6919 144.215 91.6887 142.788 90.8632H142.784Z" fill="#438BE3"/>
</g>
<path d="M172.523 187.104C171.917 186.756 171.37 186.72 170.975 186.951L169.403 187.867H169.407C169.012 188.09 168.77 188.575 168.766 189.264C168.766 190.645 169.735 192.327 170.936 193.023C171.577 193.391 172.152 193.403 172.55 193.129C172.527 193.145 172.507 193.16 172.484 193.176C173.008 192.871 173.532 192.566 174.056 192.261C174.447 192.034 174.689 191.552 174.689 190.864C174.693 189.479 173.719 187.796 172.519 187.104H172.523Z" fill="white"/>
<g style="mix-blend-mode:multiply" opacity="0.2">
<path d="M172.523 187.104C171.917 186.756 171.37 186.72 170.975 186.951L169.403 187.867H169.407C169.012 188.09 168.77 188.575 168.766 189.264C168.766 190.645 169.735 192.327 170.936 193.023C171.577 193.391 172.152 193.403 172.55 193.129C172.527 193.145 172.507 193.16 172.484 193.176C173.008 192.871 173.532 192.566 174.056 192.261C174.447 192.034 174.689 191.552 174.689 190.864C174.693 189.479 173.719 187.796 172.519 187.104H172.523Z" fill="#438BE3"/>
</g>
<path d="M170.951 188.018C169.747 187.322 168.77 187.881 168.766 189.263C168.766 190.644 169.735 192.326 170.936 193.022C172.136 193.715 173.113 193.159 173.117 191.778C173.121 190.397 172.148 188.711 170.947 188.018H170.951Z" fill="#96CE70"/>
<path d="M164.656 127.112C164.05 126.763 163.502 126.728 163.108 126.959L161.536 127.875H161.54C161.145 128.098 160.902 128.583 160.898 129.271C160.898 130.652 161.868 132.335 163.068 133.031C163.71 133.399 164.284 133.411 164.683 133.137C164.66 133.153 164.64 133.168 164.617 133.184C165.141 132.879 165.665 132.574 166.189 132.268C166.58 132.041 166.822 131.56 166.822 130.872C166.826 129.487 165.852 127.804 164.652 127.112H164.656Z" fill="white"/>
<g style="mix-blend-mode:multiply" opacity="0.2">
<path d="M164.656 127.112C164.05 126.763 163.502 126.728 163.108 126.959L161.536 127.875H161.54C161.145 128.098 160.902 128.583 160.898 129.271C160.898 130.652 161.868 132.335 163.068 133.031C163.71 133.399 164.284 133.411 164.683 133.137C164.66 133.153 164.64 133.168 164.617 133.184C165.141 132.879 165.665 132.574 166.189 132.268C166.58 132.041 166.822 131.56 166.822 130.872C166.826 129.487 165.852 127.804 164.652 127.112H164.656Z" fill="#438BE3"/>
</g>
<path d="M163.084 128.026C161.88 127.33 160.902 127.889 160.898 129.27C160.898 130.651 161.868 132.334 163.068 133.03C164.269 133.723 165.246 133.167 165.25 131.786C165.254 130.405 164.281 128.719 163.08 128.026H163.084Z" fill="white"/>
<path d="M6.66367 94.2054C6.05763 93.8572 5.51024 93.822 5.11534 94.0528L3.54356 94.9684H3.54747C3.15257 95.1914 2.91016 95.6765 2.90625 96.3651C2.90625 97.7462 3.87591 99.4286 5.07625 100.125C5.71747 100.493 6.29223 100.505 6.69104 100.231C6.66758 100.246 6.64803 100.262 6.62457 100.278C7.14849 99.9724 7.67242 99.6673 8.19635 99.3621C8.58734 99.1352 8.82975 98.6539 8.82975 97.9653C8.83366 96.5803 7.8601 94.8979 6.65976 94.2054H6.66367Z" fill="white"/>
<g style="mix-blend-mode:multiply" opacity="0.2">
<path d="M6.66367 94.2054C6.05763 93.8572 5.51024 93.822 5.11534 94.0528L3.54356 94.9684H3.54747C3.15257 95.1914 2.91016 95.6765 2.90625 96.3651C2.90625 97.7462 3.87591 99.4286 5.07625 100.125C5.71747 100.493 6.29223 100.505 6.69104 100.231C6.66758 100.246 6.64803 100.262 6.62457 100.278C7.14849 99.9724 7.67242 99.6673 8.19635 99.3621C8.58734 99.1352 8.82975 98.6539 8.82975 97.9653C8.83366 96.5803 7.8601 94.8979 6.65976 94.2054H6.66367Z" fill="#438BE3"/>
</g>
<path d="M5.09189 95.1199C3.88764 94.4235 2.91016 94.983 2.90625 96.3641C2.90625 97.7452 3.87591 99.4276 5.07625 100.124C6.27659 100.817 7.25406 100.261 7.25797 98.8798C7.26188 97.4987 6.28832 95.8125 5.08798 95.1199H5.09189Z" fill="#96CE70"/>
<path d="M30.273 148.104C29.667 147.756 29.1196 147.72 28.7247 147.951L27.1529 148.867H27.1568C26.7619 149.09 26.5195 149.575 26.5156 150.264C26.5156 151.645 27.4853 153.327 28.6856 154.023C29.3268 154.391 29.9016 154.403 30.3004 154.129C30.277 154.145 30.2574 154.16 30.2339 154.176C30.7579 153.871 31.2818 153.566 31.8057 153.261C32.1967 153.034 32.4391 152.552 32.4391 151.864C32.443 150.479 31.4695 148.796 30.2691 148.104H30.273Z" fill="white"/>
<g style="mix-blend-mode:multiply" opacity="0.2">
<path d="M30.273 148.104C29.667 147.756 29.1196 147.72 28.7247 147.951L27.1529 148.867H27.1568C26.7619 149.09 26.5195 149.575 26.5156 150.264C26.5156 151.645 27.4853 153.327 28.6856 154.023C29.3268 154.391 29.9016 154.403 30.3004 154.129C30.277 154.145 30.2574 154.16 30.2339 154.176C30.7579 153.871 31.2818 153.566 31.8057 153.261C32.1967 153.034 32.4391 152.552 32.4391 151.864C32.443 150.479 31.4695 148.796 30.2691 148.104H30.273Z" fill="#438BE3"/>
</g>
<path d="M28.6934 149.018C27.4892 148.322 26.5117 148.881 26.5078 150.263C26.5078 151.644 27.4775 153.326 28.6778 154.022C29.8781 154.715 30.8556 154.159 30.8595 152.778C30.8634 151.397 29.8899 149.711 28.6895 149.018H28.6934Z" fill="#96CE70"/>
<path d="M33.4534 25.7376C32.734 25.3229 32.081 25.2837 31.6118 25.5576L29.7429 26.6453H29.7468C29.2776 26.9113 28.9883 27.4865 28.9844 28.3081C28.9805 29.9474 30.1339 31.9506 31.5649 32.7762C32.3234 33.2144 33.0077 33.23 33.4847 32.9014C33.4573 32.9209 33.4339 32.9405 33.4065 32.9561C34.0282 32.5923 34.6537 32.2323 35.2754 31.8685C35.7407 31.5985 36.0261 31.0234 36.03 30.2096C36.0339 28.5663 34.8805 26.5631 33.4534 25.7376Z" fill="white"/>
<g style="mix-blend-mode:multiply" opacity="0.2">
<path d="M31.5884 26.8241C30.1573 25.9986 28.9961 26.6598 28.9922 28.3069C28.9883 29.9463 30.1417 31.9495 31.5727 32.775C32.9998 33.6005 34.1611 32.9354 34.1689 31.2961C34.1728 29.6528 33.0194 27.6496 31.5923 26.8241H31.5884Z" fill="#438BE3"/>
</g>
<path d="M41.4378 30.1517C40.7184 29.7369 40.0654 29.6978 39.5962 29.9717L37.7273 31.0594H37.7312C37.262 31.3254 36.9727 31.9005 36.9688 32.7222C36.9649 34.3615 38.1183 36.3647 39.5493 37.1902C40.3078 37.6284 40.9921 37.6441 41.4691 37.3154C41.4417 37.335 41.4182 37.3545 41.3909 37.3702C42.0125 37.0063 42.6381 36.6464 43.2598 36.2825C43.7251 36.0126 44.0144 35.4374 44.0144 34.6236C44.0183 32.9804 42.8649 30.9772 41.4378 30.1517Z" fill="white"/>
<g style="mix-blend-mode:multiply" opacity="0.2">
<path d="M39.5727 31.2382C38.1417 30.4126 36.9805 31.0738 36.9766 32.721C36.9727 34.3603 38.1261 36.3635 39.5571 37.1891C40.9842 38.0146 42.1455 37.3495 42.1533 35.7101C42.1572 34.0669 41.0038 32.0637 39.5767 31.2382H39.5727Z" fill="#438BE3"/>
</g>
<path d="M49.4222 34.5735C48.7027 34.1588 48.0498 34.1197 47.5806 34.3936L45.7117 35.4812H45.7156C45.2464 35.7473 44.957 36.3224 44.9531 37.144C44.9492 38.7834 46.1026 40.7866 47.5337 41.6121C48.2922 42.0503 48.9764 42.0659 49.4534 41.7373C49.4261 41.7569 49.4026 41.7764 49.3752 41.7921C49.9969 41.4282 50.6225 41.0683 51.2442 40.7044C51.7094 40.4344 51.9949 39.8593 51.9988 39.0455C52.0027 37.4023 50.8493 35.3991 49.4222 34.5735Z" fill="white"/>
<g style="mix-blend-mode:multiply" opacity="0.2">
<path d="M47.5571 35.66C46.1261 34.8345 44.9649 35.4957 44.9609 37.1429C44.957 38.7822 46.1105 40.7854 47.5415 41.6109C48.9686 42.4365 50.1298 41.7713 50.1377 40.132C50.1416 38.4888 48.9881 36.4856 47.561 35.66H47.5571Z" fill="#438BE3"/>
</g>
<path d="M85.0174 29.8047L83.1484 30.8924L83.86 50.4313L87.7387 52.6732L89.6076 51.5855L90.4248 32.9269L85.0174 29.8047Z" fill="#96CE70"/>
<path d="M87.7347 53.636C87.0152 53.2213 86.3623 53.1822 85.8931 53.4561L84.0242 54.5437H84.0281C83.5589 54.8098 83.2695 55.3849 83.2656 56.2065C83.2617 57.8459 84.4151 59.8491 85.8462 60.6746C86.6047 61.1128 87.2889 61.1284 87.7659 60.7998C87.7386 60.8194 87.7151 60.8389 87.6877 60.8546C88.3094 60.4907 88.935 60.1308 89.5567 59.7669C90.0219 59.4969 90.3074 58.9218 90.3113 58.108C90.3152 56.4648 89.1618 54.4616 87.7347 53.636Z" fill="#96CE70"/>
<path d="M83.1484 30.8906L83.86 50.4296L87.7387 52.6715L88.5558 34.0128L83.1484 30.8906Z" fill="#518C3C"/>
<path d="M85.8696 54.7225C84.4386 53.897 83.2774 54.5582 83.2734 56.2054C83.2695 57.8447 84.423 59.8479 85.854 60.6734C87.2811 61.499 88.4423 60.8338 88.4502 59.1945C88.4541 57.5513 87.3007 55.5481 85.8735 54.7225H85.8696Z" fill="#518C3C"/>
<path d="M146.541 133.606C146.991 133.343 147.613 133.379 148.297 133.778L175.948 149.752C177.3 150.535 178.411 152.452 178.407 154.017L178.376 165.723C178.376 166.498 178.098 167.046 177.652 167.3L175.267 168.677C175.713 168.419 175.987 167.871 175.991 167.1L176.022 155.394C176.022 153.829 174.915 151.912 173.563 151.13L145.912 135.155C145.228 134.76 144.606 134.721 144.156 134.983L146.541 133.606Z" fill="white"/>
<g style="mix-blend-mode:multiply" opacity="0.2">
<g style="mix-blend-mode:multiply">
<path d="M146.541 133.606C146.991 133.343 147.613 133.379 148.297 133.778L175.948 149.752C177.3 150.535 178.411 152.452 178.407 154.017L178.376 165.723C178.376 166.498 178.098 167.046 177.652 167.3L175.267 168.677C175.713 168.419 175.987 167.871 175.991 167.1L176.022 155.394C176.022 153.829 174.915 151.912 173.563 151.13L145.912 135.155C145.228 134.76 144.606 134.721 144.156 134.983L146.541 133.606Z" fill="#367ED6"/>
</g>
</g>
<path d="M173.563 151.133L145.913 135.158C144.552 134.372 143.441 135.006 143.438 136.571L143.406 148.277C143.402 149.834 144.505 151.755 145.866 152.541L173.516 168.516C174.869 169.298 175.987 168.661 175.991 167.104L176.023 155.397C176.023 153.832 174.916 151.915 173.563 151.133Z" fill="#96CE70"/>
<path d="M3.14285 56.1758C3.59249 55.9137 4.21417 55.9489 4.8984 56.348L32.5492 72.3227C33.9021 73.1052 35.0125 75.0223 35.0086 76.5873L34.9773 88.2935C34.9773 89.0681 34.6997 89.612 34.2539 89.8702L31.8689 91.2474C32.3146 90.9892 32.5883 90.4414 32.5922 89.6707L32.6235 77.9645C32.6235 76.3995 31.517 74.4824 30.1642 73.6999L2.51336 57.7213C1.82913 57.3261 1.20745 57.287 0.757812 57.5491L3.14285 56.1719V56.1758Z" fill="white"/>
<g style="mix-blend-mode:multiply" opacity="0.2">
<g style="mix-blend-mode:multiply">
<path d="M3.14285 56.1758C3.59249 55.9137 4.21417 55.9489 4.8984 56.348L32.5492 72.3227C33.9021 73.1052 35.0125 75.0223 35.0086 76.5873L34.9773 88.2935C34.9773 89.0681 34.6997 89.612 34.2539 89.8702L31.8689 91.2474C32.3146 90.9892 32.5883 90.4414 32.5922 89.6707L32.6235 77.9645C32.6235 76.3995 31.517 74.4824 30.1642 73.6999L2.51336 57.7213C1.82913 57.3261 1.20745 57.287 0.757812 57.5491L3.14285 56.1719V56.1758Z" fill="#367ED6"/>
</g>
</g>
<path d="M30.161 73.6992L2.51017 57.7206C1.14952 56.9342 0.0391094 57.568 0.0351995 59.133L1.03666e-05 70.8392C-0.00389954 72.3964 1.09869 74.3174 2.45934 75.1038L30.1102 91.0785C31.463 91.861 32.5812 91.2233 32.5851 89.6661L32.6164 77.9599C32.6164 76.3949 31.5099 74.4778 30.1571 73.6953L30.161 73.6992Z" fill="#96CE70"/>
<path d="M162.804 169.972L153.463 164.577C153.166 164.404 152.896 164.389 152.705 164.502C152.083 164.862 151.458 165.226 150.836 165.59C151.028 165.477 151.297 165.492 151.594 165.664L160.935 171.06C161.522 171.396 161.999 172.226 161.999 172.899L161.967 183.642C161.967 183.975 161.846 184.213 161.655 184.323L163.524 183.235C163.715 183.122 163.836 182.887 163.836 182.555L163.868 171.811C163.868 171.138 163.391 170.312 162.804 169.972Z" fill="white"/>
<g style="mix-blend-mode:multiply" opacity="0.2">
<path d="M162.804 169.972L153.463 164.577C153.166 164.404 152.896 164.389 152.705 164.502C152.083 164.862 151.458 165.226 150.836 165.59C151.028 165.477 151.297 165.492 151.594 165.664L160.935 171.06C161.522 171.396 161.999 172.226 161.999 172.899L161.967 183.642C161.967 183.975 161.846 184.213 161.655 184.323L163.524 183.235C163.715 183.122 163.836 182.887 163.836 182.555L163.868 171.811C163.868 171.138 163.391 170.312 162.804 169.972Z" fill="#367ED6"/>
</g>
<path d="M160.936 171.057C161.522 171.394 161.999 172.223 161.999 172.896L161.968 183.64C161.968 184.313 161.483 184.587 160.896 184.25L151.556 178.855C150.965 178.515 150.492 177.685 150.492 177.012L150.523 166.268C150.523 165.596 151.004 165.322 151.595 165.662L160.936 171.057Z" fill="#96CE70"/>
<path d="M28.5854 108.784L19.2446 103.389C18.9475 103.217 18.6777 103.201 18.4861 103.315C17.8644 103.675 17.2389 104.039 16.6172 104.402C16.8088 104.289 17.0786 104.305 17.3757 104.477L26.7165 109.872C27.3029 110.209 27.78 111.038 27.78 111.711L27.7487 122.455C27.7487 122.787 27.6275 123.026 27.4359 123.135L29.3048 122.048C29.4964 121.934 29.6176 121.7 29.6176 121.367L29.6489 110.623C29.6489 109.95 29.1719 109.125 28.5854 108.784Z" fill="white"/>
<g style="mix-blend-mode:multiply" opacity="0.2">
<path d="M28.5854 108.784L19.2446 103.389C18.9475 103.217 18.6777 103.201 18.4861 103.315C17.8644 103.675 17.2389 104.039 16.6172 104.402C16.8088 104.289 17.0786 104.305 17.3757 104.477L26.7165 109.872C27.3029 110.209 27.78 111.038 27.78 111.711L27.7487 122.455C27.7487 122.787 27.6275 123.026 27.4359 123.135L29.3048 122.048C29.4964 121.934 29.6176 121.7 29.6176 121.367L29.6489 110.623C29.6489 109.95 29.1719 109.125 28.5854 108.784Z" fill="#367ED6"/>
</g>
<path d="M26.7168 109.87C27.3033 110.206 27.7803 111.036 27.7803 111.709L27.749 122.452C27.749 123.125 27.2642 123.399 26.6777 123.063L17.3369 117.667C16.7465 117.327 16.2734 116.498 16.2734 115.825L16.3047 105.081C16.3047 104.408 16.7856 104.134 17.376 104.475L26.7168 109.87Z" fill="#96CE70"/>
<path d="M16.669 136.518L9.28319 132.249C9.0486 132.112 8.83746 132.101 8.68107 132.191C8.18842 132.476 7.69577 132.762 7.20312 133.051C7.35561 132.961 7.56675 132.973 7.80525 133.11L15.1911 137.379C15.6524 137.645 16.0317 138.298 16.0317 138.83L16.0082 147.328C16.0082 147.594 15.9144 147.778 15.7619 147.868L17.2398 147.007C17.3923 146.917 17.4862 146.733 17.4862 146.467L17.5096 137.969C17.5096 137.437 17.1304 136.784 16.669 136.518Z" fill="white"/>
<g style="mix-blend-mode:multiply" opacity="0.2">
<path d="M16.669 136.518L9.28319 132.249C9.0486 132.112 8.83746 132.101 8.68107 132.191C8.18842 132.476 7.69577 132.762 7.20312 133.051C7.35561 132.961 7.56675 132.973 7.80525 133.11L15.1911 137.379C15.6524 137.645 16.0317 138.298 16.0317 138.83L16.0082 147.328C16.0082 147.594 15.9144 147.778 15.7619 147.868L17.2398 147.007C17.3923 146.917 17.4862 146.733 17.4862 146.467L17.5096 137.969C17.5096 137.437 17.1304 136.784 16.669 136.518Z" fill="#367ED6"/>
</g>
<path d="M15.1913 137.371C15.6527 137.637 16.0319 138.29 16.0319 138.822L16.0085 147.32C16.0085 147.852 15.6253 148.072 15.1639 147.802L7.77813 143.533C7.31285 143.263 6.9375 142.61 6.9375 142.078L6.96096 133.58C6.96096 133.048 7.34022 132.832 7.8055 133.098L15.1913 137.367V137.371Z" fill="#96CE70"/>
<path d="M183.161 125.182L175.775 120.913C175.541 120.776 175.33 120.765 175.173 120.855C174.681 121.14 174.188 121.426 173.695 121.715C173.848 121.625 174.059 121.637 174.297 121.774L181.683 126.043C182.145 126.309 182.524 126.962 182.524 127.494L182.5 135.992C182.5 136.258 182.407 136.442 182.254 136.532L183.732 135.671C183.885 135.581 183.978 135.397 183.978 135.131L184.002 126.633C184.002 126.101 183.623 125.448 183.161 125.182Z" fill="#96CE70"/>
<g style="mix-blend-mode:multiply" opacity="0.2">
<path d="M183.161 125.182L175.775 120.913C175.541 120.776 175.33 120.765 175.173 120.855C174.681 121.14 174.188 121.426 173.695 121.715C173.848 121.625 174.059 121.637 174.297 121.774L181.683 126.043C182.145 126.309 182.524 126.962 182.524 127.494L182.5 135.992C182.5 136.258 182.407 136.442 182.254 136.532L183.732 135.671C183.885 135.581 183.978 135.397 183.978 135.131L184.002 126.633C184.002 126.101 183.623 125.448 183.161 125.182Z" fill="#96CE70"/>
</g>
<path d="M181.683 126.035C182.145 126.301 182.524 126.954 182.524 127.486L182.501 135.984C182.501 136.516 182.117 136.736 181.656 136.466L174.27 132.197C173.805 131.927 173.43 131.274 173.43 130.742L173.453 122.244C173.453 121.712 173.832 121.496 174.298 121.762L181.683 126.031V126.035Z" fill="#96CE70"/>
</g>
<defs>
<clipPath id="clip0_7920_20622">
<rect width="184" height="240" fill="white"/>
</clipPath>
</defs>
</svg>
