<svg width="180" height="90" viewBox="0 0 180 90" fill="none" xmlns="http://www.w3.org/2000/svg">
<rect x="0.5" y="0.5" width="179" height="89" fill="white" stroke="#333333"/>
<g clip-path="url(#clip0_2010_1389)">
<path d="M99.1534 56.756H85.4827L80.7912 65.6718H71.957L94.7708 24.3281H103.431L109.002 65.6718H100.168L99.1534 56.756ZM88.9199 50.2538H98.4488L96.8126 35.6867H96.6389L88.9199 50.2538Z" fill="#2B2B2B"/>
<path d="M45.83 39.4785C46.8188 34.7247 46.3155 30.9183 44.333 28.1639C42.3445 25.4016 39.2122 24 35.0221 24C30.832 24 27.0948 25.4016 23.9734 28.1668C20.8639 30.9212 18.7856 34.7295 17.7978 39.4833L15.4955 50.5499C14.5037 55.3232 15.002 59.1296 16.9797 61.8645C18.9632 64.6081 22.1122 66 26.3389 66C30.53 66 34.2356 64.6072 37.352 61.8625C40.4576 59.1267 42.5369 55.3183 43.5297 50.546L45.831 39.4794L45.83 39.4785ZM34.6136 51.3234C34.0826 53.8757 33.2014 55.8516 31.9925 57.1966C30.8043 58.5181 29.4228 59.1618 27.7668 59.1618C26.0715 59.1618 24.9326 58.5172 24.2833 57.1917C23.631 55.8585 23.5649 53.902 24.08 51.382L36.7747 40.928L34.6126 51.3244L34.6136 51.3234ZM26.7257 38.6502C27.2438 36.1536 28.1211 34.2011 29.334 32.8464C30.5231 31.5151 31.9155 30.8685 33.5892 30.8685C35.2471 30.8685 36.3721 31.517 37.0264 32.8522C37.6876 34.1962 37.7626 36.1331 37.2563 38.6013L24.5616 49.0545L26.7257 38.6502Z" fill="#2B2B2B"/>
<path d="M77.1699 39.4775C78.1577 34.7237 77.6544 30.9173 75.6728 28.1629C73.6844 25.4007 70.5521 24 66.362 24C62.1719 24 58.4347 25.4016 55.3133 28.1668C52.2028 30.9212 50.1255 34.7295 49.1367 39.4833L46.8353 50.5508C45.8436 55.3222 46.3419 59.1296 48.3186 61.8654C50.3021 64.6091 53.4501 66.001 57.6768 66.001C61.8689 66.001 65.5745 64.6081 68.6909 61.8635C71.7975 59.1257 73.8758 55.3183 74.8686 50.5469L77.1699 39.4794V39.4775ZM65.9525 51.3225C65.4225 53.8737 64.5403 55.8487 63.3314 57.1956C62.1432 58.5172 60.7617 59.1608 59.1057 59.1608C57.4103 59.1608 56.2715 58.5162 55.6232 57.1907C54.9709 55.8565 54.9048 53.9001 55.4199 51.3811L68.1146 40.927L65.9525 51.3234V51.3225ZM58.0636 38.6492C58.5827 36.1517 59.46 34.1992 60.6709 32.8444C61.862 31.5131 63.2534 30.8665 64.9271 30.8665C66.585 30.8665 67.71 31.5151 68.3653 32.8503C69.0265 34.1953 69.1015 36.1321 68.5952 38.6013L55.8995 49.0554L58.0626 38.6502L58.0636 38.6492Z" fill="#2B2B2B"/>
<path d="M128.371 45.0427H131.135H135.958L136.764 41.3897L136.775 41.3398H129.188L128.371 45.0427Z" fill="#2B2B2B"/>
<path d="M141.585 35.6875H130.396L129.609 39.3903H137.173H141.755L142.543 35.6875H141.585Z" fill="#2B2B2B"/>
<path d="M151.477 30.0352H149.077H131.625L130.848 33.738H144.509H150.699L151.477 30.0352Z" fill="#2B2B2B"/>
<path d="M165.001 24.3828H161.115H132.852L132.09 28.0856H154.215H164.239L165.001 24.3828Z" fill="#2B2B2B"/>
<path d="M120.13 65.6278H111.734L120.687 24.3438H129.083L120.13 65.6278Z" fill="#2B2B2B"/>
</g>
<defs>
<clipPath id="clip0_2010_1389">
<rect width="150" height="42" fill="white" transform="translate(15 24)"/>
</clipPath>
</defs>
</svg>
