<svg width="595" height="136" viewBox="0 0 595 136" fill="none" xmlns="http://www.w3.org/2000/svg">
<path d="M190.851 89.5443L215.343 120.766H197.069L181.996 101.017L166.736 120.766H148.649L173.142 89.5443H190.851Z" fill="#231815"/>
<path d="M173.142 89.7322L148.649 58.5109H166.736L181.996 78.2593L197.069 58.5109H215.343L190.851 89.7322H173.142Z" fill="#231815"/>
<path d="M222.897 36.5061C222.897 31.0517 227.607 27.1021 233.071 27.1021C238.723 27.1021 243.056 31.0517 243.056 36.5061C243.056 41.7723 238.723 45.9101 233.071 45.9101C227.607 45.9101 222.897 41.7723 222.897 36.5061ZM225.347 120.766V58.5114H240.796V120.766H225.347Z" fill="#231815"/>
<path d="M318.974 85.7827V120.766H303.525V86.9112C303.525 76.9429 297.496 71.4886 290.526 71.4886C283.366 71.4886 274.7 75.6264 274.7 87.6635V120.766H259.251V58.5111H274.7V68.2912C277.903 60.3919 287.7 56.8184 294.105 56.8184C310.119 56.8184 318.974 67.727 318.974 85.7827Z" fill="#231815"/>
<path d="M332.74 89.5443C332.74 69.7959 348.566 56.8184 366.652 56.8184C377.391 56.8184 386.246 61.7084 392.087 68.8555L381.159 77.5072C377.957 73.5575 372.681 71.3005 367.029 71.3005C356.29 71.3005 348.378 79.0118 348.378 89.5443C348.378 99.8887 356.102 107.976 367.029 107.976C372.681 107.976 377.957 105.531 381.159 101.77L392.087 110.421C386.435 117.568 377.58 122.458 366.652 122.458C348.566 122.458 332.74 109.293 332.74 89.5443Z" fill="#231815"/>
<path d="M465.919 94.9986H417.499C419.195 103.65 425.977 108.352 435.209 108.352C441.803 108.352 448.397 105.343 451.977 100.265L462.339 108.164C456.687 117.192 445.571 122.27 434.079 122.27C415.427 122.27 401.297 108.917 401.297 89.5443C401.297 69.6078 416.181 56.8184 434.079 56.8184C451.788 56.8184 465.919 69.4197 465.919 88.9801C466.107 90.6728 466.107 92.7417 465.919 94.9986ZM450.846 84.2781C449.904 75.8145 443.31 70.7363 434.456 70.7363C426.166 70.7363 419.383 74.8741 417.499 84.2781H450.846Z" fill="#231815"/>
<path d="M524.137 59.0751L521.122 73.7454C517.543 71.8646 514.34 71.4884 512.079 71.4884C501.905 71.4884 496.253 81.6448 496.253 99.1362V120.954H480.428V58.5109H495.877V71.8646C499.268 61.5202 506.05 57.0063 513.775 57.0063C517.543 56.8182 521.688 57.7586 524.137 59.0751Z" fill="#231815"/>
<path d="M594.785 94.9986H546.366C548.061 103.65 554.844 108.352 564.075 108.352C570.669 108.352 577.263 105.343 580.843 100.265L591.205 108.164C585.553 117.192 574.437 122.27 562.945 122.27C544.293 122.27 530.163 108.917 530.163 89.5443C530.163 69.6078 545.047 56.8184 562.945 56.8184C580.655 56.8184 594.785 69.4197 594.785 88.9801C595.162 90.6728 594.973 92.7417 594.785 94.9986ZM579.713 84.2781C578.771 75.8145 572.177 70.7363 563.322 70.7363C555.032 70.7363 548.25 74.8741 546.366 84.2781H579.713Z" fill="#231815"/>
<path d="M99.6729 90.8609V12.2433C99.6729 12.2433 99.6728 -0.546105 112.484 0.0181354C127.179 0.770456 126.237 15.2526 126.237 15.2526V94.9986L99.6729 90.8609Z" fill="#518C3C"/>
<path d="M0 132.426V118.697C0 118.697 0 107.224 12.8113 107.788C27.5066 108.352 26.5646 121.33 26.5646 121.33V136L0 132.426Z" fill="#518C3C"/>
<path d="M66.5078 108.54V51.364C66.5078 51.364 66.5078 39.8912 79.3191 40.4554C94.0144 41.0196 93.0724 53.9972 93.0724 53.9972V112.302L66.5078 108.54Z" fill="#518C3C"/>
<path d="M33.165 123.211V88.2278C33.165 88.2278 33.165 76.7549 45.9763 77.3192C60.6716 77.8834 59.7296 96.3153 59.7296 96.3153V126.784L33.165 123.211Z" fill="#518C3C"/>
</svg>
