<svg width="370" height="56" viewBox="0 0 370 56" fill="none" xmlns="http://www.w3.org/2000/svg">
<g clip-path="url(#clip0_2064_885)">
<path d="M14.9898 1.93103C11.9643 3.24138 9.35142 4.96552 7.15109 7.17241C4.95075 9.37931 3.23174 12 1.92529 14.9655C0.618844 18 0 21.1724 0 24.4828V31.3793C0 34.6897 0.618844 37.931 1.92529 40.8965C3.23174 43.931 4.95075 46.5517 7.15109 48.6897C9.35142 50.8965 11.9643 52.6207 14.9898 53.931C18.0152 55.2414 21.1782 55.8621 24.4787 55.8621H39.8811V24H24.4787V32H31.9048V48H24.4787C19.8718 48 15.9524 46.4138 12.7894 43.1724C9.62646 40 7.97621 36.069 7.97621 31.3793V24.4828C7.97621 19.8621 9.5577 15.931 12.7894 12.7586C15.9524 9.58621 19.8718 7.93103 24.4787 7.93103H39.8811V0H24.4787C21.1782 0 18.0152 0.62069 14.9898 1.93103Z" fill="#518C3C"/>
<path d="M84.5069 0H59.4781C55.3524 0 51.8457 1.44828 48.889 4.41379C45.9323 7.37931 44.4883 10.8966 44.4883 15.0345V16.9655C44.4883 19.1034 44.9008 21.1034 45.7947 23.0345C46.6199 24.9655 47.8575 26.6207 49.3703 28C47.8575 29.3793 46.6886 31.0345 45.7947 32.9655C44.9696 34.8966 44.4883 36.8965 44.4883 39.0345V40.9655C44.4883 45.1034 45.9323 48.6207 48.889 51.5862C51.8457 54.5517 55.3524 56 59.4781 56H84.5069C84.5069 56 84.9194 56 85.1257 56H110.155V48H85.1257C83.1317 48 81.4814 47.3103 80.175 46C78.8685 44.6897 78.1809 42.9655 78.1809 41.0345V39.1034C78.1809 37.1034 78.8685 35.4483 80.175 34.1379C81.4814 32.8276 83.2004 32.1379 85.1257 32.1379H110.155V24.1379H85.1257C83.1317 24.1379 81.4814 23.4483 80.175 22.1379C78.8685 20.8276 78.1809 19.1034 78.1809 17.1724V15.2414C78.1809 13.2414 78.8685 11.5862 80.175 10.2759C81.4814 8.96552 83.2004 8.27586 85.1257 8.27586H110.155V0H85.1257C85.1257 0 84.7132 0 84.5069 0ZM52.4645 15.0345C52.4645 13.0345 53.1521 11.3793 54.4585 10.069C55.765 8.75862 57.484 8.06896 59.4093 8.06896H71.8549C70.686 10.2069 70.0672 12.5517 70.0672 15.1034V17.0345C70.0672 19.1724 70.4797 21.1724 71.3736 23.1034C71.5111 23.4483 71.7862 23.7241 71.9237 24.069H59.4093C57.4153 24.069 55.765 23.3793 54.4585 22.069C53.1521 20.7586 52.4645 19.0345 52.4645 17.1034V15.1724V15.0345ZM54.4585 45.931C53.0833 44.5517 52.4645 42.8966 52.4645 40.9655V39.0345C52.4645 37.0345 53.1521 35.3793 54.4585 34.069C55.765 32.7586 57.484 32.069 59.4093 32.069H71.9237C71.9237 32.069 71.5111 32.6897 71.3736 33.0345C70.5485 34.9655 70.0672 36.9655 70.0672 39.1034V41.0345C70.0672 43.5862 70.686 45.931 71.8549 48.069H59.4093C57.4153 48.069 55.765 47.3793 54.4585 46.069V45.931Z" fill="#518C3C"/>
<path d="M147.766 0L124.457 22.6897V0H116.48V30.4138V41.5862V56H124.457V33.7931L159.181 0H147.766Z" fill="#518C3C"/>
<path d="M156.98 53.1035L139.515 30.2759L133.808 35.8621L149.141 56H370V53.1035H156.98Z" fill="#518C3C"/>
<path d="M168.738 40.5518L175.202 45.5863C175.202 45.5863 175.752 46 176.095 46C176.371 46 176.783 45.8621 177.333 45.5863C184.553 41.8621 190.604 37.7931 196.174 31.7242C200.299 35.4483 204.769 40 208.344 44.8276H208.963L215.426 38.8276V38.2069C210.888 33.0345 206.763 29.3794 201.537 25.0345C204.081 21.3794 206.625 17.2414 209.1 12.2759C209.444 11.6552 209.582 11.3104 209.582 10.9656C209.582 10.6207 209.376 10.3449 208.963 10L205.594 6.6897L199.955 6.96556H184.415L176.164 6.82763L175.683 7.17246V14.6897L176.095 15.1035L184.278 14.9656H197.342C192.254 26.4138 181.253 34.7587 168.601 40.6897L168.738 40.5518Z" fill="#518C3C"/>
<path d="M226.154 48.6896C226.704 49.1034 227.047 49.2414 227.391 49.2414C227.598 49.2414 227.941 49.1034 228.423 48.8276C235.986 45.0345 241.968 40.7586 246.919 35.6552C248.569 37.2414 250.151 38.8276 251.732 40.6207H252.214L257.577 34.6207V34C255.858 32.2069 254.139 30.6207 252.351 29.1724C255.514 24.8276 258.471 19.7931 261.015 14.2069C261.221 13.7931 261.29 13.5172 261.29 13.2414C261.29 12.8965 261.084 12.6896 260.671 12.2758L256.546 8.06895L252.008 8.41378L244.444 8.55171C245.131 7.37929 245.75 6.20688 246.369 5.03447L246.232 4.41378L238.737 1.72412L238.187 1.86205C234.267 10.8276 227.666 18.8276 220.378 24.4827L226.36 28.3448C227.322 29.0345 227.598 29.0345 228.629 28.3448C232.48 24.8276 236.261 20.5517 239.837 15.5862H250.495C249.257 18.4827 247.538 21.5172 245.613 24.2069C243.756 22.9655 241.762 21.7241 239.699 20.4827H239.081L234.405 25.6552V26.2069C236.674 27.5862 238.668 29.0345 240.593 30.4827C235.299 35.8621 228.285 40.5517 219.415 44.3448L225.879 48.7586L226.154 48.6896Z" fill="#518C3C"/>
<path d="M270.916 38.5518L270.778 39.1724L275.454 46.6207L276.073 46.7586C289.962 41.5862 303.921 32.8966 312.241 23.3104C312.653 22.8276 312.86 22.5518 312.86 22.138C312.86 21.9311 312.86 21.6552 312.722 21.2414L310.247 12.4138C299.658 25.1724 286.043 33.6552 270.985 38.5518H270.916Z" fill="#518C3C"/>
<path d="M310.522 8.75865H311.072L313.96 6.68969V6.13796C312.379 3.93106 310.591 2.13796 308.597 0.482788H308.047L305.228 2.55175V3.03451C307.359 4.89658 308.872 6.48279 310.591 8.75865H310.522Z" fill="#518C3C"/>
<path d="M279.992 29.5862L280.474 29.3103L282.743 22L282.468 21.5862C278.342 20.7586 274.56 19.5862 271.191 17.8621L270.71 18.069L267.753 24.8965L267.89 25.3793C272.085 27.6552 275.592 28.8276 279.992 29.5862Z" fill="#518C3C"/>
<path d="M305.365 12.4828H305.915L308.94 10.3448V9.7931C307.359 7.5862 305.433 5.65517 303.371 3.93103H302.821L299.933 6V6.48275C302.064 8.34482 303.646 10.2069 305.296 12.4138L305.365 12.4828Z" fill="#518C3C"/>
<path d="M283.981 18.2758L284.6 18.1379L289.138 11.862L289.001 11.2413C285.494 8.68961 282.125 6.82754 278.48 5.3103L277.793 5.44823L273.323 11.3793L273.461 11.931C277.38 13.7241 280.062 15.2413 283.912 18.2069L283.981 18.2758Z" fill="#518C3C"/>
<path d="M315.886 37.5862L321.593 42.6206C322.212 43.1034 322.556 43.0344 323.381 42.6206C329.569 39.0344 336.926 33.1034 342.84 25.5862L342.634 29.7241V37.862C342.634 39.1724 342.29 39.5862 341.74 39.6551C340.158 39.7931 338.233 39.7931 334.864 39.7931L338.302 47.1724C338.714 48.1379 338.783 48.1379 340.158 48.1379C349.922 47.862 351.366 44.6896 351.297 40.5517L350.885 19.5862H353.773L361.818 19.7241L362.23 19.3103V12.1379L361.749 11.7931L353.91 11.931H350.885L350.747 3.58616L350.335 3.17236H342.496L342.083 3.58616L342.221 11.931H329.432L321.937 11.7931L321.455 12.1379V19.1724L321.868 19.5862L329.432 19.4482H337.339C331.907 26.6206 324.962 32.2758 315.955 37.5172L315.886 37.5862Z" fill="#518C3C"/>
</g>
<defs>
<clipPath id="clip0_2064_885">
<rect width="370" height="56" fill="white"/>
</clipPath>
</defs>
</svg>
