<svg width="514" height="58" viewBox="0 0 514 58" fill="none" xmlns="http://www.w3.org/2000/svg">
<path d="M256.437 55.0134V18.866H248.108V58.002L514.004 58.002V55.0134L256.437 55.0134Z" fill="#518C3C"/>
<path d="M29.1436 18.8661H20.8154L20.8154 58.002H29.1436L29.1436 18.8661Z" fill="#518C3C"/>
<path d="M49.9691 3.21356L0 3.21356L0 11.0408L49.9691 11.0408V3.21356Z" fill="#518C3C"/>
<path d="M34.1465 58.0039H43.2318L59.0553 23.0661L75.0303 58.0039H84.1155L59.0553 3.21353L34.1465 58.0039Z" fill="#518C3C"/>
<path d="M97.3682 3.21353L89.04 3.21353V50.1767V58.0039H97.3682L130.681 58.0039V50.1767L97.3682 50.1767V3.21353Z" fill="#518C3C"/>
<path d="M137.571 7.55406C134.467 10.4715 132.953 13.887 132.953 17.9429V19.8641C132.953 21.9276 133.407 23.92 134.316 25.7701C135.224 27.6201 136.436 29.2567 138.026 30.6087C136.436 31.9607 135.224 33.5973 134.316 35.4473C133.407 37.3685 132.953 39.2898 132.953 41.4244V43.2745C132.953 47.3304 134.467 50.7459 137.571 53.6633C140.676 56.5807 144.31 58.0039 148.625 58.0039L174.745 58.0039V50.1767L148.625 50.1767C146.581 50.1767 144.84 49.5363 143.401 48.1843C141.963 46.8323 141.281 45.1957 141.281 43.2745V41.4244C141.281 39.5032 141.963 37.8666 143.401 36.5147C144.84 35.1627 146.581 34.5223 148.625 34.5223H174.745V26.6951L148.625 26.6951C146.581 26.6951 144.84 26.0547 143.401 24.7027C141.963 23.3508 141.281 21.7142 141.281 19.7929V17.8717C141.281 15.9505 141.963 14.3139 143.401 12.9619C144.84 11.61 146.581 10.9696 148.625 10.9696L174.745 10.9696V3.21353L148.625 3.21353C144.31 3.21353 140.676 4.63666 137.571 7.55406Z" fill="#518C3C"/>
<path d="M209.874 3.21353L195.337 3.21353C191.022 3.21353 187.388 4.63666 184.283 7.55406C181.179 10.4715 179.665 13.887 179.665 17.9429V58.0039H187.993V17.9429C187.993 16.0217 188.675 14.3851 190.113 13.0331C191.552 11.6811 193.293 11.0407 195.337 11.0407L209.874 11.0407C211.918 11.0407 213.659 11.6811 215.098 13.0331C216.536 14.3851 217.218 16.0217 217.218 17.9429V58.0039H225.546V17.9429C225.546 13.887 224.032 10.4715 220.927 7.55406C217.899 4.63666 214.189 3.21353 209.874 3.21353Z" fill="#518C3C"/>
<path d="M277.248 3.21353L227.279 3.21353V11.0407L277.248 11.0407V3.21353Z" fill="#518C3C"/>
<path d="M292.472 41.5956L299.588 46.79C299.588 46.79 300.194 47.2169 300.573 47.2169C300.876 47.2169 301.33 47.0746 301.936 46.79C309.961 42.9475 316.548 38.7493 322.68 32.4876C327.223 36.33 332.144 41.0263 336.157 46.0073H336.838L343.955 39.8167V39.1763C338.958 33.8395 334.491 30.0683 328.737 25.5854C331.538 21.8141 334.34 17.5448 337.065 12.4215C337.444 11.7811 337.595 11.4253 337.595 11.0695C337.595 10.7137 337.368 10.4291 336.914 10.0733L333.204 6.65784L326.996 6.94246L309.885 6.94246L300.8 6.80015L300.27 7.15593V14.912L300.724 15.3389L309.734 15.1966L324.119 15.1966C318.516 27.0085 306.402 35.6185 292.472 41.7379V41.5956Z" fill="#518C3C"/>
<path d="M355.617 50.0618C356.223 50.4887 356.601 50.6311 356.98 50.6311C357.207 50.6311 357.585 50.4887 358.115 50.2041C366.444 46.2905 373.03 41.8788 378.557 36.6133C380.374 38.2499 382.116 39.8865 383.857 41.7365H384.387L390.292 35.5459V34.9055C388.4 33.0555 386.507 31.4189 384.538 29.9246C388.021 25.4417 391.277 20.2473 394.078 14.4837C394.305 14.0567 394.381 13.7721 394.381 13.4875C394.381 13.1317 394.154 12.9182 393.699 12.4913L389.157 8.15075L384.16 8.50653L375.832 8.64884C376.589 7.43919 377.27 6.22953 377.952 5.01987L377.8 4.37947L369.548 1.60437L368.942 1.74668C364.626 10.997 357.358 19.2511 349.333 25.0859L355.92 29.0707C356.98 29.7823 357.283 29.7823 358.494 29.0707C362.734 25.4417 366.898 21.03 370.835 15.9068L382.57 15.9068C381.207 18.8953 379.314 22.0262 377.194 24.8013C375.15 23.5205 372.955 22.2397 370.683 20.9589H370.002L364.854 26.2956V26.8649C367.352 28.288 369.548 29.7823 371.668 31.2765C365.838 36.8267 358.115 41.6654 348.349 45.579L355.39 50.133L355.617 50.0618Z" fill="#518C3C"/>
<path d="M448.505 8.86481H449.11L452.29 6.73012V6.16087C450.549 3.88387 448.58 2.0338 446.385 0.32605L445.779 0.32605L442.675 2.46074V2.95883C445.022 4.88005 446.687 6.51665 448.58 8.86481H448.505Z" fill="#518C3C"/>
<path d="M404.897 39.5332L404.745 40.1736L409.893 47.8585L410.575 48.0008C425.868 42.6641 441.238 33.6984 450.399 23.8076C450.853 23.3095 451.08 23.0249 451.08 22.598C451.08 22.3845 451.08 22.0999 450.929 21.6729L448.203 12.5649C436.544 25.7289 421.553 34.4811 404.972 39.5332H404.897Z" fill="#518C3C"/>
<path d="M442.906 12.6349H443.512L446.843 10.4291V9.85981C445.102 7.58281 442.982 5.59043 440.71 3.81152H440.105L436.925 5.94621V6.44431C439.272 8.36553 441.013 10.2867 442.83 12.5637L442.906 12.6349Z" fill="#518C3C"/>
<path d="M419.28 18.609L419.961 18.4667L424.958 11.9914L424.807 11.351C420.946 8.71824 417.236 6.79702 413.223 5.23158L412.466 5.3739L407.545 11.4933L407.696 12.0626C412.012 13.9126 414.965 15.4781 419.204 18.5378L419.28 18.609Z" fill="#518C3C"/>
<path d="M414.889 30.3507L415.419 30.066L417.917 22.5235L417.614 22.0965C413.072 21.2427 408.907 20.033 405.198 18.2541L404.668 18.4676L401.412 25.512L401.564 26.0101C406.182 28.3583 410.043 29.5679 414.889 30.3507Z" fill="#518C3C"/>
<path d="M454.421 38.5418L460.705 43.7362C461.386 44.2343 461.765 44.1631 462.673 43.7362C469.487 40.0361 477.588 33.9166 484.099 26.1606L483.872 30.43V38.8264C483.872 40.1784 483.494 40.6053 482.888 40.6765C481.147 40.8188 479.027 40.8188 475.317 40.8188L479.103 48.4325C479.557 49.4287 479.633 49.4287 481.147 49.4287C491.898 49.1441 493.488 45.8709 493.412 41.6015L492.958 19.97H496.138L504.996 20.1123L505.45 19.6854V12.2851L504.92 11.9293L496.289 12.0716H492.958L492.806 3.46173L492.352 3.03479L483.721 3.03479L483.267 3.46173L483.418 12.0716L469.336 12.0716L461.083 11.9293L460.553 12.2851V19.5431L461.008 19.97L469.26 19.8277L477.967 19.8277C471.986 27.2279 464.339 33.0628 454.421 38.4706V38.5418Z" fill="#518C3C"/>
</svg>
