<svg width="49" height="85" viewBox="0 0 49 85" fill="none" xmlns="http://www.w3.org/2000/svg">
<path d="M24.1893 1V61L0.500977 44.2H48.501" stroke="#518C3C" stroke-linecap="round" stroke-linejoin="round"/>
<path d="M9.42441 79.0469C9.42441 78.8281 9.39056 78.6328 9.32285 78.4609C9.26035 78.2839 9.14316 78.125 8.97129 77.9844C8.80462 77.8385 8.56764 77.6979 8.26035 77.5625C7.95827 77.4219 7.56764 77.276 7.08848 77.125C6.55723 76.9583 6.06243 76.7708 5.6041 76.5625C5.14577 76.3542 4.74212 76.112 4.39316 75.8359C4.04941 75.5599 3.78118 75.2422 3.58848 74.8828C3.39577 74.5182 3.29941 74.0964 3.29941 73.6172C3.29941 73.1484 3.39837 72.7214 3.59629 72.3359C3.79941 71.9505 4.08587 71.6198 4.45566 71.3438C4.82546 71.0625 5.26035 70.8464 5.76035 70.6953C6.26556 70.5443 6.82285 70.4688 7.43223 70.4688C8.27598 70.4688 9.00514 70.6224 9.61973 70.9297C10.2395 71.237 10.7187 71.6536 11.0572 72.1797C11.3958 72.7057 11.565 73.2969 11.565 73.9531H9.42441C9.42441 73.599 9.34889 73.2865 9.19785 73.0156C9.05202 72.7448 8.82806 72.5312 8.52598 72.375C8.2291 72.2188 7.8541 72.1406 7.40098 72.1406C6.96348 72.1406 6.59889 72.2057 6.30723 72.3359C6.02077 72.4661 5.80462 72.6432 5.65879 72.8672C5.51816 73.0911 5.44785 73.3411 5.44785 73.6172C5.44785 73.8255 5.49733 74.013 5.59629 74.1797C5.69525 74.3411 5.84368 74.4948 6.0416 74.6406C6.23952 74.7812 6.48431 74.9141 6.77598 75.0391C7.07285 75.1589 7.4166 75.2786 7.80723 75.3984C8.43223 75.5859 8.9791 75.7943 9.44785 76.0234C9.92181 76.2526 10.315 76.513 10.6275 76.8047C10.9452 77.0964 11.1822 77.4245 11.3385 77.7891C11.4999 78.1536 11.5807 78.5677 11.5807 79.0312C11.5807 79.5208 11.4843 79.9583 11.2916 80.3438C11.0989 80.7292 10.8229 81.0573 10.4635 81.3281C10.1041 81.599 9.67181 81.8047 9.1666 81.9453C8.6666 82.0859 8.10671 82.1562 7.48691 82.1562C6.93483 82.1562 6.38796 82.0833 5.84629 81.9375C5.30983 81.7865 4.82285 81.5625 4.38535 81.2656C3.94785 80.9635 3.59889 80.5833 3.33848 80.125C3.07806 79.6615 2.94785 79.1198 2.94785 78.5H5.1041C5.1041 78.8594 5.16139 79.1667 5.27598 79.4219C5.39577 79.6719 5.56243 79.8776 5.77598 80.0391C5.99473 80.1953 6.24993 80.3099 6.5416 80.3828C6.83327 80.4557 7.14837 80.4922 7.48691 80.4922C7.92441 80.4922 8.28379 80.4323 8.56504 80.3125C8.8515 80.1875 9.06504 80.0156 9.20566 79.7969C9.3515 79.5781 9.42441 79.3281 9.42441 79.0469ZM17.1894 80.5312C17.4811 80.5312 17.7415 80.474 17.9707 80.3594C18.1998 80.2448 18.3821 80.0833 18.5175 79.875C18.6582 79.6667 18.7337 79.4245 18.7441 79.1484H20.6894C20.679 79.7214 20.5175 80.2344 20.205 80.6875C19.8925 81.1406 19.4759 81.5 18.955 81.7656C18.4394 82.026 17.8613 82.1562 17.2207 82.1562C16.5696 82.1562 16.0019 82.0469 15.5175 81.8281C15.0332 81.6094 14.6295 81.3047 14.3066 80.9141C13.9889 80.5234 13.7493 80.0703 13.5879 79.5547C13.4316 79.0391 13.3535 78.487 13.3535 77.8984V77.6484C13.3535 77.0599 13.4316 76.5078 13.5879 75.9922C13.7493 75.4766 13.9889 75.0234 14.3066 74.6328C14.6295 74.2422 15.0332 73.9375 15.5175 73.7188C16.0019 73.5 16.567 73.3906 17.2129 73.3906C17.8951 73.3906 18.4941 73.5234 19.0097 73.7891C19.5306 74.0547 19.9368 74.4297 20.2285 74.9141C20.5254 75.3984 20.679 75.9688 20.6894 76.625H18.7441C18.7337 76.3229 18.666 76.0521 18.541 75.8125C18.416 75.5729 18.2389 75.3802 18.0097 75.2344C17.7806 75.0885 17.5019 75.0156 17.1738 75.0156C16.8248 75.0156 16.5332 75.0885 16.2988 75.2344C16.0696 75.3802 15.8899 75.5807 15.7597 75.8359C15.6347 76.0859 15.5462 76.3672 15.4941 76.6797C15.4472 76.987 15.4238 77.3099 15.4238 77.6484V77.8984C15.4238 78.2422 15.4472 78.5703 15.4941 78.8828C15.5462 79.1953 15.6347 79.4766 15.7597 79.7266C15.8899 79.9714 16.0696 80.1667 16.2988 80.3125C16.5332 80.4583 16.83 80.5312 17.1894 80.5312ZM24.7669 75.2734V82H22.7044V73.5469H24.6575L24.7669 75.2734ZM27.3372 73.4922L27.306 75.4141C27.1914 75.3932 27.0612 75.3776 26.9154 75.3672C26.7747 75.3568 26.6419 75.3516 26.5169 75.3516C26.1992 75.3516 25.9206 75.3958 25.681 75.4844C25.4414 75.5677 25.2409 75.6901 25.0794 75.8516C24.9232 76.013 24.8034 76.2109 24.72 76.4453C24.6367 76.6745 24.5898 76.9349 24.5794 77.2266L24.1341 77.1719C24.1341 76.6354 24.1888 76.138 24.2982 75.6797C24.4075 75.2214 24.5664 74.8203 24.7747 74.4766C24.9831 74.1328 25.2435 73.8672 25.556 73.6797C25.8737 73.487 26.2383 73.3906 26.6497 73.3906C26.7643 73.3906 26.8867 73.401 27.0169 73.4219C27.1523 73.4375 27.2591 73.4609 27.3372 73.4922ZM28.5241 77.8594V77.6953C28.5241 77.0755 28.6126 76.5052 28.7897 75.9844C28.9668 75.4583 29.2246 75.0026 29.5632 74.6172C29.9017 74.2318 30.3158 73.9323 30.8054 73.7188C31.2949 73.5 31.8522 73.3906 32.4772 73.3906C33.1126 73.3906 33.6751 73.5 34.1647 73.7188C34.6595 73.9323 35.0762 74.2318 35.4147 74.6172C35.7533 75.0026 36.0111 75.4583 36.1882 75.9844C36.3652 76.5052 36.4538 77.0755 36.4538 77.6953V77.8594C36.4538 78.474 36.3652 79.0443 36.1882 79.5703C36.0111 80.0911 35.7533 80.5469 35.4147 80.9375C35.0762 81.3229 34.6621 81.6224 34.1725 81.8359C33.683 82.0495 33.1231 82.1562 32.4929 82.1562C31.8679 82.1562 31.308 82.0495 30.8132 81.8359C30.3184 81.6224 29.9017 81.3229 29.5632 80.9375C29.2246 80.5469 28.9668 80.0911 28.7897 79.5703C28.6126 79.0443 28.5241 78.474 28.5241 77.8594ZM30.5866 77.6953V77.8594C30.5866 78.2292 30.6231 78.5755 30.696 78.8984C30.7689 79.2214 30.8809 79.5052 31.0319 79.75C31.183 79.9948 31.3783 80.1875 31.6179 80.3281C31.8626 80.4635 32.1543 80.5312 32.4929 80.5312C32.8262 80.5312 33.1126 80.4635 33.3522 80.3281C33.5918 80.1875 33.7871 79.9948 33.9382 79.75C34.0944 79.5052 34.209 79.2214 34.2819 78.8984C34.3548 78.5755 34.3913 78.2292 34.3913 77.8594V77.6953C34.3913 77.3307 34.3548 76.9896 34.2819 76.6719C34.209 76.349 34.0944 76.0651 33.9382 75.8203C33.7871 75.5703 33.5892 75.375 33.3444 75.2344C33.1048 75.0885 32.8158 75.0156 32.4772 75.0156C32.1439 75.0156 31.8574 75.0885 31.6179 75.2344C31.3783 75.375 31.183 75.5703 31.0319 75.8203C30.8809 76.0651 30.7689 76.349 30.696 76.6719C30.6231 76.9896 30.5866 77.3307 30.5866 77.6953ZM40.7813 70V82H38.711V70H40.7813ZM45.5775 70V82H43.5072V70H45.5775Z" fill="#518C3C"/>
</svg>
