<svg width="554" height="555" viewBox="0 0 554 555" fill="none" xmlns="http://www.w3.org/2000/svg">
<mask id="mask0_1841_31519" style="mask-type:alpha" maskUnits="userSpaceOnUse" x="1" y="27" width="553" height="500">
<rect x="1" y="27" width="553" height="500" fill="#D9D9D9"/>
</mask>
<g mask="url(#mask0_1841_31519)">
</g>
<g clip-path="url(#clip0_1841_31519)">
<g opacity="0.3">
<path d="M165.016 157.056C135.987 149.609 102.418 149.856 73.7737 157.789C70.5214 158.847 68.3152 161.513 68.1373 164.587L68.0234 204.739C68.2014 208.061 70.9697 208.864 73.6313 208.18C102.276 200.247 135.845 200.008 164.873 207.447C167.229 207.948 170.14 207.743 170.595 203.907L170.709 163.755C170.545 160.688 168.318 158.057 165.023 157.056H165.016Z" fill="#518C3C"/>
<path d="M57.3516 163.417C52.8183 165.307 48.4914 167.43 44.4136 169.778C24.8144 181.061 14.4099 195.658 13.1859 210.466C13.1218 211.503 13.0791 212.13 13.0649 214.485C12.9439 230.189 12.9724 245.901 12.9297 261.605V261.865C12.9653 261.562 13.0151 261.16 13.0436 260.857C14.2676 246.049 24.6721 231.459 44.2713 220.169C48.3491 217.821 52.6831 215.698 57.2164 213.808C60.7605 211.999 62.5752 196.215 62.6606 166.457C62.3332 163.446 60.5541 162.423 57.3587 163.417H57.3516Z" fill="#518C3C"/>
<path d="M228.774 208.944C226.817 194.657 216.305 180.681 197.254 169.779C192.479 167.043 187.355 164.617 181.982 162.502C178.957 161.465 176.73 162.749 176.559 165.626L176.445 205.778C176.623 209.212 179.278 211.828 181.84 212.893C187.213 215.008 192.33 217.434 197.112 220.17C216.163 231.072 226.681 245.049 228.631 259.335C228.681 259.667 228.767 260.111 228.852 260.442C228.918 259.902 228.954 259.011 228.959 257.77L229.073 217.618C229.08 212.174 228.937 210.227 228.781 208.944H228.774Z" fill="#518C3C"/>
</g>
<path opacity="0.3" d="M121.052 295.819C108.142 295.819 95.2329 298.633 85.3835 304.267C75.5341 309.901 70.6094 317.285 70.6094 324.668C70.6094 332.051 75.5341 339.441 85.3835 345.075C95.2329 350.709 108.142 353.523 121.052 353.523C133.961 353.523 146.871 350.702 156.713 345.075C166.563 339.441 171.487 332.058 171.487 324.668C171.487 317.278 166.563 309.901 156.713 304.267C146.864 298.633 133.954 295.812 121.052 295.819Z" fill="#518C3C"/>
<path d="M121.048 364.309C102.772 364.309 85.5712 360.233 72.6261 352.822C59.5458 345.34 52.3438 335.348 52.3438 324.686C52.3438 314.024 59.5458 304.032 72.6261 296.55C85.5712 289.146 102.765 285.07 121.048 285.07C139.33 285.07 156.524 289.146 169.469 296.55C182.549 304.032 189.751 314.024 189.751 324.686C189.751 335.348 182.549 345.34 169.469 352.822C156.517 360.226 139.323 364.309 121.048 364.309ZM121.062 286.565C103.028 286.565 86.0979 290.57 73.3805 297.847C60.7912 305.047 53.8525 314.581 53.8525 324.686C53.8525 334.791 60.7841 344.325 73.3805 351.525C86.105 358.802 103.035 362.807 121.048 362.807C139.06 362.807 155.99 358.802 168.715 351.525C181.304 344.318 188.243 334.791 188.243 324.686C188.243 314.581 181.311 305.054 168.715 297.847C155.99 290.57 139.067 286.565 121.062 286.565Z" fill="#518C3C"/>
<path d="M156.713 227.214C146.864 221.58 133.954 218.759 121.052 218.766C108.142 218.766 95.2329 221.587 85.3835 227.214C75.5341 232.848 70.6094 240.231 70.6094 247.614V308.125C70.6094 315.508 75.5341 322.891 85.3835 328.525C95.2329 334.159 108.142 336.98 121.052 336.98C133.961 336.98 146.871 334.166 156.713 328.525C166.563 322.891 171.487 315.508 171.487 308.125V247.614C171.487 240.231 166.563 232.848 156.713 227.214Z" fill="#C7DEEB"/>
<path d="M121.052 218.766C108.142 218.766 95.2329 221.587 85.3835 227.214C75.5341 232.848 70.6094 240.231 70.6094 247.614C70.6094 254.998 75.5341 262.381 85.3835 268.022C95.2329 273.656 108.142 276.47 121.052 276.47C133.961 276.47 146.871 273.649 156.713 268.022C166.563 262.388 171.487 255.005 171.487 247.614C171.487 240.224 166.563 232.848 156.713 227.214C146.864 221.58 133.954 218.759 121.052 218.766Z" fill="white"/>
<path opacity="0.3" d="M167.599 263.601C155.857 266.436 120.124 275.06 76.2433 263.869C75.0406 263.559 71.0624 262.903 70.5357 267.388L70.4219 307.575C70.5784 310.65 72.8131 313.287 76.1009 314.296C105.094 321.848 138.663 321.763 167.457 314.028C170.723 312.991 172.951 310.34 173.129 307.265L173.243 267.085C173.086 264.201 170.873 262.833 167.599 263.601Z" fill="#518C3C"/>
<path d="M112.977 280.359V283.433C130.789 283.828 141.479 283.335 161.555 279.238V276.163C144.781 279.548 134.319 280.874 112.977 280.359Z" fill="white"/>
<path d="M112.953 286.357V289.438C130.766 289.833 141.455 289.34 161.524 285.243V282.161C144.75 285.546 134.289 286.872 112.953 286.357Z" fill="white"/>
<path d="M112.953 292.355V295.436C129.371 296.163 146.024 294.767 161.531 291.241V288.159C146.038 291.678 129.385 293.081 112.953 292.355Z" fill="white"/>
<path d="M112.922 298.335V301.416C129.34 302.143 145.993 300.747 161.5 297.221V294.139C146.007 297.665 129.354 299.061 112.922 298.335Z" fill="white"/>
<path d="M112.922 304.33V307.404C123.753 307.644 128.699 307.757 140.99 306.572V303.498C131.738 304.464 122.287 304.746 112.922 304.33Z" fill="white"/>
<path d="M80 304.498C88.4118 306.465 97.1653 307.812 106.04 308.524L106.118 279.937C97.2436 279.217 88.4901 277.878 80.0783 275.91L80 304.498Z" fill="white"/>
<path opacity="0.3" d="M229.893 210.354C229.822 210.657 229.744 211.059 229.694 211.363C228.335 218.83 224.193 241.544 184.112 258.087C182.354 258.813 178.967 261.246 178.739 265.251L178.625 305.439C178.774 308.316 180.973 309.585 183.962 308.52C224.143 290.764 229.737 271.4 229.793 253.108L229.907 212.921C229.907 211.116 229.907 211.102 229.886 210.347L229.893 210.354Z" fill="#518C3C"/>
<path d="M205.734 257.465V260.547C213.086 254.891 225.412 245.435 229.056 229.11V226.029C227.198 232.545 223.718 244.673 205.734 257.465Z" fill="white"/>
<path d="M205.719 263.463V266.545C213.07 260.889 225.396 251.426 229.047 235.108V232.027C227.19 238.543 223.71 250.671 205.719 263.463Z" fill="white"/>
<path d="M194.282 262.125C193.67 263.719 192.852 265.835 192.232 267.428L187.578 270.291L190.951 272.054C190.709 273.577 190.389 275.608 190.147 277.131L194.254 272.886L198.196 272.95C197.976 271.666 197.684 269.953 197.463 268.669L200.573 263.536L196.26 265.334C195.67 264.375 194.88 263.085 194.282 262.125Z" fill="white"/>
<path d="M205.68 275.423V278.505C218.774 269.253 226.546 258.323 229.001 247.068V243.987C227.143 250.503 223.67 262.631 205.68 275.423Z" fill="white"/>
<path d="M205.68 281.421V284.503C213.031 278.847 225.357 269.391 229.008 253.066V249.985C226.56 261.232 218.781 272.162 205.68 281.421Z" fill="white"/>
<path d="M196.206 283.31C195.615 282.344 194.825 281.061 194.227 280.102C193.615 281.695 192.797 283.818 192.178 285.404L187.523 288.26L190.897 290.03C190.655 291.553 190.335 293.584 190.093 295.107L194.192 290.862L198.134 290.926C197.914 289.642 197.622 287.929 197.401 286.645L200.511 281.498L196.199 283.31H196.206Z" fill="white"/>
<path opacity="0.3" d="M59.3098 258.346C20.5029 241.549 15.991 224.441 12.3686 210.691C12.3022 211.236 12.2642 212.127 12.2547 213.363L12.1409 253.544C12.1338 258.966 12.2832 260.92 12.4469 262.224C13.4859 267.273 15.9269 279.106 27.9042 289.726C36.7715 297.588 60.1567 312.975 63.9142 307.862C64.2203 307.446 64.512 306.896 64.5832 305.662L64.6971 265.482C64.5476 262.513 62.434 259.714 59.3098 258.346Z" fill="#518C3C"/>
<path d="M15.4609 232.28V235.354C21.6097 247.525 29.3241 256.742 50.5387 267.841V264.767H50.5458C34.1492 256.044 23.1469 247.927 15.4609 232.28Z" fill="white"/>
<path d="M13.5587 225.377C13.4305 224.947 13.3664 224.784 13.2595 224.728C12.7252 224.904 13.2595 231.667 13.8294 232.041C14.3709 232.386 14.2782 228.571 13.6798 225.863C13.6513 225.722 13.6015 225.525 13.5658 225.384L13.5587 225.377Z" fill="#5098F0"/>
<path d="M15.4453 240.283V243.365C21.6012 255.536 29.3156 264.752 50.5231 275.852V272.77C34.1335 264.047 23.1384 255.931 15.4453 240.283Z" fill="white"/>
<path d="M13.5431 233.398C13.4077 232.933 13.3436 232.799 13.2439 232.75C12.7096 232.933 13.2439 239.702 13.8138 240.069C14.3552 240.415 14.2626 236.6 13.6642 233.885C13.6286 233.737 13.5858 233.546 13.5502 233.405L13.5431 233.398Z" fill="#5098F0"/>
<path d="M15.4297 248.702V251.784C21.5784 263.955 29.3 273.171 50.5075 284.271V281.189C48.3796 280.145 46.3016 279.038 44.2804 277.882C29.6985 269.54 20.0768 259.399 15.4297 248.702Z" fill="white"/>
<path d="M13.508 241.799C13.3798 241.369 13.3157 241.207 13.2017 241.15C12.6745 241.334 13.2017 248.103 13.7716 248.47C14.313 248.816 14.2204 245.001 13.622 242.286C13.5864 242.138 13.5436 241.947 13.508 241.806V241.799Z" fill="#5098F0"/>
<path d="M15.3906 257.067V260.141C21.5394 272.313 29.2609 281.529 50.4684 292.628L50.4827 289.554C48.3477 288.51 46.2625 287.403 44.2485 286.247C29.6594 277.905 20.0449 267.764 15.3977 257.067H15.3906Z" fill="white"/>
<path d="M13.4884 250.164C13.353 249.698 13.2889 249.564 13.1892 249.515C12.6549 249.691 13.1892 256.454 13.7591 256.821C14.3006 257.166 14.2079 253.358 13.6095 250.643C13.581 250.495 13.5311 250.305 13.4955 250.164H13.4884Z" fill="#5098F0"/>
<path d="M111.475 40.7221L108.749 38.4092C108.749 38.4092 104.137 40.5811 102.508 44.7698C100.878 48.9584 102.992 56.9973 102.992 56.9973L111.482 40.7292L111.475 40.7221Z" fill="#C7DEEB"/>
<path d="M101.056 111.476L100.287 116.173C100.287 116.173 98.2019 119.762 97.2767 121.405C96.3516 123.048 96.3516 125.707 96.3516 129.641C96.3516 133.576 98.4438 138.872 98.7499 139.048C99.0559 139.232 102.251 138.745 102.251 138.745L102.372 115.806L103.233 111.307L101.056 111.476Z" fill="#FFCDA8"/>
<path d="M98.7499 139.05C99.0559 139.233 102.251 138.747 102.251 138.747L102.265 136.243C100.486 135.313 97.6326 133.543 97.4618 131.751C97.2696 129.678 97.4191 125.814 96.5722 123.755C96.3587 125.271 96.3516 127.217 96.3516 129.643C96.3516 133.578 98.4438 138.874 98.7499 139.05Z" fill="#D9A782"/>
<path d="M101.08 111.307L100.902 111.483L99.1797 116.963L102.923 119.635L105.272 112.837L101.08 111.307Z" fill="#C7DEEB"/>
<path d="M112.109 230.515C112.109 230.515 107.426 233.66 104.772 234.851C102.11 236.043 96.1464 241.191 94.8156 242.594C93.4848 243.997 91.7697 248.25 94.6021 249.653C97.4345 251.056 106.28 250.718 109.54 248.419C112.799 246.12 116.792 241.36 120.4 240.761C124.008 240.168 132.206 237.997 132.206 237.997C132.206 237.997 133.751 228.808 129.63 225.198C129.63 225.198 128.257 229.831 123.488 233.533C118.727 237.235 116.45 237.912 115.504 236.424C114.557 234.936 116.792 233.018 112.109 230.515Z" fill="#001135"/>
<path d="M109.535 248.429C106.275 250.728 97.4292 251.066 94.5967 249.663C93.6787 249.205 93.2375 248.45 93.1094 247.583C93.1094 247.59 93.0951 250.657 95.5433 251.151C97.8135 251.609 103.229 252.131 108.552 250.002C113.876 247.872 115.121 243.028 120.053 242.174L120.309 243.578L129.447 242.174L132.194 238.007C132.194 238.007 123.995 240.179 120.387 240.771C116.779 241.363 112.787 246.13 109.527 248.429H109.535Z" fill="#181818"/>
<path d="M109.397 228.676C109.397 228.676 105.078 242.116 116.301 239.479C127.523 236.841 130.256 225.862 130.256 225.862L125.474 129.995L111.931 117.337C111.931 117.337 105.925 114.869 102.452 109.446C102.452 109.446 100.694 119.248 100.174 125.186C99.6477 131.123 98.9361 145.092 100.601 153.519C102.267 161.946 105.953 174.117 107.056 181.218C108.138 188.15 109.896 204.792 110.273 210.348C110.65 215.912 110.202 224.804 109.397 228.669V228.676Z" fill="#96CE70"/>
<path d="M140.662 233.237C140.662 233.237 142.897 237.405 142.598 242.172C142.598 242.172 140.32 245.19 139.424 246.339C138.52 247.489 136.506 251.572 136.029 253.525C135.559 255.485 132.336 260.16 128.564 261.648C124.785 263.136 116.11 264.455 114.914 260.118C114.914 260.118 115.989 255.316 118.088 251.825C120.187 248.335 125.518 242.468 126.763 239.577C126.763 239.577 129.809 238.681 132.898 240.345C135.986 242.002 134.784 244.217 135.986 244.132C137.189 244.047 138.605 240.007 139.552 238.307C140.498 236.608 140.669 233.244 140.669 233.244L140.662 233.237Z" fill="#001135"/>
<path d="M136.006 253.526C135.536 255.487 132.312 260.162 128.54 261.65C124.761 263.138 116.086 264.456 114.891 260.12C114.891 260.12 114.891 262.411 116.52 263.074C118.15 263.737 122.534 264.703 127.252 263.074C131.978 261.438 133.693 259.104 134.682 257.482C135.671 255.867 137.258 251.404 137.258 251.404L138.461 250.896L142.368 245.452L142.581 242.18C142.581 242.18 140.304 245.198 139.407 246.348C138.504 247.497 136.49 251.58 136.013 253.533L136.006 253.526Z" fill="#181818"/>
<path d="M138.892 27.4499L118.432 37.7312C118.432 37.7312 118.645 45.1707 118.133 47.3567C117.62 49.5427 121.371 55.8892 126.602 54.8667C131.825 53.8442 140.885 38.5281 140.885 38.7467C140.885 38.9653 137.127 35.3901 138.899 27.4429L138.892 27.4499Z" fill="#D9A782"/>
<path d="M142.013 236.863C142.013 236.863 143.714 222.378 144.433 216.864C145.194 211.004 145.365 203.762 144.952 197.232C144.532 190.568 143.379 183.792 143.55 178.362C143.721 172.932 148.382 146.7 149.236 139.825C150.09 132.949 149.72 124.121 146.468 114.107C146.468 114.107 131.132 122.421 111.945 117.33C111.945 117.33 113.141 127.774 114.514 132.357C115.888 136.941 119.567 146.869 119.823 149.93C120.08 152.983 120.763 174.801 121.539 179.469C122.307 184.137 124.969 207.394 125.481 215.115C125.994 222.837 122.279 245.035 122.777 245.444C133.623 254.414 141.65 239.831 142.013 236.87V236.863Z" fill="#8FB581"/>
<path d="M118.929 37.0677L118.295 35.5728C118.295 35.5728 110.325 37.512 108.766 38.4075C107.208 39.3031 104.254 51.6999 103.898 52.807C103.55 53.9141 99.8918 61.6145 100.24 67.3263C100.589 73.0382 101.593 82.5297 101.493 83.8765C101.393 85.2164 101.593 96.0477 101.443 99.4325C101.294 102.81 97.0807 112.006 103.4 115.383C109.72 118.761 117.292 122.936 126.067 123.232C134.841 123.528 149.189 118.761 147.829 115.129C146.477 111.505 142.463 102.126 144.321 97.3593C146.178 92.5924 147.331 89.2922 147.331 89.2922C147.331 89.2922 156.255 59.7247 156.355 59.2804C156.455 58.8361 155.971 53.4064 155.971 53.4064L141.495 38.7672C141.495 38.7672 126.608 47.9625 122.202 46.115C117.797 44.2745 118.936 37.0677 118.936 37.0677H118.929Z" fill="#E6F6FF"/>
<path d="M138.239 73.0741C139.079 78.1089 139.691 95.0541 138.453 99.419C137.464 102.917 141.079 113.868 140.018 120.877C144.893 119.241 148.523 117.02 147.811 115.109C146.459 111.484 142.445 102.106 144.303 97.3388C146.16 92.5719 147.313 89.2717 147.313 89.2717C147.313 89.2717 156.237 59.7041 156.337 59.2599C156.372 59.1118 156.337 58.4419 156.287 57.5957L141.805 65.3525C141.805 65.3525 137.399 68.0392 138.239 73.0741Z" fill="#C7DEEB"/>
<path d="M150.073 135.028C150.073 135.028 150.834 139.02 149.788 140.098C148.742 141.177 144.472 144.09 143.219 145.81C141.974 147.524 137.298 155.147 138.707 155.986C140.116 156.825 142.216 154.745 143.461 152.516C144.714 150.281 147.169 149.844 147.895 150.88C148.621 151.917 148.984 154.392 148.5 155.393C148.016 156.388 146.166 158.905 146.166 158.905C146.166 158.905 141.974 160.661 141.775 161.543C141.575 162.424 141.696 163.256 142.422 163.256C143.148 163.256 146.934 162.262 146.934 162.262C146.934 162.262 148.727 162.064 150.35 161.423C151.973 160.781 154.072 158.151 155.282 156.275C156.485 154.399 157.694 152.044 157.858 148.772C158.015 145.5 157.78 142.503 158.015 140.67C158.257 138.836 158.741 135.042 158.741 135.042H150.08L150.073 135.028Z" fill="#FFCDA8"/>
<path d="M145.809 159.702C145.51 159.659 145.133 159.61 144.706 159.568C143.475 160.16 141.902 161.006 141.781 161.535C141.582 162.416 141.703 163.249 142.429 163.249C143.155 163.249 146.941 162.254 146.941 162.254C146.941 162.254 148.734 162.057 150.357 161.415C151.979 160.773 154.079 158.143 155.288 156.267C155.815 155.449 156.335 154.54 156.769 153.51C155.808 153.799 154.74 154.222 153.993 154.794C152.342 156.07 151.011 158.665 150.25 159.702C149.481 160.738 147.311 159.899 145.816 159.702H145.809Z" fill="#D9A782"/>
<path d="M149.622 139.675L158.546 141.861L159.692 133.808C159.692 133.808 160.517 133.216 160.837 130.946C161.158 128.668 161.805 108.479 161.941 104.974C162.076 101.47 162.538 92.5563 162.951 88.1491C163.364 83.7347 162.076 76.6901 161.941 74.8708C161.805 73.0515 159.934 59.5899 157.18 54.9922C154.425 50.4016 149.408 50.8176 146.697 51.3606C143.985 51.9036 137.289 60.3585 140.178 68.9968C143.067 77.635 146.562 92.3307 146.697 96.9213C146.839 101.519 146.739 104.241 146.697 107.062C146.654 109.882 147.935 127.257 148.213 128.893C148.49 130.529 149.615 132.983 149.615 132.983V139.668L149.622 139.675Z" fill="#E6F6FF"/>
<path d="M155.194 133.909H158.04L154.368 132.541V125.129L152.76 131.631C152.76 131.631 149.6 126.716 149.621 121.124C149.643 115.532 151.749 109.75 151.749 107.119C151.749 104.489 151.109 103.481 149.956 100.977C149.209 99.3555 147.828 98.5304 146.703 97.3599C146.824 101.697 146.739 104.341 146.696 107.077C146.654 109.898 147.935 127.273 148.212 128.909C148.49 130.545 149.614 132.999 149.614 132.999V139.684L154.724 140.932L155.186 133.909H155.194Z" fill="#C7DEEB"/>
<path d="M108.369 112.574C108.369 112.574 106.753 70.7369 116.823 53.7283L117.129 47.4523L122.175 46.1055L123.919 51.6269L118.908 55.3784C110.76 76.2795 115.478 115.324 115.478 115.324L112.091 119.139L108.369 112.581V112.574Z" fill="#B61678"/>
<path d="M142.497 39.087L139.458 34.0732C134.121 42.7327 122.172 46.1175 122.172 46.1175L123.211 54.5442C123.211 54.5442 134.398 50.835 142.504 39.087H142.497Z" fill="#FDFDFD"/>
<path d="M114.52 51.5236L122.192 46.1079C122.192 46.1079 120.634 41.7359 120.634 36.1298L118.086 35.5728C118.086 35.5728 113.588 43.6469 114.527 51.5236H114.52Z" fill="#FDFDFD"/>
<path d="M136.918 3.74544C132.435 0.755541 125.339 1.08697 120.336 4.4365C115.334 7.78603 114.01 11.8337 113.569 13.653C113.127 15.4723 112.579 17.0448 112.138 18.427C111.697 19.8091 113.149 21.5438 113.149 21.5438C111.576 23.4971 112.8 28.1371 113.127 29.2654C112.949 29.7026 112.836 30.0692 112.864 30.316C112.928 31.0071 113.298 31.3244 113.747 31.4725C114.088 32.9745 114.387 34.7515 114.387 35.5131C114.387 36.6273 114.238 40.3576 118.65 40.4281C123.062 40.4986 129.424 37.9177 133.431 34.7445C137.438 31.5712 141.629 25.1613 142.846 18.7513C144.063 12.3414 141.409 6.72829 136.925 3.74544H136.918Z" fill="#FFCDA8"/>
<path d="M115.615 31.6973C115.551 31.4646 114.541 31.7255 113.758 31.4717C114.099 32.9737 114.398 34.7507 114.398 35.5123C114.398 36.3655 114.313 38.749 116.249 39.849C116.626 34.4334 115.615 31.6973 115.615 31.6973Z" fill="#D9A782"/>
<path d="M115.687 24.0083C116.221 22.0762 112.328 20.144 112.328 20.144C112.648 20.9268 113.161 21.5403 113.161 21.5403C111.588 23.4936 112.812 28.1336 113.139 29.2618C113.759 27.788 115.267 25.4962 115.687 24.0083Z" fill="#D9A782"/>
<path d="M128.111 0.00013051C118.767 0.0353888 112.732 7.62296 111.75 10.3378C110.768 13.0527 112.391 15.0766 118.589 16.2542C124.795 17.4318 130.218 15.683 130.218 15.683C131.563 16.7901 132.274 19.4979 131.84 21.0705C131.406 22.643 132.701 23.2424 132.872 25.0546C133.043 26.8669 132.865 28.249 131.364 31.1543C129.869 34.0666 124.859 36.3866 123.735 36.5629C122.61 36.7392 122.183 35.7943 121.372 34.7225C120.561 33.6506 117.671 31.9088 115.501 31.6268C115.002 31.5633 113.921 31.7114 113.75 32.1133C113.579 32.5082 113.985 35.1879 113.985 35.1879C113.985 35.1879 113.444 37.4444 114.02 39.0522C114.597 40.6599 116.397 41.6683 120.084 41.4568C123.763 41.2523 129.777 38.3682 133.086 35.6744C134.523 34.5038 135.206 28.4535 135.377 26.5778C135.548 24.695 137.84 22.5513 138.751 22.6077C139.661 22.6712 141.056 24.3847 141.056 24.3847C141.056 24.3847 143.142 19.9633 143.448 13.5252C143.761 7.07999 137.455 -0.0351277 128.111 0.00013051ZM119.877 36.4995C119.678 37.8322 118.461 38.0226 117.892 37.8181C116.817 37.4232 117.415 36.4148 116.283 35.9917C115.244 35.5969 115.244 36.845 114.917 36.7181C114.583 36.5911 114.255 34.2852 114.54 33.9679C114.817 33.6506 115.558 33.7705 116.091 33.9186C117.735 34.3699 120.069 35.1667 119.877 36.5065V36.4995Z" fill="#1B3300"/>
<path d="M135.25 30.4209C135.791 30.7594 137.036 31.253 139.47 28.6721C141.904 26.0912 141.861 23.6584 140.659 22.8474C139.449 22.0365 138.289 22.5301 137.663 23.468C137.036 24.4058 135.25 30.428 135.25 30.428V30.4209Z" fill="#FFCDA8"/>
<path d="M130.227 15.6915C130.824 16.1851 131.294 16.989 131.593 17.8704C133.5 15.5293 137.179 12.7368 137.179 12.7368C135.144 14.0061 130.227 15.6915 130.227 15.6915Z" fill="#3B5419"/>
<g opacity="0.3">
<path d="M324.789 247.677C295.761 240.231 262.191 240.477 233.547 248.41C230.302 249.468 228.089 252.134 227.911 255.208L227.797 295.36C227.975 298.682 230.743 299.478 233.405 298.802C262.049 290.868 295.618 290.629 324.647 298.068C327.002 298.569 329.913 298.364 330.369 294.528L330.483 254.376C330.326 251.309 328.091 248.678 324.796 247.677H324.789Z" fill="#518C3C"/>
<path d="M217.132 254.038C212.599 255.935 208.272 258.051 204.194 260.399C184.595 271.682 174.191 286.272 172.966 301.087C172.902 302.124 172.86 302.751 172.845 305.107C172.724 320.811 172.753 336.522 172.703 352.226V352.487C172.739 352.183 172.789 351.781 172.817 351.478C174.041 336.67 184.446 322.08 204.045 310.79C208.123 308.442 212.457 306.319 216.99 304.43C220.534 302.62 222.349 286.836 222.434 257.078C222.107 254.067 220.328 253.044 217.132 254.038Z" fill="#518C3C"/>
<path d="M388.547 299.565C386.59 285.279 376.079 271.302 357.028 260.4C352.245 257.664 347.129 255.239 341.755 253.123C338.731 252.086 336.503 253.37 336.333 256.247L336.219 296.399C336.39 299.833 339.051 302.449 341.613 303.514C346.986 305.63 352.103 308.055 356.885 310.791C375.937 321.693 386.455 335.67 388.405 349.956C388.455 350.288 388.54 350.732 388.626 351.063C388.687 350.523 388.723 349.632 388.732 348.391L388.846 308.239C388.853 302.795 388.711 300.849 388.554 299.565H388.547Z" fill="#518C3C"/>
</g>
<path opacity="0.3" d="M280.825 386.44C267.916 386.44 255.006 389.261 245.157 394.888C235.308 400.523 230.383 407.906 230.383 415.289C230.383 422.672 235.308 430.055 245.157 435.696C255.006 441.33 267.916 444.144 280.825 444.144C293.735 444.144 306.637 441.323 316.487 435.696C326.336 430.062 331.261 422.679 331.261 415.289C331.261 407.899 326.336 400.523 316.487 394.888C306.637 389.254 293.728 386.433 280.825 386.44Z" fill="#518C3C"/>
<path d="M280.821 454.93C262.546 454.93 245.345 450.854 232.4 443.45C219.319 435.968 212.117 425.976 212.117 415.314C212.117 404.652 219.319 394.66 232.4 387.178C245.345 379.774 262.538 375.691 280.821 375.691C299.104 375.691 316.297 379.767 329.242 387.178C342.323 394.66 349.525 404.652 349.525 415.314C349.525 425.976 342.323 435.968 329.242 443.45C316.29 450.854 299.096 454.93 280.821 454.93ZM280.835 377.186C262.802 377.186 245.871 381.191 233.154 388.469C220.565 395.668 213.626 405.202 213.626 415.307C213.626 425.412 220.557 434.939 233.154 442.146C245.878 449.423 262.809 453.428 280.821 453.428C298.833 453.428 315.764 449.423 328.488 442.146C341.077 434.939 348.016 425.412 348.016 415.307C348.016 405.202 341.084 395.675 328.488 388.469C315.764 381.191 298.84 377.186 280.835 377.186Z" fill="#518C3C"/>
<path d="M316.487 317.835C306.637 312.201 293.728 309.38 280.825 309.387C267.916 309.387 255.006 312.201 245.157 317.835C235.308 323.469 230.383 330.852 230.383 338.236V398.746C230.383 406.129 235.308 413.512 245.157 419.146C255.006 424.78 267.916 427.601 280.825 427.601C293.735 427.601 306.637 424.787 316.487 419.146C326.336 413.512 331.261 406.129 331.261 398.746V338.236C331.261 330.852 326.336 323.469 316.487 317.835Z" fill="#C7DEEB"/>
<path d="M280.825 309.387C267.916 309.387 255.006 312.201 245.157 317.835C235.308 323.469 230.383 330.852 230.383 338.236C230.383 345.619 235.308 353.002 245.157 358.643C255.006 364.277 267.916 367.091 280.825 367.091C293.735 367.091 306.637 364.27 316.487 358.643C326.336 353.009 331.261 345.626 331.261 338.236C331.261 330.845 326.336 323.469 316.487 317.835C306.637 312.201 293.728 309.38 280.825 309.387Z" fill="white"/>
<path opacity="0.3" d="M327.373 354.215C315.63 357.05 279.898 365.674 236.017 354.483C234.814 354.173 230.836 353.517 230.309 358.009L230.195 398.189C230.359 401.264 232.586 403.901 235.874 404.917C264.867 412.469 298.437 412.384 327.23 404.649C330.497 403.612 332.724 400.961 332.902 397.886L333.016 357.706C332.86 354.822 330.646 353.454 327.373 354.222V354.215Z" fill="#518C3C"/>
<path d="M272.766 370.98V374.054C290.579 374.449 301.268 373.956 321.344 369.859V366.784C304.57 370.169 294.108 371.495 272.766 370.98Z" fill="white"/>
<path d="M272.75 376.978V380.06C290.563 380.454 301.252 379.961 321.328 375.864V372.782C304.554 376.167 294.093 377.493 272.75 376.978Z" fill="white"/>
<path d="M272.727 382.976V386.058C289.145 386.784 305.797 385.388 321.305 381.862V378.78C305.812 382.299 289.159 383.702 272.727 382.976Z" fill="white"/>
<path d="M272.711 388.956V392.038C289.129 392.764 305.782 391.368 321.289 387.842V384.76C305.796 388.279 289.143 389.682 272.711 388.956Z" fill="white"/>
<path d="M272.695 394.951V398.025C283.52 398.265 288.466 398.378 300.763 397.193V394.119C291.512 395.085 282.061 395.367 272.695 394.951Z" fill="white"/>
<path d="M239.773 395.119C248.185 397.086 256.939 398.433 265.813 399.145L265.891 370.558C257.017 369.838 248.264 368.499 239.852 366.531L239.773 395.119Z" fill="white"/>
<path opacity="0.3" d="M389.667 300.964C389.595 301.268 389.517 301.669 389.467 301.973C388.108 309.433 383.966 332.154 343.885 348.697C342.128 349.423 338.74 351.856 338.512 355.861L338.398 396.042C338.548 398.919 340.747 400.188 343.743 399.123C383.923 381.367 389.517 362.003 389.574 343.711L389.688 303.524C389.688 301.719 389.688 301.705 389.667 300.95V300.964Z" fill="#518C3C"/>
<path d="M365.508 348.086V351.168C372.859 345.512 385.185 336.056 388.836 319.731V316.65C386.979 323.166 383.499 335.294 365.508 348.086Z" fill="white"/>
<path d="M365.492 354.066V357.148C372.844 351.492 385.17 342.029 388.82 325.711V322.63C386.963 329.146 383.483 341.274 365.492 354.066Z" fill="white"/>
<path d="M354.055 352.754C353.443 354.347 352.625 356.47 352.006 358.056L347.352 360.919L350.725 362.682C350.483 364.206 350.163 366.236 349.921 367.76L354.027 363.514L357.97 363.578C357.749 362.295 357.457 360.581 357.237 359.298L360.347 354.157L356.034 355.955C355.443 354.996 354.653 353.713 354.055 352.747V352.754Z" fill="white"/>
<path d="M365.469 366.044V369.126C378.563 359.874 386.335 348.944 388.79 337.689V334.608C386.932 341.124 383.452 353.252 365.469 366.044Z" fill="white"/>
<path d="M365.453 372.042V375.124C372.805 369.468 385.131 360.012 388.781 343.688V340.606C386.333 351.853 378.555 362.783 365.453 372.042Z" fill="white"/>
<path d="M355.979 373.931C355.388 372.965 354.599 371.682 354.001 370.723C353.389 372.316 352.57 374.439 351.951 376.026L347.297 378.881L350.67 380.651C350.428 382.175 350.108 384.205 349.866 385.729L353.972 381.483L357.915 381.547C357.694 380.264 357.402 378.55 357.182 377.267L360.292 372.119L355.979 373.931Z" fill="white"/>
<path opacity="0.3" d="M219.083 348.967C180.283 332.17 175.764 315.062 172.142 301.312C172.076 301.857 172.038 302.748 172.028 303.984L171.914 344.165C171.907 349.594 172.057 351.541 172.22 352.845C173.259 357.894 175.7 369.727 187.678 380.347C196.545 388.209 219.93 403.596 223.688 398.484C223.994 398.067 224.285 397.517 224.357 396.283L224.471 356.103C224.321 353.134 222.207 350.335 219.083 348.967Z" fill="#518C3C"/>
<path d="M175.234 322.901V325.975C181.383 338.147 189.098 347.363 210.312 358.462V355.388H210.319C193.923 346.665 182.92 338.548 175.234 322.901Z" fill="white"/>
<path d="M173.332 315.998C173.204 315.568 173.14 315.406 173.033 315.349C172.499 315.525 173.033 322.288 173.603 322.662C174.144 323.007 174.052 319.199 173.453 316.484C173.418 316.343 173.375 316.146 173.332 316.005V315.998Z" fill="#5098F0"/>
<path d="M175.219 330.904V333.986C181.368 346.157 189.089 355.374 210.297 366.473V363.391C193.907 354.668 182.905 346.552 175.219 330.904Z" fill="white"/>
<path d="M173.301 324.019C173.166 323.554 173.101 323.42 173.002 323.371C172.467 323.547 173.002 330.324 173.572 330.69C174.113 331.036 174.02 327.221 173.422 324.506C173.386 324.358 173.344 324.167 173.308 324.026L173.301 324.019Z" fill="#5098F0"/>
<path d="M175.203 339.323V342.405C181.359 354.576 189.073 363.792 210.281 374.892V371.81C208.153 370.759 206.075 369.659 204.054 368.503C189.465 360.161 179.85 350.021 175.203 339.323Z" fill="white"/>
<path d="M173.274 332.42C173.146 331.99 173.082 331.828 172.975 331.771C172.448 331.948 172.975 338.724 173.545 339.091C174.086 339.437 173.994 335.622 173.395 332.9C173.367 332.752 173.317 332.561 173.281 332.42H173.274Z" fill="#5098F0"/>
<path d="M175.164 347.688V350.762C181.313 362.934 189.034 372.15 210.242 383.249L210.256 380.175C208.121 379.131 206.036 378.024 204.015 376.868C189.426 368.526 179.811 358.385 175.164 347.688Z" fill="white"/>
<path d="M173.262 340.785C173.126 340.32 173.062 340.186 172.963 340.136C172.428 340.313 172.963 347.075 173.533 347.442C174.074 347.787 173.981 343.979 173.383 341.264C173.347 341.116 173.305 340.926 173.269 340.785H173.262Z" fill="#5098F0"/>
<g opacity="0.3">
<path d="M489.094 342.002C460.065 334.555 426.496 334.802 397.852 342.735C394.607 343.793 392.393 346.458 392.215 349.533L392.102 389.685C392.279 393.006 395.048 393.803 397.709 393.126C426.354 385.193 459.923 384.953 488.952 392.393C491.307 392.901 494.218 392.689 494.673 388.853L494.787 348.708C494.624 345.64 492.389 343.01 489.094 342.009V342.002Z" fill="#518C3C"/>
<path d="M381.437 348.363C376.904 350.253 372.577 352.376 368.499 354.724C348.9 366.006 338.495 380.603 337.271 395.412C337.207 396.448 337.164 397.076 337.15 399.431C337.029 415.135 337.058 430.839 337.008 446.55V446.811C337.043 446.508 337.093 446.106 337.122 445.803C338.346 430.994 348.75 416.405 368.349 405.115C372.427 402.767 376.761 400.644 381.295 398.754C384.839 396.944 386.653 381.16 386.739 351.402C386.411 348.391 384.632 347.369 381.437 348.363Z" fill="#518C3C"/>
<path d="M552.859 393.89C550.902 379.603 540.391 365.627 521.332 354.725C516.55 351.989 511.433 349.563 506.06 347.448C503.036 346.411 500.808 347.695 500.637 350.572L500.523 390.724C500.694 394.158 503.356 396.774 505.918 397.839C511.291 399.954 516.408 402.38 521.19 405.116C540.241 416.018 550.76 429.994 552.71 444.281C552.759 444.612 552.845 445.057 552.93 445.388C552.992 444.847 553.027 443.957 553.037 442.715L553.151 402.563C553.158 397.12 553.016 395.173 552.859 393.89Z" fill="#518C3C"/>
</g>
<path opacity="0.3" d="M445.13 480.783C432.221 480.783 419.311 483.604 409.462 489.231C399.612 494.865 394.688 502.248 394.688 509.632C394.688 517.015 399.612 524.398 409.462 530.039C419.311 535.673 432.221 538.487 445.13 538.487C458.04 538.487 470.942 535.666 480.791 530.039C490.641 524.405 495.566 517.022 495.566 509.632C495.566 502.241 490.641 494.865 480.791 489.231C470.942 483.597 458.033 480.776 445.13 480.783Z" fill="#518C3C"/>
<path d="M445.126 549.255C426.85 549.255 409.649 545.179 396.704 537.768C383.624 530.286 376.422 520.294 376.422 509.632C376.422 498.97 383.624 488.977 396.704 481.496C409.649 474.091 426.843 470.016 445.126 470.016C463.408 470.016 480.595 474.091 493.547 481.496C506.627 488.977 513.829 498.97 513.829 509.632C513.829 520.294 506.627 530.286 493.547 537.768C480.595 545.172 463.401 549.255 445.126 549.255ZM445.14 471.511C427.106 471.511 410.176 475.516 397.459 482.793C384.869 489.993 377.931 499.527 377.931 509.632C377.931 519.737 384.862 529.271 397.459 536.47C410.183 543.748 427.114 547.753 445.126 547.753C463.138 547.753 480.068 543.748 492.793 536.47C505.382 529.264 512.321 519.73 512.321 509.632C512.321 499.534 505.389 490 492.793 482.793C480.068 475.516 463.145 471.511 445.14 471.511Z" fill="#518C3C"/>
<path d="M480.791 412.16C470.942 406.526 458.033 403.705 445.13 403.712C432.221 403.712 419.311 406.533 409.462 412.16C399.612 417.794 394.688 425.177 394.688 432.56V493.07C394.688 500.453 399.612 507.837 409.462 513.471C419.311 519.105 432.221 521.926 445.13 521.926C458.04 521.926 470.942 519.112 480.791 513.471C490.641 507.837 495.566 500.453 495.566 493.07V432.56C495.566 425.177 490.641 417.794 480.791 412.16Z" fill="#C7DEEB"/>
<path d="M445.13 403.712C432.221 403.712 419.311 406.533 409.462 412.16C399.612 417.794 394.688 425.177 394.688 432.56C394.688 439.943 399.612 447.326 409.462 452.968C419.311 458.602 432.221 461.423 445.13 461.423C458.04 461.423 470.942 458.602 480.791 452.968C490.641 447.333 495.566 439.95 495.566 432.56C495.566 425.17 490.641 417.794 480.791 412.16C470.942 406.526 458.033 403.705 445.13 403.712Z" fill="white"/>
<path opacity="0.3" d="M491.677 448.54C479.935 451.375 444.202 459.999 400.321 448.808C399.119 448.498 395.14 447.849 394.614 452.334L394.5 492.521C394.664 495.596 396.891 498.233 400.179 499.248C429.172 506.801 462.741 506.716 491.535 498.98C494.802 497.944 497.029 495.292 497.207 492.218L497.321 452.031C497.164 449.146 494.951 447.778 491.677 448.547V448.54Z" fill="#518C3C"/>
<path d="M437.07 465.305V468.379C454.883 468.774 465.572 468.28 485.648 464.183V461.109C468.874 464.494 458.413 465.819 437.07 465.305Z" fill="white"/>
<path d="M437.045 471.303L437.031 474.384C454.851 474.779 465.54 474.286 485.616 470.189V467.107C468.842 470.492 458.381 471.817 437.045 471.303Z" fill="white"/>
<path d="M437.031 477.301V480.382C453.449 481.109 470.102 479.712 485.609 476.187V473.105C470.116 476.624 453.464 478.027 437.031 477.301Z" fill="white"/>
<path d="M437.016 483.281V486.362C453.434 487.089 470.087 485.692 485.594 482.167V479.085C470.101 482.604 453.448 484.007 437.016 483.281Z" fill="white"/>
<path d="M437 489.275V492.35C447.824 492.59 452.777 492.703 465.068 491.518V488.443C455.816 489.409 446.373 489.692 437 489.275Z" fill="white"/>
<path d="M404.078 489.443C412.49 491.411 421.243 492.758 430.118 493.47L430.196 464.882C421.322 464.163 412.568 462.823 404.156 460.856L404.078 489.443Z" fill="white"/>
<path opacity="0.3" d="M553.971 395.282C553.9 395.585 553.822 395.987 553.772 396.29C552.413 403.758 548.271 426.471 508.19 443.015C506.432 443.741 503.045 446.174 502.817 450.179L502.703 490.366C502.853 493.243 505.052 494.513 508.048 493.448C548.228 475.692 553.822 456.328 553.879 438.036L553.993 397.849C553.993 396.044 553.993 396.029 553.971 395.275V395.282Z" fill="#518C3C"/>
<path d="M529.812 442.411V445.492C537.164 439.837 549.483 430.381 553.134 414.056V410.975C551.276 417.49 547.796 429.619 529.812 442.411Z" fill="white"/>
<path d="M529.797 448.409V451.49C537.148 445.835 549.474 436.372 553.125 420.054V416.973C551.268 423.488 547.788 435.617 529.797 448.409Z" fill="white"/>
<path d="M518.36 447.078C517.748 448.672 516.93 450.788 516.311 452.381L511.656 455.244L515.03 457.007C514.788 458.53 514.467 460.561 514.225 462.084L518.332 457.839L522.274 457.903C522.054 456.619 521.762 454.906 521.541 453.622L524.651 448.482L520.339 450.28C519.748 449.321 518.958 448.03 518.36 447.071V447.078Z" fill="white"/>
<path d="M529.773 460.387V463.468C542.868 454.217 550.639 443.287 553.095 432.032V428.951C551.237 435.466 547.757 447.595 529.773 460.387Z" fill="white"/>
<path d="M529.758 466.367V469.448C537.109 463.793 549.435 454.337 553.086 438.012V434.931C550.638 446.178 542.859 457.108 529.758 466.367Z" fill="white"/>
<path d="M520.284 468.256C519.693 467.29 518.903 466.006 518.305 465.047C517.693 466.641 516.875 468.764 516.256 470.35L511.602 473.206L514.975 474.976C514.733 476.499 514.413 478.53 514.171 480.053L518.277 475.808L522.22 475.872C521.999 474.588 521.707 472.875 521.487 471.591L524.597 466.444L520.284 468.256Z" fill="white"/>
<path opacity="0.3" d="M383.388 443.292C344.588 426.494 340.069 409.387 336.447 395.636C336.38 396.182 336.342 397.073 336.333 398.309L336.219 438.489C336.212 443.912 336.361 445.865 336.525 447.17C337.564 452.219 340.005 464.052 351.982 474.671C360.85 482.534 384.235 497.921 387.992 492.808C388.298 492.392 388.59 491.842 388.661 490.608L388.775 450.428C388.626 447.459 386.512 444.66 383.388 443.292Z" fill="#518C3C"/>
<path d="M339.539 417.226V420.3C345.695 432.471 353.402 441.688 374.617 452.787V449.712H374.624C358.227 440.99 347.225 432.873 339.539 417.226Z" fill="white"/>
<path d="M337.637 410.323C337.516 409.892 337.444 409.73 337.338 409.674C336.803 409.85 337.338 416.613 337.908 416.986C338.449 417.332 338.349 413.517 337.758 410.809C337.722 410.668 337.68 410.471 337.637 410.33V410.323Z" fill="#5098F0"/>
<path d="M339.523 425.229V428.311C345.672 440.482 353.394 449.698 374.601 460.798V457.716C358.212 448.993 347.209 440.877 339.523 425.229Z" fill="white"/>
<path d="M337.621 418.344C337.486 417.879 337.422 417.745 337.322 417.695C336.788 417.879 337.322 424.648 337.892 425.015C338.433 425.36 338.341 421.546 337.742 418.831C337.707 418.683 337.664 418.492 337.628 418.351L337.621 418.344Z" fill="#5098F0"/>
<path d="M339.508 433.63V436.711C345.657 448.883 353.378 458.099 374.586 469.198V466.117C372.458 465.066 370.38 463.966 368.359 462.81C353.77 454.468 344.155 444.327 339.508 433.63Z" fill="white"/>
<path d="M337.602 426.745C337.474 426.315 337.41 426.153 337.303 426.096C336.776 426.28 337.303 433.049 337.873 433.416C338.415 433.761 338.322 429.946 337.724 427.224C337.695 427.076 337.645 426.886 337.61 426.745H337.602Z" fill="#5098F0"/>
<path d="M339.469 442.013V445.087C345.618 457.258 353.339 466.475 374.547 477.574L374.561 474.5C372.426 473.456 370.341 472.349 368.32 471.192C353.73 462.85 344.116 452.71 339.469 442.013Z" fill="white"/>
<path d="M337.567 435.11C337.431 434.644 337.367 434.51 337.267 434.461C336.733 434.637 337.267 441.4 337.837 441.766C338.379 442.112 338.286 438.304 337.688 435.589C337.652 435.441 337.609 435.251 337.574 435.11H337.567Z" fill="#5098F0"/>
<path d="M461.658 204.692L441.205 214.981C441.205 214.981 441.419 222.42 440.906 224.606C440.394 226.792 444.144 233.139 449.375 232.116C454.599 231.094 463.658 215.778 463.658 215.996C463.658 216.215 459.9 212.64 461.672 204.692H461.658Z" fill="#D9A782"/>
<path d="M441.687 214.292L441.053 212.804C441.053 212.804 433.083 214.743 431.524 215.639C429.973 216.535 427.012 228.931 426.656 230.038C426.308 231.146 422.642 238.846 422.998 244.558C423.347 250.27 424.35 259.761 424.251 261.101C424.151 262.441 424.35 273.272 424.201 276.657C424.052 280.035 419.839 289.23 426.158 292.608C432.478 295.985 440.05 300.16 448.824 300.456C457.599 300.752 471.939 295.985 470.587 292.354C469.235 288.729 465.221 279.351 467.071 274.584C468.929 269.817 470.082 266.517 470.082 266.517C470.082 266.517 479.006 236.949 479.106 236.505C479.205 236.061 478.721 230.631 478.721 230.631L464.239 215.992C464.239 215.992 449.344 225.187 444.946 223.339C440.541 221.499 441.679 214.292 441.679 214.292H441.687Z" fill="#E6F6FF"/>
<path d="M431.142 289.824C431.142 289.824 429.527 247.986 439.597 230.978L439.896 224.702L444.941 223.355L446.685 228.876L441.675 232.628C433.526 253.529 438.252 292.574 438.252 292.574L434.864 296.382L431.142 289.824Z" fill="#B61678"/>
<path d="M465.285 216.318L462.239 211.305C456.902 219.964 444.953 223.349 444.953 223.349L445.992 231.776C445.992 231.776 457.179 228.066 465.285 216.318Z" fill="#FDFDFD"/>
<path d="M437.278 228.762L444.95 223.346C444.95 223.346 443.391 218.974 443.391 213.361L440.844 212.804C440.844 212.804 436.346 220.871 437.285 228.755L437.278 228.762Z" fill="#FDFDFD"/>
<path d="M423.83 288.715L423.061 293.411C423.061 293.411 420.976 297.001 420.051 298.644C419.133 300.287 419.133 302.945 419.133 306.88C419.133 310.815 421.218 316.103 421.524 316.287C421.83 316.47 425.025 315.984 425.025 315.984L425.146 293.045L426.007 288.539L423.83 288.708V288.715Z" fill="#FFCDA8"/>
<path d="M421.524 316.299C421.83 316.483 425.025 315.996 425.025 315.996L425.04 313.493C423.268 312.562 420.407 310.792 420.236 309.001C420.044 306.928 420.193 303.063 419.346 301.004C419.133 302.52 419.133 304.467 419.133 306.893C419.133 310.827 421.218 316.116 421.524 316.299Z" fill="#D9A782"/>
<path d="M421.184 294.952L420.672 297.089L423.746 297.991L423.981 294.952H421.184Z" fill="#E6F6FF"/>
<path d="M434.874 407.771C434.874 407.771 430.198 410.916 427.53 412.108C424.868 413.3 418.904 418.447 417.573 419.851C416.243 421.254 414.528 425.506 417.36 426.909C420.192 428.313 429.038 427.974 432.298 425.675C435.557 423.377 439.55 418.617 443.158 418.017C446.766 417.425 454.964 415.253 454.964 415.253C454.964 415.253 456.508 406.065 452.388 402.447C452.388 402.447 451.014 407.087 446.246 410.782C441.485 414.484 439.208 415.161 438.261 413.673C437.315 412.186 439.55 410.268 434.867 407.764L434.874 407.771Z" fill="#001135"/>
<path d="M432.292 425.679C429.033 427.978 420.187 428.316 417.355 426.913C416.429 426.454 415.995 425.7 415.867 424.832C415.867 424.84 415.853 427.907 418.301 428.401C420.564 428.859 425.987 429.381 431.31 427.251C436.633 425.122 437.879 420.277 442.811 419.424L443.067 420.827L452.212 419.424L454.959 415.256C454.959 415.256 446.76 417.428 443.152 418.021C439.544 418.613 435.552 423.38 432.292 425.679Z" fill="#181818"/>
<path d="M432.171 405.907C432.171 405.907 427.851 419.347 439.074 416.71C450.304 414.073 453.03 403.093 453.03 403.093L448.254 307.226L434.712 294.569C434.712 294.569 428.705 292.1 425.232 286.678C425.232 286.678 423.474 296.48 422.948 302.417C422.421 308.355 421.71 322.324 423.375 330.751C425.04 339.177 428.726 351.348 429.83 358.449C430.904 365.381 432.662 382.023 433.046 387.58C433.423 393.144 432.975 402.036 432.171 405.9V405.907Z" fill="#333333"/>
<path d="M463.411 410.487C463.411 410.487 465.638 414.654 465.339 419.421C465.339 419.421 463.069 422.439 462.165 423.589C461.261 424.738 459.247 428.821 458.771 430.774C458.301 432.728 455.077 437.41 451.298 438.898C447.519 440.386 438.851 441.704 437.648 437.368C437.648 437.368 438.716 432.559 440.822 429.075C442.929 425.584 448.252 419.717 449.498 416.826C449.498 416.826 452.544 415.931 455.639 417.595C458.728 419.252 457.525 421.466 458.728 421.382C459.931 421.297 461.347 417.256 462.293 415.557C463.24 413.858 463.411 410.494 463.411 410.494V410.487Z" fill="#001135"/>
<path d="M458.771 430.765C458.301 432.718 455.077 437.4 451.298 438.888C447.519 440.376 438.851 441.695 437.648 437.358C437.648 437.358 437.648 439.643 439.278 440.313C440.908 440.976 445.285 441.949 450.01 440.313C454.728 438.677 456.443 436.343 457.433 434.721C458.422 433.106 460.009 428.642 460.009 428.642L461.212 428.127L465.111 422.684L465.325 419.412C465.325 419.412 463.055 422.43 462.151 423.579C461.247 424.729 459.233 428.811 458.756 430.765H458.771Z" fill="#181818"/>
<path d="M464.771 414.112C464.771 414.112 466.6 398.641 467.319 393.126C468.08 387.266 468.628 381.019 468.222 374.482C467.802 367.818 466.144 361.041 466.315 355.612C466.486 350.175 471.14 323.95 472.001 317.074C472.855 310.199 472.485 301.37 469.226 291.357C469.226 291.357 453.897 299.678 434.703 294.58C434.703 294.58 435.899 305.023 437.272 309.607C438.639 314.19 442.325 324.119 442.581 327.179C442.837 330.233 443.521 352.05 444.296 356.719C445.072 361.387 447.727 384.643 448.239 392.365C448.751 400.086 445.036 422.285 445.535 422.694C456.38 431.664 464.408 417.081 464.771 414.119V414.112Z" fill="#333333"/>
<path d="M422.536 282.775L420.672 295.412L425.298 296.604L422.536 282.775Z" fill="#28425B"/>
<path d="M430.723 215.641C430.723 215.641 425.214 217.573 424.182 223.821C423.15 230.061 424.652 237.487 424.652 237.487L430.723 215.641Z" fill="#518C3C"/>
<path d="M438.123 259.864L433.547 273.192C433.547 273.192 435.461 312.406 435.632 314.253C435.81 316.101 436.116 325.219 445.859 325.867C455.26 326.495 465.885 325.98 473.094 320.889C473.094 320.889 473.001 296.949 471.379 290.736C469.756 284.524 469.756 273.742 470.027 268.848C470.297 263.954 477.449 227.081 477.449 227.081L465.294 216.327L453.673 228.766L438.123 259.864Z" fill="#518C3C"/>
<path d="M435.62 314.257C435.442 312.41 433.535 273.195 433.535 273.195C431.429 268.323 431.137 241.124 432.539 233.241C433.941 225.357 440.666 213.129 440.666 213.129C437.392 213.306 430.724 215.647 430.724 215.647C430.724 215.647 427.977 221.937 425.871 228.77C423.764 235.603 422.184 244.834 422.682 251.208C423.173 257.583 422.768 279.662 422.326 287.2C421.885 294.731 421.75 311.338 421.75 311.338C421.75 311.338 423.97 319.109 431.3 320.66C434.183 321.273 435.272 316.478 435.62 314.271C435.62 314.271 435.62 314.257 435.62 314.25V314.257Z" fill="#96CE70"/>
<path d="M462.896 211.305C462.896 211.305 464.362 213.759 455.978 223.349C447.446 233.108 436.927 259.249 433.547 273.19C433.547 273.19 446.962 245.519 460.917 234.23L455.594 228.765L461.138 230.767L467.422 218.208L462.903 211.305H462.896Z" fill="#96CE70"/>
<path d="M443.416 212.803L439.231 212.316C435.047 215.969 431.118 223.923 431.118 223.923L434.235 225.383L429.439 228.26C425.361 246.2 433.516 273.179 433.516 273.179C433.516 273.179 426.976 232.223 443.409 212.803H443.416Z" fill="#518C3C"/>
<path d="M474.901 245.035L465.273 245.359C465.273 245.359 461.458 247.136 462.227 253.2C462.995 259.265 465.65 281.823 465.273 291.357C464.938 299.748 463.999 316.806 461.109 325.402C465.529 324.676 469.678 323.294 473.065 320.896C473.065 320.896 472.973 296.956 471.35 290.743C469.728 284.531 469.728 273.749 469.998 268.855C470.147 266.161 472.66 254.752 474.894 245.035H474.901Z" fill="#96CE70"/>
<path d="M449.5 296.379V305.272L450.902 298.128L463.747 297.529L449.5 296.379Z" fill="#333333"/>
<path d="M472.831 312.278C472.831 312.278 473.599 316.269 472.546 317.348C471.5 318.427 467.23 321.339 465.977 323.053C464.725 324.766 460.056 332.389 461.465 333.228C462.875 334.067 464.974 331.994 466.219 329.759C467.472 327.524 469.927 327.086 470.653 328.123C471.379 329.159 471.742 331.635 471.258 332.636C470.774 333.63 468.924 336.148 468.924 336.148C468.924 336.148 464.732 337.904 464.533 338.785C464.333 339.666 464.454 340.506 465.18 340.506C465.906 340.506 469.692 339.504 469.692 339.504C469.692 339.504 471.478 339.307 473.101 338.665C474.724 338.023 476.816 335.393 478.026 333.517C479.236 331.642 480.445 329.286 480.602 326.014C480.766 322.742 480.524 319.746 480.766 317.912C481.008 316.079 481.492 312.285 481.492 312.285H472.831V312.278Z" fill="#FFCDA8"/>
<path d="M468.568 336.951C468.269 336.909 467.892 336.859 467.472 336.817C466.241 337.409 464.668 338.256 464.547 338.785C464.347 339.666 464.468 340.505 465.194 340.505C465.92 340.505 469.706 339.504 469.706 339.504C469.706 339.504 471.493 339.306 473.115 338.665C474.738 338.023 476.83 335.393 478.04 333.517C478.566 332.706 479.086 331.789 479.52 330.76C478.559 331.049 477.492 331.465 476.745 332.043C475.094 333.319 473.763 335.915 473.001 336.951C472.233 337.988 470.062 337.149 468.568 336.951Z" fill="#D9A782"/>
<path d="M470.094 295.476C470.45 300.44 470.841 305.306 470.983 306.131C471.261 307.767 472.385 310.221 472.385 310.221V316.906L481.31 319.092L482.462 311.039C482.462 311.039 483.288 310.447 483.608 308.176C483.772 307.027 484.014 301.308 484.234 295.476H470.101H470.094Z" fill="#E6F6FF"/>
<path d="M471.01 315.789L483.172 318.173C483.172 318.173 485.186 304.231 485.293 297.109C485.392 289.987 486.673 266.815 486.075 259.792C485.485 252.769 483.997 238.997 482.816 234.857C481.635 230.718 478.546 227.94 477.443 227.086C473.08 223.73 465.252 230.767 462.989 238.567C460.726 246.373 466.533 260.032 467.273 265.003C468.013 269.982 469.145 281.243 469.245 286.468C469.344 291.687 471.017 315.789 471.017 315.789H471.01Z" fill="#518C3C"/>
<path d="M459.815 181.436C455.388 178.489 448.378 178.813 443.439 182.12C438.5 185.427 437.198 189.426 436.764 191.224C436.33 193.022 435.782 194.566 435.348 195.934C434.914 197.302 436.344 199.016 436.344 199.016C434.8 200.948 436.002 205.525 436.323 206.639C436.145 207.069 436.038 207.429 436.059 207.682C436.123 208.359 436.486 208.677 436.935 208.825C437.269 210.313 437.568 212.062 437.568 212.816C437.568 213.916 437.419 217.597 441.774 217.668C446.129 217.738 452.413 215.185 456.37 212.054C460.327 208.924 464.469 202.598 465.664 196.266C466.86 189.933 464.248 184.398 459.822 181.443L459.815 181.436Z" fill="#FFCDA8"/>
<path d="M436.321 206.633C436.933 205.174 438.42 202.917 438.833 201.443C439.366 199.539 435.523 197.628 435.523 197.628C435.844 198.404 436.342 199.011 436.342 199.011C434.798 200.943 436 205.519 436.321 206.633Z" fill="#D9A782"/>
<path d="M460.35 179.421C453.511 174.689 445.491 176.6 441.32 179.421C439.854 180.408 438.21 181.924 436.438 185.091C434.979 187.7 434.951 193.017 441.128 193.496C444.466 193.757 448.892 193.115 452.251 192.467C455.874 194.794 454.436 198.616 454.92 199.892C455.404 201.168 455.938 202.811 456.749 203.27C457.247 203.552 458.194 202.741 458.436 202.466C459.026 201.796 463.14 197.071 463.403 202.903C464.442 200.788 465.246 198.524 465.673 196.26C465.851 195.315 465.944 194.392 465.958 193.489C467.111 191.197 466.94 183.969 460.35 179.414V179.421Z" fill="#1B3300"/>
<path d="M454.904 199.894C455.388 201.17 455.922 202.813 456.733 203.272C457.232 203.554 458.178 202.743 458.42 202.468C459.011 201.798 463.124 197.073 463.387 202.905C464.426 200.79 465.231 198.526 465.658 196.263C465.836 195.318 465.928 194.394 465.942 193.491C462.078 195.466 457.303 196.171 454.727 196.425C454.912 197.891 454.648 199.231 454.904 199.894Z" fill="#3B5419"/>
<path d="M439.393 217.09C439.763 211.745 438.766 209.037 438.766 209.037C438.702 208.804 437.706 209.065 436.938 208.812C437.272 210.299 437.571 212.048 437.571 212.803C437.571 213.649 437.485 215.997 439.4 217.09H439.393Z" fill="#D9A782"/>
<path d="M458.156 207.772C458.69 208.11 459.921 208.597 462.327 206.044C464.732 203.491 464.689 201.094 463.501 200.29C462.305 199.493 461.159 199.972 460.54 200.903C459.921 201.827 458.156 207.772 458.156 207.772Z" fill="#FFCDA8"/>
<path d="M261.173 204.754C261.173 204.754 259.145 209.09 258.447 214.852C257.75 220.613 261.842 223.426 261.842 223.426L261.173 204.747V204.754Z" fill="#D9A782"/>
<path d="M272.32 322.204C272.32 322.204 269.31 327.302 272.32 328.289C275.331 329.269 279.223 325.187 281.472 320.652C283.721 316.118 287.536 310.597 286.966 306.479C286.966 306.479 291.428 307.839 291.806 311.281C292.19 314.722 289.443 318.156 287.308 319.559C285.173 320.956 281.935 325.187 280.825 327.951C279.714 330.708 279.601 334.072 272.854 334.826C266.1 335.581 259.048 334.262 258.777 332.788C258.507 331.314 272.313 322.204 272.313 322.204H272.32Z" fill="#001135"/>
<path d="M264.26 243.327C265.164 247.819 267.306 260.068 267.718 262.19C268.131 264.313 270.394 267.458 270.892 270.969C271.384 274.481 273.035 285.827 273.903 293.055C274.764 300.283 275.34 306.2 274.892 310.487C274.437 314.774 272.914 321.304 272.337 322.228C272.337 322.228 269.327 327.326 272.337 328.313C275.347 329.294 279.24 325.211 281.489 320.677C283.738 316.142 287.552 310.621 286.983 306.503C284.777 305.706 284.827 300.967 285.275 297.42C285.731 293.866 287.958 285.334 287.958 281.744C287.958 278.155 285.275 235.204 284.336 224.795C283.389 214.387 263.406 197.936 263.406 197.936C263.406 197.936 259.904 209.528 260.438 218.794C260.972 228.06 263.363 238.842 264.274 243.334L264.26 243.327Z" fill="#928585"/>
<path d="M282.858 332.906C282.858 332.906 282.36 335.17 285.869 335.36C289.377 335.55 293.725 335.247 294.871 329.916C296.017 324.592 296.892 318.316 296.857 315.933C296.821 313.549 295.946 312.118 295.946 312.118L295.796 310.905C295.796 310.905 299.725 312.223 299.611 315.933C299.497 319.635 297.326 325.269 296.864 328.513C296.408 331.764 296.864 339.436 293.128 342.045C289.391 344.654 281.499 346.544 280.353 346.198C279.215 345.86 278.41 338.561 282.873 332.899L282.858 332.906Z" fill="#001135"/>
<path d="M297.878 267.81C297.345 265.158 300.106 252.339 301.586 246.986C303.066 241.641 310.033 217.553 308.511 210.734C306.988 203.915 292.527 207.18 287.46 212.243C282.393 217.306 281.61 225.592 281.446 232.735C281.282 239.878 281.987 253.185 282.435 259.968C282.891 266.745 283.424 268.628 284.62 271.561C285.816 274.502 287.011 281.892 287.46 287.604C287.915 293.323 287.296 308.47 286.883 312.144C286.47 315.817 285.894 322.432 285.481 325.577C285.068 328.722 283.232 332.537 282.862 332.904C282.862 332.904 282.364 335.167 285.873 335.358C289.381 335.548 293.729 335.245 294.875 329.914C296.021 324.59 296.896 318.314 296.861 315.93C296.825 313.547 295.95 312.115 295.95 312.115L295.8 310.902C295.117 310.225 296.861 304.669 298.554 299.401C300.241 294.134 302.554 286.624 301.977 280.051C301.401 273.479 298.433 270.461 297.9 267.803L297.878 267.81Z" fill="#9F9292"/>
<path d="M266.025 258.156C266.025 258.156 275.774 262.852 281.411 263.839C287.047 264.826 296.341 264.551 298.562 262.866C298.562 262.866 302.931 241.655 304.995 235.527C307.052 229.399 305.821 205.79 303.479 201.707C301.138 197.624 261.84 201.355 261.84 201.355C261.84 201.355 259.271 210.282 259.819 219.216C260.367 228.151 266.025 258.163 266.025 258.163V258.156Z" fill="#96CE70"/>
<path d="M301.163 109.898C301.163 109.898 307.22 112.345 307.412 121.801C307.526 127.485 304.579 135.333 308.55 140.502C312.529 145.671 298.174 138.732 295.513 131.617C292.858 124.502 300.473 112.154 301.156 109.905L301.163 109.898Z" fill="#3B5419"/>
<path d="M273.136 129.717C273.136 129.717 265.785 131.275 267.657 145.611C267.657 145.611 270.688 143.82 271.642 138.835C272.603 133.849 273.136 129.717 273.136 129.717Z" fill="#C7DEEB"/>
<path d="M298.84 120.763L281.262 128.054C281.262 128.054 282.586 130.445 282.067 133.273C281.54 136.1 273.078 146.854 279.953 148.807C286.828 150.761 301.893 134.387 302.093 132.793C302.093 132.793 297.225 127.011 298.833 120.756L298.84 120.763Z" fill="#D9A782"/>
<path d="M303.685 167.052C305.685 162.807 314.218 148.295 312.439 145.39C310.93 142.929 304.539 135.574 302.646 133.409L296.889 137.492L287.31 140.595L280.307 147.562L282.008 137.682L280.677 128.29C279.966 128.353 279.126 128.438 278.236 128.543L276.172 128.833C274.308 129.129 274.6 129.15 273.141 129.721C273.141 129.721 269.227 140.961 268.465 143.951C267.711 146.941 259.349 154.881 259.833 160.424C260.317 165.967 263.768 168.907 263.768 168.907C263.768 168.907 266.031 176.763 265.683 185.02C265.505 189.272 261.206 202.706 261.206 202.706C261.206 202.706 263.846 210.23 277.019 212.486C295.722 215.695 303.742 209.271 307.884 205.096C307.884 205.096 300.084 192.093 299.323 186.487C298.561 180.874 301.671 171.298 303.671 167.052H303.685Z" fill="#E6F6FF"/>
<path d="M307.684 159.375L302.118 158.063C302.118 158.063 297.834 159.459 297.55 162.329C297.265 165.192 296.062 177.645 282.797 175.474C282.797 175.474 287.949 178.689 291.123 183.096C292.995 185.698 295.6 201.445 296.632 211.987C302.261 210.295 305.655 207.368 307.904 205.105C307.904 205.105 300.104 192.101 299.343 186.495C298.582 180.882 301.691 171.306 303.691 167.061C304.424 165.517 306.018 162.597 307.669 159.375H307.684Z" fill="#C7DEEB"/>
<path d="M304.831 221.122C304.831 221.122 304.661 225.296 304.305 226.248C303.956 227.207 300.796 230.684 300.092 231.897C299.394 233.117 298.733 234.985 297.594 236.678C296.455 238.37 294.875 241.628 295.836 241.896C296.797 242.157 298.512 240.464 299.48 239.026C300.448 237.587 302.07 235.853 302.768 236.459C303.465 237.066 302.988 240.415 302.853 241.148C302.718 241.889 301.494 244.145 300.618 244.71C299.743 245.274 298.078 246.924 298.69 247.1C299.302 247.276 302.725 247.185 304.084 246.578C305.443 245.972 308.205 243.102 309.087 240.888C309.963 238.673 310.667 234.844 310.667 232.764C310.667 230.684 310.667 225.332 311.414 221.637L304.831 221.115V221.122Z" fill="#FFCDA8"/>
<path d="M309.092 240.888C309.377 240.161 309.647 239.266 309.875 238.314C308.651 238.942 307.377 239.675 307.114 240.105C306.587 240.972 305.185 243.363 304.616 243.976C304.153 244.47 302.73 244.188 301.086 244.301C300.929 244.477 300.773 244.618 300.623 244.717C299.748 245.281 298.083 246.931 298.695 247.107C299.307 247.284 302.73 247.192 304.089 246.586C305.448 245.979 308.209 243.109 309.092 240.895V240.888Z" fill="#D9A782"/>
<path d="M303.708 225.929C303.708 225.929 309.714 226.987 311.978 226.896C311.978 226.896 314.732 209.711 314.376 201.467C314.02 193.224 313.216 181.723 313.622 175.468C314.02 169.213 315.401 155.462 315.045 151.542C314.689 147.621 312.689 142.551 305.615 144.314C298.549 146.077 299.253 152.733 300.456 158.854C301.658 164.982 302.32 183.662 302.235 186.969C302.15 190.276 302.982 203.54 303.473 209.795C303.964 216.05 303.9 224.357 303.701 225.922L303.708 225.929Z" fill="#E6F6FF"/>
<path d="M299.688 127.477C299.688 127.477 296.791 134.662 287.305 140.6L294.236 152.348C294.236 152.348 301.154 140.797 303.431 132.801L299.688 127.477Z" fill="#FDFDFD"/>
<path d="M282.003 130.166V137.69L271.648 142.295L280.359 128.326L282.01 130.166H282.003Z" fill="#FDFDFD"/>
<path d="M275.654 113.786C275.654 113.786 274.487 116.494 274.771 118.087C275.056 119.681 275.817 123.905 276.18 125.739C276.543 127.572 276.501 130.802 279.12 131.556C281.731 132.311 288.044 130.202 290.741 128.686C293.438 127.17 298.505 122.629 300.875 118.003C303.245 113.377 304.334 107.602 303.003 102.856C301.679 98.1172 293.872 93.8087 288.001 95.9594C282.13 98.1102 279.397 100.621 277.468 104.012C275.533 107.397 274.978 111.544 275.255 111.981C275.533 112.418 275.661 113.772 275.661 113.772L275.654 113.786Z" fill="#FFCDA8"/>
<path d="M279.974 131.707C277.597 128.956 277.504 123.639 277.504 123.639C277.504 123.639 276.622 123.118 276.017 122.765C275.412 122.405 277.903 118.703 278.266 116.75C278.629 114.797 276.757 113.499 275.732 112.484C275.583 112.336 275.447 112.223 275.319 112.138C275.554 112.667 275.654 113.795 275.654 113.795C275.654 113.795 274.487 116.503 274.771 118.097C275.056 119.691 275.817 123.914 276.18 125.748C276.543 127.581 276.501 130.811 279.12 131.565C279.369 131.636 279.668 131.678 279.981 131.699L279.974 131.707Z" fill="#D9A782"/>
<path d="M301.614 117.144C301.614 117.144 306.78 110.783 303.99 102.744C301.201 94.7052 291.479 93.4711 285.473 95.8687C279.46 98.2733 276.478 102.469 276.214 104.761C275.951 107.053 276.478 107.737 276.478 107.737C277.026 108.054 277.524 108.421 277.83 108.801C278.805 110.035 279.395 110.994 280.05 111.128C280.705 111.269 284.299 110.578 286.953 112.461C289.615 114.344 289.43 114.972 290.27 115.804C291.444 116.967 294.298 119.569 296.902 117.912C299.507 116.255 301.614 117.136 301.614 117.136V117.144Z" fill="#1B3300"/>
<path d="M296.909 117.928C299.514 116.271 301.62 117.152 301.62 117.152C301.62 117.152 302.118 116.524 302.901 115.121C302.951 115.037 303.001 114.931 303.008 114.924C300.126 117.018 298.169 116.122 295.464 115.812C291.906 115.403 291.799 111.539 285.957 110.643C282.754 110.157 281.132 110.629 280.32 111.158H280.335C281.409 111.165 284.569 110.777 286.974 112.477C289.636 114.36 289.451 114.987 290.291 115.819C291.465 116.983 294.319 119.585 296.923 117.928H296.909Z" fill="#3B5419"/>
<path d="M280.305 108.391C280.305 108.391 281.423 104.132 282.647 103.659C282.647 103.659 278.846 105.775 279.636 110.006C279.636 110.006 278.633 106.995 276.156 106.445C276.22 107.411 276.476 107.735 276.476 107.735C277.024 108.052 277.523 108.419 277.829 108.8C278.804 110.034 279.394 110.993 280.049 111.127C280.106 111.141 280.198 111.148 280.305 111.148C280.305 111.148 278.846 108.024 287.664 102.256C287.664 102.256 282.163 104.35 280.305 108.391Z" fill="#3B5419"/>
<path d="M297.415 117.739C297.842 116.864 299.628 114.833 300.838 115.108C302.041 115.383 302.162 118.176 301.279 119.495C300.397 120.813 297.095 123.401 296.17 122.922C295.245 122.442 296.732 119.135 297.415 117.739Z" fill="#FFCDA8"/>
<path d="M72.3469 319.281C72.3469 319.281 69.0732 320.769 69.4504 321.517C69.8205 322.264 71.1513 323.717 71.0943 323.865C71.0445 324.013 70.4894 325.43 70.4681 325.501C70.4467 325.571 70.1692 327.341 70.1692 327.341C70.1692 327.341 67.6143 327.214 67.5218 327.532C67.4222 327.856 67.6997 328.618 67.6997 328.618L67.3296 330.204C67.3296 330.204 65.8707 330.578 64.2766 330.035C62.6754 329.492 57.3521 328.173 57.3521 328.173L51.182 328.371L48.25 320.466H55.5303C55.5303 320.466 58.2275 316.609 59.3234 315.191C60.4265 313.781 63.4511 312.787 64.4972 312.364C65.5505 311.941 67.9488 312.907 68.8312 313.527C69.7066 314.141 69.9272 315.332 68.8028 315.354C67.6784 315.382 65.7355 314.811 65.7355 314.811C65.7355 314.811 63.138 316.094 63.693 316.792C64.2553 317.483 70.7812 317.8 70.7812 317.8L72.354 319.267L72.3469 319.281Z" fill="#F2A983"/>
<path d="M70.1751 327.331C70.1751 327.331 70.4456 325.568 70.474 325.491C70.4954 325.42 71.0434 324.003 71.1003 323.855C71.1572 323.706 69.8264 322.247 69.4563 321.506C69.0792 320.759 72.3528 319.271 72.3528 319.271L70.78 317.804C70.78 317.804 64.2612 317.487 63.6919 316.796C63.1368 316.105 65.7344 314.814 65.7344 314.814C65.7344 314.814 67.6772 315.386 68.8016 315.357C69.3425 315.343 69.5702 315.061 69.5631 314.709C69.129 314.793 68.5668 314.828 67.8978 314.709C66.1756 314.412 64.7523 313.94 64.7523 313.94C64.7523 313.94 63.0016 315.378 62.7027 316.168C62.4038 316.958 62.1547 319.313 61.1299 321.048C60.1051 322.783 58.6747 323.424 58.6747 323.424C58.6747 323.424 63.1937 323.918 63.1795 325.625C63.151 327.331 62.8237 328.375 61.3007 328.029C59.7706 327.684 56.2052 325.328 56.2052 325.328L50.2344 325.794L51.188 328.346L57.3581 328.149C57.3581 328.149 62.6813 329.461 64.2826 330.011C65.8838 330.554 67.3356 330.18 67.3356 330.18L67.7057 328.593C67.7057 328.593 67.4281 327.825 67.5277 327.507C67.6274 327.19 70.1751 327.317 70.1751 327.317V327.331Z" fill="#D9A782"/>
<path d="M53.7722 320.057L54.2419 329.168L48.0718 329.556L46.9688 319.902L53.7722 320.057Z" fill="#102942"/>
<path d="M68.0135 336.716C68.042 336.618 67.9637 335.137 67.5865 334.996C67.2094 334.855 61.8078 333.275 60.5624 332.972C59.3099 332.676 56.0861 332.154 55.9366 333.247C55.7872 334.333 60.4628 335.151 60.4628 335.151L60.5624 336.709C60.5624 336.709 57.8937 335.891 57.1109 335.722C56.3352 335.546 54.2571 335.447 54.1361 336.138C54.0151 336.836 56.0861 337.429 57.4667 337.873C58.8402 338.324 61.0748 338.959 61.0748 338.959V339.452C61.0748 339.452 58.0147 338.938 56.8903 338.663C55.7587 338.388 53.9155 337.802 53.7447 338.239C53.5739 338.677 52.6701 339.375 55.9153 340.496C59.1676 341.617 61.637 342.118 61.694 342.372C61.7438 342.626 61.9146 343.147 61.7438 343.246C61.573 343.345 61.2456 343.465 59.4665 342.936C57.6873 342.407 55.4669 341.568 55.1396 341.617C54.8193 341.667 53.944 342.054 54.8193 342.83C55.6947 343.599 60.5695 345.799 61.694 345.7C62.8184 345.601 68.0206 336.709 68.0206 336.709L68.0135 336.716Z" fill="#D9A782"/>
<path d="M57.9276 346.98L58.9453 348.383L31.4396 336.275L30.4219 334.879L57.9276 346.98Z" fill="#AEC5D2"/>
<path d="M74.083 309.345L58.9317 348.376L57.9141 346.973L73.0582 307.942L74.083 309.345Z" fill="#AEC5D2"/>
<path d="M73.0717 307.941L57.9276 346.972L30.4219 334.871L46.3417 297.843L73.0717 307.941Z" fill="#C7DEEB"/>
<path d="M39.197 490.799C44.0577 494.064 47.8295 504.098 48.7831 506.672C49.7509 509.267 52.2275 509.676 53.1242 509.288C54.0209 508.9 51.6297 507.807 51.6297 507.807C51.0746 507.758 50.6619 499.063 51.0746 496.369C51.4874 493.69 50.5267 489.268 50.1068 485.171C49.694 481.074 49.7865 465.138 49.7865 465.138H35.5391C35.5391 465.138 36.8272 470.102 37.6954 475.743C38.5707 481.392 39.1828 490.799 39.1828 490.799H39.197Z" fill="#B3815C"/>
<path opacity="0.5" d="M39.2127 490.793C41.4259 492.288 43.4257 495.187 45.0198 498.141C45.397 493.12 45.5109 486.45 45.5109 486.45L38.3516 480.801C38.8711 485.73 39.2056 490.793 39.2056 490.793H39.2127Z" fill="#B0795B"/>
<path d="M21.1312 491.327C20.8821 493.104 20.2345 494.134 19.9428 494.522C25.3158 495.833 27.4365 503.146 28.0201 505.445C28.6179 507.765 29.6285 509.817 30.5963 509.676C31.5642 509.542 30.7885 508.456 30.2761 507.998C29.7637 507.539 29.8633 506.453 29.8633 506.453H29.9416C29.5146 505.24 30.1622 499.578 30.639 498.259C31.1443 496.849 31.1941 491.518 31.1941 489.974C31.1941 488.429 33.2081 482.456 34.0408 479.318C34.8663 476.173 37.2077 464.559 37.2077 464.559L18.1778 463.241C18.1778 463.241 17.9074 468.522 19.2809 473.444C20.6615 478.359 21.4372 489.022 21.1241 491.342L21.1312 491.327Z" fill="#B3815C"/>
<path d="M19.7378 494.478C19.7378 494.478 17.0264 495.796 14.9982 497.707C12.977 499.625 12.8418 500.895 13.7101 503.447C14.5783 506 15.7312 509.046 15.4109 511.691C15.0836 514.335 14.1157 519.299 14.1157 519.299L14.6423 519.828C14.6423 519.828 15.9589 519.617 15.8166 519.581C15.6814 519.532 17.8377 511.521 19.0333 510.245C20.2289 508.969 22.5275 508.348 24.5487 510.802C26.5698 513.249 30.2918 517.205 32.3627 517.029C34.4336 516.845 37.0454 513.136 38.0133 510.802C38.9812 508.475 38.9812 507.417 37.1024 506.966C35.2165 506.515 29.8363 506.465 29.8363 506.465C29.8363 506.465 29.7367 507.558 30.2491 508.01C30.7543 508.468 31.5372 509.561 30.5693 509.688C29.6015 509.829 28.5909 507.777 27.9931 505.457C27.3953 503.137 25.239 495.669 19.7236 494.485L19.7378 494.478Z" fill="#001135"/>
<path d="M24.5637 510.786C22.7134 508.543 20.6353 508.875 19.3828 509.918C20.614 511.286 23.0265 513.79 25.2469 515.101C28.4138 516.97 30.7125 516.871 31.6732 516.942C31.6803 516.942 31.6803 516.942 31.6874 516.942C29.5596 516.406 26.3784 512.993 24.5566 510.793L24.5637 510.786Z" fill="#00001C"/>
<path d="M37.1211 506.938C35.2352 506.487 29.855 506.438 29.855 506.438C29.855 506.438 29.791 507.241 30.0899 507.763L30.218 507.925C30.218 507.925 30.2535 507.975 30.2749 507.989C30.5097 508.2 30.8015 508.553 30.951 508.884C31.0791 509.174 31.1004 509.441 30.8727 509.59C30.7019 510.894 30.1895 513.729 28.8516 515.217C30.1539 516.317 31.442 517.093 32.3885 517.008C34.4595 516.825 37.0713 513.115 38.0391 510.781C39.007 508.454 39.007 507.397 37.1282 506.945L37.1211 506.938Z" fill="#001135"/>
<path d="M9.07639 366.296C9.07639 366.296 3.17672 381.041 4.30826 390.152C5.78851 402.133 15.9368 404.975 15.9368 404.975C15.9368 404.975 24.6618 418.528 27.6863 427.462C30.7038 436.397 35.7993 469.074 36.4398 475.068C37.0731 481.055 38.041 488.614 38.041 488.614C38.041 488.614 49.5059 491.386 53.0784 491.181C53.0784 491.181 50.1392 468.454 51.5056 456.783C52.8791 445.12 56.3805 435.346 56.8004 430.516C57.2274 425.678 53.6193 414.226 51.5056 410.545C49.3778 406.872 26.4552 368.736 26.4552 368.736L9.07639 366.303V366.296Z" fill="#79A769"/>
<path d="M18.168 369.299C18.168 369.299 15.3142 377.366 16.0401 390.144C16.7518 402.513 23.0144 405.644 23.0144 405.644C23.0144 405.644 22.2814 419.239 22.6443 427.758C23.0144 436.276 23.0144 442.799 21.4559 446.966C19.9044 451.141 17.1574 459.751 17.5204 467.092C17.8904 474.432 20.4239 486.434 18.6163 492.238C18.6163 492.238 24.1958 495.658 27.6758 496.398C31.1558 497.139 31.7963 496.857 31.7963 496.857C31.7963 496.857 32.2518 486.484 34.0736 480.863C35.9097 475.243 38.6496 456.303 40.934 448.87C43.2185 441.438 52.6409 415.255 53.9218 403.74C55.2028 392.231 49.3459 367.127 49.3459 367.127L18.1609 369.299H18.168Z" fill="#96CE70"/>
<path d="M14.8716 299.949C14.8716 299.949 10.4451 297.791 5.41365 298.729C0.375091 299.674 -0.436203 304.998 0.175826 312.254C0.780738 319.511 6.70888 338.056 9.16411 344.734C11.6193 351.412 11.1496 353.633 10.5661 356.673C9.9754 359.705 4.16113 378.124 4.16113 378.124C4.16113 378.124 5.31402 380.444 19.3765 384.343C37.0612 389.251 51.8923 387.672 54.1127 383.455L48.3624 363.894C48.3624 363.894 47.3376 350.072 47.5511 348.923C47.7575 347.774 54.2906 340.426 54.4898 334.827C54.6962 329.228 45.2098 317.014 45.2098 317.014L38.7906 313.362C38.7906 313.362 17.5973 304.667 14.8716 299.956V299.949Z" fill="#79A769"/>
<path d="M54.111 383.445L48.3608 363.884C48.3608 363.884 47.336 350.063 47.5495 348.913C47.7559 347.764 54.2889 340.416 54.4882 334.817C54.6021 331.735 51.7768 326.651 49.2148 322.702L36.3195 328.026C36.3195 328.026 32.996 336.439 31.3165 342.411C29.6299 348.391 22.378 359.004 24.0006 363.397C25.303 366.93 30.8112 378.029 31.4446 386.788C43.429 388.325 52.4173 386.647 54.111 383.445Z" fill="#96CE70"/>
<path d="M35.7757 310.198C35.7757 310.198 34.4449 302.201 35.3487 299.098C36.2525 296.003 37.2488 295.403 38.5867 294.945C39.6186 294.599 41.8533 294.973 43.8032 289.882C45.7532 284.791 44.6216 282.823 44.8209 280.715C45.0202 278.606 45.5041 277.104 44.9419 275.137C44.3797 273.169 42.9492 265.793 36.7791 263.854C30.609 261.908 23.4355 263.072 19.7206 265.737C16.0057 268.396 13.4366 273.973 14.0202 279.46C14.618 284.939 17.9841 288.056 18.4111 291.786C18.8381 295.516 16.9878 300.34 15.0236 303.456C13.0666 306.58 18.1834 310.177 21.5424 311.333C29.0576 313.928 35.7686 310.191 35.7686 310.191L35.7757 310.198Z" fill="#FFCDA8"/>
<path d="M37.8272 290.124C37.1155 286.4 36.8735 282.649 36.8735 282.649L30.5611 288.438C30.5611 288.438 32.4968 302.203 29.1093 308.606C28.419 309.911 28.4902 311.095 29.0382 312.16C33.0021 311.744 35.7634 310.207 35.7634 310.207C35.7634 310.207 34.4325 302.21 35.3364 299.107C36.2402 296.012 37.2365 295.412 38.5744 294.954C39.0726 294.785 39.8625 294.785 40.7663 294.249C39.5707 293.438 38.1972 292.105 37.8272 290.131V290.124Z" fill="#D9A782"/>
<path d="M38.6008 290.482C38.4158 290.856 35.9036 291.321 35.8751 286.935C35.8538 282.556 38.6862 281.245 38.9424 284.425C39.1986 287.605 38.6008 290.482 38.6008 290.482Z" fill="#F2A983"/>
<path d="M46.1781 271.442C45.0252 266.309 39.0472 256.366 21.0849 262.289C17.2917 263.545 10.3032 269.99 11.328 280.638C11.7194 284.629 13.4345 287.696 15.05 291.441C17.2063 296.441 17.4056 298.486 17.4056 298.486C17.4056 298.486 23.4262 302.59 29.0128 299.741C30.4005 299.036 30.8773 298.048 31.1122 296.772C31.4467 297.209 31.8096 297.639 32.2081 298.041C32.2081 298.041 32.1583 296.032 32.3861 293.324C32.7775 295.214 33.5674 296.342 33.5674 296.342C33.2045 295.517 33.297 293.324 33.5318 291.018C34.1439 292.943 35.126 294.015 35.126 294.015C34.7701 293.422 34.5851 292.012 34.4926 290.348C35.4035 291.222 36.4639 291.949 37.6381 292.238C37.816 292.28 36.1579 288.691 36.0369 285.764C37.6808 289.981 39.8158 292.485 39.8158 292.485C38.5633 290.15 37.8303 287.238 37.4246 284.911C38.4921 286.73 39.9866 288.486 39.9866 288.486C39.2394 287.062 38.9903 285.468 39.0045 283.966C39.6379 285.087 40.4278 285.75 40.4278 285.75C40.1218 284.502 40.1218 283.31 40.2713 282.274C40.6912 284.255 42.0291 285.186 42.0291 285.186C41.5167 282.859 43.1677 279.34 44.1925 277.62C44.1071 279.249 43.7726 281.421 42.634 282.908C42.634 282.908 44.2993 281.59 45.2387 279.545C45.3241 279.785 45.381 280.038 45.4308 280.306C45.4308 280.306 47.331 276.583 46.1852 271.45L46.1781 271.442Z" fill="#442F22"/>
<path d="M35.1376 294C34.7817 293.408 34.5967 291.998 34.5042 290.333C35.4151 291.208 36.4755 291.934 37.6497 292.223C37.8276 292.266 36.1695 288.676 36.0485 285.75C37.6924 289.967 39.8274 292.47 39.8274 292.47C38.5749 290.136 37.8419 287.224 37.4362 284.897C38.5037 286.716 39.9982 288.472 39.9982 288.472C39.251 287.047 39.0019 285.454 39.0161 283.952C39.6495 285.073 40.4394 285.736 40.4394 285.736C40.1334 284.488 40.1334 283.296 40.2829 282.259C40.7027 284.241 42.0407 285.172 42.0407 285.172C41.5283 282.845 43.1793 279.326 44.2041 277.605C44.1187 279.234 43.7842 281.406 42.6456 282.894C42.6456 282.894 44.3109 281.575 45.2503 279.53C45.3357 279.77 45.3926 280.024 45.4424 280.292C45.4424 280.292 47.2927 276.667 46.2324 271.646C46.3533 273.847 46.2181 276.343 45.293 278.056C45.293 278.056 45.6844 275.574 45.051 274.34C45.051 274.34 43.9195 275.955 42.7879 278.444C41.6564 280.926 41.2934 283.084 41.2934 283.084C41.2934 283.084 42.6029 276.096 42.0763 276.724C41.5069 277.415 37.6924 281.949 38.2475 284.276C38.2475 284.276 37.7921 280.856 37.9842 279.615C37.9842 279.615 35.2728 284.509 35.6144 288.345C35.6144 288.345 34.369 286.018 34.8173 284.488C34.8173 284.488 31.017 291.003 31.0526 293.775L30.5829 291.483C30.5829 291.483 30.5758 296.426 28.5547 299.945C28.7113 299.874 28.8607 299.804 29.0102 299.726C30.3979 299.021 30.8747 298.034 31.1096 296.757C31.444 297.195 31.807 297.625 32.2055 298.027C32.2055 298.027 32.1557 296.017 32.3834 293.309C32.7748 295.199 33.5648 296.327 33.5648 296.327C33.2018 295.502 33.2944 293.309 33.5292 291.003C34.1412 292.928 35.1233 294 35.1233 294H35.1376Z" fill="#333333"/>
<path d="M31.0392 294.913L29.2814 291.253C29.2814 291.253 28.8686 293.848 27.6161 295.124L28.0574 292.24C28.0574 292.24 26.5415 294.927 26.0861 295.216L25.9366 292.896L24.7339 295.307C24.7339 295.307 23.5952 293.876 23.5525 293.255L23.1896 295.716C23.1896 295.716 20.3643 294.13 19.8163 292.092C19.8163 292.092 19.2683 293.876 19.4818 294.913C19.126 293.841 17.9873 290.597 16.87 288.651C15.5179 286.303 14.7493 284.949 14.5073 282.784C14.5073 282.784 14.2511 285.343 14.7706 286.972C14.7706 286.972 13.1196 281.627 13.9593 278.313C13.9593 278.313 12.6641 278.348 11.2266 279.025C11.2408 279.554 11.2693 280.09 11.3191 280.647C11.7105 284.638 13.4256 287.706 15.0411 291.45C17.1974 296.45 17.3967 298.495 17.3967 298.495C17.3967 298.495 23.4173 302.599 29.0039 299.75C30.3916 299.045 30.8684 298.058 31.1033 296.781C31.1673 296.859 31.2314 296.936 31.2954 297.014L31.0321 294.927L31.0392 294.913Z" fill="#333333"/>
<path d="M19.6906 299.665C19.1924 295.829 15.9259 288.911 15.9259 288.911L16.1251 292.07C16.1251 292.07 15.5487 290.335 13.5632 284.595C11.5847 278.862 15.1644 272.847 15.1644 272.847C13.556 273.947 13.065 276.705 13.065 276.705C13.4137 269.625 19.1497 266.867 19.1497 266.867C16.3742 267.643 14.9011 269.73 14.9011 269.73C15.5131 267.693 17.5129 265.034 18.8366 263.426C15.079 265.944 10.4817 271.86 11.3285 280.625C11.72 284.616 13.4351 287.684 15.0505 291.428C17.2069 296.428 17.4061 298.473 17.4061 298.473C17.4061 298.473 18.2886 299.079 19.6906 299.658V299.665Z" fill="#333333"/>
<path d="M18.7213 300.817C23.8026 302.418 36.1001 308.765 36.1001 308.765L38.9823 313.172C38.9823 313.172 25.0836 314.561 16.8354 310.083C6.82235 304.646 11.7684 301.424 11.7684 301.424L14.6364 299.252L18.7213 300.824V300.817Z" fill="#96CE70"/>
<path d="M39.0812 490.72C39.0812 490.72 35.409 492.271 34.0284 494.14C32.6477 496.001 32.3702 498.653 32.8755 501.065C33.3808 503.483 33.886 507.164 33.701 509.4C33.516 511.628 32.6406 517.001 32.6406 517.001H33.9714C33.9714 517.001 35.4375 506.346 37.3732 505.754C39.3089 505.162 41.33 505.07 43.3938 508.398C45.4648 511.72 48.8238 516.776 52.7735 516.092C56.7233 515.408 60.8153 510.584 60.1748 509.534C59.5343 508.49 51.6278 507.806 51.6278 507.806C51.6278 507.806 54.0189 508.899 53.1222 509.287C52.2256 509.668 49.749 509.266 48.7811 506.671C47.8132 504.076 44.0059 493.914 39.0812 490.727V490.72Z" fill="#0D1E42"/>
<path d="M43.4121 508.403C41.5689 505.441 39.7684 505.194 38.0391 505.589C38.8219 507.246 40.9071 511.393 42.7289 512.733C45.0276 514.418 49.205 516.146 51.5037 516.124C48.1162 515.687 45.2624 511.358 43.4121 508.41V508.403Z" fill="#00001C"/>
<path d="M60.6067 346.567C60.6067 346.567 61.4037 343.761 61.1475 342.379C60.8771 341.004 59.1122 334.114 58.9556 332.521C58.7919 330.934 59.2189 329.079 60.3434 328.974C61.4607 328.868 61.9446 332.365 62.272 333.578C62.5922 334.798 63.3323 335.856 64.2504 335.701C65.1542 335.539 67.1967 334.587 68.4207 335.172C69.6519 335.757 70.0291 336.97 69.8654 338.19C69.7017 339.41 70.0789 340.679 69.4384 341.899C68.7979 343.119 68.0506 346.61 67.7233 347.195C67.403 347.78 64.7343 351.384 64.7343 351.384L60.6138 346.56L60.6067 346.567Z" fill="#FFCDA8"/>
<path d="M65.7344 318.815C65.7344 318.484 65.9479 318.195 67.0794 318.124C68.2038 318.053 72.3528 317.405 72.9008 318.124C73.4559 318.843 73.6054 319.76 73.0574 320.155C72.5094 320.55 68.6807 320.232 67.9049 320.155C67.1292 320.077 65.7344 319.76 65.7344 318.815Z" fill="#FFCDA8"/>
<path d="M64.0469 321.411C64.0469 320.79 64.7016 320.402 66.3242 320.72C67.9539 321.037 73.3696 321.665 73.0779 323.392C72.779 325.127 71.4268 324.852 70.7009 324.676C69.9821 324.506 65.3279 322.842 64.9293 322.708C64.5308 322.574 64.054 321.982 64.054 321.411H64.0469Z" fill="#FFCDA8"/>
<path d="M63.5379 323.711C63.8012 323.288 64.6552 322.942 65.7227 323.259C66.7902 323.584 71.295 324.952 71.6864 325.523C72.092 326.087 71.9141 326.954 71.5156 327.229C71.1171 327.497 69.4162 327.208 68.2918 326.856C67.1673 326.51 62.9187 324.726 63.5379 323.711Z" fill="#FFCDA8"/>
<path d="M63.7711 327.137C63.9918 326.671 64.6607 326.827 65.7282 327.313C66.7957 327.8 69.4715 328.794 69.3221 329.436C69.1727 330.077 68.6603 330.472 67.7066 330.275C66.753 330.077 63.1022 328.54 63.7783 327.13L63.7711 327.137Z" fill="#FFCDA8"/>
<path d="M36.8623 325.837C37.8159 322.607 42.2709 315.429 45.8791 317.325C49.4801 319.215 51.1809 323.002 50.4337 331.196C49.6936 339.39 48.3129 357.887 48.3129 357.887L60.6176 345.701C60.6176 345.701 66.9798 345.807 65.4996 353.585C65.4996 353.585 51.2877 373.238 49.4872 375.445C47.6796 377.652 39.8584 382.278 37.574 377.236C35.2824 372.187 33.2613 338.029 36.8694 325.844L36.8623 325.837Z" fill="#96CE70"/>
<path d="M64.7225 347.851C63.2351 345.75 60.602 345.701 60.602 345.701L48.2974 357.886C48.2974 357.886 47.479 368.174 48.6319 367.857C49.6566 367.582 61.6837 352.012 64.7154 347.851H64.7225Z" fill="#5098F0"/>
<path d="M125.038 542.198C121.031 541.323 108.399 540.534 103.973 535.922L86.3236 541.641C86.3236 541.641 85.1209 547.197 86.3236 550.145C86.3236 550.145 90.8142 552.366 94.6571 552.366C98.5001 552.366 101.311 551.929 105.638 553.001C109.972 554.08 116.868 554.595 122.234 553.001C127.607 551.414 131.059 547.437 131.13 545.54C131.208 543.629 129.052 543.072 125.038 542.205V542.198Z" fill="#001135"/>
<path d="M131.13 545.587C131.002 547.505 127.571 551.426 122.234 553.006C116.868 554.599 109.972 554.085 105.638 553.006C101.311 551.934 98.5071 552.371 94.657 552.371C90.8069 552.371 86.3234 550.15 86.3234 550.15C86.2878 550.058 86.2522 549.974 86.2238 549.882C86.238 550.079 86.2665 550.284 86.3092 550.474L86.1953 553.119C86.1953 553.119 86.9853 553.732 89.6967 554.487C92.4081 555.248 100.343 554.747 100.343 554.747C100.343 554.747 100.364 554 100.364 553.288C102.03 553.316 103.752 553.492 105.83 554.007C110.164 555.079 117.053 555.594 122.419 554.007C127.792 552.413 131.236 548.443 131.315 546.532C131.329 546.173 131.265 545.862 131.123 545.587H131.13Z" fill="#001135"/>
<path d="M63.7341 525.975C63.7341 525.975 62.6097 532.899 63.7341 534.465C64.8443 536.03 69.4132 537.702 72.3879 535.939C75.3698 534.19 75.626 532.857 78.7786 530.015C81.7819 527.322 86.3578 524.79 87.589 520.686C88.5355 517.52 87.7598 513.797 86.1728 513.049C84.5929 512.316 78.3445 514.156 75.1776 516.92C72.0179 519.699 63.727 525.968 63.727 525.968L63.7341 525.975Z" fill="#001135"/>
<path d="M87.5867 520.694C86.3555 524.798 81.7724 527.329 78.7763 530.023C75.6166 532.858 75.3675 534.198 72.3856 535.946C69.4109 537.702 64.842 536.038 63.7318 534.473C63.561 534.233 63.44 533.88 63.3617 533.45C63.3475 534 63.3973 534.494 63.5112 534.882L63.8101 536.701C63.8101 536.701 64.7424 537.787 66.4219 538.436C68.1014 539.084 70.6207 539.176 72.35 538.02C74.0794 536.863 77.3886 533.351 77.3886 533.351C77.3886 533.351 77.3886 532.837 77.3744 532.23C77.7729 531.821 78.2284 531.377 78.7692 530.89C81.7724 528.197 86.3484 525.672 87.5796 521.561C87.8998 520.482 88.0137 519.354 87.971 518.289C87.9354 519.086 87.8144 519.911 87.5796 520.694H87.5867Z" fill="#001135"/>
<path d="M61.4408 527.231C61.4408 527.231 60.5085 532.301 67.5682 533.296C71.5535 533.867 77.503 528.247 80.1433 522.62C82.1857 518.269 81.4243 513.629 81.4243 513.629C81.4243 513.629 80.8763 489.688 82.8689 481.036C84.8616 472.384 90.8823 439.593 90.8823 439.593L81.4599 396.395L60.4587 418.199C60.4587 418.199 63.5118 439.452 63.2556 452.992C62.9994 466.531 58.9144 480.486 59.7542 494.716C60.6011 508.953 61.4479 527.231 61.4479 527.231H61.4408Z" fill="#79A769"/>
<path d="M114.096 424.143C114.096 424.143 118.145 441.405 115.662 458.287C113.192 475.168 108.994 510.314 108.474 518.783C107.954 527.252 114.352 540.389 114.352 540.389C114.352 540.389 98.3186 548.343 85.8005 547.638C85.8005 547.638 82.7546 513.261 84.0711 502.874C85.3806 492.487 89.3659 479.646 88.0137 472.284C86.6616 464.922 82.8613 437.632 82.8613 437.632C82.8613 437.632 77.8939 430.151 76.6841 423.226C75.4743 416.301 114.103 424.143 114.103 424.143H114.096Z" fill="#96CE70"/>
<path d="M56.5012 330.734C56.309 330.734 51.9964 327.201 51.9964 327.201C51.9964 327.201 46.5095 331.615 44.4243 336.89C42.332 342.164 36.9803 358.552 35.2723 362.508C33.5572 366.464 33.116 377.768 38.3823 379.524C43.6415 381.28 62.778 371.365 62.778 371.365L56.5083 330.734H56.5012Z" fill="#518C3C"/>
<path d="M60.5144 356.691L53.7181 349.639C53.7181 349.639 52.9068 353.849 50.5227 356.931C48.1386 360.005 44.5305 365.026 42.8154 369.863C41.6768 373.093 42.2034 376.823 43.6054 379.214C51.2201 377.366 62.7775 371.379 62.7775 371.379L60.5144 356.698V356.691Z" fill="#79A769"/>
<path d="M54.5247 355.98L51.4219 362.764L57.0653 362.137L54.5247 355.98Z" fill="#96CE70"/>
<path d="M63.4688 326.313C63.4688 326.313 70.5641 324.818 70.3933 319.459C70.2154 314.093 64.6217 306.618 65.4188 298.438C66.223 290.258 73.0549 284.723 80.9472 282.607C88.8467 280.492 97.102 286.655 98.4328 291.577C99.7636 296.506 99.6924 298.48 99.1017 299.559C98.5111 300.624 98.4399 302.147 98.7245 302.874C99.0021 303.593 99.4931 306.188 98.8242 308.36C98.1623 310.532 96.4188 317.851 94.6396 318.444C92.8676 319.036 90.2558 319.17 89.8359 321.448C89.416 323.725 90.391 329.113 91.7859 332.533C91.7859 332.533 86.6619 337.293 74.9906 335.396C63.3194 333.499 63.4688 326.313 63.4688 326.313Z" fill="#FFCDA8"/>
<path d="M91.7952 332.532C90.4003 329.112 89.4254 323.724 89.8452 321.447C90.2651 319.169 92.8769 319.035 94.649 318.443C94.7842 318.393 94.9194 318.309 95.0546 318.196C93.8163 317.293 92.3716 315.827 92.1653 313.817C91.8023 310.235 91.8023 305.214 91.8023 305.214C91.8023 305.214 82.9065 310.305 81.4975 310.305C80.0884 310.305 85.2123 324.359 79.5688 330.804C77.4267 333.251 80.0101 334.711 84.031 335.571C89.3613 334.788 91.7881 332.525 91.7881 332.525L91.7952 332.532Z" fill="#D9A782"/>
<path d="M93.0729 308.754C93.0729 308.754 93.3505 306.469 91.8275 306.631C90.3046 306.786 90.1907 311.109 90.5821 313.084C90.9664 315.051 92.4467 315.904 92.7242 312.893C92.9946 309.882 93.0729 308.761 93.0729 308.761V308.754Z" fill="#FFCDA8"/>
<path d="M88.6355 280.521C80.551 279.52 74.082 281.254 69.2356 285.725C64.382 290.196 61.1155 301.817 66.5953 307.247C67.5133 310.173 68.7232 312.923 69.5416 315.384C73.897 317.401 79.7468 317.591 83.2197 316.745C87.1979 315.779 86.0308 310.49 88.9913 307.515C91.9518 304.546 94.7202 307.515 94.7202 307.515C94.7202 307.515 95.3891 303.46 95.5386 301.373C95.6951 299.292 96.7484 298.707 96.8978 296.62C97.0615 294.54 96.3926 292.417 97.2537 290.943C97.5028 290.513 97.6024 290.083 97.6309 289.688C97.6309 289.688 98.6058 289.258 98.7411 287.389C98.8763 285.514 96.7199 281.515 88.6355 280.514V280.521Z" fill="#442F22"/>
<path d="M94.7179 307.515C94.7179 307.515 95.3869 303.461 95.5363 301.373C95.5719 300.866 95.6644 300.45 95.7783 300.083C93.4085 302.008 88.1422 305.999 83.4381 307.614C78.3497 309.37 71.8736 308.644 66.5859 307.247C67.504 310.174 68.7138 312.924 69.5322 315.385C73.8876 317.402 79.7374 317.592 83.2103 316.746C87.1885 315.78 86.0214 310.491 88.9819 307.515C91.9424 304.547 94.7108 307.515 94.7108 307.515H94.7179Z" fill="#333333"/>
<path d="M66.8828 322.76L68.4129 320.137C68.4129 320.137 72.5476 321.279 77.9563 322.873C86.1688 325.284 93.99 330.961 93.99 330.961C93.99 330.961 69.1957 324.551 66.8828 322.76Z" fill="#EEF5F9"/>
<path d="M111.145 402.897C109.85 395.415 107.537 386.184 107.957 376.933C108.377 367.681 108.647 349.96 106.662 346.427C105.765 344.848 107.85 345.116 105.594 342.789C102.804 339.897 95.6949 334.517 95.6949 334.517L66.8583 326.647L64.8657 325.9L51.9917 327.212C51.9917 327.212 50.1485 340.596 51.2658 347.217C52.3832 353.839 57.5996 367.491 60.0762 372.455C62.5528 377.426 63.2645 389.203 61.8483 394.632C60.183 401.042 55.7137 419.398 55.7137 419.398C55.7137 419.398 58.8735 425.462 68.6802 429.933L72.2172 406.973L70.5376 430.723C72.8648 431.653 75.505 432.486 78.5225 433.134L81.0204 433.494C87.7171 435.109 106.292 435.765 116.447 427.19C116.447 427.19 112.412 410.273 111.138 402.897H111.145Z" fill="#79A769"/>
<path d="M93.9864 330.975C93.9864 330.975 80.3012 326.405 76.1024 325.087C71.2844 323.571 66.8721 321.871 66.8721 321.871L63.4775 326.032C63.4775 326.032 62.8939 330.954 71.256 333.683C79.6038 336.419 95.6944 334.508 95.6944 334.508L93.9864 330.968V330.975Z" fill="#96CE70"/>
<path d="M116.452 427.188C116.452 427.188 112.417 410.271 111.143 402.895C109.848 395.413 107.535 386.183 107.955 376.931C108.204 371.445 108.403 362.99 108.111 356.276L92.1771 352.187C92.1771 352.187 90.5047 363.836 95.5931 371C101.806 379.751 104.994 393.883 105.272 399.341C105.514 404.108 112.118 420.284 111.342 430.474C113.2 429.571 114.922 428.492 116.452 427.195V427.188Z" fill="#79A769"/>
<path d="M166.769 338.578C166.769 338.578 171.943 333.269 174.377 331.35C176.803 329.432 179.984 325.237 180.049 324.313C180.105 323.382 178.533 322.254 178.533 322.254C178.533 322.254 179.92 320.082 179.586 319.01C179.244 317.938 176.818 316.873 176.818 316.873C176.818 316.873 177.494 315.202 177.152 314.321C176.818 313.439 174.277 311.937 174.192 311.937C174.106 311.937 173.658 311.5 173.658 311.5C173.658 311.5 174.889 307.417 175.138 306.197C175.394 304.984 173.281 302.996 171.694 306.07C170.107 309.145 168.441 315.893 168.121 316.556C167.801 317.233 166.349 319.363 165.502 320.138C164.655 320.914 163.211 321.02 162.812 320.308C162.414 319.595 162.285 317.748 162.812 316.535C163.346 315.322 163.894 313.686 163.623 312.473C163.346 311.253 161.588 310.612 160.748 311.973C159.901 313.334 159.439 315.844 158.884 317.289C158.336 318.735 158.023 321.02 158.4 324.01C158.777 327.007 160.549 330.328 160.407 331.35C160.257 332.366 159.923 335.292 159.923 335.292L166.762 338.571L166.769 338.578Z" fill="#FFCDA8"/>
<path d="M178.536 322.255C178.536 322.255 179.924 320.083 179.589 319.011C179.248 317.939 176.821 316.874 176.821 316.874C176.821 316.874 177.497 315.203 177.156 314.322C176.821 313.44 174.28 311.938 174.195 311.938C174.11 311.938 173.661 311.501 173.661 311.501C173.661 311.501 172.608 315.739 172.387 316.945C172.174 318.144 172.131 318.75 172.387 319.004C172.651 319.265 174.174 320.118 174.515 321.197C174.864 322.276 174.622 322.036 175.576 322.981C176.529 323.926 177.597 324.85 177.205 326.14C176.935 327.043 176.387 328.467 176.387 329.447C178.273 327.438 179.995 324.998 180.038 324.314C180.095 323.383 178.522 322.255 178.522 322.255H178.536Z" fill="#D9A782"/>
<path d="M159.046 333.084L160.42 331.356C160.42 331.356 167.707 333.697 168.767 341.115L166.213 344.268L159.039 333.084H159.046Z" fill="#EEF5F9"/>
<path d="M95.0682 344.254C95.0682 344.254 99.4805 338.704 108.497 344.254C117.514 349.803 133.27 357.673 133.27 357.673L159.082 332.097C159.082 332.097 168.59 337.23 168.32 345.615C168.32 345.615 146.792 369.858 142.835 373.652C138.878 377.439 132.993 376.896 131.078 376.896C129.164 376.896 105.409 368.582 100.968 365.832C95.5166 362.447 87.9587 353.738 95.0611 344.261L95.0682 344.254Z" fill="#96CE70"/>
<path d="M183.458 13.6718L178.555 16.4995C179.181 16.1399 180.049 16.1893 181.01 16.7323L185.913 13.9045C184.96 13.3616 184.091 13.3122 183.458 13.6718Z" fill="#96CE70"/>
<path d="M195.843 43.6665L190.669 49.8085L185.766 52.6291L190.932 46.4872L195.843 43.6665Z" fill="#96CE70"/>
<path d="M185.927 13.9001L224.556 35.9929C226.457 37.0789 228.001 39.7303 227.994 41.8952L227.951 58.0858C227.951 59.1576 227.567 59.9121 226.941 60.2718L222.037 63.0995C222.656 62.7398 223.041 61.9853 223.048 60.9135L223.09 44.7229C223.09 42.558 221.553 39.9137 219.653 38.8206L181.031 16.7208L185.935 13.8931L185.927 13.9001Z" fill="#96CE70"/>
<g opacity="0.2">
<path d="M181.009 16.7263C179.116 15.6403 177.558 16.5147 177.551 18.6796L177.508 34.8702C177.501 37.028 179.052 39.6865 180.945 40.7724L185.777 43.5367L185.749 52.6262L190.923 46.4843L219.567 62.8723C221.467 63.9582 223.019 63.0768 223.026 60.919L223.068 44.7284C223.068 42.5635 221.531 39.9192 219.631 38.8262L181.009 16.7263Z" fill="#518C3C"/>
</g>
<path d="M334.56 102.757L329.656 105.585C330.283 105.225 331.151 105.275 332.111 105.818L337.015 102.99C336.061 102.447 335.193 102.398 334.56 102.757Z" fill="#96CE70"/>
<path d="M346.944 132.734L341.771 138.883L336.867 141.704L342.041 135.562L346.944 132.734Z" fill="#96CE70"/>
<path d="M337.036 102.986L375.665 125.078C377.565 126.164 379.11 128.816 379.102 130.981L379.06 147.171C379.06 148.243 378.675 148.998 378.049 149.357L373.139 152.185C373.758 151.825 374.142 151.071 374.149 149.999L374.192 133.808C374.192 131.643 372.655 128.999 370.755 127.906L332.133 105.806L337.036 102.979V102.986Z" fill="#96CE70"/>
<g opacity="0.2">
<path d="M332.111 105.812C330.218 104.726 328.659 105.6 328.652 107.765L328.609 123.956C328.602 126.113 330.154 128.772 332.047 129.858L336.879 132.622L336.85 141.712L342.024 135.57L370.669 151.958C372.569 153.044 374.12 152.162 374.127 150.004L374.17 133.814C374.17 131.649 372.633 129.005 370.733 127.912L332.111 105.812Z" fill="#518C3C"/>
</g>
<path d="M498.864 193.74L493.961 196.567C494.587 196.208 495.455 196.257 496.416 196.8L501.319 193.972C500.366 193.429 499.498 193.38 498.864 193.74Z" fill="#96CE70"/>
<path d="M511.241 223.734L506.067 229.876L501.164 232.697L506.338 226.555L511.241 223.734Z" fill="#96CE70"/>
<path d="M501.317 193.968L539.946 216.061C541.847 217.147 543.391 219.798 543.384 221.963L543.341 238.154C543.341 239.225 542.957 239.98 542.33 240.34L537.42 243.167C538.039 242.808 538.423 242.053 538.431 240.981L538.473 224.791C538.473 222.626 536.936 219.982 535.036 218.889L496.414 196.789L501.317 193.961V193.968Z" fill="#96CE70"/>
<g opacity="0.2">
<path d="M496.415 196.794C494.522 195.708 492.964 196.583 492.957 198.747L492.914 214.938C492.907 217.096 494.458 219.754 496.351 220.84L501.184 223.605L501.155 232.694L506.329 226.552L534.973 242.94C536.873 244.026 538.425 243.145 538.432 240.987L538.475 224.796C538.475 222.631 536.937 219.987 535.037 218.894L496.415 196.794Z" fill="#518C3C"/>
</g>
</g>
<defs>
<clipPath id="clip0_1841_31519">
<rect width="554" height="555" fill="white"/>
</clipPath>
</defs>
</svg>
