<svg width="801" height="801" viewBox="0 0 801 801" fill="none" xmlns="http://www.w3.org/2000/svg">
<circle cx="400.5" cy="400.5" r="400.5" fill="white"/>
<path d="M516.029 365.496C516.029 371.681 520.398 379.253 525.744 382.352L560.493 402.458C565.839 405.544 570.208 403.016 570.208 396.844V356.646C570.208 350.461 565.839 342.889 560.493 339.789L525.744 319.683C520.398 316.598 516.029 319.126 516.029 325.298V365.496Z" fill="#7575FF"/>
<path d="M570.202 396.838V356.64C570.202 350.455 565.833 342.883 560.487 339.783L525.738 319.677C523.391 318.318 521.22 318.046 519.537 318.699L525.399 315.096C527.163 313.968 529.673 314.063 532.427 315.667L567.176 335.773C572.522 338.872 576.891 346.444 576.891 352.63V392.841C576.891 396.009 575.738 398.211 573.892 399.203L567.461 403.064C569.143 402.017 570.188 399.869 570.188 396.851L570.202 396.838Z" fill="#2121DB"/>
<path d="M526.672 355.232V351.357C527.35 351.711 527.866 351.887 528.205 351.887C528.544 351.887 528.843 351.738 529.101 351.425C529.358 351.112 529.521 350.637 529.616 349.998C529.684 349.522 529.725 348.652 529.725 347.374C529.725 345.281 529.806 343.867 529.969 343.146C530.132 342.412 530.444 341.936 530.878 341.678C531.312 341.433 531.95 341.406 532.791 341.597C533.361 341.733 534.257 342.154 535.478 342.847L536.224 343.269V347.129C535.193 346.531 534.528 346.219 534.229 346.178C533.931 346.137 533.714 346.219 533.578 346.409C533.442 346.599 533.375 347.034 533.375 347.7C533.375 348.38 533.334 349.644 533.239 351.493C533.198 352.526 533.076 353.328 532.873 353.872C532.683 354.429 532.425 354.824 532.126 355.082C531.828 355.34 531.353 355.517 530.729 355.612C531.285 356.292 531.733 356.985 532.072 357.678C532.425 358.372 532.696 359.119 532.873 359.935C533.063 360.751 533.185 361.743 533.239 362.953C533.307 364.775 533.334 365.944 533.334 366.433C533.334 367.14 533.415 367.684 533.565 368.051C533.714 368.418 533.931 368.758 534.243 369.084C534.555 369.41 535.206 369.859 536.21 370.443V374.318L535.464 373.883C534.202 373.149 533.239 372.482 532.574 371.857C531.896 371.232 531.339 370.525 530.878 369.723C530.417 368.921 530.105 368.078 529.955 367.194C529.793 366.311 529.711 365.019 529.711 363.32C529.711 361.335 529.643 360.003 529.494 359.323C529.29 358.345 528.978 357.543 528.571 356.931C528.151 356.319 527.513 355.734 526.658 355.191L526.672 355.232Z" fill="white"/>
<path d="M558.829 373.829C558.151 373.476 557.635 373.299 557.296 373.299C556.957 373.299 556.658 373.449 556.414 373.761C556.17 374.074 555.994 374.55 555.885 375.175C555.817 375.651 555.777 376.521 555.777 377.785C555.777 379.879 555.695 381.292 555.532 382.027C555.369 382.761 555.071 383.25 554.623 383.508C554.189 383.753 553.538 383.78 552.696 383.576C552.127 383.44 551.245 383.019 550.01 382.312L549.264 381.877V378.003C550.268 378.574 550.919 378.886 551.218 378.913C551.53 378.941 551.747 378.859 551.896 378.682C552.045 378.492 552.113 378.071 552.127 377.418C552.127 376.766 552.167 375.529 552.249 373.721C552.303 372.619 552.425 371.804 552.629 371.246C552.832 370.689 553.104 370.281 553.443 370.009C553.782 369.737 554.216 369.574 554.745 369.52C554.053 368.609 553.551 367.807 553.239 367.127C552.805 366.162 552.507 365.088 552.344 363.892C552.249 363.076 552.167 361.377 552.127 358.781C552.127 357.965 552.059 357.394 551.937 357.054C551.815 356.714 551.611 356.388 551.313 356.062C551 355.735 550.322 355.273 549.277 354.662V350.801L550.024 351.236C551.272 351.956 552.249 352.636 552.914 353.248C553.578 353.859 554.148 354.566 554.61 355.382C555.071 356.198 555.369 357.041 555.532 357.924C555.695 358.808 555.777 360.099 555.777 361.812C555.777 363.783 555.844 365.115 555.98 365.795C556.184 366.774 556.496 367.576 556.916 368.188C557.337 368.799 557.975 369.384 558.829 369.928V373.802V373.829Z" fill="white"/>
<path d="M433.039 152.459C433.039 158.644 437.408 166.216 442.754 169.316L477.503 189.422C482.849 192.507 487.218 189.979 487.218 183.807V143.596C487.218 137.41 482.849 129.838 477.503 126.739L442.754 106.633C437.408 103.547 433.039 106.076 433.039 112.248V152.459V152.459Z" fill="#FEBF3E"/>
<path d="M487.215 183.802V143.591C487.215 137.405 482.846 129.833 477.5 126.734L442.752 106.628C440.404 105.269 438.247 104.997 436.564 105.649L442.426 102.061C444.203 100.932 446.687 101.041 449.454 102.632L484.203 122.737C489.549 125.823 493.918 133.409 493.918 139.594V179.792C493.918 182.959 492.765 185.175 490.933 186.154L484.502 190.015C486.184 188.954 487.229 186.82 487.229 183.816L487.215 183.802Z" fill="#FE9800"/>
<path d="M451.466 155.795L440.34 140.08V134.942L451.466 132.141V138.191L443.705 139.387L451.466 149.773V155.781V155.795Z" fill="white"/>
<path d="M454.895 161.95L458.911 132.084L462.52 134.164L458.449 164.003L454.895 161.95Z" fill="white"/>
<path d="M465.461 163.89V157.881L473.222 156.508L465.461 146.217V140.25L476.601 155.924V161.021L465.461 163.876V163.89Z" fill="white"/>
<path d="M346.727 183.868C346.727 190.054 351.096 197.626 356.442 200.725L391.19 220.831C396.536 223.917 400.905 221.388 400.905 215.216V175.019C400.905 168.833 396.536 161.248 391.19 158.162L356.442 138.056C351.096 134.97 346.727 137.499 346.727 143.67V183.882V183.868Z" fill="#FE769C"/>
<path d="M400.903 215.206V175.008C400.903 168.822 396.534 161.237 391.188 158.151L356.439 138.045C354.092 136.686 351.934 136.414 350.252 137.066L356.114 133.464C357.877 132.336 360.374 132.444 363.142 134.035L397.891 154.141C403.237 157.227 407.592 164.812 407.606 170.997V211.209C407.606 214.376 406.452 216.592 404.621 217.571L398.189 221.432C399.872 220.385 400.916 218.237 400.916 215.219L400.903 215.206Z" fill="#FF2363"/>
<path d="M352.924 180.749V157.707L358.121 160.711C360.088 161.853 361.377 162.71 361.974 163.281C362.897 164.164 363.656 165.361 364.281 166.869C364.905 168.378 365.203 170.064 365.203 171.886C365.203 173.3 365.027 174.387 364.674 175.148C364.321 175.91 363.86 176.399 363.317 176.63C362.761 176.861 362.205 176.902 361.635 176.752C360.861 176.521 359.749 175.991 358.283 175.135L356.167 173.911V182.598L352.937 180.722L352.924 180.749ZM356.153 163.485V170.023L357.931 171.056C359.206 171.791 360.061 172.158 360.495 172.171C360.916 172.171 361.255 171.994 361.499 171.627C361.743 171.247 361.865 170.73 361.865 170.051C361.865 169.208 361.689 168.419 361.35 167.685C361.011 166.937 360.576 166.353 360.047 165.904C359.667 165.578 358.88 165.075 357.713 164.395L356.153 163.485Z" fill="white"/>
<path d="M367.857 189.392V166.35L371.1 168.226V177.293L377.45 180.963V171.896L380.693 173.772V196.814L377.45 194.938V184.865L371.1 181.194V191.268L367.857 189.392Z" fill="white"/>
<path d="M384.041 198.74V175.698L389.238 178.703C391.205 179.844 392.494 180.701 393.091 181.272C394.014 182.142 394.774 183.352 395.398 184.861C396.022 186.383 396.32 188.055 396.32 189.877C396.32 191.291 396.144 192.378 395.791 193.14C395.425 193.901 394.977 194.39 394.434 194.621C393.878 194.852 393.322 194.893 392.752 194.744C391.978 194.513 390.866 193.982 389.387 193.126L387.27 191.902V200.589L384.027 198.713L384.041 198.74ZM387.284 181.476V188.015L389.061 189.034C390.337 189.768 391.191 190.149 391.626 190.149C392.046 190.149 392.399 189.972 392.643 189.605C392.888 189.238 393.01 188.708 393.01 188.028C393.01 187.185 392.847 186.397 392.494 185.649C392.155 184.901 391.721 184.317 391.191 183.882C390.798 183.556 390.025 183.053 388.858 182.373L387.297 181.476H387.284Z" fill="white"/>
<path d="M245.318 234.688C245.318 240.873 249.687 248.458 255.033 251.544L289.782 271.65C295.128 274.736 299.497 272.221 299.497 266.036V225.824C299.497 219.639 295.128 212.067 289.782 208.967L255.033 188.862C249.687 185.776 245.318 188.304 245.318 194.476V234.674V234.688Z" fill="#27ABB0"/>
<path d="M299.491 266.016V225.805C299.491 219.619 295.122 212.047 289.776 208.948L255.027 188.842C252.68 187.483 250.522 187.211 248.826 187.863L254.688 184.274C256.465 183.146 258.962 183.241 261.716 184.845L296.465 204.951C301.811 208.037 306.166 215.623 306.18 221.808V262.019C306.18 265.187 305.027 267.403 303.195 268.381L296.763 272.242C298.446 271.182 299.491 269.048 299.491 266.03V266.016Z" fill="#018489"/>
<path d="M260.827 226.95L263.852 229.982C263.391 231.967 262.618 233.204 261.532 233.666C260.46 234.142 259.076 233.897 257.421 232.932C255.372 231.749 253.676 229.832 252.36 227.195C251.044 224.558 250.379 221.608 250.379 218.359C250.379 214.92 251.044 212.636 252.373 211.494C253.703 210.366 255.44 210.42 257.611 211.671C259.497 212.772 261.03 214.403 262.224 216.578C262.93 217.869 263.459 219.446 263.798 221.295L260.704 220.493C260.515 219.31 260.148 218.25 259.565 217.299C258.981 216.347 258.276 215.626 257.448 215.151C256.308 214.485 255.372 214.498 254.667 215.191C253.961 215.885 253.595 217.448 253.595 219.922C253.595 222.532 253.947 224.599 254.653 226.121C255.359 227.644 256.268 228.718 257.394 229.37C258.221 229.846 258.941 229.9 259.538 229.547C260.135 229.193 260.569 228.323 260.827 226.964V226.95Z" fill="white"/>
<path d="M265.719 230.67L268.758 232.029C268.948 233.497 269.314 234.707 269.87 235.672C270.427 236.637 271.187 237.385 272.136 237.942C273.14 238.527 273.9 238.677 274.402 238.405C274.904 238.133 275.162 237.616 275.162 236.841C275.162 236.352 275.054 235.876 274.837 235.414C274.619 234.952 274.24 234.435 273.71 233.878C273.344 233.497 272.503 232.709 271.214 231.526C269.531 230.003 268.364 228.644 267.686 227.448C266.736 225.762 266.261 224.104 266.261 222.459C266.261 221.398 266.478 220.556 266.926 219.889C267.374 219.223 268.012 218.911 268.853 218.911C269.694 218.911 270.698 219.264 271.892 219.957C273.832 221.086 275.284 222.486 276.275 224.199C277.265 225.912 277.767 227.72 277.822 229.65L274.701 228.032C274.565 226.89 274.28 225.966 273.846 225.246C273.398 224.525 272.747 223.913 271.865 223.41C270.956 222.88 270.25 222.717 269.735 222.921C269.409 223.043 269.233 223.383 269.246 223.913C269.246 224.403 269.396 224.906 269.708 225.436C270.101 226.102 271.065 227.122 272.571 228.481C274.09 229.84 275.216 230.982 275.936 231.92C276.668 232.858 277.238 233.878 277.645 235.006C278.052 236.134 278.269 237.344 278.269 238.663C278.269 239.846 278.012 240.811 277.523 241.558C277.035 242.306 276.343 242.673 275.434 242.66C274.538 242.646 273.412 242.252 272.069 241.463C270.115 240.335 268.622 238.867 267.564 237.045C266.519 235.224 265.895 233.103 265.691 230.683L265.719 230.67Z" fill="white"/>
<path d="M280.133 238.999L283.172 240.359C283.348 241.827 283.728 243.037 284.284 244.002C284.841 244.967 285.601 245.715 286.55 246.272C287.554 246.857 288.314 247.006 288.816 246.734C289.332 246.462 289.576 245.946 289.576 245.185C289.576 244.695 289.468 244.219 289.25 243.757C289.033 243.295 288.667 242.778 288.124 242.221C287.758 241.84 286.917 241.052 285.628 239.869C283.959 238.347 282.778 236.987 282.1 235.791C281.15 234.105 280.675 232.447 280.675 230.816C280.675 229.769 280.892 228.912 281.34 228.246C281.788 227.594 282.426 227.254 283.267 227.267C284.108 227.267 285.112 227.621 286.306 228.314C288.246 229.443 289.698 230.856 290.689 232.556C291.666 234.268 292.181 236.076 292.236 238.007L289.115 236.389C288.979 235.247 288.694 234.323 288.26 233.602C287.812 232.882 287.161 232.27 286.279 231.767C285.37 231.237 284.664 231.074 284.149 231.278C283.823 231.4 283.647 231.74 283.647 232.27C283.647 232.76 283.796 233.262 284.108 233.793C284.502 234.459 285.451 235.478 286.971 236.838C288.491 238.197 289.603 239.339 290.336 240.277C291.069 241.215 291.625 242.235 292.046 243.363C292.453 244.491 292.67 245.701 292.67 247.02C292.67 248.202 292.426 249.168 291.923 249.915C291.435 250.663 290.743 251.03 289.834 251.016C288.925 250.989 287.812 250.595 286.469 249.82C284.515 248.692 283.023 247.224 281.964 245.402C280.919 243.594 280.295 241.46 280.092 239.04L280.133 238.999Z" fill="white"/>
<path opacity="0.7" d="M597.424 441.924C597.424 448.11 601.793 455.682 607.139 458.781L641.888 478.887C647.234 481.973 651.603 479.444 651.603 473.273V433.075C651.603 426.903 647.234 419.317 641.888 416.218L607.139 396.112C601.793 393.026 597.424 395.555 597.424 401.727V441.938V441.924Z" fill="#005FF1"/>
<path d="M651.596 473.262V433.064C651.596 426.893 647.227 419.307 641.881 416.208L607.132 396.102C604.785 394.742 602.628 394.471 600.932 395.123L606.793 391.521C608.571 390.392 611.067 390.501 613.808 392.092L648.557 412.197C653.903 415.283 658.272 422.869 658.272 429.054V469.265C658.272 472.433 657.119 474.635 655.287 475.628L648.855 479.488C650.538 478.428 651.583 476.294 651.583 473.276L651.596 473.262Z" fill="#005FF1"/>
<path d="M616.551 421.22L620.214 423.34V436.663C620.214 438.403 620.078 439.667 619.821 440.442C619.468 441.461 618.817 442.073 617.894 442.277C616.958 442.481 615.723 442.141 614.19 441.244C612.399 440.211 611.015 438.824 610.051 437.098C609.088 435.385 608.6 433.386 608.586 431.143L612.046 432.68C612.087 433.903 612.236 434.855 612.507 435.494C612.901 436.486 613.511 437.206 614.325 437.669C615.153 438.144 615.723 438.212 616.062 437.873C616.401 437.533 616.564 436.5 616.564 434.8V421.22H616.551Z" fill="white"/>
<path d="M622.871 441.534L626.372 442.948C626.521 443.818 626.82 444.593 627.281 445.259C627.729 445.925 628.366 446.496 629.194 446.972C630.103 447.489 630.768 447.693 631.229 447.57C631.541 447.475 631.691 447.203 631.691 446.755C631.691 446.442 631.609 446.143 631.446 445.857C631.27 445.558 630.89 445.164 630.279 444.647C627.471 442.309 625.693 440.624 624.933 439.59C623.889 438.163 623.373 436.722 623.373 435.254C623.373 433.935 623.821 433.092 624.716 432.712C625.625 432.345 627.023 432.698 628.909 433.786C630.714 434.832 632.057 435.947 632.925 437.13C633.794 438.313 634.404 439.672 634.73 441.195L631.446 439.998C631.311 439.319 631.039 438.707 630.646 438.177C630.252 437.633 629.696 437.143 628.963 436.722C628.054 436.192 627.389 435.961 626.996 436.029C626.725 436.083 626.589 436.273 626.589 436.613C626.589 436.899 626.697 437.211 626.942 437.538C627.254 438 628.339 438.992 630.198 440.556C632.057 442.119 633.346 443.465 634.092 444.593C634.811 445.735 635.178 446.945 635.178 448.223C635.178 449.623 634.676 450.534 633.672 450.955C632.667 451.377 631.175 451.009 629.194 449.868C627.403 448.821 625.978 447.597 624.933 446.143C623.889 444.688 623.21 443.166 622.885 441.521L622.871 441.534Z" fill="white"/>
<path d="M143 277.615C143 283.8 147.369 291.372 152.715 294.472L187.464 314.577C192.81 317.663 197.179 315.135 197.179 308.963V268.751C197.179 262.566 192.81 254.994 187.464 251.895L152.715 231.789C147.369 228.703 143 231.232 143 237.403V277.615V277.615Z" fill="#FEBF3E"/>
<path d="M197.176 308.953V268.741C197.176 262.556 192.807 254.984 187.461 251.884L152.713 231.779C150.365 230.419 148.208 230.147 146.525 230.8L152.387 227.197C154.151 226.069 156.647 226.178 159.402 227.768L194.151 247.874C199.497 250.96 203.866 258.545 203.866 264.731V304.942C203.866 308.11 202.712 310.312 200.881 311.304L194.449 315.165C196.132 314.105 197.176 311.97 197.176 308.966V308.953Z" fill="#FE9800"/>
<path d="M148.098 269.347V251.688L150.459 253.061V260.008L155.099 262.686V255.739L157.46 257.112V274.771L155.099 273.398V265.676L150.459 262.998V270.72L148.098 269.347Z" fill="white"/>
<path d="M162.542 277.712V263.044L159.068 261.032V258.041L168.39 263.424V266.415L164.916 264.403V279.071L162.542 277.698V277.712Z" fill="white"/>
<path d="M169.891 281.958V264.299L173.432 266.352L175.562 279.619L177.665 268.799L181.22 270.851V288.51L179.022 287.232V273.339L176.688 285.9L174.409 284.581L172.089 269.342V283.235L169.891 281.958V281.958Z" fill="white"/>
<path d="M183.623 289.897V272.388L185.984 273.761V288.293L191.873 291.692V294.669L183.623 289.897V289.897Z" fill="white"/>
<path d="M600.807 334.22C600.807 340.406 605.176 347.978 610.522 351.077L645.27 371.183C650.616 374.269 654.985 371.74 654.985 365.568V325.357C654.985 319.172 650.616 311.6 645.27 308.5L610.522 288.394C605.176 285.309 600.807 287.837 600.807 294.009V334.22V334.22Z" fill="#FC734A"/>
<path d="M654.983 365.558V325.347C654.983 319.161 650.614 311.589 645.268 308.49L610.519 288.384C608.172 287.025 606.015 286.753 604.332 287.405L610.194 283.803C611.957 282.674 614.468 282.783 617.222 284.374L651.971 304.48C657.317 307.565 661.686 315.151 661.686 321.336V361.534C661.686 364.702 660.532 366.917 658.701 367.896L652.269 371.757C653.952 370.71 654.997 368.562 654.997 365.558H654.983Z" fill="#D64D24"/>
<path d="M618.355 330.672L621.557 334.002C621.069 336.327 620.255 337.782 619.115 338.38C617.975 338.978 616.523 338.774 614.76 337.754C612.589 336.504 610.798 334.383 609.4 331.406C608.003 328.442 607.311 325.071 607.311 321.319C607.311 317.35 608.016 314.671 609.414 313.285C610.825 311.898 612.67 311.871 614.963 313.203C616.971 314.359 618.586 316.167 619.848 318.614C620.594 320.068 621.15 321.849 621.517 323.97L618.247 323.222C618.057 321.876 617.65 320.666 617.039 319.593C616.429 318.519 615.682 317.73 614.8 317.227C613.593 316.52 612.602 316.588 611.842 317.417C611.096 318.247 610.716 320.082 610.716 322.923C610.716 325.941 611.083 328.306 611.829 330.006C612.575 331.719 613.538 332.915 614.732 333.608C615.614 334.111 616.361 334.138 616.998 333.69C617.636 333.241 618.084 332.222 618.355 330.645V330.672Z" fill="white"/>
<path d="M627.96 341.573V335.374L623.672 332.9V328.617L627.96 331.092V324.893L630.822 326.551V332.75L635.124 335.238V339.52L630.822 337.032V343.231L627.96 341.573Z" fill="white"/>
<path d="M641.311 349.28V343.081L637.023 340.607V336.325L641.311 338.799V332.6L644.174 334.245V340.444L648.475 342.932V347.214L644.174 344.726V350.925L641.311 349.267V349.28Z" fill="white"/>
<path d="M518.854 234.668C518.854 240.84 523.223 248.426 528.569 251.525L563.317 271.631C568.663 274.717 573.032 272.188 573.032 266.017V225.805C573.032 219.62 568.663 212.048 563.317 208.948L528.569 188.843C523.223 185.757 518.854 188.285 518.854 194.457V234.668Z" fill="#27ABB0"/>
<path d="M573.024 266.025V225.814C573.024 219.628 568.655 212.057 563.309 208.957L528.56 188.851C526.213 187.492 524.055 187.22 522.359 187.873L528.221 184.27C529.998 183.142 532.495 183.251 535.249 184.841L569.998 204.947C575.344 208.033 579.713 215.618 579.713 221.804V262.015C579.713 265.182 578.56 267.385 576.728 268.377L570.297 272.238C571.979 271.191 573.024 269.043 573.024 266.039V266.025Z" fill="#018489"/>
<path d="M558.037 233.928L556.138 232.827C555.391 232.392 554.645 231.563 554.509 230.978C554.36 230.394 554.279 228.613 554.808 228.3L556.151 227.526C556.68 227.213 556.68 226.22 556.151 225.296L553.939 221.449C553.41 220.525 552.542 220.022 551.999 220.334L550.656 221.109C550.127 221.422 549.353 221.286 548.96 220.837C548.553 220.375 547.413 218.553 547.413 217.683V215.495C547.413 214.625 546.802 213.564 546.056 213.129L542.922 211.321C542.162 210.886 541.551 211.24 541.551 212.11V214.298C541.551 215.168 541.199 215.821 540.778 215.739C540.357 215.671 538.851 214.897 538.322 213.972L536.979 211.648C536.45 210.723 535.581 210.22 535.039 210.533L532.827 211.811C532.298 212.123 532.298 213.129 532.827 214.04L534.17 216.365C534.699 217.289 534.971 218.322 534.781 218.689C534.577 219.043 533.587 219.777 532.827 219.342L530.927 218.241C530.168 217.806 529.557 218.159 529.571 219.029V222.645C529.571 223.515 530.181 224.576 530.927 225.011L532.827 226.112C533.573 226.533 534.319 227.376 534.469 227.961C534.618 228.545 534.699 230.326 534.17 230.639L532.827 231.413C532.298 231.726 532.298 232.732 532.827 233.656L535.039 237.504C535.568 238.428 536.436 238.931 536.965 238.618L538.309 237.843C538.838 237.531 539.611 237.667 540.005 238.129C540.412 238.591 541.538 240.413 541.538 241.269V243.458C541.538 244.328 542.148 245.388 542.908 245.823L546.029 247.631C546.789 248.066 547.399 247.713 547.399 246.843V244.654C547.399 243.784 547.752 243.132 548.186 243.213C548.621 243.295 550.113 244.056 550.642 244.98L551.986 247.305C552.515 248.229 553.397 248.732 553.926 248.42L556.138 247.142C556.667 246.829 556.667 245.823 556.138 244.899L554.794 242.574C554.265 241.65 553.994 240.617 554.184 240.263C554.387 239.91 555.378 239.176 556.138 239.611L558.024 240.698C558.783 241.133 559.394 240.78 559.394 239.91V236.294C559.394 235.424 558.783 234.363 558.024 233.928H558.037ZM544.482 237.395C540.71 235.206 537.644 229.891 537.644 225.514C537.644 221.136 540.71 219.369 544.482 221.558C548.268 223.746 551.334 229.062 551.334 233.439C551.334 237.816 548.268 239.584 544.482 237.395Z" fill="white"/>
<path d="M589.812 539.181C589.812 545.367 594.182 552.938 599.528 556.038L634.276 576.144C639.622 579.23 643.991 576.701 643.991 570.529V530.318C643.991 524.132 639.622 516.561 634.276 513.461L599.528 493.355C594.182 490.269 589.812 492.798 589.812 498.97V539.181Z" fill="#FE769C"/>
<path d="M643.989 570.537V530.326C643.989 524.141 639.62 516.569 634.274 513.469L599.525 493.364C597.178 492.004 595.02 491.732 593.338 492.385L599.199 488.782C600.977 487.654 603.474 487.763 606.228 489.353L640.977 509.459C646.323 512.545 650.678 520.13 650.692 526.316V566.514C650.692 569.681 649.538 571.897 647.693 572.876L641.262 576.736C642.944 575.676 643.989 573.542 643.989 570.537Z" fill="#FF2363"/>
<path d="M629.538 526.505L627.611 523.175L623.188 525.731C623.961 526.75 624.694 527.81 625.345 528.939L629.538 526.505V526.505Z" fill="white"/>
<path d="M609.219 517.659L604.81 509.992L602.883 511.106L607.075 518.379C607.727 518.012 608.446 517.781 609.219 517.659V517.659Z" fill="white"/>
<path d="M617.557 520.241V512.561L614.844 510.984V518.665C615.292 518.868 615.739 519.018 616.201 519.29C616.662 519.562 617.11 519.915 617.557 520.241V520.241Z" fill="white"/>
<path d="M598.729 523.472L603.287 526.11C603.328 525.049 603.477 524.098 603.722 523.214L598.729 520.332V523.472Z" fill="white"/>
<path d="M628.711 537.656C628.955 538.811 629.104 539.94 629.145 541.054L633.704 543.692V540.551L628.711 537.669V537.656Z" fill="white"/>
<path d="M616.194 522.885C610.726 519.731 606.289 522.287 606.289 528.608C606.289 531.599 607.578 534.78 608.894 537.852C610.251 541.033 612.001 543.004 612.001 545.764V551.677C612.001 552.996 612.924 554.6 614.064 555.253L618.311 557.713C619.437 558.366 620.373 557.822 620.373 556.517C620.373 556.517 620.373 552.466 620.373 550.603C620.373 547.83 622.137 547.898 623.48 546.28C624.796 544.731 626.085 543.031 626.085 540.041C626.085 533.719 621.649 526.012 616.18 522.858L616.194 522.885ZM621.54 539.361C621.54 539.361 622.775 534.725 616.995 525.345C616.995 525.345 624.796 530.688 624.566 541.115L621.54 539.361V539.361Z" fill="white"/>
<path opacity="0.7" d="M248.672 107.739C248.672 113.925 253.041 121.51 258.387 124.596L293.136 144.702C298.481 147.788 302.851 145.259 302.851 139.087V98.8759C302.851 92.6906 298.481 85.1186 293.136 82.0192L258.373 61.9134C253.027 58.8276 248.658 61.3561 248.658 67.5278V107.726L248.672 107.739Z" fill="#005FF1"/>
<path d="M302.835 139.082V98.8846C302.835 92.6993 298.466 85.1273 293.12 82.0279L258.371 61.9221C256.023 60.5627 253.866 60.2908 252.184 60.9433L258.032 57.3409C259.809 56.2126 262.306 56.3213 265.06 57.9118L299.809 78.0176C305.155 81.1035 309.524 88.689 309.524 94.8743V135.072C309.524 138.24 308.37 140.455 306.539 141.434L300.107 145.295C301.79 144.235 302.835 142.1 302.835 139.096V139.082Z" fill="#005FF1"/>
<path d="M289.173 97.1396C284.248 88.616 276.297 84.0076 271.385 86.8488C266.785 89.5132 266.554 97.7649 270.584 105.813L268.481 107.023L267.599 105.486L257.803 111.142L261.371 117.327L271.168 111.672L270.286 110.136L272.389 108.926C277.328 116.443 284.587 120.372 289.187 117.708C294.098 114.866 294.098 105.663 289.187 97.1396H289.173ZM286.893 113.765C283.244 115.886 277.314 112.447 273.664 106.112C270.001 99.7632 270.014 92.9118 273.664 90.8047C277.328 88.6976 283.244 92.1233 286.893 98.4582C290.543 104.793 290.543 111.645 286.893 113.765Z" fill="white"/>
<path opacity="0.7" d="M440.102 229.738C440.102 232.335 441.933 235.529 444.186 236.821L458.799 245.276C461.051 246.581 462.883 245.508 462.883 242.911V226C462.883 223.403 461.051 220.209 458.799 218.917L444.186 210.462C441.947 209.157 440.102 210.231 440.102 212.827V229.738Z" fill="#005FF1"/>
<path opacity="0.7" d="M200.898 165.749C200.898 168.346 202.744 171.54 204.983 172.832L219.596 181.287C221.848 182.592 223.68 181.518 223.68 178.922V162.011C223.68 159.414 221.848 156.22 219.596 154.928L204.983 146.473C202.73 145.168 200.898 146.241 200.898 148.838V165.749V165.749Z" fill="#005FF1"/>
<path opacity="0.7" d="M678.539 522.098C678.539 524.694 680.371 527.889 682.623 529.18L697.236 537.636C699.489 538.941 701.32 537.867 701.32 535.27V518.359C701.32 515.763 699.489 512.568 697.236 511.277L682.623 502.821C680.384 501.516 678.539 502.59 678.539 505.187V522.098Z" fill="#005FF1"/>
<path opacity="0.7" d="M608.844 258.587C608.844 261.184 610.689 264.379 612.928 265.67L627.541 274.126C629.793 275.431 631.625 274.357 631.625 271.76V254.849C631.625 252.253 629.793 249.058 627.541 247.766L612.928 239.311C610.676 238.006 608.844 239.066 608.844 241.676V258.587Z" fill="#005FF1"/>
<path opacity="0.7" d="M515.283 287.205C515.283 289.802 517.129 292.996 519.367 294.288L533.98 302.743C536.233 304.048 538.065 302.974 538.065 300.378V283.467C538.065 280.87 536.233 277.676 533.98 276.384L519.367 267.929C517.115 266.624 515.283 267.684 515.283 270.294V287.205Z" fill="#005FF1"/>
<path d="M559.044 467.455C559.044 459.897 553.698 456.811 547.172 460.59L461.107 510.372V518.488L541.921 471.751C547.715 468.407 552.45 471.139 552.45 477.841V580.178C552.45 586.866 547.715 595.091 541.935 598.448L461.121 645.199V653.314L547.186 603.533C553.712 599.753 559.058 590.482 559.058 582.924V467.483L559.044 467.455Z" fill="#005FF1"/>
<path fill-rule="evenodd" clip-rule="evenodd" d="M288.836 610.784L287.507 619.701C287.507 619.701 286.896 625.615 294.169 626.281C301.442 626.947 304.115 622.053 306.272 618.532C308.429 615.025 313.748 607.82 319.501 606.787C325.241 605.767 336.014 596.496 333.653 590.719C331.604 585.703 319.298 583.922 307.208 591.942V595.178C307.208 595.178 307.208 603.144 300.546 606.569C293.884 609.995 288.864 610.784 288.864 610.784H288.836Z" fill="#25228C"/>
<path d="M311.77 558.875C311.783 558.413 311.81 557.924 311.824 557.421C302.869 560.996 292.408 565.197 282.068 569.425L287.482 612.137C287.482 612.137 300.44 617.697 308.975 608.385C317.509 599.073 315.297 587.94 315.297 587.94C315.297 587.94 311.349 568.663 311.756 558.875H311.77Z" fill="#0B53FF"/>
<path fill-rule="evenodd" clip-rule="evenodd" d="M375.768 619.94C367.505 620.049 360.327 624.236 351.44 618.472C351.44 618.472 344.94 625.65 329.337 626.479L326.745 632.488C326.745 632.488 324.466 637.205 324.574 644.151C324.574 644.151 327.613 651.329 337.369 649.793C347.125 648.257 349.662 645.144 361.317 646.272C371.575 647.251 386.568 642.14 390.693 632.841C394.818 623.543 384.899 619.832 375.795 619.94H375.768Z" fill="#25228C"/>
<path d="M336.195 547.804C336.195 547.804 329.343 555.715 330.211 568.208C331.079 580.701 326.168 627.288 323.291 639.469C323.291 639.469 347.47 640.733 357.809 634.493C368.148 628.24 364.159 622.299 364.159 622.299C364.159 622.299 361.825 605.701 362.979 594.146C364.132 582.591 372.87 542.869 374.756 525.577C374.756 525.577 376.452 513.329 367.524 514.607C358.596 515.884 343.996 531.395 336.208 547.804H336.195Z" fill="#1F74FF"/>
<path d="M341.147 563.55C340.699 550.785 344.553 544.314 344.553 544.314C340.306 546.965 336.195 547.794 336.195 547.794C336.195 547.794 329.343 555.706 330.211 568.199C331.079 580.692 326.168 627.279 323.291 639.459C323.291 639.459 332.463 639.935 341.92 638.848C343.996 614.446 341.527 574.004 341.161 563.55H341.147Z" fill="#0B53FF"/>
<path d="M173.037 567.243C173.037 567.243 171.083 576.827 179.875 585.214C188.681 593.602 209.658 607.319 223.782 610.037C237.921 612.756 266.822 606.014 281.38 599.366C295.939 592.718 328.992 572.028 334.637 567.243C340.281 562.458 342.683 557.319 341.475 552.697C340.281 548.075 331.041 545.03 328.002 544.051C324.962 543.073 296.156 529.247 287.351 522.491C278.545 515.735 270.064 509.645 267.242 506.491C264.42 503.323 256.917 497.994 242.9 501.271C228.871 504.533 208.016 514.552 192.249 533.285C176.483 552.018 173.009 567.257 173.009 567.257L173.037 567.243Z" fill="#018489"/>
<path d="M341.489 552.702C341.109 551.261 339.969 549.97 338.463 548.855C339.073 550.527 339.263 552.321 338.232 553.749C335.627 557.338 317.255 570.524 303.131 577.811C289.006 585.111 263.457 601.872 237.704 603.068C237.704 603.068 219.739 599.955 198.423 588.36C183.24 580.094 176.727 569.097 174.217 563.442C173.349 565.861 173.037 567.248 173.037 567.248C173.037 567.248 171.083 576.832 179.875 585.219C188.681 593.607 209.658 607.323 223.782 610.042C237.921 612.761 266.822 606.018 281.38 599.371C295.939 592.723 328.992 572.033 334.637 567.248C340.281 562.463 342.683 557.324 341.475 552.702H341.489Z" fill="#004F49"/>
<path d="M336.192 547.797C336.192 547.797 305.31 559.855 277.386 571.356C250.643 582.354 234.822 577.664 224.212 566.027C209.965 550.394 216.369 516.15 216.369 516.15L278.472 511.039C278.472 511.039 333.03 500.884 354.292 500.259C375.554 499.633 375.608 517.482 374.726 525.571C374.726 525.571 367.182 538.975 336.178 547.797H336.192Z" fill="#1F74FF"/>
<path d="M579.102 453.824L427.19 541.927L173.121 394.662L325.047 311.099L579.102 453.824Z" fill="#94D2FF"/>
<path d="M579.113 460.486L427.201 548.59V541.929L579.113 453.825V460.486Z" fill="#005FF1"/>
<path d="M427.19 541.928V548.589L173.121 401.324V394.663L427.19 541.928Z" fill="#002DBF"/>
<path d="M379.899 471.452C379.152 471.874 377.945 471.874 377.199 471.452L268.081 408.335C267.335 407.9 267.335 407.207 268.081 406.772L302.654 386.775C303.4 386.353 304.607 386.353 305.354 386.775L414.471 449.892C415.217 450.327 415.217 451.02 414.471 451.455L379.899 471.452V471.452Z" fill="#E1E8EC"/>
<path d="M414.47 451.436L379.898 471.433C379.152 471.854 377.944 471.854 377.198 471.433L268.081 408.315C267.714 408.098 267.524 407.812 267.524 407.541V409.349C267.497 409.648 267.673 409.96 268.081 410.191L377.198 473.309C377.944 473.73 379.152 473.73 379.898 473.309L414.47 453.312C414.837 453.094 415.027 452.809 415.027 452.537V450.729C414.999 450.987 414.81 451.246 414.47 451.45V451.436Z" fill="#6392AD"/>
<path d="M296.764 397.993C296.574 398.088 296.276 398.088 296.086 397.993L293.549 396.511C293.359 396.402 293.359 396.225 293.549 396.117L296.086 394.648C296.276 394.54 296.574 394.54 296.764 394.648L299.302 396.117C299.492 396.225 299.492 396.402 299.302 396.511L296.764 397.993Z" fill="#95C4DF"/>
<path d="M301.153 400.517C300.963 400.625 300.665 400.625 300.488 400.517L297.951 399.048C297.761 398.94 297.761 398.763 297.951 398.654L300.488 397.186C300.665 397.077 300.977 397.077 301.153 397.186L303.691 398.654C303.88 398.763 303.88 398.94 303.691 399.048L301.153 400.517Z" fill="#95C4DF"/>
<path d="M305.516 403.054C305.34 403.163 305.028 403.163 304.838 403.054L302.3 401.586C302.124 401.477 302.124 401.301 302.3 401.192L304.838 399.724C305.028 399.615 305.326 399.615 305.516 399.724L308.053 401.192C308.243 401.301 308.243 401.477 308.053 401.586L305.516 403.054Z" fill="#95C4DF"/>
<path d="M309.891 405.591C309.701 405.7 309.403 405.7 309.213 405.591L306.676 404.123C306.486 404.014 306.486 403.838 306.676 403.729L309.213 402.261C309.403 402.152 309.701 402.152 309.891 402.261L312.429 403.729C312.619 403.838 312.619 404.014 312.429 404.123L309.891 405.591Z" fill="#95C4DF"/>
<path d="M314.258 408.11C314.068 408.219 313.77 408.219 313.58 408.11L311.042 406.642C310.866 406.533 310.866 406.356 311.042 406.247L313.58 404.779C313.77 404.671 314.068 404.671 314.258 404.779L316.795 406.247C316.985 406.356 316.985 406.533 316.795 406.642L314.258 408.11V408.11Z" fill="#95C4DF"/>
<path d="M318.651 410.647C318.461 410.756 318.163 410.756 317.973 410.647L315.435 409.179C315.245 409.071 315.245 408.894 315.435 408.785L317.973 407.317C318.149 407.208 318.461 407.208 318.651 407.317L321.188 408.785C321.378 408.894 321.378 409.071 321.188 409.166L318.651 410.634V410.647Z" fill="#95C4DF"/>
<path d="M323.025 413.185C322.835 413.293 322.537 413.293 322.347 413.185L319.809 411.716C319.619 411.608 319.633 411.431 319.809 411.322L322.347 409.854C322.537 409.745 322.835 409.745 323.025 409.854L325.562 411.322C325.752 411.431 325.752 411.608 325.562 411.703L323.025 413.171V413.185Z" fill="#95C4DF"/>
<path d="M327.395 415.703C327.205 415.812 326.907 415.812 326.717 415.703L324.18 414.235C323.99 414.126 323.99 413.949 324.18 413.841L326.717 412.373C326.907 412.264 327.205 412.264 327.395 412.373L329.933 413.841C330.123 413.949 330.123 414.113 329.933 414.235L327.395 415.703Z" fill="#95C4DF"/>
<path d="M331.764 418.24C331.574 418.349 331.262 418.349 331.086 418.24L328.548 416.772C328.372 416.663 328.372 416.487 328.548 416.378L331.086 414.91C331.276 414.801 331.574 414.801 331.764 414.91L334.301 416.378C334.491 416.487 334.491 416.663 334.301 416.772L331.764 418.24Z" fill="#95C4DF"/>
<path d="M336.141 420.759C335.951 420.868 335.652 420.868 335.462 420.759L332.912 419.291C332.735 419.182 332.735 419.005 332.912 418.896L335.462 417.428C335.639 417.319 335.951 417.319 336.141 417.428L338.678 418.896C338.868 419.005 338.868 419.182 338.678 419.291L336.141 420.759Z" fill="#95C4DF"/>
<path d="M340.526 423.296C340.336 423.405 340.037 423.405 339.847 423.296L337.31 421.828C337.134 421.719 337.134 421.543 337.31 421.434L339.847 419.966C340.037 419.857 340.336 419.857 340.526 419.966L343.063 421.434C343.253 421.543 343.253 421.719 343.063 421.828L340.526 423.296Z" fill="#95C4DF"/>
<path d="M384.934 448.995C384.758 449.104 384.446 449.104 384.256 448.995L381.719 447.527C381.529 447.418 381.529 447.241 381.719 447.133L384.256 445.665C384.432 445.556 384.744 445.556 384.934 445.665L387.485 447.133C387.662 447.241 387.662 447.418 387.485 447.527L384.934 448.995Z" fill="#95C4DF"/>
<path d="M389.319 451.533C389.129 451.642 388.831 451.642 388.641 451.533L386.103 450.065C385.913 449.956 385.913 449.779 386.103 449.67L388.641 448.202C388.831 448.093 389.129 448.093 389.319 448.202L391.856 449.67C392.046 449.779 392.046 449.956 391.856 450.065L389.319 451.533Z" fill="#95C4DF"/>
<path d="M393.698 454.051C393.508 454.16 393.21 454.16 393.02 454.051L390.482 452.583C390.292 452.474 390.292 452.298 390.482 452.189L393.02 450.721C393.196 450.612 393.508 450.612 393.698 450.721L396.235 452.189C396.425 452.298 396.425 452.474 396.235 452.583L393.698 454.051Z" fill="#95C4DF"/>
<path d="M398.057 456.588C397.867 456.697 397.569 456.697 397.392 456.588L394.855 455.12C394.679 455.012 394.679 454.835 394.855 454.726L397.392 453.258C397.582 453.149 397.881 453.149 398.057 453.258L400.594 454.726C400.784 454.835 400.784 455.012 400.594 455.12L398.057 456.588Z" fill="#95C4DF"/>
<path d="M380.499 451.57C380.309 451.679 380.01 451.679 379.82 451.57L377.283 450.102C377.093 449.993 377.093 449.817 377.283 449.708L379.82 448.24C380.01 448.131 380.309 448.131 380.499 448.24L383.036 449.708C383.226 449.817 383.226 449.993 383.036 450.102L380.499 451.57Z" fill="#95C4DF"/>
<path d="M384.897 454.108C384.707 454.217 384.409 454.217 384.219 454.108L381.682 452.64C381.492 452.531 381.492 452.355 381.682 452.246L384.219 450.778C384.409 450.669 384.707 450.669 384.897 450.778L387.435 452.246C387.624 452.355 387.624 452.531 387.435 452.64L384.897 454.108Z" fill="#95C4DF"/>
<path d="M389.268 456.627C389.078 456.735 388.78 456.735 388.604 456.627L386.066 455.158C385.876 455.05 385.876 454.873 386.066 454.764L388.604 453.296C388.794 453.187 389.092 453.187 389.268 453.296L391.806 454.764C391.996 454.873 391.996 455.05 391.806 455.158L389.268 456.627Z" fill="#95C4DF"/>
<path d="M376.069 454.146C375.879 454.255 375.58 454.255 375.39 454.146L372.853 452.678C372.677 452.569 372.677 452.392 372.853 452.284L375.39 450.815C375.58 450.707 375.879 450.707 376.069 450.815L378.62 452.284C378.796 452.392 378.796 452.569 378.62 452.678L376.069 454.146Z" fill="#95C4DF"/>
<path d="M380.462 456.665C380.272 456.773 379.973 456.773 379.783 456.665L377.246 455.196C377.056 455.088 377.056 454.911 377.246 454.802L379.783 453.334C379.973 453.225 380.272 453.225 380.462 453.334L382.999 454.802C383.175 454.911 383.175 455.088 382.999 455.196L380.462 456.665Z" fill="#95C4DF"/>
<path d="M384.827 459.202C384.651 459.311 384.339 459.311 384.162 459.202L381.625 457.734C381.435 457.625 381.435 457.449 381.625 457.34L384.162 455.872C384.352 455.763 384.651 455.763 384.827 455.872L387.378 457.34C387.554 457.449 387.554 457.625 387.378 457.734L384.827 459.202Z" fill="#95C4DF"/>
<path d="M389.19 461.72C389 461.829 388.702 461.829 388.525 461.72L385.988 460.252C385.798 460.143 385.798 459.966 385.988 459.857L392.962 455.834C393.152 455.725 393.451 455.725 393.641 455.834L396.178 457.302C396.354 457.41 396.354 457.587 396.178 457.696L389.204 461.733L389.19 461.72Z" fill="#95C4DF"/>
<path d="M371.653 456.703C371.463 456.812 371.164 456.812 370.974 456.703L368.437 455.235C368.261 455.126 368.261 454.949 368.437 454.841L370.974 453.373C371.164 453.264 371.463 453.264 371.653 453.373L374.19 454.841C374.38 454.949 374.38 455.126 374.19 455.235L371.653 456.703Z" fill="#95C4DF"/>
<path d="M376.022 459.24C375.832 459.349 375.534 459.349 375.344 459.24L372.807 457.758C372.617 457.65 372.617 457.473 372.807 457.378L375.344 455.91C375.534 455.801 375.832 455.801 376.022 455.91L378.56 457.378C378.75 457.487 378.75 457.663 378.56 457.772L376.022 459.24V459.24Z" fill="#95C4DF"/>
<path d="M380.387 461.759C380.198 461.868 379.899 461.868 379.709 461.759L377.172 460.291C376.982 460.182 376.982 460.005 377.172 459.896L379.709 458.428C379.899 458.319 380.198 458.319 380.387 458.428L382.925 459.896C383.115 460.005 383.115 460.182 382.925 460.291L380.387 461.759Z" fill="#95C4DF"/>
<path d="M371.474 461.734C371.298 461.843 370.986 461.843 370.809 461.734L363.984 457.792C363.794 457.683 363.794 457.506 363.984 457.397L366.522 455.929C366.712 455.82 367.01 455.82 367.186 455.929L374.011 459.872C374.201 459.98 374.201 460.157 374.011 460.266L371.474 461.734Z" fill="#95C4DF"/>
<path d="M375.944 464.315C375.754 464.424 375.456 464.424 375.266 464.315L372.728 462.847C372.538 462.738 372.538 462.561 372.728 462.453L375.266 460.984C375.456 460.876 375.754 460.876 375.944 460.984L378.481 462.453C378.671 462.561 378.671 462.738 378.481 462.847L375.944 464.315Z" fill="#95C4DF"/>
<path d="M380.329 466.846C380.139 466.955 379.84 466.955 379.65 466.846L377.113 465.378C376.923 465.269 376.923 465.093 377.113 464.984L384.087 460.946C384.277 460.838 384.576 460.838 384.766 460.946L387.303 462.415C387.493 462.523 387.493 462.7 387.303 462.809L380.329 466.846Z" fill="#95C4DF"/>
<path d="M344.899 425.82C344.723 425.929 344.411 425.929 344.221 425.82L341.683 424.352C341.494 424.244 341.494 424.067 341.683 423.972L344.221 422.503C344.411 422.395 344.709 422.395 344.899 422.503L347.437 423.972C347.626 424.08 347.626 424.257 347.437 424.352L344.899 425.82Z" fill="#95C4DF"/>
<path d="M367.606 438.965C367.416 439.074 367.118 439.074 366.941 438.965L364.404 437.497C364.214 437.388 364.214 437.225 364.404 437.117L366.941 435.648C367.118 435.54 367.43 435.54 367.606 435.648L370.144 437.117C370.334 437.225 370.334 437.402 370.144 437.497L367.606 438.965Z" fill="#95C4DF"/>
<path d="M371.975 441.498C371.799 441.606 371.486 441.606 371.297 441.498L368.759 440.029C368.583 439.921 368.583 439.744 368.759 439.635L371.31 438.167C371.487 438.058 371.799 438.058 371.975 438.167L374.512 439.635C374.702 439.744 374.702 439.921 374.512 440.029L371.975 441.498Z" fill="#95C4DF"/>
<path d="M376.346 444.035C376.157 444.143 375.858 444.143 375.668 444.035L373.131 442.567C372.941 442.458 372.941 442.281 373.131 442.172L375.668 440.704C375.858 440.595 376.157 440.595 376.346 440.704L378.884 442.172C379.074 442.281 379.074 442.458 378.884 442.567L376.346 444.035Z" fill="#95C4DF"/>
<path d="M363.167 441.535C362.977 441.644 362.678 441.644 362.488 441.535L359.951 440.067C359.761 439.958 359.761 439.782 359.951 439.673L362.488 438.205C362.678 438.096 362.977 438.096 363.167 438.205L365.704 439.673C365.88 439.782 365.88 439.958 365.704 440.067L363.167 441.535Z" fill="#95C4DF"/>
<path d="M367.524 444.059C367.348 444.168 367.036 444.168 366.846 444.059L364.308 442.591C364.119 442.482 364.119 442.306 364.308 442.21L366.846 440.742C367.036 440.633 367.348 440.633 367.524 440.742L370.062 442.21C370.251 442.319 370.251 442.496 370.062 442.591L367.524 444.059Z" fill="#95C4DF"/>
<path d="M371.928 446.591C371.739 446.7 371.44 446.7 371.25 446.591L368.713 445.123C368.523 445.014 368.523 444.837 368.713 444.728L371.25 443.26C371.426 443.152 371.739 443.152 371.928 443.26L374.466 444.728C374.656 444.837 374.656 445.014 374.466 445.123L371.928 446.591Z" fill="#95C4DF"/>
<path d="M358.69 449.186C358.5 449.295 358.202 449.295 358.012 449.186L355.474 447.718C355.285 447.609 355.285 447.432 355.474 447.324L358.012 445.855C358.202 445.747 358.5 445.747 358.69 445.855L361.228 447.324C361.417 447.432 361.417 447.609 361.228 447.718L358.69 449.186Z" fill="#95C4DF"/>
<path d="M349.889 449.224C349.699 449.333 349.401 449.333 349.211 449.224L346.674 447.756C346.484 447.647 346.484 447.47 346.674 447.362L349.211 445.894C349.401 445.785 349.699 445.785 349.889 445.894L352.427 447.362C352.617 447.47 352.617 447.647 352.427 447.756L349.889 449.224Z" fill="#95C4DF"/>
<path d="M354.264 451.742C354.074 451.851 353.776 451.851 353.586 451.742L351.048 450.274C350.872 450.165 350.872 449.989 351.048 449.88L353.586 448.412C353.776 448.303 354.074 448.303 354.264 448.412L356.801 449.88C356.991 449.989 356.991 450.165 356.801 450.274L354.264 451.742Z" fill="#95C4DF"/>
<path d="M358.634 454.28C358.444 454.389 358.145 454.389 357.955 454.28L355.418 452.812C355.228 452.703 355.228 452.526 355.418 452.417L357.955 450.949C358.145 450.84 358.444 450.84 358.634 450.949L361.171 452.417C361.347 452.526 361.347 452.703 361.171 452.812L358.634 454.28Z" fill="#95C4DF"/>
<path d="M298.897 404.351C298.707 404.46 298.409 404.46 298.219 404.351L295.682 402.883C295.492 402.774 295.492 402.597 295.682 402.489L298.219 401.021C298.409 400.912 298.707 400.912 298.897 401.021L301.435 402.489C301.625 402.597 301.625 402.774 301.435 402.883L298.897 404.351Z" fill="#95C4DF"/>
<path d="M294.601 401.86C294.411 401.969 294.112 401.969 293.922 401.86L289.133 399.087C288.943 398.978 288.943 398.801 289.133 398.692L291.67 397.224C291.86 397.115 292.158 397.115 292.348 397.224L297.138 399.997C297.328 400.106 297.328 400.283 297.138 400.392L294.601 401.86Z" fill="#95C4DF"/>
<path d="M303.278 406.889C303.088 406.997 302.79 406.997 302.6 406.889L300.062 405.42C299.872 405.312 299.872 405.135 300.062 405.026L302.6 403.558C302.79 403.449 303.088 403.449 303.278 403.558L305.815 405.026C306.005 405.135 306.005 405.312 305.815 405.42L303.278 406.889Z" fill="#95C4DF"/>
<path d="M307.641 409.407C307.451 409.516 307.153 409.516 306.963 409.407L304.426 407.939C304.236 407.83 304.236 407.654 304.426 407.545L306.963 406.077C307.153 405.968 307.451 405.968 307.641 406.077L310.179 407.545C310.355 407.654 310.355 407.83 310.179 407.939L307.641 409.407Z" fill="#95C4DF"/>
<path d="M312.024 411.945C311.848 412.054 311.536 412.054 311.346 411.945L308.808 410.477C308.619 410.368 308.619 410.191 308.808 410.082L311.346 408.614C311.536 408.506 311.834 408.506 312.024 408.614L314.575 410.082C314.751 410.191 314.751 410.368 314.575 410.477L312.024 411.945Z" fill="#95C4DF"/>
<path d="M316.401 414.482C316.211 414.591 315.913 414.591 315.723 414.482L313.185 413.014C312.995 412.906 312.995 412.729 313.185 412.62L315.723 411.152C315.913 411.043 316.211 411.043 316.401 411.152L318.938 412.62C319.128 412.729 319.128 412.906 318.938 413.014L316.401 414.482V414.482Z" fill="#95C4DF"/>
<path d="M320.768 417.001C320.578 417.109 320.28 417.109 320.104 417.001L317.566 415.532C317.376 415.424 317.376 415.247 317.566 415.138L320.104 413.67C320.28 413.561 320.592 413.561 320.782 413.67L323.319 415.138C323.496 415.247 323.496 415.424 323.319 415.532L320.782 417.001H320.768Z" fill="#95C4DF"/>
<path d="M325.151 419.538C324.961 419.647 324.662 419.647 324.472 419.538L321.935 418.07C321.759 417.961 321.759 417.784 321.935 417.676L324.472 416.208C324.662 416.099 324.961 416.099 325.151 416.208L327.688 417.676C327.878 417.784 327.878 417.961 327.688 418.07L325.151 419.538Z" fill="#95C4DF"/>
<path d="M329.507 422.075C329.317 422.184 329.018 422.184 328.828 422.075L326.291 420.607C326.101 420.498 326.101 420.322 326.291 420.213L328.828 418.745C329.005 418.636 329.317 418.636 329.507 418.745L332.044 420.213C332.234 420.322 332.234 420.498 332.044 420.607L329.507 422.075Z" fill="#95C4DF"/>
<path d="M333.89 424.594C333.7 424.703 333.401 424.703 333.225 424.594L330.687 423.126C330.497 423.017 330.497 422.84 330.687 422.731L333.225 421.263C333.415 421.154 333.713 421.154 333.89 421.263L336.427 422.731C336.617 422.84 336.617 423.017 336.427 423.126L333.89 424.594Z" fill="#95C4DF"/>
<path d="M338.27 427.131C338.08 427.24 337.782 427.24 337.592 427.131L335.055 425.649C334.865 425.54 334.865 425.364 335.055 425.268L337.592 423.8C337.782 423.692 338.08 423.692 338.27 423.8L340.808 425.268C340.984 425.377 340.984 425.554 340.808 425.649L338.27 427.117V427.131Z" fill="#95C4DF"/>
<path d="M342.643 429.649C342.467 429.758 342.155 429.758 341.978 429.649L339.441 428.181C339.264 428.073 339.264 427.896 339.441 427.787L341.978 426.319C342.168 426.21 342.467 426.21 342.643 426.319L345.194 427.787C345.37 427.896 345.37 428.073 345.194 428.181L342.643 429.649Z" fill="#95C4DF"/>
<path d="M347.014 432.187C346.824 432.296 346.526 432.296 346.336 432.187L343.799 430.719C343.609 430.61 343.609 430.433 343.799 430.325L346.336 428.856C346.526 428.748 346.824 428.748 347.014 428.856L349.552 430.325C349.742 430.433 349.742 430.61 349.552 430.719L347.014 432.187Z" fill="#95C4DF"/>
<path d="M354.501 436.53C354.311 436.639 354.012 436.639 353.822 436.53L348.232 433.295C348.042 433.186 348.042 433.009 348.232 432.9L350.77 431.432C350.96 431.323 351.258 431.323 351.448 431.432L357.038 434.668C357.228 434.776 357.228 434.953 357.038 435.048L354.501 436.516V436.53Z" fill="#95C4DF"/>
<path d="M296.649 408.186C296.459 408.295 296.161 408.295 295.971 408.186L293.433 406.718C293.244 406.609 293.244 406.432 293.433 406.324L295.971 404.855C296.147 404.747 296.459 404.747 296.649 404.855L299.187 406.324C299.376 406.432 299.376 406.609 299.187 406.718L296.649 408.186Z" fill="#95C4DF"/>
<path d="M292.273 405.667C292.083 405.776 291.784 405.776 291.594 405.667L284.769 401.725C284.579 401.616 284.579 401.439 284.769 401.344L287.307 399.876C287.497 399.767 287.795 399.767 287.985 399.876L294.81 403.818C295 403.927 295 404.104 294.81 404.213L292.273 405.681V405.667Z" fill="#95C4DF"/>
<path d="M301.018 410.724C300.828 410.832 300.53 410.832 300.354 410.724L297.816 409.255C297.626 409.147 297.626 408.97 297.816 408.861L300.354 407.393C300.53 407.284 300.842 407.284 301.018 407.393L303.556 408.861C303.746 408.97 303.746 409.147 303.556 409.255L301.018 410.724Z" fill="#95C4DF"/>
<path d="M305.391 413.242C305.201 413.35 304.903 413.35 304.713 413.242L302.176 411.774C301.986 411.665 301.986 411.488 302.176 411.379L304.713 409.911C304.903 409.802 305.201 409.802 305.391 409.911L307.929 411.379C308.119 411.488 308.119 411.665 307.929 411.774L305.391 413.242Z" fill="#95C4DF"/>
<path d="M309.776 415.785C309.586 415.894 309.288 415.894 309.098 415.785L306.56 414.317C306.37 414.208 306.37 414.031 306.56 413.936L309.098 412.468C309.288 412.359 309.586 412.359 309.776 412.468L312.313 413.936C312.503 414.045 312.503 414.221 312.313 414.317L309.776 415.785Z" fill="#95C4DF"/>
<path d="M314.141 418.298C313.951 418.407 313.653 418.407 313.463 418.298L310.925 416.83C310.749 416.721 310.749 416.544 310.925 416.435L313.463 414.967C313.653 414.859 313.951 414.859 314.141 414.967L316.678 416.435C316.868 416.544 316.868 416.721 316.678 416.83L314.141 418.298V418.298Z" fill="#95C4DF"/>
<path d="M318.512 420.854C318.322 420.963 318.024 420.963 317.847 420.854L315.31 419.386C315.134 419.278 315.134 419.101 315.31 418.992L317.847 417.524C318.024 417.415 318.336 417.415 318.512 417.524L321.049 418.992C321.239 419.101 321.239 419.278 321.049 419.386L318.512 420.854Z" fill="#95C4DF"/>
<path d="M322.895 423.373C322.719 423.481 322.407 423.481 322.217 423.373L319.68 421.904C319.49 421.796 319.49 421.619 319.68 421.51L322.217 420.042C322.407 419.933 322.705 419.933 322.895 420.042L325.433 421.51C325.623 421.619 325.623 421.796 325.433 421.904L322.895 423.373Z" fill="#95C4DF"/>
<path d="M327.266 425.891C327.077 426 326.778 426 326.602 425.891L324.064 424.423C323.874 424.314 323.874 424.137 324.064 424.029L326.602 422.561C326.778 422.452 327.09 422.452 327.266 422.561L329.804 424.029C329.994 424.137 329.994 424.314 329.804 424.423L327.266 425.891Z" fill="#95C4DF"/>
<path d="M331.627 428.429C331.451 428.538 331.139 428.538 330.949 428.429L328.412 426.961C328.235 426.852 328.235 426.675 328.412 426.566L330.949 425.098C331.139 424.989 331.437 424.989 331.627 425.098L334.165 426.566C334.355 426.675 334.355 426.852 334.165 426.961L331.627 428.429Z" fill="#95C4DF"/>
<path d="M336.022 430.966C335.832 431.075 335.534 431.075 335.344 430.966L332.807 429.498C332.617 429.389 332.617 429.212 332.807 429.103L335.344 427.635C335.534 427.527 335.832 427.527 336.022 427.635L338.56 429.103C338.736 429.212 338.736 429.389 338.56 429.498L336.022 430.966Z" fill="#95C4DF"/>
<path d="M340.384 433.484C340.194 433.593 339.895 433.593 339.705 433.484L337.168 432.016C336.978 431.907 336.978 431.731 337.168 431.622L339.705 430.154C339.895 430.045 340.194 430.045 340.384 430.154L342.921 431.622C343.111 431.731 343.111 431.907 342.921 432.016L340.384 433.484Z" fill="#95C4DF"/>
<path d="M350.063 439.089C349.886 439.198 349.574 439.198 349.384 439.089L341.664 434.63C341.474 434.521 341.474 434.345 341.664 434.236L344.201 432.768C344.391 432.659 344.69 432.659 344.88 432.768L352.6 437.226C352.776 437.335 352.776 437.512 352.6 437.621L350.063 439.089Z" fill="#95C4DF"/>
<path d="M294.042 411.888C293.852 411.996 293.553 411.996 293.363 411.888L290.826 410.42C290.636 410.311 290.636 410.134 290.826 410.025L293.363 408.557C293.553 408.448 293.852 408.448 294.042 408.557L296.579 410.025C296.755 410.134 296.755 410.311 296.579 410.42L294.042 411.888Z" fill="#95C4DF"/>
<path d="M289.621 409.334C289.431 409.442 289.132 409.442 288.942 409.334L280.367 404.372C280.177 404.263 280.177 404.086 280.367 403.977L282.904 402.509C283.094 402.401 283.393 402.401 283.583 402.509L292.158 407.471C292.348 407.58 292.348 407.757 292.158 407.865L289.621 409.334Z" fill="#95C4DF"/>
<path d="M298.399 414.425C298.209 414.534 297.911 414.534 297.721 414.425L295.183 412.957C294.994 412.848 294.994 412.671 295.183 412.562L297.721 411.094C297.911 410.986 298.209 410.986 298.399 411.094L300.937 412.562C301.126 412.671 301.126 412.848 300.937 412.957L298.399 414.425Z" fill="#95C4DF"/>
<path d="M302.784 416.943C302.608 417.052 302.295 417.052 302.106 416.943L299.568 415.475C299.378 415.366 299.378 415.189 299.568 415.08L302.106 413.612C302.295 413.504 302.594 413.504 302.784 413.612L305.321 415.08C305.511 415.189 305.511 415.366 305.321 415.475L302.784 416.943Z" fill="#95C4DF"/>
<path d="M279.856 408.902C279.666 409.011 279.368 409.011 279.178 408.902L275.853 406.985C275.663 406.877 275.663 406.7 275.853 406.591L278.391 405.123C278.581 405.014 278.879 405.014 279.069 405.123L282.38 407.04C282.57 407.149 282.57 407.325 282.38 407.434L279.843 408.902H279.856Z" fill="#95C4DF"/>
<path d="M285.016 411.878C284.826 411.987 284.528 411.987 284.338 411.878L281.014 409.961C280.824 409.852 280.824 409.676 281.014 409.567L283.551 408.099C283.741 407.99 284.039 407.99 284.229 408.099L287.554 410.015C287.73 410.124 287.73 410.301 287.554 410.41L285.016 411.878Z" fill="#95C4DF"/>
<path d="M290.151 414.86C289.961 414.969 289.663 414.969 289.473 414.86L286.162 412.943C285.972 412.834 285.972 412.658 286.162 412.562L288.699 411.094C288.876 410.986 289.188 410.986 289.378 411.094L292.702 413.011C292.878 413.12 292.878 413.297 292.702 413.405L290.165 414.873L290.151 414.86Z" fill="#95C4DF"/>
<path d="M320.486 432.403C320.296 432.512 319.998 432.512 319.808 432.403L291.301 415.914C291.111 415.805 291.111 415.628 291.301 415.519L293.838 414.051C294.028 413.943 294.326 413.943 294.516 414.051L323.024 430.541C323.214 430.65 323.214 430.826 323.024 430.935L320.486 432.403Z" fill="#95C4DF"/>
<path d="M325.671 435.402C325.481 435.511 325.182 435.511 324.992 435.402L321.682 433.485C321.492 433.377 321.492 433.2 321.682 433.091L324.219 431.623C324.409 431.514 324.707 431.514 324.897 431.623L328.222 433.54C328.411 433.649 328.411 433.825 328.222 433.934L325.684 435.402H325.671Z" fill="#95C4DF"/>
<path d="M330.809 438.378C330.619 438.487 330.321 438.487 330.131 438.378L326.807 436.462C326.617 436.353 326.617 436.176 326.807 436.067L329.344 434.599C329.534 434.49 329.832 434.49 330.022 434.599L333.347 436.516C333.536 436.625 333.536 436.801 333.347 436.91L330.809 438.378Z" fill="#95C4DF"/>
<path d="M335.954 441.354C335.764 441.463 335.465 441.463 335.275 441.354L331.951 439.438C331.761 439.329 331.761 439.152 331.951 439.043L334.488 437.575C334.678 437.466 334.977 437.466 335.167 437.575L338.491 439.492C338.681 439.601 338.681 439.777 338.491 439.886L335.954 441.354Z" fill="#95C4DF"/>
<path d="M341.096 444.331C340.906 444.44 340.608 444.44 340.418 444.331L337.094 442.414C336.904 442.305 336.904 442.129 337.094 442.02L339.631 440.552C339.821 440.443 340.119 440.443 340.309 440.552L343.62 442.469C343.81 442.577 343.81 442.754 343.62 442.863L341.083 444.331H341.096Z" fill="#95C4DF"/>
<path d="M307.147 419.481C306.971 419.589 306.659 419.589 306.483 419.481L303.945 418.012C303.755 417.904 303.755 417.727 303.945 417.618L306.483 416.15C306.659 416.041 306.971 416.041 307.147 416.15L309.698 417.618C309.888 417.727 309.888 417.904 309.698 418.012L307.147 419.481Z" fill="#95C4DF"/>
<path d="M311.522 422.018C311.346 422.127 311.033 422.127 310.857 422.018L308.32 420.55C308.143 420.441 308.143 420.264 308.32 420.156L310.857 418.688C311.047 418.579 311.346 418.579 311.522 418.688L314.059 420.156C314.249 420.264 314.249 420.441 314.059 420.55L311.508 422.018H311.522Z" fill="#95C4DF"/>
<path d="M315.909 424.537C315.719 424.645 315.421 424.645 315.231 424.537L312.693 423.068C312.503 422.96 312.503 422.783 312.693 422.674L315.231 421.206C315.421 421.097 315.719 421.097 315.909 421.206L318.446 422.674C318.636 422.783 318.636 422.96 318.446 423.068L315.909 424.537Z" fill="#95C4DF"/>
<path d="M320.278 427.08C320.088 427.188 319.789 427.188 319.613 427.08L317.062 425.612C316.886 425.503 316.886 425.326 317.062 425.231L319.613 423.763C319.789 423.654 320.101 423.654 320.278 423.763L322.815 425.231C323.005 425.34 323.005 425.516 322.815 425.612L320.278 427.08Z" fill="#95C4DF"/>
<path d="M324.638 429.611C324.448 429.72 324.149 429.72 323.973 429.611L321.435 428.143C321.245 428.034 321.245 427.858 321.435 427.749L323.973 426.281C324.163 426.172 324.461 426.172 324.638 426.281L327.175 427.749C327.365 427.858 327.365 428.034 327.175 428.143L324.638 429.611Z" fill="#95C4DF"/>
<path d="M329.02 432.13C328.843 432.239 328.531 432.239 328.355 432.13L325.804 430.662C325.628 430.553 325.628 430.376 325.804 430.268L328.355 428.799C328.531 428.691 328.843 428.691 329.02 428.799L331.557 430.268C331.747 430.376 331.747 430.553 331.557 430.662L329.02 432.13Z" fill="#95C4DF"/>
<path d="M333.393 434.667C333.203 434.776 332.905 434.776 332.715 434.667L330.178 433.199C329.988 433.09 329.988 432.913 330.178 432.805L332.715 431.336C332.905 431.228 333.203 431.228 333.393 431.336L335.931 432.805C336.121 432.913 336.121 433.09 335.931 433.199L333.393 434.667Z" fill="#95C4DF"/>
<path d="M345.565 441.685C345.375 441.794 345.076 441.794 344.886 441.685L334.574 435.717C334.384 435.609 334.384 435.432 334.574 435.323L337.111 433.855C337.301 433.746 337.6 433.746 337.79 433.855L348.102 439.823C348.292 439.932 348.292 440.108 348.102 440.217L345.565 441.685Z" fill="#95C4DF"/>
<path d="M349.257 428.352C349.067 428.461 348.768 428.461 348.578 428.352L346.041 426.884C345.851 426.775 345.851 426.598 346.041 426.49L348.578 425.022C348.755 424.913 349.067 424.913 349.257 425.022L351.794 426.49C351.984 426.598 351.984 426.775 351.794 426.884L349.257 428.352Z" fill="#95C4DF"/>
<path d="M303.743 393.959C303.553 394.068 303.255 394.068 303.078 393.959L300.541 392.491C300.351 392.382 300.351 392.205 300.541 392.11L303.078 390.642C303.268 390.533 303.567 390.533 303.743 390.642L306.28 392.11C306.47 392.219 306.47 392.396 306.28 392.505L303.743 393.973V393.959Z" fill="#95C4DF"/>
<path d="M312.508 399.01C312.318 399.119 312.02 399.119 311.83 399.01L309.292 397.542C309.116 397.433 309.116 397.256 309.292 397.147L311.83 395.679C312.02 395.57 312.318 395.57 312.508 395.679L315.045 397.147C315.235 397.256 315.235 397.433 315.045 397.542L312.508 399.01Z" fill="#95C4DF"/>
<path d="M316.878 401.566C316.688 401.675 316.389 401.675 316.199 401.566L313.662 400.098C313.472 399.989 313.472 399.812 313.662 399.704L316.199 398.235C316.389 398.127 316.688 398.127 316.878 398.235L319.415 399.704C319.605 399.812 319.605 399.989 319.415 400.098L316.878 401.566Z" fill="#95C4DF"/>
<path d="M321.261 404.085C321.071 404.193 320.772 404.193 320.582 404.085L318.045 402.616C317.855 402.508 317.855 402.331 318.045 402.222L320.582 400.754C320.772 400.645 321.071 400.645 321.261 400.754L323.798 402.222C323.988 402.331 323.988 402.508 323.798 402.616L321.261 404.085Z" fill="#95C4DF"/>
<path d="M325.62 406.622C325.43 406.73 325.131 406.73 324.941 406.622L322.404 405.153C322.214 405.045 322.214 404.868 322.404 404.759L324.941 403.291C325.131 403.182 325.43 403.182 325.62 403.291L328.157 404.759C328.347 404.868 328.347 405.045 328.157 405.153L325.62 406.622Z" fill="#95C4DF"/>
<path d="M332.766 410.743C332.576 410.851 332.278 410.851 332.088 410.743L329.551 409.275C329.361 409.166 329.361 408.989 329.551 408.88L332.088 407.412C332.278 407.303 332.576 407.303 332.766 407.412L335.304 408.88C335.494 408.989 335.494 409.166 335.304 409.275L332.766 410.743Z" fill="#95C4DF"/>
<path d="M337.143 413.28C336.953 413.389 336.655 413.389 336.465 413.28L333.928 411.812C333.738 411.703 333.738 411.527 333.928 411.418L336.465 409.95C336.655 409.841 336.953 409.841 337.143 409.95L339.681 411.418C339.871 411.527 339.871 411.703 339.681 411.812L337.143 413.28Z" fill="#95C4DF"/>
<path d="M341.509 415.798C341.319 415.907 341.02 415.907 340.83 415.798L338.293 414.33C338.103 414.221 338.103 414.045 338.293 413.936L340.83 412.468C341.02 412.359 341.319 412.359 341.509 412.468L344.046 413.936C344.236 414.045 344.236 414.221 344.046 414.33L341.509 415.798Z" fill="#95C4DF"/>
<path d="M345.886 418.336C345.696 418.445 345.397 418.445 345.207 418.336L342.67 416.868C342.48 416.759 342.48 416.582 342.67 416.474L345.207 415.005C345.397 414.897 345.696 414.897 345.886 415.005L348.423 416.474C348.613 416.582 348.613 416.759 348.423 416.868L345.886 418.336Z" fill="#95C4DF"/>
<path d="M352.878 422.381C352.688 422.49 352.389 422.49 352.199 422.381L349.662 420.913C349.472 420.804 349.472 420.627 349.662 420.518L352.199 419.05C352.389 418.942 352.688 418.942 352.878 419.05L355.415 420.518C355.605 420.627 355.605 420.804 355.415 420.913L352.878 422.381Z" fill="#95C4DF"/>
<path d="M357.245 424.918C357.055 425.027 356.756 425.027 356.566 424.918L354.029 423.45C353.839 423.341 353.839 423.164 354.029 423.056L356.566 421.587C356.743 421.479 357.055 421.479 357.245 421.587L359.782 423.056C359.972 423.164 359.972 423.341 359.782 423.45L357.245 424.918Z" fill="#95C4DF"/>
<path d="M361.641 427.442C361.451 427.551 361.153 427.551 360.963 427.442L358.426 425.974C358.236 425.865 358.236 425.688 358.426 425.593L360.963 424.125C361.153 424.016 361.451 424.016 361.641 424.125L364.179 425.593C364.369 425.702 364.369 425.879 364.179 425.974L361.641 427.442Z" fill="#95C4DF"/>
<path d="M366.009 429.974C365.832 430.083 365.52 430.083 365.344 429.974L362.807 428.506C362.617 428.397 362.617 428.22 362.807 428.112L365.344 426.644C365.52 426.535 365.832 426.535 366.009 426.644L368.546 428.112C368.722 428.22 368.722 428.397 368.546 428.506L366.009 429.974Z" fill="#95C4DF"/>
<path d="M396.297 447.488C396.107 447.597 395.809 447.597 395.619 447.488L393.082 446.02C392.905 445.911 392.905 445.734 393.082 445.625L395.619 444.157C395.795 444.048 396.107 444.048 396.297 444.157L398.835 445.625C399.024 445.734 399.024 445.911 398.835 446.02L396.297 447.488Z" fill="#95C4DF"/>
<path d="M400.679 450.044C400.502 450.153 400.19 450.153 400.014 450.044L397.476 448.576C397.286 448.468 397.286 448.291 397.476 448.182L400.014 446.714C400.19 446.605 400.502 446.605 400.679 446.714L403.216 448.182C403.406 448.291 403.406 448.468 403.216 448.576L400.679 450.044Z" fill="#95C4DF"/>
<path d="M405.05 452.543C404.873 452.652 404.561 452.652 404.371 452.543L401.834 451.075C401.644 450.967 401.644 450.79 401.834 450.681L404.371 449.213C404.561 449.104 404.86 449.104 405.05 449.213L407.587 450.681C407.777 450.79 407.777 450.967 407.587 451.075L405.05 452.543Z" fill="#95C4DF"/>
<path d="M359.022 434.003C358.832 434.112 358.534 434.112 358.344 434.003L350.406 429.408C350.216 429.299 350.216 429.122 350.406 429.027L352.943 427.559C353.133 427.45 353.432 427.45 353.622 427.559L361.559 432.14C361.736 432.249 361.736 432.426 361.559 432.535L359.022 434.003V434.003Z" fill="#95C4DF"/>
<path d="M390.947 444.1L378.396 436.841L381.531 435.033L394.082 442.278L390.947 444.1Z" fill="#95C4DF"/>
<path d="M423.696 505.182C422.841 505.672 421.43 505.672 420.575 505.182L380.44 481.963C379.585 481.474 379.585 480.658 380.44 480.155L427.753 452.79C428.608 452.287 430.005 452.287 430.86 452.79L470.996 476.009C471.85 476.498 471.85 477.314 470.996 477.804L423.683 505.169L423.696 505.182Z" fill="#1979FF"/>
<path d="M433.942 477.871C427.728 482.846 418.651 485.293 413.657 483.349C408.678 481.392 409.275 473.14 415.489 468.165C421.704 463.189 431.188 463.379 436.167 465.323C441.147 467.281 440.143 472.895 433.929 477.871H433.942Z" fill="#0A208F"/>
<path d="M437.191 467.835L436.553 466.843C436.798 466.68 461.194 451.006 466.336 447.607L466.689 447.376C470.244 445.038 475.101 441.843 475.291 438.295C475.373 436.664 474.423 435.033 472.469 433.428C469.118 430.71 462.713 430.886 455.956 431.077C447.435 431.335 437.775 431.607 431.452 426.224C430.081 425.068 429.335 423.749 429.24 422.295C428.996 418.991 432.103 415.484 435.373 411.759C439.213 407.409 443.555 402.475 442.741 397.458C442.171 393.937 439.213 390.675 433.677 387.439L434.274 386.42C440.136 389.832 443.283 393.367 443.908 397.254C444.817 402.814 440.271 407.98 436.255 412.521C433.148 416.055 430.203 419.386 430.407 422.186C430.488 423.314 431.085 424.334 432.212 425.299C438.195 430.383 447.612 430.112 455.916 429.88C462.903 429.676 469.511 429.486 473.215 432.504C475.481 434.353 476.567 436.31 476.472 438.336C476.255 442.482 471.112 445.867 467.34 448.341L466.987 448.572C461.831 451.971 437.435 467.659 437.191 467.808V467.835Z" fill="#0A208F"/>
<path fill-rule="evenodd" clip-rule="evenodd" d="M273.34 408.727C273.34 408.727 277.41 405.532 286.8 404.649C296.189 403.765 295.551 404.05 303.516 405.124C311.494 406.185 318.536 407.49 319.771 408.727C321.019 409.964 325.578 410.861 323.719 412.724C321.861 414.586 317.953 413.172 313.353 413.879C308.753 414.586 300.436 414.763 301.318 417.604C302.2 420.445 312.118 419.018 314.425 420.445C316.732 421.872 319.215 423.286 314.425 424.17C309.649 425.053 295.484 425.053 289.812 425.053C284.14 425.053 273.34 408.727 273.34 408.727V408.727Z" fill="#FFCDA8"/>
<path fill-rule="evenodd" clip-rule="evenodd" d="M319.781 408.728C318.547 407.49 311.505 406.185 303.526 405.125C295.833 404.092 296.159 403.779 287.76 404.568C288.56 406.145 290.27 407.898 294.259 408.32C300.216 408.959 312.658 408.619 320.365 409.163C320.134 409.027 319.944 408.877 319.781 408.728V408.728Z" fill="#D9A782"/>
<path d="M296.444 343.535C295.576 341.7 291.627 338.111 290.189 338.152C289.918 338.152 289.741 338.26 289.633 338.342C288.52 339.253 288.859 345.751 289.389 347.504C289.891 349.217 292.659 352.126 294.599 352.072H294.802C295.318 351.991 295.779 351.596 296.146 350.903C297.095 349.149 297.421 345.615 296.431 343.535H296.444ZM295.142 350.359C294.911 350.794 294.721 350.903 294.667 350.903H294.585C293.351 350.944 290.922 348.551 290.515 347.165C289.958 345.289 289.958 340.245 290.338 339.321C291.288 339.566 294.64 342.434 295.399 344.024C296.214 345.751 295.929 348.891 295.142 350.346V350.359Z" fill="#414E52"/>
<path opacity="0.5" d="M295.401 344.038C294.641 342.434 291.29 339.579 290.34 339.334C289.96 340.259 289.96 345.302 290.517 347.178C290.924 348.565 293.339 350.944 294.587 350.917H294.669C294.669 350.917 294.913 350.794 295.143 350.359C295.93 348.905 296.215 345.765 295.401 344.038V344.038Z" fill="white"/>
<path fill-rule="evenodd" clip-rule="evenodd" d="M221.346 373.152C221.346 373.152 229.718 373.043 234.101 367.714C238.565 362.276 237.968 352.162 236.774 347.201C235.58 342.239 236.014 325.151 241.346 318.272C246.679 311.394 259.406 306.296 271.685 306.486C283.965 306.676 292.974 317.932 293.992 326.089C294.996 334.245 296.231 338.854 294.141 341.464C292.051 344.074 291.821 346.018 291.414 349.539C290.993 353.073 285.837 362.1 284.195 365.485C282.554 368.856 278.944 370.759 275.2 372.282C271.455 373.804 265.919 373.94 265.295 380.846C264.657 387.738 260.437 398.015 260.437 398.015C260.437 398.015 264.399 397.445 260.315 398.75C256.244 400.055 236.448 406.118 225.553 398.763C214.657 391.409 221.346 373.165 221.346 373.165V373.152Z" fill="#FFCDA8"/>
<path fill-rule="evenodd" clip-rule="evenodd" d="M276.989 364.986C276.989 364.986 276.351 365.503 275.09 364.769C273.841 364.035 273.624 360.147 274.913 355.606C275.7 352.792 277.681 350.78 279.079 349.639C277.817 349.611 276.351 349.883 274.777 350.808C271.372 352.82 263.828 364.701 261.372 366.196C261.236 366.278 261.06 366.346 260.856 366.414C261.942 377.86 257.193 392.691 254.303 400.413C257.084 399.747 259.242 399.067 260.314 398.727C264.398 397.422 260.436 397.993 260.436 397.993C260.436 397.993 264.655 387.702 265.293 380.823C265.917 373.931 271.453 373.782 275.198 372.259C275.795 372.028 276.379 371.77 276.948 371.512C276.541 368.575 277.003 365 277.003 365L276.989 364.986Z" fill="#D9A782"/>
<path fill-rule="evenodd" clip-rule="evenodd" d="M287.494 359.062C287.494 359.062 285.921 359.673 284.889 360.312C284.591 360.489 283.912 361.78 282.04 359.741C280.9 358.491 281.524 364.717 281.959 365.179C282.569 365.831 286.016 363.874 286.979 362.46C287.929 361.046 288.431 359.17 287.494 359.062Z" fill="#303082"/>
<path d="M296.475 344.714L281.292 349.717L280.912 350.492L296.733 346.196L296.475 344.714Z" fill="#414E52"/>
<path d="M298.423 320.624C297.609 317.212 290.717 301.144 273.905 299.73C257.08 298.303 242.114 304.923 236.036 314.684C229.957 324.444 231.775 335.89 232.847 344.713C233.919 353.536 237.271 359.871 237.271 359.871C237.271 359.871 238.899 365.621 250.31 366.423C261.721 367.225 259.699 369.563 265.181 362.018C270.676 354.46 274.747 350.436 275.873 349.634C276.999 348.846 279.74 349.634 279.74 349.634L280.866 349.906C279.767 352.761 277.732 361.638 275.072 367.81C273.851 370.651 271.083 372.16 270.757 373.587L268.709 374.756C267.976 379.636 277.026 383.076 279.102 382.641C284.651 381.472 286.103 372.037 285.818 367.674C285.737 366.341 284.204 365.471 284.204 365.471C284.204 365.471 279.618 363.405 283.865 350.627C284.557 350.382 285.113 349.689 285.452 348.832L284.177 349.131C284.597 347.378 285.452 344.482 286.89 342.769C289.048 340.186 290.418 341.668 290.717 337.141C291.029 332.614 291.002 329.46 292.562 328.264C294.122 327.068 299.238 324.05 298.423 320.638V320.624Z" fill="#303082"/>
<path fill-rule="evenodd" clip-rule="evenodd" d="M274.405 350.903C274.405 350.903 253.632 355.77 232.723 343.875C232.75 344.16 232.79 344.432 232.818 344.718C233.89 353.54 237.241 359.875 237.241 359.875C237.241 359.875 238.869 365.626 250.28 366.428C261.691 367.23 259.67 369.568 265.151 362.023C269.222 356.409 272.519 352.752 274.405 350.917V350.903Z" fill="#303082"/>
<path d="M223.011 680.578L218.099 677.832C217.136 677.275 215.819 677.37 214.354 678.213C211.423 679.912 209.035 684.045 209.035 687.443C209.035 689.156 209.632 690.352 210.609 690.91L215.521 693.656C216.484 694.199 217.8 694.118 219.266 693.275C222.197 691.576 224.585 687.443 224.585 684.058C224.585 682.345 223.988 681.163 223.011 680.605V680.578Z" fill="#003630"/>
<path d="M317.05 674.658L312.138 671.912C311.175 671.368 309.845 671.45 308.393 672.292C305.462 673.992 303.074 678.124 303.074 681.509C303.074 683.222 303.685 684.418 304.648 684.962L309.56 687.708C310.523 688.252 311.839 688.17 313.305 687.328C316.249 685.628 318.624 681.509 318.624 678.111C318.624 676.411 318.027 675.215 317.063 674.658H317.05Z" fill="#003630"/>
<path d="M332.575 618.096L327.663 615.35C326.7 614.793 325.384 614.888 323.918 615.731C320.988 617.43 318.6 621.549 318.6 624.947C318.6 626.66 319.197 627.857 320.174 628.4L325.085 631.146C326.049 631.69 327.365 631.609 328.83 630.766C331.761 629.066 334.135 624.934 334.135 621.535C334.135 619.836 333.538 618.64 332.562 618.082L332.575 618.096Z" fill="#003630"/>
<path d="M180.821 632.546L175.909 629.787C174.946 629.243 173.616 629.324 172.165 630.167C169.234 631.866 166.846 635.999 166.846 639.398C166.846 641.11 167.443 642.307 168.42 642.864L173.331 645.61C174.295 646.154 175.611 646.072 177.076 645.229C180.007 643.53 182.395 639.398 182.395 635.999C182.395 634.3 181.798 633.104 180.821 632.546Z" fill="#003630"/>
<path d="M334.456 609.149C334.266 605.369 332.814 603.344 331.552 602.569C330.304 601.794 326.342 602.569 326.342 602.569L265.827 620.296V606.389C265.827 604.69 264.714 603.004 262.475 601.713C258.011 599.13 250.766 599.13 246.315 601.713C244.09 603.004 242.964 604.69 242.964 606.389V622.348L171.255 615.823C171.255 615.823 168.12 616.258 167.388 618.338C166.669 620.418 165.461 624.714 165.366 628.004C165.271 631.293 166.628 633.224 170.386 633.7C173.561 634.107 221.553 639.246 236.627 640.864C228.636 650.026 212.272 669.479 212.272 669.479C212.272 669.479 210.63 671.994 210.44 675.27C210.25 678.56 209.965 683.386 209.965 683.386C209.965 683.386 210.834 685.901 214.592 685.711C218.351 685.52 220.481 683.386 224.769 679.09C229.056 674.795 252.611 649.129 252.611 649.129C252.611 649.129 252.611 649.102 252.597 649.047C255.637 649.319 258.825 648.884 261.39 647.742C261.376 647.865 261.363 647.919 261.363 647.919C261.363 647.919 302.841 672.905 309.449 676.467C316.071 680.042 318.608 675.189 318.608 675.189C318.608 675.189 318.608 670.268 318.35 666.693C318.092 663.131 315.555 660.059 315.555 660.059C315.555 660.059 284.429 640.945 276.803 636.772C276.234 636.459 275.691 636.147 275.162 635.82C275.162 635.82 275.175 635.82 275.175 635.834C287.495 632.313 318.784 623.395 323.262 622.077C328.866 620.432 334.456 618.107 334.456 618.107C334.456 618.107 334.646 612.887 334.456 609.121V609.149Z" fill="#004F49"/>
<path d="M307.013 660.228C310.486 662.43 313.119 662.92 314.665 662.675C316.199 662.43 316.077 660.813 315.778 660.364C315.642 660.187 315.547 660.065 315.547 660.065C315.547 660.065 284.421 640.952 276.796 636.778C269.157 632.618 265.833 627.439 265.833 627.439C263.607 630.661 258.221 632.02 258.221 632.02C260.5 632.02 266.145 635.487 266.145 635.487C266.145 635.487 303.539 658.012 307.013 660.214V660.228Z" fill="#018489"/>
<path d="M251.842 632.449C250.431 633.02 247.88 635.862 247.88 635.862C247.88 635.862 223.009 665.606 221.11 668.08C219.224 670.54 215.804 671.764 213.986 671.533C212.168 671.302 212.277 669.48 212.277 669.48C212.277 669.48 235.628 641.721 240.16 636.895C241.435 635.535 242.331 634.353 242.968 633.36V626.047C242.968 626.047 244.637 628.82 247.012 630.22C249.373 631.607 251.842 632.449 251.842 632.449V632.449Z" fill="#018489"/>
<path d="M331.546 602.562C330.297 601.787 326.336 602.562 326.336 602.562L265.82 620.288V623.238L328.249 606.205C328.249 606.205 331.681 605.213 332.658 603.581C332.292 603.133 331.912 602.793 331.546 602.575V602.562Z" fill="#018489"/>
<path d="M167.609 617.968C168.763 619.559 171.829 619.926 171.829 619.926L242.982 625.948V622.346L171.273 615.82C171.273 615.82 168.546 616.215 167.609 617.968V617.968Z" fill="#018489"/>
<path d="M224.211 566.028C209.964 550.395 216.368 516.151 216.368 516.151L278.471 511.04C278.471 511.04 295.825 507.805 314.78 504.882C315.499 494.265 314.047 474.186 295.404 474.866C272.745 475.695 222.026 501.007 222.026 501.007L202.705 506.214C202.705 506.214 193.872 528.712 201.253 547.799C207.359 563.609 215.296 566.341 225.866 567.741C225.296 567.184 224.74 566.613 224.197 566.015L224.211 566.028Z" fill="#0B53FF"/>
<path fill-rule="evenodd" clip-rule="evenodd" d="M262.887 388.22C262.887 388.22 244.922 384.849 235.479 381.695C226.035 378.555 228.844 371.486 228.844 371.486C228.844 371.486 212.25 367.843 207.311 369.664C166.483 384.713 179.021 461.248 182.603 479.668C186.185 498.088 183.376 516.984 183.376 516.984C223.281 546.035 265.682 552.274 273.28 538.123C280.879 523.971 261.747 499.38 261.747 499.38C261.747 499.38 262.114 463.681 273.579 435.936C280.01 420.357 288.504 407.823 280.648 400.781C275.845 396.472 262.874 388.234 262.874 388.234L262.887 388.22Z" fill="#F22A78"/>
<path fill-rule="evenodd" clip-rule="evenodd" d="M274.416 433.957L261.96 424.482C261.96 424.482 254.647 438.865 252.096 455.123C249.545 471.382 240.943 466.991 224.525 470.226C214.715 472.157 204.199 502.091 198.311 526.764C233.29 547.264 266.628 550.5 273.276 538.115C280.874 523.964 261.743 499.372 261.743 499.372C261.743 499.372 262.109 463.674 273.575 435.928C273.846 435.262 274.131 434.61 274.402 433.957H274.416Z" fill="#CC0452"/>
<path fill-rule="evenodd" clip-rule="evenodd" d="M330.914 456.739L342.271 449.085C342.271 449.085 349.53 443.104 354.415 442.587C359.299 442.071 376.965 443.648 381.714 447.264C386.463 450.88 385.812 453.068 382.338 456.222C378.865 459.376 374.93 459.689 369.408 461.32C363.885 462.951 370.995 462.53 362.339 463.183C353.682 463.835 339.421 468.797 339.421 468.797L330.928 456.753L330.914 456.739Z" fill="#FFCDA8"/>
<path fill-rule="evenodd" clip-rule="evenodd" d="M382.74 448.101C380.434 453.58 360.814 457.821 354.762 457.481C348.399 457.128 340.488 460.961 340.488 460.961L335.088 462.647L339.403 468.778C339.403 468.778 353.677 463.816 362.32 463.163C370.976 462.511 363.867 462.932 369.389 461.301C374.911 459.67 378.833 459.357 382.32 456.203C385.508 453.308 386.309 451.214 382.74 448.101V448.101Z" fill="#D9A782"/>
<path fill-rule="evenodd" clip-rule="evenodd" d="M258.924 428.454C256.265 421.372 259.236 405.208 270.417 400.777C282.452 396.005 290.091 406.826 296.156 427.666C302.492 449.498 303.7 461.026 303.7 461.026L337.716 450.314C337.716 450.314 347.621 450.803 348.408 465.933C348.408 465.933 308.015 489.098 294.297 493.081C280.579 497.064 265.613 446.276 258.938 428.441L258.924 428.454Z" fill="#F22A78"/>
<path d="M202.058 592.821C202.058 592.821 216.156 598.694 223.591 601.182C231.041 603.669 239.602 605.477 247.391 594.398C255.165 583.333 259.114 573.49 258.897 557.34C258.666 541.177 243.551 492.034 243.551 492.034C243.551 492.034 234.772 465.934 230.471 459.272C226.183 452.598 223.917 452.258 219.412 450.123C214.894 447.976 198.883 440.526 189.304 433.851C179.725 427.19 169.114 419.278 166.414 417.919C163.7 416.56 157.5 419.509 154.284 425.994C151.068 432.492 150.512 445.257 150.281 459.041C150.051 472.826 148.707 494.304 150.96 507.967C153.212 521.629 157.947 539.383 163.592 553.045C169.223 566.72 182.764 580.274 189.413 585.358C196.061 590.442 202.045 592.808 202.045 592.808L202.058 592.821Z" fill="#004F49"/>
<path d="M248.742 592.451C255.635 582.146 259.122 572.535 258.905 557.337C258.674 541.174 243.559 492.031 243.559 492.031C243.559 492.031 234.78 465.93 230.479 459.269C226.191 452.594 223.925 452.254 219.421 450.12C214.902 447.972 198.892 440.523 189.312 433.848C179.733 427.187 169.122 419.275 166.422 417.916C166.178 417.793 165.907 417.725 165.608 417.671C162.474 420.308 157.576 424.767 156.992 427.391C156.992 427.391 159.014 430.572 163.763 433.454C168.512 436.336 199.054 455.096 207.833 458.562C216.612 462.015 224.631 467.779 229.434 478.042C235.051 490.019 246.856 527.24 249.447 536.919C249.447 536.919 256.584 560.409 255.784 570.687C255.214 578.055 252.202 585.844 248.728 592.478L248.742 592.451Z" fill="#018489"/>
<path d="M203.134 588.824L205.509 602.378C205.509 602.378 201.818 604.43 200.421 598.354C199.023 592.277 203.134 588.824 203.134 588.824V588.824Z" fill="#004F49"/>
<path d="M200.429 598.355C199.235 593.162 202.057 589.9 202.898 589.057C201.284 588.377 192.885 584.761 187.566 579.799C187.566 579.799 184.947 583.497 185.843 589.234C186.752 594.984 189.533 595.759 189.533 595.759L202.518 602.202C201.718 601.631 200.931 600.517 200.429 598.355V598.355Z" fill="#006A6F"/>
<path d="M249.736 570.632C249.736 570.632 276.452 543.457 282.273 538.019C288.108 532.582 302.029 521.815 309.396 525.812C316.764 529.808 318.406 566.023 318.406 566.023C318.406 566.023 320.658 568.688 325.258 567.355C329.858 566.023 328.528 562.842 328.528 562.842C328.528 562.842 329.451 523.555 319.424 516.377C309.396 509.2 295.475 516.173 284.526 524.371C273.576 532.568 254.336 551.845 254.336 551.845C254.336 551.845 250.143 557.785 249.112 563.114C248.094 568.443 249.723 570.604 249.723 570.604L249.736 570.632Z" fill="#006A6F"/>
<path d="M337.064 214.43C337.064 212.173 338.666 211.235 340.619 212.377L487.131 297.123C489.085 298.252 490.686 301.038 490.686 303.295V418.098C490.686 420.368 489.085 421.292 487.131 420.15L340.619 335.404C338.666 334.276 337.064 331.489 337.064 329.233V214.43V214.43Z" fill="#E1E8EC"/>
<path d="M337.064 319.158V215.801L490.686 304.666V408.022L337.064 319.158Z" fill="#0143B1"/>
<path d="M490.698 418.104V303.302C490.698 301.031 489.097 298.258 487.143 297.13L340.631 212.384C339.668 211.827 338.786 211.772 338.135 212.126L343.074 209.298C343.725 208.89 344.634 208.931 345.638 209.516L492.15 294.261C494.104 295.39 495.705 298.177 495.705 300.433V415.236C495.705 416.405 495.271 417.22 494.592 417.574L489.721 420.361C490.332 419.966 490.698 419.192 490.698 418.104V418.104Z" fill="#95C4DF"/>
<path d="M359.972 395.129L387.285 382.827C393.391 379.849 397.746 375.023 400.419 369.994L430.935 387.639C428.302 396.543 421.64 402.864 421.64 402.864C421.64 402.864 404.883 415.874 400.474 418.837C396.064 421.801 391.342 419.286 391.342 419.286L359.972 400.404C359.972 400.404 358.222 399.561 357.814 398.256L357.719 397.834C357.53 396.176 359.985 395.116 359.985 395.116L359.972 395.129Z" fill="#E1E8EC"/>
<path d="M359.951 400.425L391.321 419.307C391.321 419.307 396.043 421.822 400.453 418.859C404.862 415.895 421.62 402.886 421.62 402.886C421.62 402.886 428.282 396.564 430.914 387.66L433.546 389.183C431.782 395.11 427.82 400.874 421.185 405.645C402.325 419.199 400.317 420.3 400.317 420.3C400.317 420.3 397.101 423.127 391.253 420.3C385.405 417.472 359.747 401.581 359.747 401.581C359.747 401.581 357.617 400.425 357.617 399.31L357.699 397.665C357.617 399.31 359.937 400.425 359.937 400.425H359.951Z" fill="#95C4DF"/>
<path d="M400.399 370.007L430.914 387.652C429.286 393.185 426.084 397.712 423.899 400.349L390.453 381.005C394.904 378.069 398.201 374.099 400.385 369.994L400.399 370.007Z" fill="#A9D0E5"/>
<path d="M380.936 262.089L360.299 250.153V248.808L380.936 260.73V262.089Z" fill="#FF0077"/>
<path d="M452.538 303.517L384.031 263.89V262.544L452.538 302.171V303.517Z" fill="#D4DBDF"/>
<path d="M389.938 258.958L352.299 237.193V235.834L389.938 257.612V258.958Z" fill="#D4DBDF"/>
<path d="M431.061 282.749L393.422 260.971V259.625L431.061 281.389V282.749Z" fill="#D4DBDF"/>
<path d="M393.966 273.822L373.328 261.886V260.541L393.966 272.463V273.822Z" fill="#73BDE5"/>
<path d="M465.568 315.25L397.061 275.623V274.277L465.568 313.904V315.25Z" fill="#D4DBDF"/>
<path d="M354.679 246.906L352.223 245.493V244.133L354.679 245.561V246.906Z" fill="#D4DBDF"/>
<path d="M354.679 251.109L352.223 249.695V248.35L354.679 249.763V251.109Z" fill="#D4DBDF"/>
<path d="M354.679 255.301L352.223 253.887V252.528L354.679 253.955V255.301Z" fill="#D4DBDF"/>
<path d="M354.679 259.485L352.223 258.071V256.725L354.679 258.139V259.485Z" fill="#D4DBDF"/>
<path d="M354.679 263.682L352.223 262.268V260.922L354.679 262.336V263.682Z" fill="#D4DBDF"/>
<path d="M354.679 267.892L352.223 266.465V265.119L354.679 266.533V267.892Z" fill="#D4DBDF"/>
<path d="M354.679 272.077L352.223 270.663V269.317L354.679 270.731V272.077Z" fill="#D4DBDF"/>
<path d="M354.679 276.268L352.223 274.855V273.495L354.679 274.923V276.268Z" fill="#D4DBDF"/>
<path d="M354.679 280.485L352.223 279.057V277.711L354.679 279.125V280.485Z" fill="#D4DBDF"/>
<path d="M354.679 284.663L352.223 283.249V281.89L354.679 283.317V284.663Z" fill="#D4DBDF"/>
<path d="M354.679 288.86L352.223 287.433V286.087L354.679 287.501V288.86Z" fill="#D4DBDF"/>
<path d="M354.679 293.044L352.223 291.63V290.284L354.679 291.698V293.044Z" fill="#D4DBDF"/>
<path d="M354.679 297.255L352.223 295.827V294.481L354.679 295.895V297.255Z" fill="#D4DBDF"/>
<path d="M354.679 301.438L352.223 300.025V298.679L354.679 300.092V301.438Z" fill="#D4DBDF"/>
<path d="M354.679 305.649L352.223 304.235V302.876L354.679 304.303V305.649Z" fill="#D4DBDF"/>
<path d="M354.679 309.833L352.223 308.419V307.073L354.679 308.487V309.833Z" fill="#D4DBDF"/>
<path d="M354.679 314.025L352.223 312.611V311.251L354.679 312.679V314.025Z" fill="#D4DBDF"/>
<path d="M354.679 318.222L352.223 316.795V315.449L354.679 316.863V318.222Z" fill="#D4DBDF"/>
<path d="M393.966 278.019L373.328 266.084V264.738L393.966 276.673V278.019Z" fill="#73BDE5"/>
<path d="M440.575 304.997L397.061 279.834V278.475L440.575 303.651V304.997Z" fill="#D4DBDF"/>
<path d="M407.169 289.861L386.545 277.926V276.566L407.169 288.502V289.861Z" fill="#07B3FA"/>
<path d="M453.607 316.722L410.297 291.668V290.322L453.607 315.363V316.722Z" fill="#07B3FA"/>
<path d="M417.114 299.802L396.49 287.866V286.507L417.114 298.442V299.802Z" fill="#D4DBDF"/>
<path d="M460.209 324.745L420.223 301.608V300.262L460.209 323.386V324.745Z" fill="#D4DBDF"/>
<path d="M387.312 286.75L372.699 278.308V276.948L387.312 285.39V286.75Z" fill="#097ABE"/>
<path d="M464.947 331.679L390.416 288.558V287.212L464.947 330.319V331.679Z" fill="#D4DBDF"/>
<path d="M383.649 288.845L372.699 282.51V281.165L383.649 287.486V288.845Z" fill="#097ABE"/>
<path d="M447.542 325.792L386.756 290.638V289.292L447.542 324.446V325.792Z" fill="#D4DBDF"/>
<path d="M381.464 291.759L372.699 286.702V285.343L381.464 290.413V291.759Z" fill="#FF0077"/>
<path d="M456.301 335.06L384.564 293.57V292.211L456.301 333.714V335.06Z" fill="#D4DBDF"/>
<path d="M393.337 302.822L372.699 290.886V289.54L393.337 301.476V302.822Z" fill="#73BDE5"/>
<path d="M456.315 339.25L395.176 303.878V302.532L456.315 337.891V339.25Z" fill="#D4DBDF"/>
<path d="M404.463 313.462L372.699 295.097V293.737L404.463 312.117V313.462Z" fill="#73BDE5"/>
<path d="M436.271 331.848L407.574 315.263V313.903L436.271 330.502V331.848Z" fill="#07B3FA"/>
<path d="M380.936 304.056L360.299 292.12V290.761L380.936 302.696V304.056Z" fill="#FF0077"/>
<path d="M452.538 345.47L384.031 305.843V304.498L452.538 344.124V345.47Z" fill="#D4DBDF"/>
<path d="M392.388 314.879L371.764 302.943V301.598L392.388 313.533V314.879Z" fill="#73BDE5"/>
<path d="M452.544 349.667L395.516 316.674V315.315L452.544 348.308V349.667Z" fill="#D4DBDF"/>
<path d="M415.944 332.693L395.307 320.757L395.32 319.398L415.944 331.334V332.693Z" fill="#73BDE5"/>
<path d="M452.54 353.865L419.039 334.494V333.134L452.54 352.52V353.865Z" fill="#1ED6FE"/>
<path d="M407.179 331.806L395.307 324.941V323.595L407.179 330.46V331.806Z" fill="#73BDE5"/>
<path d="M452.549 358.059L410.297 333.616V332.257L452.549 356.699V358.059Z" fill="#D4DBDF"/>
<path d="M412.525 339.103L395.307 329.152V327.792L412.525 337.757V339.103Z" fill="#FF0077"/>
<path d="M452.554 362.247L415.635 340.904V339.545L452.554 360.901V362.247Z" fill="#D4DBDF"/>
<path d="M406.026 339.534L395.307 333.336V331.99L406.026 338.175V339.534Z" fill="#73BDE5"/>
<path d="M452.558 366.451L409.139 341.329V339.983L452.558 365.092V366.451Z" fill="#D4DBDF"/>
<path d="M409.133 345.521L395.307 337.527V336.168L409.133 344.161V345.521Z" fill="#73BDE5"/>
<path d="M452.554 370.634L412.242 347.32V345.974L452.554 369.288V370.634Z" fill="#D4DBDF"/>
<path d="M415.944 353.647L395.307 341.711V340.365L415.944 352.301V353.647Z" fill="#73BDE5"/>
<path d="M452.54 374.833L419.039 355.461V354.102L452.54 373.487V374.833Z" fill="#D4DBDF"/>
<path d="M332.96 346.536C333.991 345.938 335.674 345.938 336.691 346.536L353.164 356.066C354.195 356.664 354.195 357.629 353.164 358.227L315.918 379.829C314.887 380.427 313.218 380.427 312.187 379.829L295.715 370.299C294.684 369.701 294.684 368.736 295.715 368.138L332.947 346.536H332.96Z" fill="#D4DBDF"/>
<path d="M295.732 370.291L312.204 379.821C313.236 380.419 314.918 380.419 315.936 379.821L353.181 358.22C353.683 357.934 353.927 357.553 353.955 357.173V359.729C353.955 360.123 353.697 360.517 353.181 360.802L315.936 382.404C314.905 383.002 313.236 383.002 312.204 382.404L295.732 372.874C295.217 372.575 294.959 372.181 294.959 371.787V369.19C294.959 369.584 295.217 369.965 295.732 370.264V370.291Z" fill="#95C4DF"/>
<path d="M297.34 367.209L317.543 378.9L352.998 358.332L332.794 346.641L297.34 367.209Z" fill="#0143B1"/>
<path d="M317.188 378.689L317.54 378.893L352.995 358.325L352.642 358.107L317.188 378.689Z" fill="url(#paint0_linear_1097_41692)"/>
<path d="M317.553 380.449L353.007 359.881V358.317L317.553 378.885V380.449Z" fill="url(#paint1_linear_1097_41692)"/>
<path d="M512.253 450.898C512.212 449.457 511.981 448.356 511.628 447.527C510.611 443.87 506.5 444.101 505.292 444.727C503.854 445.474 502.863 446.82 502.863 446.82V450.273L504.383 451.062C504.383 451.062 504.912 448.886 507.164 447.704C507.504 447.527 507.816 447.445 508.114 447.445C508.888 448.343 509.335 449.811 509.363 450.912C509.39 452.91 508.06 458.198 505.116 459.694C504.885 459.816 504.681 459.884 504.491 459.939L504.383 459.966C502.958 460.292 502.863 458.769 502.863 458.484V462.603L504.383 463.391C504.383 463.391 505.048 463.636 506.771 462.63C508.494 461.638 512.429 456.227 512.253 450.871V450.898Z" fill="url(#paint2_linear_1097_41692)"/>
<path d="M512.254 450.899C512.051 444.578 508.252 444.755 506.814 445.516C505.375 446.264 504.385 447.61 504.385 447.61V451.062C504.385 451.062 504.914 448.887 507.166 447.705C509.419 446.522 510.857 449.717 510.898 451.701C510.938 453.7 509.595 458.988 506.651 460.483C504.52 461.571 504.412 459.613 504.398 459.273V463.392C504.398 463.392 505.063 463.637 506.786 462.631C508.51 461.639 512.444 456.228 512.268 450.872L512.254 450.899Z" fill="#FFB05D"/>
<path d="M506.624 460.508C509.569 459.013 510.912 453.725 510.871 451.726C510.844 450.027 509.799 447.471 508.103 447.471C508.877 448.368 509.324 449.837 509.352 450.938C509.379 452.936 508.049 458.224 505.105 459.72C504.874 459.842 504.67 459.91 504.48 459.964C504.657 460.576 505.186 461.242 506.624 460.508Z" fill="#F4E7D7"/>
<path d="M506.26 443.691C506.26 441.679 504.944 439.667 502.284 438.131C499.638 436.595 496.165 435.833 492.678 435.833C489.191 435.833 485.731 436.595 483.085 438.131C480.426 439.667 479.109 441.679 479.109 443.677V468.351C479.109 469.112 479.299 469.873 479.679 470.607C479.774 470.866 480.331 471.994 480.48 472.252C481.09 473.313 482.122 474.305 483.587 475.148C486.097 476.602 489.394 477.323 492.691 477.323C495.989 477.323 499.286 476.589 501.796 475.148C503.356 474.251 504.442 473.163 505.025 472.021C505.12 471.844 505.758 470.526 505.826 470.349C506.124 469.696 506.26 469.03 506.26 468.351V443.677V443.691Z" fill="#FFB05D"/>
<path opacity="0.61" d="M492.697 435.828C489.224 435.828 485.75 436.589 483.104 438.125C480.445 439.662 479.129 441.674 479.129 443.672C479.129 445.67 480.459 447.696 483.104 449.218C485.75 450.754 489.224 451.516 492.697 451.516C496.171 451.516 499.644 450.754 502.304 449.218C504.95 447.682 506.279 445.67 506.279 443.672C506.279 441.674 504.963 439.648 502.304 438.112C499.658 436.576 496.184 435.814 492.697 435.814V435.828Z" fill="white"/>
<path d="M492.694 436.215C489.384 436.215 486.087 436.949 483.563 438.404C481.039 439.859 479.777 441.775 479.777 443.692C479.777 445.609 481.039 447.526 483.563 448.98C486.087 450.435 489.397 451.169 492.694 451.169C495.992 451.169 499.302 450.435 501.826 448.98C504.35 447.526 505.612 445.609 505.612 443.692C505.612 441.775 504.35 439.872 501.826 438.404C499.302 436.936 495.992 436.215 492.694 436.215Z" fill="#E8EBE8"/>
<path d="M492.694 436.215C489.384 436.215 486.087 436.949 483.563 438.404C481.039 439.859 479.777 441.775 479.777 443.692C479.777 445.609 481.039 447.526 483.563 448.98C486.087 450.435 489.397 451.169 492.694 451.169C495.992 451.169 499.302 450.435 501.826 448.98C504.35 447.526 505.612 445.609 505.612 443.692C505.612 441.775 504.35 439.872 501.826 438.404C499.302 436.936 495.992 436.215 492.694 436.215Z" fill="#F4E7D7"/>
<path d="M501.834 442.639C499.31 441.185 496 440.451 492.702 440.451C489.405 440.451 486.095 441.185 483.571 442.639C481.997 443.55 480.911 444.638 480.314 445.807C480.898 446.962 481.983 448.05 483.571 448.974C486.095 450.429 489.405 451.163 492.702 451.163C496 451.163 499.31 450.429 501.834 448.974C503.408 448.063 504.493 446.976 505.09 445.807C504.493 444.651 503.408 443.564 501.834 442.639Z" fill="#0A208F"/>
<path style="mix-blend-mode:screen" opacity="0.22" d="M483.571 444.651C486.095 443.197 489.405 442.463 492.702 442.463C496 442.463 499.31 443.197 501.834 444.651C502.947 445.29 503.815 446.024 504.439 446.813C504.697 446.486 504.914 446.147 505.09 445.807C504.493 444.651 503.408 443.564 501.834 442.639C499.31 441.185 496 440.451 492.702 440.451C489.405 440.451 486.095 441.185 483.571 442.639C481.997 443.55 480.911 444.638 480.314 445.807C480.491 446.147 480.708 446.486 480.966 446.813C481.59 446.038 482.458 445.304 483.571 444.651V444.651Z" fill="url(#paint3_linear_1097_41692)"/>
<g style="mix-blend-mode:multiply" opacity="0.15">
<path d="M502.308 473.908C499.662 475.445 496.189 476.206 492.702 476.206C489.215 476.206 485.755 475.445 483.109 473.908C481.467 472.957 480.327 471.815 479.703 470.605C479.798 470.863 480.354 471.992 480.504 472.25C481.114 473.31 482.145 474.303 483.611 475.145C486.121 476.6 489.418 477.32 492.715 477.32C496.012 477.32 499.31 476.586 501.82 475.145C503.38 474.248 504.466 473.161 505.049 472.019C505.144 471.842 505.782 470.523 505.85 470.347C505.266 471.652 504.086 472.889 502.322 473.908H502.308Z" fill="black"/>
</g>
<defs>
<linearGradient id="paint0_linear_1097_41692" x1="344.759" y1="352.887" x2="301.207" y2="422.959" gradientUnits="userSpaceOnUse">
<stop stop-color="#328DE0"/>
<stop offset="1" stop-color="#172D9C"/>
</linearGradient>
<linearGradient id="paint1_linear_1097_41692" x1="345.327" y1="352.078" x2="307.16" y2="417.566" gradientUnits="userSpaceOnUse">
<stop stop-color="#1873C6"/>
<stop offset="1" stop-color="#001382"/>
</linearGradient>
<linearGradient id="paint2_linear_1097_41692" x1="507.558" y1="460.985" x2="507.558" y2="441.899" gradientUnits="userSpaceOnUse">
<stop stop-color="#66C1FF"/>
<stop offset="1" stop-color="#D4DBDF"/>
</linearGradient>
<linearGradient id="paint3_linear_1097_41692" x1="505.579" y1="443.632" x2="473.625" y2="443.632" gradientUnits="userSpaceOnUse">
<stop stop-color="white"/>
<stop offset="1"/>
</linearGradient>
</defs>
</svg>
