<svg width="152" height="39" viewBox="0 0 152 39" fill="none" xmlns="http://www.w3.org/2000/svg">
<path fill-rule="evenodd" clip-rule="evenodd" d="M56.9179 10.2152C56.9282 9.85265 57.0038 9.49588 57.1403 9.16529C57.2767 8.83471 57.4714 8.53679 57.7132 8.28856C57.955 8.04034 58.2391 7.84668 58.5494 7.71866C58.8596 7.59063 59.1899 7.53076 59.5213 7.54245C59.8507 7.53077 60.179 7.59096 60.487 7.71951C60.7949 7.84805 61.0764 8.04238 61.315 8.29115C61.5536 8.53993 61.7446 8.83818 61.8767 9.16852C62.0088 9.49886 62.0796 9.85467 62.0847 10.2152C62.0743 10.572 61.9998 10.9231 61.8653 11.2484C61.7309 11.5736 61.5391 11.8667 61.3011 12.1109C61.063 12.355 60.7833 12.5455 60.4779 12.6713C60.1725 12.7971 59.8475 12.8558 59.5213 12.8441C58.8587 12.868 58.214 12.6055 57.7269 12.1136C57.2397 11.6216 56.9491 10.9397 56.9179 10.2152ZM57.5187 33.788V16.3494H61.4839V33.788H57.5187ZM48.7266 25.0959L54.9991 33.7933H50.3129L46.4678 28.3163L42.5827 33.7933H37.9365L44.2091 25.0959L37.9365 16.3548H42.5827L46.4678 21.8755L50.3129 16.3548H54.9991L48.7266 25.0959ZM81.4796 33.7851V24.0142C81.4796 18.9316 79.1966 15.9083 75.1112 15.9083C73.469 15.9083 70.9857 16.9161 70.1446 19.1069V16.3465H66.2194V33.7851H70.1446V24.54C70.1446 21.1662 72.4677 20.027 74.23 20.027C75.9924 20.027 77.5144 21.5167 77.5144 24.3209V33.7851H81.4796ZM84.9571 25.0664C84.9571 19.5456 89.0425 15.9089 93.6486 15.9089C94.8936 15.8933 96.1255 16.1891 97.25 16.7738C98.3746 17.3586 99.3621 18.2167 100.137 19.2827L97.3335 21.6926C96.8709 21.1391 96.3077 20.6973 95.6801 20.3956C95.0525 20.0938 94.3742 19.9386 93.6887 19.94C93.0654 19.9158 92.4443 20.0315 91.8635 20.28C91.2828 20.5285 90.7547 20.9045 90.3119 21.3848C89.869 21.8652 89.5208 22.4396 89.2888 23.0728C89.0567 23.706 88.9456 24.3845 88.9624 25.0664C88.9456 25.7483 89.0567 26.4268 89.2888 27.06C89.5208 27.6932 89.869 28.2676 90.3119 28.748C90.7547 29.2283 91.2828 29.6043 91.8635 29.8528C92.4443 30.1013 93.0654 30.217 93.6887 30.1928C94.3758 30.2054 95.0573 30.0553 95.6864 29.7528C96.3155 29.4503 96.8774 29.0025 97.3335 28.4402L100.137 30.8939C99.3601 31.9544 98.3712 32.8059 97.2464 33.3832C96.1216 33.9604 94.8908 34.248 93.6486 34.2239C89.0425 34.2239 84.9571 30.5872 84.9571 25.0664ZM106.631 26.5994H119.007C119.047 25.9421 119.047 25.4163 119.047 24.8905C119.047 19.4574 115.563 15.9083 110.957 15.9083C106.351 15.9083 102.586 19.6327 102.586 25.0658C102.586 30.4989 106.19 34.2233 110.957 34.2233C113.84 34.2233 116.684 32.8212 118.126 30.2799L115.483 28.0891C114.975 28.7987 114.324 29.3698 113.58 29.7575C112.836 30.1453 112.021 30.3391 111.197 30.3237C108.794 30.3237 107.072 29.0092 106.631 26.5994ZM110.957 19.7641C113.2 19.7641 114.882 21.1662 115.122 23.5761H106.631C107.112 20.9033 108.714 19.7641 110.957 19.7641ZM133.826 16.5235L133.065 20.6422C132.35 20.2236 131.553 19.9983 130.742 19.985C128.139 19.985 126.697 22.833 126.697 27.6965V33.7869H122.732V16.3483H126.657V20.1164C127.538 17.1808 129.26 15.9101 131.263 15.9101C132.15 15.8865 133.029 16.0969 133.826 16.5235ZM139.584 26.5994H151.92C151.927 26.4866 151.934 26.3777 151.94 26.272C151.973 25.7617 152 25.3261 152 24.8905C152 19.4574 148.435 15.9083 143.869 15.9083C139.303 15.9083 135.498 19.6327 135.498 25.0658C135.498 30.4989 139.103 34.2233 143.869 34.2233C146.753 34.2233 149.597 32.8212 151.079 30.2799L148.395 28.0891C147.888 28.7987 147.236 29.3698 146.493 29.7575C145.749 30.1453 144.933 30.3391 144.11 30.3237C141.707 30.3237 140.024 29.0092 139.584 26.5994ZM143.909 19.7641C146.112 19.7641 147.835 21.1662 148.075 23.5761H139.584C140.024 20.9033 141.707 19.7641 143.909 19.7641Z" fill="#4F4F4F"/>
<path fill-rule="evenodd" clip-rule="evenodd" d="M25.4397 3.42383V25.4193L32.2087 26.6023V4.30014C32.2087 4.30014 32.0084 0.181472 28.7241 0.0062097C25.4397 -0.169053 25.4397 3.42383 25.4397 3.42383ZM0 33.2225V37.0782L6.76897 38.1298V33.9673C6.76897 33.9673 6.4886 30.2868 3.2443 30.1554C0 30.0239 0 33.2225 0 33.2225ZM16.951 30.3688V14.3761C16.951 14.3761 16.951 11.1776 20.2354 11.309C23.5197 11.4405 23.7601 15.121 23.7601 15.121V31.4204L16.951 30.3688ZM8.48868 24.7196V34.4467L15.2576 35.4983V26.9981C15.2576 26.9981 14.9773 21.784 11.733 21.6525C8.48867 21.5211 8.48868 24.7196 8.48868 24.7196Z" fill="#518C3C"/>
</svg>
