<svg width="104" height="84" viewBox="0 0 104 84" fill="none" xmlns="http://www.w3.org/2000/svg">
<path d="M9.8268 76.1127L15.5299 83.3865H11.2745L7.76493 78.7856L4.21149 83.3865H0L5.70305 76.1127H9.8268Z" fill="#231815"/>
<path d="M5.70305 76.1565L0 68.8827H4.21149L7.76493 73.4836L11.2745 68.8827H15.5299L9.8268 76.1565H5.70305Z" fill="#231815"/>
<path d="M17.2847 63.7561C17.2847 62.4854 18.3814 61.5652 19.6536 61.5652C20.9697 61.5652 21.9787 62.4854 21.9787 63.7561C21.9787 64.983 20.9697 65.947 19.6536 65.947C18.3814 65.947 17.2847 64.983 17.2847 63.7561ZM17.855 83.3865V68.8828H21.4523V83.3865H17.855Z" fill="#231815"/>
<path d="M39.7021 75.2364V83.3865H36.1048V75.4993C36.1048 73.1769 34.7009 71.9062 33.0778 71.9062C31.4107 71.9062 29.3927 72.8702 29.3927 75.6745V83.3865H25.7954V68.8828H29.3927V71.1613C30.1385 69.3209 32.4197 68.4884 33.9113 68.4884C37.6402 68.5322 39.7021 71.0298 39.7021 75.2364Z" fill="#231815"/>
<path d="M42.8606 76.1127C42.8606 71.5118 46.5456 68.4884 50.7571 68.4884C53.2577 68.4884 55.3196 69.6277 56.6795 71.2927L54.1351 73.3084C53.3893 72.3882 52.161 71.8624 50.8449 71.8624C48.3443 71.8624 46.5018 73.6589 46.5018 76.1127C46.5018 78.5227 48.3004 80.4069 50.8449 80.4069C52.161 80.4069 53.3893 79.8372 54.1351 78.9609L56.6795 80.9765C55.3634 82.6416 53.3016 83.7809 50.7571 83.7809C46.5895 83.7809 42.8606 80.7136 42.8606 76.1127Z" fill="#231815"/>
<path d="M73.9203 77.3834H62.6458C63.0407 79.3991 64.62 80.4945 66.7696 80.4945C68.305 80.4945 69.8405 79.7934 70.674 78.6103L73.0868 80.4507C71.7707 82.554 69.1824 83.737 66.5064 83.737C62.1633 83.737 58.873 80.626 58.873 76.1127C58.873 71.468 62.3388 68.4884 66.5064 68.4884C70.6301 68.4884 73.9203 71.4242 73.9203 75.9813C73.9642 76.4195 73.9203 76.8576 73.9203 77.3834ZM70.3669 74.8858C70.1475 72.914 68.6121 71.7309 66.5502 71.7309C64.62 71.7309 63.0407 72.6949 62.602 74.8858H70.3669Z" fill="#231815"/>
<path d="M87.4322 69.0142L86.7303 72.432C85.8968 71.9938 85.151 71.9062 84.6246 71.9062C82.2556 71.9062 80.9395 74.2723 80.9395 78.3474V83.4303H77.2983V68.9265H80.8957V72.0376C81.6853 69.6276 83.2646 68.576 85.0633 68.576C85.9407 68.5322 86.8619 68.7075 87.4322 69.0142Z" fill="#231815"/>
<path d="M103.927 77.3834H92.6527C93.0475 79.3991 94.6268 80.4945 96.7764 80.4945C98.3119 80.4945 99.8473 79.7934 100.681 78.6103L103.094 80.4507C101.778 82.554 99.1892 83.737 96.5132 83.737C92.1701 83.737 88.8799 80.626 88.8799 76.1127C88.8799 71.468 92.3456 68.4884 96.5132 68.4884C100.637 68.4884 103.927 71.4242 103.927 75.9813C103.971 76.4195 103.971 76.8576 103.927 77.3834ZM100.418 74.8858C100.198 72.914 98.6628 71.7309 96.6009 71.7309C94.6707 71.7309 93.0914 72.6949 92.6527 74.8858H100.418Z" fill="#231815"/>
<path d="M71.1125 41.3652V6.44225C71.1125 6.44225 71.1125 0.745921 76.7717 1.00883C83.3522 1.31555 82.9135 7.80061 82.9135 7.80061V43.2055L71.1125 41.3652Z" fill="#518C3C"/>
<path d="M26.8481 59.8563V53.7656C26.8481 53.7656 26.8481 48.6827 32.5073 48.9456C39.0439 49.2086 38.6052 54.9925 38.6052 54.9925V61.5652L26.8481 59.8563Z" fill="#518C3C"/>
<path d="M56.3726 49.2524V23.7942C56.3726 23.7942 56.3726 18.7113 62.0317 18.9742C68.5683 19.2371 68.1296 25.0211 68.1296 25.0211V50.9175L56.3726 49.2524Z" fill="#518C3C"/>
<path d="M41.6323 55.7374V40.2258C41.6323 40.2258 41.6323 35.1429 47.2915 35.4059C53.8281 35.6688 53.3894 43.8627 53.3894 43.8627V57.4025L41.6323 55.7374Z" fill="#518C3C"/>
</svg>
