<svg width="105" height="28" viewBox="0 0 105 28" fill="none" xmlns="http://www.w3.org/2000/svg">
<path d="M4.39188 2.5C5.50125 2.5 6.36844 2.89583 6.99344 3.6875C7.73823 4.625 8.11063 6.17969 8.11063 8.35156C8.11063 10.5182 7.73563 12.0755 6.98563 13.0234C6.36583 13.8047 5.50125 14.1953 4.39188 14.1953C3.27729 14.1953 2.37886 13.7682 1.69656 12.9141C1.01427 12.0547 0.673126 10.526 0.673126 8.32812C0.673126 6.17188 1.04813 4.61979 1.79813 3.67188C2.41792 2.89062 3.2825 2.5 4.39188 2.5ZM4.39188 4.32031C4.12625 4.32031 3.88927 4.40625 3.68094 4.57812C3.47261 4.74479 3.31115 5.04688 3.19656 5.48438C3.04552 6.05208 2.97 7.00781 2.97 8.35156C2.97 9.69531 3.03771 10.6198 3.17313 11.125C3.30854 11.625 3.47781 11.9583 3.68094 12.125C3.88927 12.2917 4.12625 12.375 4.39188 12.375C4.6575 12.375 4.89448 12.2917 5.10281 12.125C5.31115 11.9531 5.47261 11.6484 5.58719 11.2109C5.73823 10.6484 5.81375 9.69531 5.81375 8.35156C5.81375 7.00781 5.74604 6.08594 5.61063 5.58594C5.47521 5.08073 5.30333 4.74479 5.095 4.57812C4.89188 4.40625 4.6575 4.32031 4.39188 4.32031ZM15.6844 14H13.4891V5.72656C12.687 6.47656 11.7417 7.03125 10.6531 7.39062V5.39844C11.226 5.21094 11.8484 4.85677 12.5203 4.33594C13.1922 3.8099 13.6531 3.19792 13.9031 2.5H15.6844V14ZM26.8675 11.9609V14H19.1722C19.2555 13.2292 19.5055 12.5 19.9222 11.8125C20.3389 11.1198 21.1618 10.2031 22.3909 9.0625C23.3805 8.14062 23.9873 7.51562 24.2113 7.1875C24.5133 6.73438 24.6644 6.28646 24.6644 5.84375C24.6644 5.35417 24.5316 4.97917 24.2659 4.71875C24.0055 4.45312 23.6435 4.32031 23.18 4.32031C22.7217 4.32031 22.3571 4.45833 22.0863 4.73438C21.8154 5.01042 21.6592 5.46875 21.6175 6.10938L19.43 5.89062C19.5602 4.68229 19.9691 3.8151 20.6566 3.28906C21.3441 2.76302 22.2034 2.5 23.2347 2.5C24.3649 2.5 25.2529 2.80469 25.8988 3.41406C26.5446 4.02344 26.8675 4.78125 26.8675 5.6875C26.8675 6.20312 26.7738 6.69531 26.5863 7.16406C26.404 7.6276 26.1123 8.11458 25.7113 8.625C25.4456 8.96354 24.9665 9.45052 24.2738 10.0859C23.581 10.7214 23.1409 11.1432 22.9534 11.3516C22.7711 11.5599 22.6227 11.763 22.5081 11.9609H26.8675ZM32.5506 2.5C33.66 2.5 34.5272 2.89583 35.1522 3.6875C35.897 4.625 36.2694 6.17969 36.2694 8.35156C36.2694 10.5182 35.8944 12.0755 35.1444 13.0234C34.5246 13.8047 33.66 14.1953 32.5506 14.1953C31.436 14.1953 30.5376 13.7682 29.8553 12.9141C29.173 12.0547 28.8319 10.526 28.8319 8.32812C28.8319 6.17188 29.2069 4.61979 29.9569 3.67188C30.5767 2.89062 31.4413 2.5 32.5506 2.5ZM32.5506 4.32031C32.285 4.32031 32.048 4.40625 31.8397 4.57812C31.6314 4.74479 31.4699 5.04688 31.3553 5.48438C31.2043 6.05208 31.1288 7.00781 31.1288 8.35156C31.1288 9.69531 31.1965 10.6198 31.3319 11.125C31.4673 11.625 31.6366 11.9583 31.8397 12.125C32.048 12.2917 32.285 12.375 32.5506 12.375C32.8163 12.375 33.0532 12.2917 33.2616 12.125C33.4699 11.9531 33.6314 11.6484 33.7459 11.2109C33.897 10.6484 33.9725 9.69531 33.9725 8.35156C33.9725 7.00781 33.9048 6.08594 33.7694 5.58594C33.634 5.08073 33.4621 4.74479 33.2538 4.57812C33.0506 4.40625 32.8163 4.32031 32.5506 4.32031ZM38.4447 10.9453V8.75H42.7572V10.9453H38.4447ZM51.4716 5.35156L49.3466 5.58594C49.2945 5.14844 49.1591 4.82552 48.9403 4.61719C48.7216 4.40885 48.4377 4.30469 48.0888 4.30469C47.6252 4.30469 47.232 4.51302 46.9091 4.92969C46.5914 5.34635 46.3908 6.21354 46.3075 7.53125C46.8544 6.88542 47.5341 6.5625 48.3466 6.5625C49.2632 6.5625 50.0471 6.91146 50.6981 7.60938C51.3544 8.30729 51.6825 9.20833 51.6825 10.3125C51.6825 11.4844 51.3388 12.4245 50.6513 13.1328C49.9638 13.8411 49.0809 14.1953 48.0028 14.1953C46.8466 14.1953 45.896 13.7474 45.1513 12.8516C44.4065 11.9505 44.0341 10.4766 44.0341 8.42969C44.0341 6.33073 44.4221 4.81771 45.1981 3.89062C45.9742 2.96354 46.982 2.5 48.2216 2.5C49.0914 2.5 49.8101 2.74479 50.3778 3.23438C50.9507 3.71875 51.3153 4.42448 51.4716 5.35156ZM46.495 10.1406C46.495 10.8542 46.6591 11.4062 46.9872 11.7969C47.3153 12.1823 47.6903 12.375 48.1122 12.375C48.5184 12.375 48.857 12.2161 49.1278 11.8984C49.3986 11.5807 49.5341 11.0599 49.5341 10.3359C49.5341 9.59115 49.3882 9.04688 49.0966 8.70312C48.8049 8.35417 48.4403 8.17969 48.0028 8.17969C47.5809 8.17969 47.2242 8.34635 46.9325 8.67969C46.6408 9.00781 46.495 9.49479 46.495 10.1406ZM55.3031 7.82031C54.7354 7.58073 54.3214 7.2526 54.0609 6.83594C53.8057 6.41406 53.6781 5.95312 53.6781 5.45312C53.6781 4.59896 53.975 3.89323 54.5688 3.33594C55.1677 2.77865 56.0167 2.5 57.1156 2.5C58.2042 2.5 59.0479 2.77865 59.6469 3.33594C60.251 3.89323 60.5531 4.59896 60.5531 5.45312C60.5531 5.98438 60.4151 6.45833 60.1391 6.875C59.863 7.28646 59.475 7.60156 58.975 7.82031C59.6104 8.07552 60.0922 8.44792 60.4203 8.9375C60.7536 9.42708 60.9203 9.99219 60.9203 10.6328C60.9203 11.6901 60.5818 12.5495 59.9047 13.2109C59.2328 13.8724 58.337 14.2031 57.2172 14.2031C56.1755 14.2031 55.3083 13.9297 54.6156 13.3828C53.7979 12.737 53.3891 11.8516 53.3891 10.7266C53.3891 10.1068 53.5427 9.53906 53.85 9.02344C54.1573 8.5026 54.6417 8.10156 55.3031 7.82031ZM55.7563 5.60938C55.7563 6.04688 55.8786 6.38802 56.1234 6.63281C56.3734 6.8776 56.7042 7 57.1156 7C57.5323 7 57.8656 6.8776 58.1156 6.63281C58.3656 6.38281 58.4906 6.03906 58.4906 5.60156C58.4906 5.1901 58.3656 4.86198 58.1156 4.61719C57.8708 4.36719 57.5453 4.24219 57.1391 4.24219C56.7172 4.24219 56.3813 4.36719 56.1313 4.61719C55.8813 4.86719 55.7563 5.19792 55.7563 5.60938ZM55.5531 10.5156C55.5531 11.1198 55.7068 11.5911 56.0141 11.9297C56.3266 12.2682 56.7146 12.4375 57.1781 12.4375C57.6313 12.4375 58.0063 12.276 58.3031 11.9531C58.6 11.625 58.7484 11.1536 58.7484 10.5391C58.7484 10.0026 58.5974 9.57292 58.2953 9.25C57.9932 8.92188 57.6104 8.75781 57.1469 8.75781C56.6104 8.75781 56.2094 8.94271 55.9438 9.3125C55.6833 9.68229 55.5531 10.0833 55.5531 10.5156ZM67.1113 14V11.6953H62.4238V9.77344L67.3925 2.5H69.2363V9.76562H70.6581V11.6953H69.2363V14H67.1113ZM67.1113 9.76562V5.85156L64.4784 9.76562H67.1113ZM72.4116 10.9453V8.75H76.7241V10.9453H72.4116ZM78.0322 11.0547L80.2197 10.8281C80.2822 11.3229 80.4671 11.7161 80.7744 12.0078C81.0817 12.2943 81.4358 12.4375 81.8369 12.4375C82.2952 12.4375 82.6832 12.2526 83.0009 11.8828C83.3186 11.5078 83.4775 10.9453 83.4775 10.1953C83.4775 9.49219 83.3186 8.96615 83.0009 8.61719C82.6884 8.26302 82.2796 8.08594 81.7744 8.08594C81.1442 8.08594 80.5791 8.36458 80.0791 8.92188L78.2978 8.66406L79.4228 2.70312H85.2275V4.75781H81.0869L80.7431 6.70312C81.2327 6.45833 81.7327 6.33594 82.2431 6.33594C83.2171 6.33594 84.0426 6.6901 84.7197 7.39844C85.3968 8.10677 85.7353 9.02604 85.7353 10.1562C85.7353 11.099 85.4619 11.9401 84.915 12.6797C84.1702 13.6901 83.1364 14.1953 81.8134 14.1953C80.7561 14.1953 79.8942 13.9115 79.2275 13.3438C78.5608 12.776 78.1624 12.013 78.0322 11.0547ZM94.8013 11.9609V14H87.1059C87.1893 13.2292 87.4393 12.5 87.8559 11.8125C88.2726 11.1198 89.0955 10.2031 90.3247 9.0625C91.3143 8.14062 91.921 7.51562 92.145 7.1875C92.4471 6.73438 92.5981 6.28646 92.5981 5.84375C92.5981 5.35417 92.4653 4.97917 92.1997 4.71875C91.9393 4.45312 91.5773 4.32031 91.1138 4.32031C90.6554 4.32031 90.2908 4.45833 90.02 4.73438C89.7492 5.01042 89.5929 5.46875 89.5513 6.10938L87.3638 5.89062C87.494 4.68229 87.9028 3.8151 88.5903 3.28906C89.2778 2.76302 90.1372 2.5 91.1684 2.5C92.2987 2.5 93.1867 2.80469 93.8325 3.41406C94.4783 4.02344 94.8013 4.78125 94.8013 5.6875C94.8013 6.20312 94.7075 6.69531 94.52 7.16406C94.3377 7.6276 94.046 8.11458 93.645 8.625C93.3794 8.96354 92.9002 9.45052 92.2075 10.0859C91.5148 10.7214 91.0747 11.1432 90.8872 11.3516C90.7049 11.5599 90.5565 11.763 90.4419 11.9609H94.8013ZM100.484 2.5C101.594 2.5 102.461 2.89583 103.086 3.6875C103.831 4.625 104.203 6.17969 104.203 8.35156C104.203 10.5182 103.828 12.0755 103.078 13.0234C102.458 13.8047 101.594 14.1953 100.484 14.1953C99.3698 14.1953 98.4714 13.7682 97.7891 12.9141C97.1068 12.0547 96.7656 10.526 96.7656 8.32812C96.7656 6.17188 97.1406 4.61979 97.8906 3.67188C98.5104 2.89062 99.375 2.5 100.484 2.5ZM100.484 4.32031C100.219 4.32031 99.9818 4.40625 99.7734 4.57812C99.5651 4.74479 99.4036 5.04688 99.2891 5.48438C99.138 6.05208 99.0625 7.00781 99.0625 8.35156C99.0625 9.69531 99.1302 10.6198 99.2656 11.125C99.401 11.625 99.5703 11.9583 99.7734 12.125C99.9818 12.2917 100.219 12.375 100.484 12.375C100.75 12.375 100.987 12.2917 101.195 12.125C101.404 11.9531 101.565 11.6484 101.68 11.2109C101.831 10.6484 101.906 9.69531 101.906 8.35156C101.906 7.00781 101.839 6.08594 101.703 5.58594C101.568 5.08073 101.396 4.74479 101.188 4.57812C100.984 4.40625 100.75 4.32031 100.484 4.32031Z" fill="#4F4F4F"/>
<path d="M3.02313 24.59H2.26313C1.82313 24.59 1.54313 24.57 1.25313 24.53V25.25C1.54313 25.21 1.85313 25.19 2.26313 25.19H5.87313V26.84C5.87313 27.3 5.86313 27.52 5.81313 27.77H6.60313C6.55313 27.51 6.53313 27.27 6.53313 26.84V25.19H9.05313C9.46313 25.19 9.77313 25.21 10.0631 25.25V24.53C9.78313 24.57 9.50313 24.59 9.05313 24.59H6.53313V22.63H8.35313C8.73313 22.63 8.97313 22.64 9.23313 22.67V22.01C8.97313 22.05 8.75313 22.06 8.34313 22.06H6.53313V20.43H8.79313C9.20313 20.43 9.44313 20.44 9.69313 20.48V19.8C9.44313 19.84 9.23313 19.85 8.79313 19.85H3.83313L4.21313 19.04C4.27313 18.92 4.30313 18.85 4.34313 18.77L3.63313 18.57C3.58313 18.78 3.51313 19.01 3.38313 19.3C2.91313 20.42 2.37313 21.15 1.38313 21.99C1.60313 22.14 1.70313 22.24 1.86313 22.47C2.53313 21.87 3.01313 21.28 3.52313 20.43H5.87313V22.06H3.70313C3.42313 22.06 3.20312 22.05 2.99313 22.03C3.01313 22.23 3.02313 22.4 3.02313 22.62V24.59ZM3.67313 24.59V22.63H5.87313V24.59H3.67313ZM15.2931 20.56H12.5131C12.1931 20.56 12.0031 20.55 11.7631 20.52C11.7931 20.78 11.8131 21 11.8131 21.31V24.04C11.8131 24.36 11.7931 24.64 11.7531 24.93H12.4731V24.25H15.2931V26.58C15.2931 27.12 15.2731 27.38 15.2231 27.72H16.0231C15.9631 27.4 15.9531 27.15 15.9531 26.58V24.25H18.9331V24.93H19.6531C19.6131 24.63 19.5931 24.37 19.5931 24.04V21.31C19.5931 20.99 19.6031 20.78 19.6431 20.52C19.4131 20.55 19.2231 20.56 18.8831 20.56H15.9531V19.68C15.9531 19.25 15.9731 18.97 16.0231 18.66H15.2231C15.2731 18.97 15.2931 19.21 15.2931 19.7V20.56ZM15.2931 21.16V23.65H12.4731V21.16H15.2931ZM15.9531 23.65V21.16H18.9331V23.65H15.9531ZM22.7931 22.06H22.2731C21.8431 22.06 21.5731 22.04 21.3031 22V22.69C21.6131 22.65 21.8631 22.63 22.2731 22.63H22.7931V24.44H22.5231C22.1031 24.44 21.8131 24.42 21.5531 24.38V25.06C21.8431 25.02 22.1131 25 22.4931 25H29.0131C29.4131 25 29.6931 25.02 29.9731 25.06V24.38C29.7131 24.42 29.4431 24.44 29.0031 24.44H28.6631V22.63H29.2031C29.6231 22.63 29.8931 22.65 30.1831 22.69V22C29.9131 22.04 29.6431 22.06 29.2031 22.06H28.6631V20.27C29.0931 20.27 29.4031 20.29 29.7731 20.32V19.65C29.4831 19.69 29.1531 19.71 28.5131 19.71H23.4031C23.6131 19.39 23.7031 19.25 23.9331 18.84C24.0031 18.73 24.0231 18.69 24.0831 18.6L23.3831 18.43C23.3431 18.6 23.2831 18.75 23.1831 18.96C22.7631 19.8 22.2431 20.4 21.2431 21.19C21.4531 21.31 21.5831 21.43 21.7231 21.61C22.2031 21.19 22.4231 20.96 22.7931 20.5V22.06ZM23.3731 20.27H24.5631V22.06H23.3731V20.27ZM23.3731 22.63H24.5631V24.44H23.3731V22.63ZM25.1131 24.44V22.63H26.2931V24.44H25.1131ZM25.1131 22.06V20.27H26.2931V22.06H25.1131ZM26.8431 24.44V22.63H28.0831V24.44H26.8431ZM26.8431 22.06V20.27H28.0831V22.06H26.8431ZM30.0331 27.21C29.6431 26.47 29.3331 26.01 28.7631 25.33L28.2531 25.6C28.8231 26.3 29.1031 26.75 29.4731 27.57L30.0331 27.21ZM27.2531 27.41C27.0431 26.44 26.9331 26.07 26.6531 25.41L26.1131 25.57C26.3931 26.29 26.4631 26.59 26.6331 27.58L27.2531 27.41ZM24.9731 27.51C24.9231 26.7 24.8531 26.21 24.6731 25.45L24.1131 25.54C24.2531 26.21 24.3331 26.88 24.3431 27.61L24.9731 27.51ZM21.9031 27.63C22.4931 26.99 22.7831 26.53 23.1831 25.61L22.6431 25.31C22.3131 26.17 22.0131 26.61 21.3831 27.19L21.9031 27.63ZM36.2231 21.48C35.8231 22.35 35.6231 22.72 35.2731 23.24C34.6431 24.2 34.0231 24.87 33.1831 25.54C33.3831 25.7 33.4931 25.81 33.6631 26.06C34.3731 25.45 34.8731 24.9 35.3831 24.14C35.8431 23.45 36.1131 22.91 36.4331 22.05C36.4131 22.39 36.4131 22.78 36.4131 23.18V26.69C36.4131 27.04 36.3831 27.39 36.3331 27.72H37.1131C37.0631 27.4 37.0431 27.08 37.0431 26.69V23.14C37.0431 22.7 37.0331 22.4 37.0131 22.01C37.5231 23.24 37.9131 23.92 38.6131 24.78C39.0231 25.28 39.3331 25.59 39.9031 26.08C40.0731 25.86 40.2231 25.71 40.4431 25.55C39.1031 24.56 38.2431 23.47 37.2431 21.48H39.1831C39.5831 21.48 39.9131 21.5 40.2031 21.54V20.82C39.9131 20.86 39.5931 20.88 39.1731 20.88H37.0531V19.77C37.0531 19.41 37.0731 19.13 37.1131 18.79H36.3431C36.3831 19.11 36.4131 19.42 36.4131 19.77V20.88H34.5931C34.1831 20.88 33.8831 20.86 33.5931 20.82V21.54C33.8731 21.5 34.2131 21.48 34.5931 21.48H36.2231ZM32.3031 26.52C32.3031 27.03 32.2831 27.34 32.2431 27.72H32.9931C32.9531 27.36 32.9431 27.01 32.9431 26.55V21.14C33.2131 20.61 33.4131 20.15 33.5631 19.75C33.6731 19.45 33.8031 19.13 33.9331 18.79L33.2231 18.57C33.1231 19.12 32.9531 19.63 32.6731 20.26C32.2131 21.27 31.6431 22.12 30.8431 22.97C31.0531 23.19 31.1131 23.27 31.2531 23.54C31.7431 22.99 31.9931 22.63 32.3331 22.02C32.3031 22.49 32.3031 22.78 32.3031 23.24V26.52ZM45.6432 20.08C45.9332 20.04 46.1932 20.02 46.5132 20.02H47.0532V25.81C47.0532 26.27 47.0332 26.59 46.9732 26.94H47.9232C47.8632 26.57 47.8432 26.28 47.8432 25.81V20.95C47.8432 20.41 47.8732 19.9 47.9332 19.29C47.6032 19.33 47.4432 19.34 47.1032 19.34H46.4732C46.0932 19.34 45.9032 19.33 45.6432 19.29V20.08ZM53.8855 27.09C54.8055 27.09 55.5055 26.74 56.0055 26.04C56.4455 25.43 56.7055 24.36 56.7055 23.15C56.7055 22.32 56.5755 21.52 56.3255 20.83C56.2055 20.5 56.0055 20.19 55.7255 19.91C55.2755 19.44 54.6355 19.2 53.8955 19.2C52.9055 19.2 52.1355 19.62 51.6555 20.43C51.3055 21.01 51.0755 22.09 51.0755 23.15C51.0755 23.97 51.2055 24.76 51.4555 25.46C51.5755 25.8 51.7855 26.11 52.0555 26.38C52.5255 26.85 53.1455 27.09 53.8855 27.09ZM53.8855 19.89C54.5855 19.89 55.1255 20.2 55.4555 20.8C55.7155 21.27 55.9055 22.26 55.9055 23.13C55.9055 23.87 55.8055 24.53 55.5955 25.15C55.5055 25.44 55.3455 25.7 55.1255 25.93C54.8255 26.24 54.3955 26.4 53.8955 26.4C53.2155 26.4 52.6955 26.11 52.3455 25.53C52.0755 25.06 51.8755 24.08 51.8755 23.15C51.8755 22.42 51.9755 21.74 52.1855 21.13C52.2655 20.88 52.4255 20.63 52.6355 20.4C52.9555 20.06 53.3655 19.89 53.8855 19.89ZM58.8677 21.55H57.8777V22.54H58.8677V21.55ZM58.8677 26.94V25.95H57.8777V26.94H58.8677ZM62.8601 27.09C63.7801 27.09 64.4801 26.74 64.9801 26.04C65.4201 25.43 65.6801 24.36 65.6801 23.15C65.6801 22.32 65.5501 21.52 65.3001 20.83C65.1801 20.5 64.9801 20.19 64.7001 19.91C64.2501 19.44 63.6101 19.2 62.8701 19.2C61.8801 19.2 61.1101 19.62 60.6301 20.43C60.2801 21.01 60.0501 22.09 60.0501 23.15C60.0501 23.97 60.1801 24.76 60.4301 25.46C60.5501 25.8 60.7601 26.11 61.0301 26.38C61.5001 26.85 62.1201 27.09 62.8601 27.09ZM62.8601 19.89C63.5601 19.89 64.1001 20.2 64.4301 20.8C64.6901 21.27 64.8801 22.26 64.8801 23.13C64.8801 23.87 64.7801 24.53 64.5701 25.15C64.4801 25.44 64.3201 25.7 64.1001 25.93C63.8001 26.24 63.3701 26.4 62.8701 26.4C62.1901 26.4 61.6701 26.11 61.3201 25.53C61.0501 25.06 60.8501 24.08 60.8501 23.15C60.8501 22.42 60.9501 21.74 61.1601 21.13C61.2401 20.88 61.4001 20.63 61.6101 20.4C61.9301 20.06 62.3401 19.89 62.8601 19.89ZM69.4323 27.09C70.3523 27.09 71.0523 26.74 71.5523 26.04C71.9923 25.43 72.2523 24.36 72.2523 23.15C72.2523 22.32 72.1223 21.52 71.8723 20.83C71.7523 20.5 71.5523 20.19 71.2723 19.91C70.8223 19.44 70.1823 19.2 69.4423 19.2C68.4523 19.2 67.6823 19.62 67.2023 20.43C66.8523 21.01 66.6223 22.09 66.6223 23.15C66.6223 23.97 66.7523 24.76 67.0023 25.46C67.1223 25.8 67.3323 26.11 67.6023 26.38C68.0723 26.85 68.6923 27.09 69.4323 27.09ZM69.4323 19.89C70.1323 19.89 70.6723 20.2 71.0023 20.8C71.2623 21.27 71.4523 22.26 71.4523 23.13C71.4523 23.87 71.3523 24.53 71.1423 25.15C71.0523 25.44 70.8923 25.7 70.6723 25.93C70.3723 26.24 69.9423 26.4 69.4423 26.4C68.7623 26.4 68.2423 26.11 67.8923 25.53C67.6223 25.06 67.4223 24.08 67.4223 23.15C67.4223 22.42 67.5223 21.74 67.7323 21.13C67.8123 20.88 67.9723 20.63 68.1823 20.4C68.5023 20.06 68.9123 19.89 69.4323 19.89ZM73.0046 24.45C73.2846 24.41 73.5146 24.4 73.9146 24.4H75.1046C75.5246 24.4 75.7446 24.41 76.0246 24.45V23.61C75.7446 23.65 75.5346 23.66 75.1046 23.66H73.9146C73.4946 23.66 73.2846 23.65 73.0046 23.61V24.45ZM77.9186 20.08C78.2086 20.04 78.4686 20.02 78.7886 20.02H79.3286V25.81C79.3286 26.27 79.3086 26.59 79.2486 26.94H80.1986C80.1386 26.57 80.1186 26.28 80.1186 25.81V20.95C80.1186 20.41 80.1486 19.9 80.2086 19.29C79.8786 19.33 79.7186 19.34 79.3786 19.34H78.7486C78.3686 19.34 78.1786 19.33 77.9186 19.29V20.08ZM83.5309 25.54C83.7909 26.07 83.9509 26.3 84.2309 26.53C84.6609 26.89 85.2209 27.07 85.9109 27.07C86.8309 27.07 87.4909 26.77 87.9909 26.14C88.5309 25.47 88.8209 24.34 88.8209 22.95C88.8209 22.09 88.7309 21.41 88.5309 20.87C88.1509 19.83 87.2309 19.19 86.1109 19.19C84.4709 19.19 83.4009 20.23 83.4009 21.82C83.4009 22.53 83.6509 23.19 84.0809 23.62C84.5109 24.05 85.1409 24.28 85.8809 24.28C86.6309 24.28 87.1909 24.06 87.7009 23.58C87.8809 23.39 87.9609 23.29 88.1009 23.02C88.0809 23.53 88.0509 23.94 88.0109 24.19C87.9309 24.66 87.7709 25.15 87.5809 25.47C87.2109 26.1 86.6909 26.39 85.9709 26.39C85.4209 26.39 84.9909 26.23 84.7109 25.92C84.5509 25.75 84.4709 25.61 84.3509 25.28L83.5309 25.54ZM85.9709 23.61C84.8809 23.61 84.1909 22.9 84.1909 21.77C84.1909 21.38 84.2909 20.98 84.4509 20.72C84.7809 20.19 85.3809 19.87 86.0409 19.87C87.1109 19.87 87.9109 20.68 87.9109 21.76C87.9109 22.82 87.0809 23.61 85.9709 23.61ZM91.1431 21.55H90.1531V22.54H91.1431V21.55ZM91.1431 26.94V25.95H90.1531V26.94H91.1431ZM95.1355 27.09C96.0555 27.09 96.7555 26.74 97.2555 26.04C97.6955 25.43 97.9555 24.36 97.9555 23.15C97.9555 22.32 97.8255 21.52 97.5755 20.83C97.4555 20.5 97.2555 20.19 96.9755 19.91C96.5255 19.44 95.8855 19.2 95.1455 19.2C94.1555 19.2 93.3855 19.62 92.9055 20.43C92.5555 21.01 92.3255 22.09 92.3255 23.15C92.3255 23.97 92.4555 24.76 92.7055 25.46C92.8255 25.8 93.0355 26.11 93.3055 26.38C93.7755 26.85 94.3955 27.09 95.1355 27.09ZM95.1355 19.89C95.8355 19.89 96.3755 20.2 96.7055 20.8C96.9655 21.27 97.1555 22.26 97.1555 23.13C97.1555 23.87 97.0555 24.53 96.8455 25.15C96.7555 25.44 96.5955 25.7 96.3755 25.93C96.0755 26.24 95.6455 26.4 95.1455 26.4C94.4655 26.4 93.9455 26.11 93.5955 25.53C93.3255 25.06 93.1255 24.08 93.1255 23.15C93.1255 22.42 93.2255 21.74 93.4355 21.13C93.5155 20.88 93.6755 20.63 93.8855 20.4C94.2055 20.06 94.6155 19.89 95.1355 19.89ZM101.708 27.09C102.628 27.09 103.328 26.74 103.828 26.04C104.268 25.43 104.528 24.36 104.528 23.15C104.528 22.32 104.398 21.52 104.148 20.83C104.028 20.5 103.828 20.19 103.548 19.91C103.098 19.44 102.458 19.2 101.718 19.2C100.728 19.2 99.9577 19.62 99.4777 20.43C99.1277 21.01 98.8977 22.09 98.8977 23.15C98.8977 23.97 99.0277 24.76 99.2777 25.46C99.3977 25.8 99.6077 26.11 99.8777 26.38C100.348 26.85 100.968 27.09 101.708 27.09ZM101.708 19.89C102.408 19.89 102.948 20.2 103.278 20.8C103.538 21.27 103.728 22.26 103.728 23.13C103.728 23.87 103.628 24.53 103.418 25.15C103.328 25.44 103.168 25.7 102.948 25.93C102.648 26.24 102.218 26.4 101.718 26.4C101.038 26.4 100.518 26.11 100.168 25.53C99.8977 25.06 99.6977 24.08 99.6977 23.15C99.6977 22.42 99.7977 21.74 100.008 21.13C100.088 20.88 100.248 20.63 100.458 20.4C100.778 20.06 101.188 19.89 101.708 19.89Z" fill="#4F4F4F"/>
</svg>
