<svg width="464" height="550" viewBox="0 0 464 550" fill="none" xmlns="http://www.w3.org/2000/svg">
<path d="M366.485 366.194V49.3242C366.485 49.3242 366.485 -2.4354 413.8 0.0894579C461.115 2.61432 464 61.9485 464 61.9485V383.237L366.485 366.194Z" fill="#C1E2AB"/>
<path d="M0 534.156V478.61C0 478.61 0 432.531 46.7379 434.424C93.4758 436.318 97.5149 489.34 97.5149 489.34V549.306L0 534.156Z" fill="#C1E2AB"/>
<path d="M244.193 437.501V207.107C244.193 207.107 244.193 161.028 291.508 162.922C338.823 164.816 342.285 217.838 342.285 217.838V452.65L244.193 437.501Z" fill="#C1E2AB"/>
<path d="M122.297 496.247V356.117C122.297 356.117 122.297 310.038 169.035 311.932C215.773 313.825 219.812 388.94 219.812 388.94V511.396L122.297 496.247Z" fill="#C1E2AB"/>
</svg>
